<?xml version="1.0" encoding="UTF-8"?>
<svg width="60px" height="60px" viewBox="0 0 60 60" version="1.1" xmlns="http://www.w3.org/2000/svg" xmlns:xlink="http://www.w3.org/1999/xlink">
    <title>Slice 1</title>
    <defs>
        <filter id="filter-1">
            <feColorMatrix in="SourceGraphic" type="matrix" values="0 0 0 0 0.968627 0 0 0 0 0.482353 0 0 0 0 0.258824 0 0 0 1.000000 0"></feColorMatrix>
        </filter>
    </defs>
    <g id="Page-1" stroke="none" stroke-width="1" fill="none" fill-rule="evenodd">
        <ellipse id="bg" fill="#FFFFFF" fill-rule="nonzero" cx="30" cy="29.6666667" rx="30" ry="29.6666667"></ellipse>
        <g filter="url(#filter-1)" id="example">
            <g transform="translate(16.000000, 14.000000)">
                <path d="M28.87,9.41329142 L28.87,29.0935146 C28.87,29.5128893 28.5281184,29.8532514 28.11938,29.8532514 L0.75062,29.8532514 C0.335803684,29.8532514 0,29.5113698 0,29.1011119 L0,1.40110668 C0,0.986290368 0.326686842,0.650486684 0.747581053,0.650486684 L20.6207774,0.650486684 C20.1618963,1.53178142 19.8792742,2.51791984 19.8792742,3.57851247 C19.8792742,3.61649932 19.8899105,3.65144721 19.8899105,3.68943405 L3.03894737,3.68943405 L3.03894737,26.8143041 L25.8310526,26.8143041 L25.8310526,9.92991247 C25.9799611,9.93902932 26.1227916,9.97397721 26.2732195,9.97397721 C27.2000984,9.97397721 28.0753153,9.76732879 28.87,9.41329142 L28.87,9.41329142 Z" id="path-1-path" fill="#000000" fill-rule="nonzero"></path>
                <path d="M23.3239211,9.23399353 L23.3239211,9.53029089 C23.3239211,10.3629625 22.6295216,11.0360893 21.7922916,11.0360893 L6.84978737,11.0360893 C6.00344053,11.0360893 5.31815789,10.3508067 5.31815789,9.53029089 L5.31815789,7.80720774 C5.31815789,6.97453616 6.01255737,6.30140932 6.84978737,6.30140932 L20.4946611,6.30140932 C21.0918142,7.56561142 22.0885889,8.58821721 23.3239211,9.23399353 L23.3239211,9.23399353 Z" id="path-1-path" fill="#000000" fill-rule="nonzero"></path>
                <path d="M22.98052,14.9821625 C23.2335124,14.9821625 23.4378816,14.5673462 23.4378816,14.0552835 C23.4378816,13.5432209 23.2335124,13.1268851 22.98052,13.1268851 L14.7784011,13.1268851 C14.5254087,13.1268851 14.3210395,13.5432209 14.3210395,14.0552835 C14.3210395,14.5673462 14.5254087,14.9821625 14.7784011,14.9821625 L22.98052,14.9821625 Z" id="path-1-path" fill="#000000" fill-rule="nonzero"></path>
                <path d="M22.9808854,19.1971825 C23.2332335,19.1971825 23.4378816,18.7869246 23.4378816,18.2809398 C23.4378816,17.7749551 23.2332335,17.3646972 22.9808854,17.3646972 L14.7780356,17.3646972 C14.5256876,17.3646972 14.3210395,17.7749551 14.3210395,18.2809398 C14.3210395,18.7869246 14.5256876,19.1971825 14.7780356,19.1971825 L22.9808854,19.1971825 Z" id="path-1-path" fill="#000000" fill-rule="nonzero"></path>
                <path d="M19.9390272,23.5656693 C20.1929826,23.5656693 20.3989342,23.1554114 20.3989342,22.6494267 C20.3989342,22.1434419 20.1929826,21.7331841 19.9390272,21.7331841 L14.7809464,21.7331841 C14.5269911,21.7331841 14.3210395,22.1434419 14.3210395,22.6494267 C14.3210395,23.1554114 14.5269911,23.5656693 14.7809464,23.5656693 L19.9390272,23.5656693 Z" id="path-1-path" fill="#000000" fill-rule="nonzero"></path>
                <path d="M25.6473436,6.00878707 C25.4985898,6.16122784 25.2927498,6.25572986 25.0652279,6.25572986 C24.8379805,6.25572986 24.6321405,6.16122784 24.4831123,6.00878707 L22.6534814,4.52544557 C22.5044532,4.37272353 22.4122368,4.1617815 22.4122368,3.92862024 C22.4122368,3.46257896 22.7808277,3.0848521 23.2355969,3.0848521 C23.4631188,3.0848521 23.6686845,3.17935412 23.8177126,3.33207616 L25.0652279,4.21887358 L27.3688149,1.61475038 C27.517843,1.46202835 27.7236831,1.36752632 27.9509305,1.36752632 C28.4056997,1.36752632 28.7742906,1.74525319 28.7742906,2.21129446 C28.7742906,2.44417447 28.6820742,2.65539775 28.5333205,2.80811979 L25.6473436,6.00878707 Z" id="Fill-3-Copy-4" fill="#212121" fill-rule="nonzero"></path>
                <rect id="Rectangle" fill="#212121" fill-rule="nonzero" x="5.31815789" y="12.9155263" width="7.2175" height="10.6363158" rx="1"></rect>
            </g>
        </g>
    </g>
</svg>