<?xml version="1.0" encoding="UTF-8"?>
<svg width="60px" height="60px" viewBox="0 0 60 60" version="1.1" xmlns="http://www.w3.org/2000/svg" xmlns:xlink="http://www.w3.org/1999/xlink">
    <title>Example icon</title>
    <g id="Page-1" stroke="none" stroke-width="1">
        <ellipse id="bg" fill="#FFFFFF" fill-rule="nonzero" cx="30" cy="29.6666667" rx="30" ry="29.6666667"></ellipse>
        <path d="M44.87,23.4132914 L44.87,43.0935146 C44.87,43.5128893 44.5281184,43.8532514 44.11938,43.8532514 L16.75062,43.8532514 C16.3358037,43.8532514 16,43.5113698 16,43.1011119 L16,15.4011067 C16,14.9862904 16.3266868,14.6504867 16.7475811,14.6504867 L36.6207774,14.6504867 C36.1618963,15.5317814 35.8792742,16.5179198 35.8792742,17.5785125 C35.8792742,17.6164993 35.8899105,17.6514472 35.8899105,17.689434 L19.0389474,17.689434 L19.0389474,40.8143041 L41.8310526,40.8143041 L41.8310526,23.9299125 C41.9799611,23.9390293 42.1227916,23.9739772 42.2732195,23.9739772 C43.2000984,23.9739772 44.0753153,23.7673288 44.87,23.4132914 L44.87,23.4132914 Z" id="path-1-path" fill="#F77B42" fill-rule="nonzero"></path>
        <path d="M39.3239211,23.2339935 L39.3239211,23.5302909 C39.3239211,24.3629625 38.6295216,25.0360893 37.7922916,25.0360893 L22.8497874,25.0360893 C22.0034405,25.0360893 21.3181579,24.3508067 21.3181579,23.5302909 L21.3181579,21.8072077 C21.3181579,20.9745362 22.0125574,20.3014093 22.8497874,20.3014093 L36.4946611,20.3014093 C37.0918142,21.5656114 38.0885889,22.5882172 39.3239211,23.2339935 L39.3239211,23.2339935 Z" id="path-1-path" fill="#F77B42" fill-rule="nonzero"></path>
        <path d="M38.98052,28.9821625 C39.2335124,28.9821625 39.4378816,28.5673462 39.4378816,28.0552835 C39.4378816,27.5432209 39.2335124,27.1268851 38.98052,27.1268851 L30.7784011,27.1268851 C30.5254087,27.1268851 30.3210395,27.5432209 30.3210395,28.0552835 C30.3210395,28.5673462 30.5254087,28.9821625 30.7784011,28.9821625 L38.98052,28.9821625 Z" id="path-1-path" fill="#F77B42" fill-rule="nonzero"></path>
        <path d="M38.9808854,33.1971825 C39.2332335,33.1971825 39.4378816,32.7869246 39.4378816,32.2809398 C39.4378816,31.7749551 39.2332335,31.3646972 38.9808854,31.3646972 L30.7780356,31.3646972 C30.5256876,31.3646972 30.3210395,31.7749551 30.3210395,32.2809398 C30.3210395,32.7869246 30.5256876,33.1971825 30.7780356,33.1971825 L38.9808854,33.1971825 Z" id="path-1-path" fill="#F77B42" fill-rule="nonzero"></path>
        <path d="M35.9390272,37.5656693 C36.1929826,37.5656693 36.3989342,37.1554114 36.3989342,36.6494267 C36.3989342,36.1434419 36.1929826,35.7331841 35.9390272,35.7331841 L30.7809464,35.7331841 C30.5269911,35.7331841 30.3210395,36.1434419 30.3210395,36.6494267 C30.3210395,37.1554114 30.5269911,37.5656693 30.7809464,37.5656693 L35.9390272,37.5656693 Z" id="path-1-path" fill="#F77B42" fill-rule="nonzero"></path>
        <path d="M41.6473436,20.0087871 C41.4985898,20.1612278 41.2927498,20.2557299 41.0652279,20.2557299 C40.8379805,20.2557299 40.6321405,20.1612278 40.4831123,20.0087871 L38.6534814,18.5254456 C38.5044532,18.3727235 38.4122368,18.1617815 38.4122368,17.9286202 C38.4122368,17.462579 38.7808277,17.0848521 39.2355969,17.0848521 C39.4631188,17.0848521 39.6686845,17.1793541 39.8177126,17.3320762 L41.0652279,18.2188736 L43.3688149,15.6147504 C43.517843,15.4620283 43.7236831,15.3675263 43.9509305,15.3675263 C44.4056997,15.3675263 44.7742906,15.7452532 44.7742906,16.2112945 C44.7742906,16.4441745 44.6820742,16.6553977 44.5333205,16.8081198 L41.6473436,20.0087871 Z" id="Fill-3-Copy-4" fill="#F77B42" fill-rule="nonzero"></path>
        <rect id="Rectangle" fill="#F77B42" fill-rule="nonzero" x="21.3181579" y="26.9155263" width="7.2175" height="10.6363158" rx="1"></rect>
    </g>
</svg>