<?xml version="1.0" encoding="UTF-8"?>
<svg width="35px" height="35px" viewBox="0 0 35 35" version="1.1" xmlns="http://www.w3.org/2000/svg">
  <g>
    <circle fill="#112E51" cx="17.5" cy="17.5" r="17.5"></circle>
    <path d="M17.5000616,18.1749003 C18.4509215,15.94134 21.0404236,11.7788481 23.4480956,9.72605829 C25.1852924,8.24481747 28,7.09871761 28,10.7456681 C28,11.4740138 27.6323211,16.8641496 27.4166741,17.7392171 C26.6670871,20.7815569 23.9356187,21.5575213 21.5059329,21.0878716 C25.752977,21.908823 26.8333844,24.6281116 24.5001171,27.3474001 C20.068781,32.5118607 18.1309992,26.0516177 17.6342435,24.396268 C17.5432199,24.092803 17.5006264,23.950839 17.5,24.0715555 C17.49937,23.9508349 17.4567801,24.0928026 17.3657565,24.396268 C16.869218,26.0516177 14.9314725,32.5120252 10.4998829,27.3474001 C8.16657937,24.6281116 9.24695062,21.9086585 13.4940671,21.0878716 C11.0643089,21.5575213 8.33280426,20.7815527 7.58332589,17.7392171 C7.36767164,16.8640674 7,11.4739315 7,10.7456681 C7,7.09871761 9.81478005,8.24481747 11.5519044,9.72605829 C13.9596271,11.7788892 16.549274,15.9411755 17.5000616,18.1749003 Z" fill="#FFFFFF"></path>
  </g>
</svg>
