<?xml version="1.0" encoding="UTF-8" standalone="no"?>
<svg width="80px" height="81px" viewBox="0 0 80 81" version="1.1" xmlns="http://www.w3.org/2000/svg" xmlns:xlink="http://www.w3.org/1999/xlink" xmlns:sketch="http://www.bohemiancoding.com/sketch/ns">
    <!-- Generator: Sketch 3.3.3 (12081) - http://www.bohemiancoding.com/sketch -->
    <title>i-contact--neutral</title>
    <desc>Created with Sketch.</desc>
    <defs>
        <ellipse id="path-1" cx="40.9071429" cy="40.1037813" rx="39.6338078" ry="39.9365914"></ellipse>
        <ellipse id="path-3" cx="39.7214286" cy="39.9365914" rx="39.7214286" ry="39.9365914"></ellipse>
    </defs>
    <g id="Page-1" stroke="none" stroke-width="1" fill="none" fill-rule="evenodd" sketch:type="MSPage">
        <g id="Complex" sketch:type="MSArtboardGroup" transform="translate(-488.000000, -81.000000)">
            <g id="i-contact--neutral" sketch:type="MSLayerGroup" transform="translate(487.000000, 81.000000)">
                <mask id="mask-2" sketch:name="Mask" fill="white">
                    <use xlink:href="#path-1"></use>
                </mask>
                <use id="Mask" fill="#CEB59C" sketch:type="MSShapeGroup" xlink:href="#path-1"></use>
                <g id="Imported-Layers" mask="url(#mask-2)">
                    <g transform="translate(1.185714, 0.763258)">
                        <mask id="mask-4" sketch:name="Mask" fill="white">
                            <use xlink:href="#path-3"></use>
                        </mask>
                        <use id="Mask" stroke="none" fill="none" sketch:type="MSShapeGroup" xlink:href="#path-3"></use>
                        <g id="Imported-Layers" stroke="none" stroke-width="1" fill="none" fill-rule="evenodd" sketch:type="MSLayerGroup" mask="url(#mask-4)">
                            <g transform="translate(10.671429, 9.537096)">
                                <path d="M0.357843182,65.1307637 C0.467440909,62.5696217 0.357843182,55.778654 0.357843182,53.5515159 C0.357843182,51.3257138 1.89881364,50.2114768 3.32886591,49.4325796 C4.75891818,48.6536825 18.0743818,41.4164856 18.0743818,41.4164856 L21.2646,39.6355768 L25.9773023,49.209465 L30.2885864,49.209465 L31.1680091,50.2114768 L31.1680091,77.4889086 L0.357843182,77.4889086 L0.357843182,65.1307637" id="Fill-1" fill="#EFDECD" sketch:type="MSShapeGroup"></path>
                                <path d="M57.8253455,65.1307637 C57.7144273,62.5696217 57.8253455,55.778654 57.8253455,53.5515159 C57.8253455,51.3257138 56.284375,50.2114768 54.8543227,49.4325796 C53.42295,48.6536825 40.1088068,41.4164856 40.1088068,41.4164856 L36.9172682,39.6355768 L32.2058864,49.209465 L27.8946023,49.209465 L27.0138591,50.2114768 L27.0138591,77.4889086 L57.8253455,77.4889086 L57.8253455,65.1307637" id="Fill-2" fill="#EFDECD" sketch:type="MSShapeGroup"></path>
                                <g id="Group" stroke-width="1" fill="none" sketch:type="MSLayerGroup" transform="translate(15.414286, 1.192137)">
                                    <path d="M25.8895325,11.8714241 C25.554137,9.49064421 25.3851188,0.988240511 14.1256029,0.648892532 C13.9262143,0.642212453 13.745312,0.660916673 13.5578075,0.670268782 C13.3703029,0.660916673 13.1907211,0.642212453 12.9913325,0.648892532 C1.7304961,0.988240511 1.56279838,9.49064421 1.22608247,11.8714241 C0.890687013,14.252204 3.57913247,27.8568516 3.57913247,30.0666215 C3.57913247,32.2777274 5.2600711,34.3178233 6.4365961,35.3385393 C7.6131211,36.3592553 11.7302984,37.0392872 12.9913325,37.7193192 L14.1256029,37.7193192 C15.3853166,37.0392872 19.5038143,36.3592553 20.6803393,35.3385393 C21.8555438,34.3178233 23.5364825,32.2777274 23.5364825,30.0666215 C23.5364825,27.8568516 26.2262484,14.252204 25.8895325,11.8714241 L25.8895325,11.8714241 Z" id="Fill-3" fill="#35BDBB" sketch:type="MSShapeGroup"></path>
                                    <path d="M6.31775519,36.2724142 L6.81292565,34.3231674 L20.0729302,34.3231674 L20.9087779,35.9197061 L20.9087779,40.8362438 L13.6132666,48.6853358 L6.31775519,39.834232 L6.31775519,36.2724142 L6.31775519,36.2724142 Z" id="Fill-4" fill="#35BDBB" sketch:type="MSShapeGroup"></path>
                                    <path d="M5.82258474,24.1881525 C5.82258474,26.1373994 4.54702565,27.7179059 2.97304383,27.7179059 C1.39906201,27.7179059 0.123502922,26.1373994 0.123502922,24.1881525 C0.123502922,22.2375697 1.39906201,20.6570631 2.97304383,20.6570631 C4.54702565,20.6570631 5.82258474,22.2375697 5.82258474,24.1881525 L5.82258474,24.1881525 Z" id="Fill-5" fill="#35BDBB" sketch:type="MSShapeGroup"></path>
                                    <path d="M26.454687,24.1881525 C26.454687,26.1373994 25.1791279,27.7179059 23.6051461,27.7179059 C22.0311643,27.7179059 20.7556052,26.1373994 20.7556052,24.1881525 C20.7556052,22.2375697 22.0311643,20.6570631 23.6051461,20.6570631 C25.1791279,20.6570631 26.454687,22.2375697 26.454687,24.1881525 L26.454687,24.1881525 Z" id="Fill-6" fill="#35BDBB" sketch:type="MSShapeGroup"></path>
                                </g>
                                <path d="M41.3804045,13.0635612 C41.0450091,10.6827813 40.8759909,2.18037757 29.6151545,1.84102959 C29.4170864,1.83434951 29.2361841,1.85305373 29.0486795,1.86240584 C28.861175,1.85305373 28.6802727,1.83434951 28.4822045,1.84102959 C17.2213682,2.18037757 17.0536705,10.6827813 16.7169545,13.0635612 C16.3815591,15.4443411 16.6879045,14.4236251 16.6879045,16.6347311 C16.6879045,18.844501 23.5423841,13.4002371 23.5423841,11.1891312 C23.5423841,8.97802527 41.7171205,15.4443411 41.3804045,13.0635612" id="Fill-7" fill="#3E8A9A" sketch:type="MSShapeGroup"></path>
                                <path d="M18.4335455,27.7249971 L18.4335455,27.7223251 C18.4335455,27.719653 18.432225,27.718317 18.432225,27.715645 C18.4348659,27.6515162 18.4493909,27.5927315 18.4124182,27.5072265 C18.38865,27.4524499 18.3675227,27.378969 18.3463955,27.3001441 C18.3279091,27.2360154 18.3279091,27.1665425 18.3015,27.1064218 C18.0519341,25.9160319 17.9740273,23.114407 17.9449773,21.0502628 C17.9634636,20.8311563 17.9753477,20.6227378 17.9687455,20.4343596 C18.0070386,20.2660216 18.0321273,20.0936756 18.0321273,19.9146495 C18.0321273,19.6848548 17.9885523,19.4670843 17.9264909,19.2573298 L17.9264909,19.2412976 L17.9225295,19.2439696 C17.6373114,18.3047506 16.7842977,17.6180386 15.7635864,17.6180386 C14.5091545,17.6180386 13.493725,18.6467706 13.493725,19.9146495 C13.493725,19.9720982 13.5056091,20.0268748 13.5095705,20.0829875 C12.5073455,20.9153252 11.8550409,22.1631639 11.8550409,23.5780045 C11.8550409,25.7810943 13.406575,27.6154438 15.4638432,28.0282726 C15.6077727,28.7230008 16.1887727,29.254735 16.9189841,29.254735 C17.705975,29.254735 18.3318705,28.6401678 18.4058159,27.8626067 C18.4282636,27.8238623 18.4295841,27.7744297 18.4335455,27.7249971" id="Fill-8" fill="#631010" sketch:type="MSShapeGroup"></path>
                                <path d="M39.3680318,27.7249971 L39.3680318,27.7223251 C39.3680318,27.719653 39.3693523,27.718317 39.3693523,27.715645 C39.3667114,27.6515162 39.3521864,27.5927315 39.3878386,27.5072265 C39.4116068,27.4524499 39.4340545,27.378969 39.4551818,27.3001441 C39.4736682,27.2360154 39.4723477,27.1665425 39.4987568,27.1064218 C39.7483227,25.9160319 39.8262295,23.114407 39.8566,21.0502628 C39.8381136,20.8311563 39.8262295,20.6227378 39.8315114,20.4343596 C39.7932182,20.2660216 39.7681295,20.0936756 39.7681295,19.9146495 C39.7681295,19.6848548 39.8117045,19.4670843 39.8750864,19.2573298 L39.8750864,19.2412976 L39.8790477,19.2439696 C40.1642659,18.3047506 41.0172795,17.6180386 42.0379909,17.6180386 C43.2911023,17.6180386 44.3078523,18.6467706 44.3078523,19.9146495 C44.3078523,19.9720982 44.2946477,20.0268748 44.2906864,20.0829875 C45.2942318,20.9153252 45.9465364,22.1631639 45.9465364,23.5780045 C45.9465364,25.7810943 44.3950023,27.6154438 42.3364136,28.0282726 C42.1924841,28.7230008 41.6128045,29.254735 40.8825932,29.254735 C40.0956023,29.254735 39.4683864,28.6401678 39.3957614,27.8626067 C39.3719932,27.8238623 39.3719932,27.7744297 39.3680318,27.7249971" id="Fill-9" fill="#631010" sketch:type="MSShapeGroup"></path>
                                <path d="M34.1667614,32.9554984 C34.1667614,33.9080776 33.4035386,34.6802946 32.4607341,34.6802946 C31.51925,34.6802946 30.7560273,33.9080776 30.7560273,32.9554984 C30.7560273,32.0015832 31.51925,31.2293662 32.4607341,31.2293662 C33.4035386,31.2293662 34.1667614,32.0015832 34.1667614,32.9554984" id="Fill-10" fill="#631010" sketch:type="MSShapeGroup"></path>
                                <path d="M32.2468205,32.322227 L32.6350341,32.1899614 C34.6064727,31.5166096 37.9076091,30.3916844 40.3121568,27.4110334 L41.3368295,28.2567313 C38.6893182,31.5353138 35.1637045,32.7377279 33.0562591,33.4565043 L32.6746477,33.5874338 L32.2468205,32.322227 Z" id="Fill-11" fill="#631010" sketch:type="MSShapeGroup"></path>
                                <path d="M14.9647114,16.5893065 C14.9647114,8.70013401 21.308175,2.28191476 29.1054591,2.28191476 C36.9014227,2.28191476 43.2448864,8.70013401 43.2448864,16.5893065 C43.2448864,18.594666 42.8315841,20.5024964 42.0908091,22.2379808 L43.0402159,23.3188174 C44.0067886,21.2773855 44.5653409,19.0008148 44.5653409,16.5893065 C44.5653409,7.96265337 37.6303136,0.945899091 29.1054591,0.945899091 C20.5806045,0.945899091 13.6442568,7.96265337 13.6442568,16.5893065 C13.6442568,18.9767665 14.1922455,21.233297 15.1416523,23.2600327 L16.2112205,22.431703 C15.4176273,20.6454501 14.9647114,18.6708189 14.9647114,16.5893065" id="Fill-12" fill="#631010" sketch:type="MSShapeGroup"></path>
                                <path d="M27.5460023,47.5113891 L30.76395,47.5113891 L32.0844045,49.0144067 L30.5711636,51.854776 L32.0844045,77.4889086 L25.4002636,77.4889086 L27.2145682,51.854776 L25.7052886,49.209465 L27.5460023,47.5113891" id="Fill-13" fill="#961A16" sketch:type="MSShapeGroup"></path>
                                <path d="M22.1176136,37.4912716 C22.2496591,35.8265961 17.909325,40.08047 18.4863636,41.0824817 C19.0647227,42.0844935 23.4380682,51.854776 23.4380682,51.854776 L28.1428477,47.5113891 C28.1428477,47.5113891 21.9525568,39.5794641 22.1176136,37.4912716" id="Fill-14" fill="#F77B42" sketch:type="MSShapeGroup"></path>
                                <path d="M36.065575,37.4912716 C35.9335295,35.8265961 40.2738636,40.08047 39.696825,41.0824817 C39.1184659,42.0844935 34.7451205,51.854776 34.7451205,51.854776 L30.0403409,47.5113891 C30.0403409,47.5113891 36.2306318,39.5794641 36.065575,37.4912716" id="Fill-15" fill="#F77B42" sketch:type="MSShapeGroup"></path>
                            </g>
                        </g>
                    </g>
                </g>
            </g>
        </g>
    </g>
</svg>