<?xml version="1.0" encoding="UTF-8" standalone="no"?>
<svg width="80px" height="81px" viewBox="0 0 80 81" version="1.1" xmlns="http://www.w3.org/2000/svg" xmlns:xlink="http://www.w3.org/1999/xlink" xmlns:sketch="http://www.bohemiancoding.com/sketch/ns">
    <!-- Generator: Sketch 3.3.3 (12081) - http://www.bohemiancoding.com/sketch -->
    <title>i-contact--neutral</title>
    <desc>Created with Sketch.</desc>
    <defs>
        <ellipse id="path-1" cx="39.9071429" cy="40.1037813" rx="39.6338078" ry="39.9365914"></ellipse>
        <ellipse id="path-3" cx="39.7214286" cy="39.9365914" rx="39.7214286" ry="39.9365914"></ellipse>
    </defs>
    <g id="Page-1" stroke="none" stroke-width="1" fill="none" fill-rule="evenodd" sketch:type="MSPage">
        <g id="Complex" sketch:type="MSArtboardGroup" transform="translate(-489.000000, -81.000000)">
            <g id="i-contact--neutral" sketch:type="MSLayerGroup" transform="translate(489.000000, 81.715000)">
                <mask id="mask-2" sketch:name="Mask" fill="white">
                    <use xlink:href="#path-1"></use>
                </mask>
                <use id="Mask" fill="#EFDECD" sketch:type="MSShapeGroup" xlink:href="#path-1"></use>
                <g id="Imported-Layers" mask="url(#mask-2)">
                    <g transform="translate(0.185714, 0.763258)">
                        <mask id="mask-4" sketch:name="Mask" fill="white">
                            <use xlink:href="#path-3"></use>
                        </mask>
                        <use id="Mask" stroke="none" fill="none" sketch:type="MSShapeGroup" xlink:href="#path-3"></use>
                        <g id="Imported-Layers" stroke="none" stroke-width="1" fill="none" fill-rule="evenodd" sketch:type="MSLayerGroup" mask="url(#mask-4)">
                            <g transform="translate(10.671429, 9.537096)" sketch:type="MSShapeGroup">
                                <path d="M0.357843182,65.1307637 C0.467440909,62.5696217 0.357843182,55.778654 0.357843182,53.5515159 C0.357843182,51.3257138 1.89881364,50.2114768 3.32886591,49.4325796 C4.75891818,48.6536825 18.0743818,41.4164856 18.0743818,41.4164856 L21.2646,39.6355768 L25.9773023,49.209465 L30.2885864,49.209465 L31.1680091,50.2114768 L31.1680091,77.4889086 L0.357843182,77.4889086 L0.357843182,65.1307637" id="Fill-1" fill="#FFFFF9"></path>
                                <path d="M57.8253455,65.1307637 C57.7144273,62.5696217 57.8253455,55.778654 57.8253455,53.5515159 C57.8253455,51.3257138 56.284375,50.2114768 54.8543227,49.4325796 C53.42295,48.6536825 40.1088068,41.4164856 40.1088068,41.4164856 L36.9172682,39.6355768 L32.2058864,49.209465 L27.8946023,49.209465 L27.0138591,50.2114768 L27.0138591,77.4889086 L57.8253455,77.4889086 L57.8253455,65.1307637" id="Fill-2" fill="#FFFFF9"></path>
                                <path d="M39.2053749,28.9026494 C39.048919,29.9987128 38.9507682,30.8366378 38.9507682,31.2587585 C38.9507682,33.4698645 37.2698295,35.5099604 36.094625,36.5306763 C36.077637,36.5454146 36.0600355,36.5600819 36.0418382,36.5746792 L36.3230636,37.1118432 L36.3230636,42.0283808 L29.0275523,49.8774728 L21.7320409,41.0263691 L21.7320409,37.4645513 L21.9491091,36.6100586 L21.9491091,36.6100586 C21.9144249,36.5838268 21.8816479,36.557368 21.8508818,36.5306763 C20.6743568,35.5099604 18.9934182,33.4698645 18.9934182,31.2587585 C18.9934182,30.8342277 18.8941922,29.9891311 18.736244,28.8838504 L18.736244,28.8838504 C18.6218953,28.9011414 18.5054528,28.910043 18.3873295,28.910043 C16.8133477,28.910043 15.5377886,27.3295365 15.5377886,25.3802896 C15.5377886,23.74551 16.4337519,22.3706751 17.6504505,21.9683467 C17.0359339,18.0793959 16.4762837,14.2283024 16.6403682,13.0635612 C16.9770841,10.6827813 17.1447818,2.18037757 28.4056182,1.84102959 C28.6050068,1.83434951 28.7845886,1.85305373 28.9720932,1.86240584 C29.1595977,1.85305373 29.3405,1.83434951 29.5398886,1.84102959 C40.7994045,2.18037757 40.9684227,10.6827813 41.3038182,13.0635612 C41.4718051,14.2513279 40.8865026,18.2327085 40.2577283,22.1990099 C41.2113069,22.7698803 41.8689727,23.9796811 41.8689727,25.3802896 C41.8689727,27.2521706 40.6926584,28.7840012 39.2053749,28.9026494 Z" id="Fill-3" fill="#3E8A9A"></path>
                                <path d="M41.3804045,13.0635612 C41.0450091,10.6827813 40.8759909,2.18037757 29.6151545,1.84102959 C29.4170864,1.83434951 29.2361841,1.85305373 29.0486795,1.86240584 C28.861175,1.85305373 28.6802727,1.83434951 28.4822045,1.84102959 C17.2213682,2.18037757 17.0536705,10.6827813 16.7169545,13.0635612 C16.3815591,15.4443411 16.6879045,14.4236251 16.6879045,16.6347311 C16.6879045,18.844501 23.5423841,13.4002371 23.5423841,11.1891312 C23.5423841,8.97802527 41.7171205,15.4443411 41.3804045,13.0635612" id="Fill-7" fill="#022C53"></path>
                                <path d="M44.2799665,19.5538191 C44.2983209,19.6713763 44.3078523,19.791892 44.3078523,19.9146495 C44.3078523,19.9720982 44.2946477,20.0268748 44.2906864,20.0829875 C45.2942318,20.9153252 45.9465364,22.1631639 45.9465364,23.5780045 C45.9465364,25.7810943 44.3950023,27.6154438 42.3364136,28.0282726 C42.1924841,28.7230008 41.6128045,29.254735 40.8825932,29.254735 C40.7482457,29.254735 40.6185544,29.2368253 40.4954834,29.2032524 L40.4954834,29.2032524 C38.4268436,31.3199003 36.0086124,32.3953897 34.1631051,33.0693732 C34.1051593,33.9688666 33.3656692,34.6802946 32.4607341,34.6802946 C31.51925,34.6802946 30.7560273,33.9080776 30.7560273,32.9554984 C30.7560273,32.0015832 31.51925,31.2293662 32.4607341,31.2293662 C32.9665004,31.2293662 33.4205871,31.4515927 33.7328931,31.8048827 C35.4381651,31.1786874 37.6437457,30.1920994 39.5054347,28.3126686 C39.4481824,28.1719059 39.4105201,28.020622 39.3957614,27.8626067 C39.3719932,27.8238623 39.3719932,27.7744297 39.3680318,27.7249971 L39.3680318,27.7223251 C39.3680318,27.719653 39.3693523,27.718317 39.3693523,27.715645 C39.3667114,27.6515162 39.3521864,27.5927315 39.3878386,27.5072265 C39.4116068,27.4524499 39.4340545,27.378969 39.4551818,27.3001441 C39.4736682,27.2360154 39.4723477,27.1665425 39.4987568,27.1064218 C39.7483227,25.9160319 39.8262295,23.114407 39.8566,21.0502628 C39.8381136,20.8311563 39.8262295,20.6227378 39.8315114,20.4343596 C39.7932182,20.2660216 39.7681295,20.0936756 39.7681295,19.9146495 C39.7681295,19.6848548 39.8117045,19.4670843 39.8750864,19.2573298 L39.8750864,19.2412976 L39.8790477,19.2439696 C40.1642659,18.3047506 41.0172795,17.6180386 42.0379909,17.6180386 C42.4554078,17.6180386 42.8465983,17.7321852 43.1827188,17.9312946 C43.223835,17.4895062 43.2448864,17.0418902 43.2448864,16.5893065 C43.2448864,8.70013401 36.9014227,2.28191476 29.1054591,2.28191476 C21.308175,2.28191476 14.9647114,8.70013401 14.9647114,16.5893065 C14.9647114,16.9791301 14.9805967,17.365205 15.0116301,17.746996 C15.2469246,17.6634667 15.4999784,17.6180386 15.7635864,17.6180386 C16.7842977,17.6180386 17.6373114,18.3047506 17.9225295,19.2439696 L17.9264909,19.2412976 L17.9264909,19.2573298 C17.9885523,19.4670843 18.0321273,19.6848548 18.0321273,19.9146495 C18.0321273,20.0936756 18.0070386,20.2660216 17.9687455,20.4343596 C17.9753477,20.6227378 17.9634636,20.8311563 17.9449773,21.0502628 C17.9740273,23.114407 18.0519341,25.9160319 18.3015,27.1064218 C18.3279091,27.1665425 18.3279091,27.2360154 18.3463955,27.3001441 C18.3675227,27.378969 18.38865,27.4524499 18.4124182,27.5072265 C18.4493909,27.5927315 18.4348659,27.6515162 18.432225,27.715645 C18.432225,27.718317 18.4335455,27.719653 18.4335455,27.7223251 L18.4335455,27.7249971 C18.4295841,27.7744297 18.4282636,27.8238623 18.4058159,27.8626067 C18.3318705,28.6401678 17.705975,29.254735 16.9189841,29.254735 C16.1887727,29.254735 15.6077727,28.7230008 15.4638432,28.0282726 C13.406575,27.6154438 11.8550409,25.7810943 11.8550409,23.5780045 C11.8550409,22.1631639 12.5073455,20.9153252 13.5095705,20.0829875 C13.5056091,20.0268748 13.493725,19.9720982 13.493725,19.9146495 C13.493725,19.4963147 13.6042708,19.1040148 13.797473,18.766112 C13.6967786,18.0550148 13.6442568,17.3284351 13.6442568,16.5893065 C13.6442568,7.96265337 20.5806045,0.945899091 29.1054591,0.945899091 C37.6303136,0.945899091 44.5653409,7.96265337 44.5653409,16.5893065 C44.5653409,17.6038478 44.4664797,18.5945058 44.2799665,19.5538191 Z" id="Fill-8" fill="#022C53"></path>
                                <path d="M27.5460023,47.5113891 L30.76395,47.5113891 L32.0844045,49.0144067 L30.5711636,51.854776 L32.0844045,77.4889086 L25.4002636,77.4889086 L27.2145682,51.854776 L25.7052886,49.209465 L27.5460023,47.5113891" id="Fill-13" fill="#961A16"></path>
                                <path d="M22.1176136,37.4912716 C22.2496591,35.8265961 17.909325,40.08047 18.4863636,41.0824817 C19.0647227,42.0844935 23.4380682,51.854776 23.4380682,51.854776 L28.1428477,47.5113891 C28.1428477,47.5113891 21.9525568,39.5794641 22.1176136,37.4912716" id="Fill-14" fill="#F77B42"></path>
                                <path d="M36.065575,37.4912716 C35.9335295,35.8265961 40.2738636,40.08047 39.696825,41.0824817 C39.1184659,42.0844935 34.7451205,51.854776 34.7451205,51.854776 L30.0403409,47.5113891 C30.0403409,47.5113891 36.2306318,39.5794641 36.065575,37.4912716" id="Fill-15" fill="#F77B42"></path>
                            </g>
                        </g>
                    </g>
                </g>
            </g>
        </g>
    </g>
</svg>