<?xml version="1.0" encoding="UTF-8" standalone="no"?>
<svg width="79px" height="80px" viewBox="0 0 79 80" version="1.1" xmlns="http://www.w3.org/2000/svg" xmlns:xlink="http://www.w3.org/1999/xlink" xmlns:sketch="http://www.bohemiancoding.com/sketch/ns">
    <!-- Generator: Sketch 3.3.3 (12081) - http://www.bohemiancoding.com/sketch -->
    <title>i-data--neautral</title>
    <desc>Created with Sketch.</desc>
    <defs>
        <ellipse id="path-1" cx="39.7988337" cy="39.9923789" rx="39.2135568" ry="39.4042557"></ellipse>
    </defs>
    <g id="Page-1" stroke="none" stroke-width="1" fill="none" fill-rule="evenodd" sketch:type="MSPage">
        <g id="Complex" sketch:type="MSArtboardGroup" transform="translate(-488.000000, -1648.000000)">
            <g id="i-data--neautral" sketch:type="MSLayerGroup" transform="translate(487.000000, 1647.389609)">
                <g id="i-register-copy" transform="translate(0.000000, 0.228172)">
                    <g id="Group-Copy-2" transform="translate(0.674557, 0.000000)">
                        <g id="Group">
                            <mask id="mask-2" sketch:name="Mask" fill="white">
                                <use xlink:href="#path-1"></use>
                            </mask>
                            <use id="Mask" fill="#CEB59C" sketch:type="MSShapeGroup" xlink:href="#path-1"></use>
                        </g>
                    </g>
                </g>
                <g id="Imported-Layers-Copy-2-+-Oval-89-+-Group" transform="translate(16.252252, 18.558282)" sketch:type="MSShapeGroup">
                    <g id="Imported-Layers-Copy-2" transform="translate(0.107606, 0.082665)">
                        <path d="M5.01905693,30.10207 L2.9628581,32.2190419 L0.0595424696,31.7190131 L1.43020107,34.3360138 L0.0595424696,36.952591 L2.9628581,36.4529857 L5.01905693,38.5699575 L5.44261533,35.6443024 L8.08394912,34.3360138 L5.44261533,33.0277251 L5.01905693,30.10207" id="Fill-1" fill="#FFFFF9"></path>
                        <path d="M15.1971146,11.049323 L17.2533134,13.1662949 L17.6768718,10.2406398 L20.3182056,8.93235117 L17.6768718,7.62406254 L17.2533134,4.6984074 L15.1971146,6.81537928 L12.293799,6.31535052 L13.6644576,8.93235117 L12.293799,11.5489284 L15.1971146,11.049323" id="Fill-2" fill="#FFFFF9"></path>
                        <path d="M5.01905693,4.6984074 L2.9628581,6.81537928 L0.0595424696,6.31535052 L1.43020107,8.93235117 L0.0595424696,11.5489284 L2.9628581,11.049323 L5.01905693,13.1662949 L5.44261533,10.2406398 L8.08394912,8.93235117 L5.44261533,7.62406254 L5.01905693,4.6984074" id="Fill-3" fill="#FFFFF9"></path>
                        <path d="M5.01905693,17.4002387 L2.9628581,19.5172106 L0.0595424696,19.0171818 L1.43020107,21.6341825 L0.0595424696,24.2507597 L2.9628581,23.7511544 L5.01905693,25.8681262 L5.44261533,22.9424711 L8.08394912,21.6341825 L5.44261533,20.3258938 L5.01905693,17.4002387" id="Fill-4" fill="#FFFFF9"></path>
                        <path d="M15.1971146,23.7511544 L17.2533134,25.8681262 L17.6768718,22.9424711 L20.3182056,21.6341825 L17.6768718,20.3258938 L17.2533134,17.4002387 L15.1971146,19.5172106 L12.293799,19.0171818 L13.6644576,21.6341825 L12.293799,24.2507597 L15.1971146,23.7511544" id="Fill-5" fill="#FFFFF9"></path>
                        <path d="M44.9837323,8.52651283e-14 L44.9837323,4.65733814 L25.1557994,4.65733814 L25.1557994,13.1252257 L44.9837323,13.1252257 L44.9837323,17.3591694 L25.1557994,17.3591694 L25.1557994,25.827057 L44.9837323,25.827057 L44.9837323,30.0610007 L12.0778011,30.0610007 L12.0778011,38.5288883 L44.9837323,38.5288883 L44.9837323,42.7628321 L47.0930869,42.7628321 L47.0930869,8.52651283e-14 L44.9837323,8.52651283e-14" id="Fill-6" fill="#F77B42"></path>
                    </g>
                    <g id="Oval-89-+-Group" transform="translate(30.657658, 24.702893)" fill="#631010">
                        <g id="Group" transform="translate(0.293919, 0.101234)">
                            <path d="M16.2595658,13.2791588 C17.0179799,11.9890026 17.4608075,10.4893586 17.4608075,8.88244236 C17.4608075,4.09528394 13.5986466,0.213979847 8.83429643,0.213979847 C4.06994626,0.213979847 0.207785377,4.09528394 0.207785377,8.88244236 C0.207785377,13.669962 4.06994626,17.5509049 8.83429643,17.5509049 C10.4334359,17.5509049 11.9258223,17.1059238 13.2097347,16.3438215 L18.7243934,21.8856595 C19.114743,22.2779075 19.6538999,22.5202632 20.2494886,22.5202632 C20.6034276,22.5202632 20.9374375,22.4346106 21.2321127,22.2828052 C21.9291636,21.9237114 22.4061164,21.1944576 22.4061164,20.3531476 C22.4061164,19.7546625 22.1645741,19.2128836 21.7745839,18.8209969 L16.2595658,13.2791588 Z M8.83429643,15.3837892 C5.26112366,15.3837892 2.36441314,12.4729918 2.36441314,8.88244236 C2.36441314,5.29189295 5.26112366,2.38109547 8.83429643,2.38109547 C12.4074692,2.38109547 15.3041797,5.29189295 15.3041797,8.88244236 C15.3041797,12.4729918 12.4074692,15.3837892 8.83429643,15.3837892 L8.83429643,15.3837892 Z" id="Imported-Layers"></path>
                        </g>
                    </g>
                </g>
            </g>
        </g>
    </g>
</svg>