<?xml version="1.0" encoding="UTF-8" standalone="no"?>
<svg width="82px" height="84px" viewBox="0 0 82 84" version="1.1" xmlns="http://www.w3.org/2000/svg" xmlns:xlink="http://www.w3.org/1999/xlink" xmlns:sketch="http://www.bohemiancoding.com/sketch/ns">
    <!-- Generator: Sketch 3.3.3 (12081) - http://www.bohemiancoding.com/sketch -->
    <title>i-glossary--neutral</title>
    <desc>Created with Sketch.</desc>
    <defs></defs>
    <g id="Page-1" stroke="none" stroke-width="1" fill="none" fill-rule="evenodd" sketch:type="MSPage">
        <g id="i-glossary--neutral" sketch:type="MSLayerGroup" transform="translate(-0.053197, 0.000000)">
            <ellipse id="Oval-168" fill="#EFDECD" sketch:type="MSShapeGroup" cx="40.658966" cy="42.0011847" rx="40.6057692" ry="41.5955345"></ellipse>
            <path d="M19.4762737,23.6674959 C19.4762737,23.6674959 33.7273735,30.5445301 40.7647352,30.5445301 C47.9196812,30.5445301 62.0531968,23.6674959 62.0531968,23.6674959 L62.0531968,55.9472761 C62.0531968,55.9472761 48.3755267,66.4514742 41.5366916,66.4514742 C34.183219,66.4514742 19.4762737,55.9472761 19.4762737,55.9472761 L19.4762737,23.6674959 Z" id="Rectangle-399-Copy-3" fill="#EDEDE7" sketch:type="MSShapeGroup"></path>
            <path d="M40.7165339,66.268866 C40.4506005,66.3863639 40.1576354,66.4514742 39.849328,66.4514742 C39.5410207,66.4514742 39.2480556,66.3863639 38.9821222,66.268866 L17.8374964,59.3060967 C17.0360434,58.9715645 16.4705696,58.1670407 16.4705696,57.2255607 L16.4705696,22.7994261 C16.4705696,21.5593368 17.4517469,20.5542434 18.6623282,20.5542434 C18.9589462,20.5542434 19.2424137,20.6156117 19.5003106,20.7248773 C19.5105388,20.7293676 39.849328,27.3501208 39.849328,27.3501208 L60.1749667,20.7346064 C60.456973,20.6156117 60.7397098,20.5542434 61.0363278,20.5542434 C62.2469092,20.5542434 63.2280864,21.5593368 63.2280864,22.7994261 L63.2280864,57.2255607 C63.2280864,58.1670407 62.6626127,58.9715645 61.8611597,59.3060967 L40.7165339,66.268866 Z M37.6575694,31.2806873 L20.8540868,26.1582194 L20.8540868,55.7250303 L37.6575694,60.8474982 L37.6575694,31.2806873 Z M42.0410866,31.2806873 L42.0410866,60.8474982 L58.8445692,55.7250303 L58.8445692,26.1582194 L42.0410866,31.2806873 Z" id="Imported-Layers-Copy-18" fill="#3E8A9A" sketch:type="MSShapeGroup"></path>
        </g>
    </g>
</svg>