<?xml version="1.0" encoding="UTF-8" standalone="no"?>
<svg width="82px" height="84px" viewBox="0 0 82 84" version="1.1" xmlns="http://www.w3.org/2000/svg" xmlns:xlink="http://www.w3.org/1999/xlink" xmlns:sketch="http://www.bohemiancoding.com/sketch/ns">
    <!-- Generator: Sketch 3.3.3 (12081) - http://www.bohemiancoding.com/sketch -->
    <title>i-glossary--neutral</title>
    <desc>Created with Sketch.</desc>
    <defs></defs>
    <g id="Page-1" stroke="none" stroke-width="1" fill="none" fill-rule="evenodd" sketch:type="MSPage">
        <g id="Complex" sketch:type="MSArtboardGroup" transform="translate(-397.000000, -1683.000000)">
            <g id="i-glossary--neutral" sketch:type="MSLayerGroup" transform="translate(397.000000, 1683.292747)">
                <ellipse id="Oval-168" fill="#CEB59C" sketch:type="MSShapeGroup" cx="40.658966" cy="42.0011847" rx="40.6057692" ry="41.5955345"></ellipse>
                <path d="M18.1346154,25.3534686 C18.1346154,25.3534686 32.3857152,32.2305028 39.4230769,32.2305028 C46.5780229,32.2305028 60.7115385,25.3534686 60.7115385,25.3534686 L60.7115385,57.6332488 C60.7115385,57.6332488 47.0338684,68.1374469 40.1950334,68.1374469 C32.8415607,68.1374469 18.1346154,57.6332488 18.1346154,57.6332488 L18.1346154,25.3534686 Z" id="Rectangle-399" fill="#EFDECD" sketch:type="MSShapeGroup"></path>
                <path d="M61.8611597,60.3060967 L40.7165339,69.268866 C40.4506005,69.3863639 40.1576354,69.4514742 39.849328,69.4514742 C39.5410207,69.4514742 39.2480556,69.3863639 38.9821222,69.268866 L17.8374964,60.3060967 C17.0360434,59.9715645 16.4705696,59.1670407 16.4705696,58.2255607 L16.4705696,23.7994261 C16.4705696,22.5593368 17.4517469,21.5542434 18.6623282,21.5542434 C18.9589462,21.5542434 19.2424137,21.6156117 19.5003106,21.7248773 L19.5039635,21.7263741 C19.5105388,21.7293676 19.5171141,21.7316128 19.5236894,21.7346064 L39.849328,30.3501208 L60.1749667,21.7346064 C60.181542,21.7316128 60.1881173,21.7293676 60.1946925,21.7263741 L60.1983455,21.7248773 C60.456973,21.6156117 60.7397098,21.5542434 61.0363278,21.5542434 C62.2469092,21.5542434 63.2280864,22.5593368 63.2280864,23.7994261 L63.2280864,58.2255607 C63.2280864,59.1670407 62.6626127,59.9715645 61.8611597,60.3060967 L61.8611597,60.3060967 Z M37.6575694,63.8474982 L37.6575694,34.2806873 L20.8540868,27.1582194 L20.8540868,56.7250303 L37.6575694,63.8474982 L37.6575694,63.8474982 Z M58.8445692,27.1582194 L42.0410866,34.2806873 L42.0410866,63.8474982 L58.8445692,56.7250303 L58.8445692,27.1582194 L58.8445692,27.1582194 Z" id="Imported-Layers-Copy-18" fill="#F77B42" sketch:type="MSShapeGroup"></path>
            </g>
        </g>
    </g>
</svg>