<?xml version="1.0" encoding="UTF-8"?>
<svg width="60px" height="60px" viewBox="0 0 60 60" version="1.1" xmlns="http://www.w3.org/2000/svg" xmlns:xlink="http://www.w3.org/1999/xlink">
    <!-- Generator: Sketch 63.1 (92452) - https://sketch.com -->
    <title>Custom Preset</title>
    <desc>Created with Sketch.</desc>
    <g id="Custom-Preset" stroke="none" stroke-width="1" fill="none" fill-rule="evenodd">
        <rect fill="#FFFFFF" opacity="0" x="0" y="0" width="60" height="60"></rect>
        <circle id="Oval" fill="#FFFFFF" cx="30" cy="30" r="30"></circle>
        <path d="M18.5714359,14 C19.439316,14 20.1428718,14.7056131 20.1428718,15.5760309 L20.1428718,15.5760309 L20.1428718,40.861564 C20.1428718,40.9934098 45.4285641,40.8479382 45.4285641,40.8479382 C46.2964442,40.8479382 47,41.5535513 47,42.4239691 C47,43.2943869 46.2964442,44 45.4285641,44 L45.4285641,44 L17,44 L17,15.5760309 C17,14.7056131 17.7035558,14 18.5714359,14 Z M29.1847538,32.75 C29.7040374,32.75 30.125,33.1659844 30.125,33.6873195 L30.125,36.5001805 C30.125,37.0178478 29.7144862,37.4375 29.1847538,37.4375 L24.5027462,37.4375 C23.9834626,37.4375 23.5625,37.0215156 23.5625,36.5001805 L23.5625,33.6873195 C23.5625,33.1696522 23.9730138,32.75 24.5027462,32.75 L29.1847538,32.75 Z M34.8139041,25.25 C35.3308956,25.25 35.75,25.6659844 35.75,26.1873195 L35.75,29.0001805 C35.75,29.5178478 35.3304787,29.9375 34.8139041,29.9375 L24.4985959,29.9375 C23.9816044,29.9375 23.5625,29.5215156 23.5625,29.0001805 L23.5625,26.1873195 C23.5625,25.6696522 23.9820213,25.25 24.4985959,25.25 L34.8139041,25.25 Z M40.9139346,18.21875 C41.4274575,18.21875 41.84375,18.6347344 41.84375,19.1560695 L41.84375,21.9689305 C41.84375,22.4865978 41.416901,22.90625 40.9139346,22.90625 L24.0235654,22.90625 C23.5100425,22.90625 23.09375,22.4902656 23.09375,21.9689305 L23.09375,19.1560695 C23.09375,18.6384022 23.520599,18.21875 24.0235654,18.21875 L40.9139346,18.21875 Z" id="graph-copy" fill="#36BDBB" fill-rule="nonzero"></path>
    </g>
</svg>