<?xml version="1.0" encoding="UTF-8" standalone="no"?>
<svg width="16px" height="22px" viewBox="0 0 16 22" version="1.1" xmlns="http://www.w3.org/2000/svg" xmlns:xlink="http://www.w3.org/1999/xlink" xmlns:sketch="http://www.bohemiancoding.com/sketch/ns">
    <!-- Generator: Sketch 3.3.3 (12081) - http://www.bohemiancoding.com/sketch -->
    <title>i-map--primary</title>
    <desc>Created with Sketch.</desc>
    <defs></defs>
    <g id="Page-1" stroke="none" stroke-width="1" fill="none" fill-rule="evenodd" sketch:type="MSPage">
        <g id="Simple-Copy" sketch:type="MSArtboardGroup" transform="translate(-261.000000, -920.000000)" fill="#022C53">
            <path d="M268.836735,941.661538 C268.836735,941.661538 261,932.609046 261,928.123077 C261,923.637446 264.508898,920 268.836735,920 C273.164571,920 276.673469,923.637446 276.673469,928.123077 C276.673469,932.609046 268.836735,941.661538 268.836735,941.661538 L268.836735,941.661538 Z M268.836735,923.775995 C266.520666,923.775995 264.642857,925.722416 264.642857,928.12311 C264.642857,930.523805 266.520666,932.470497 268.836735,932.470497 C271.152804,932.470497 273.030612,930.523805 273.030612,928.12311 C273.030612,925.722416 271.152804,923.775995 268.836735,923.775995 L268.836735,923.775995 Z" id="i-map--primary" sketch:type="MSShapeGroup"></path>
        </g>
    </g>
</svg>