<?xml version="1.0" encoding="UTF-8"?>
<svg width="288" height="288" viewBox="0 0 288 288" version="1.1" xmlns="http://www.w3.org/2000/svg">
  <defs>
    <polygon id="path-1" points="0 0 288 0 288 287.94 0 287.94"></polygon>
  </defs>
  <g>
    <g>
      <path d="M245.772,42.129 C218.579,14.962 182.437,0 144.003,0 L143.869,0 C105.405,0.035 69.257,15.047 42.084,42.269 C14.911,69.492 -0.035,105.668 -6.13320723e-05,144.132 C0.035,182.57 15.032,218.701 42.227,245.871 C69.421,273.038 105.564,288 143.997,288 L144.131,288 C182.595,287.965 218.743,272.953 245.916,245.73 C273.09,218.508 288.035,182.332 288.000061,143.868 C287.965,105.43 272.968,69.298 245.772,42.129" fill="#FFFFFE" mask="url(#mask-2)"></path>
    </g>
    <path d="M43.623,95.739 C43.806,95.403 43.958,95.092 44.092,94.796 C43.936,95.111 43.776,95.422 43.623,95.739" fill="#121930"></path>
    <path d="M52.825,198.728 C68.47,191.2 83.715,188.953 83.715,188.953 C70.418,187.29 58.524,187.795 48.061,189.894 C49.505,192.909 51.095,195.856 52.825,198.728" fill="#982E2C"></path>
    <path d="M69.426,219.767 C70.36,220.686 71.313,221.58 72.274,222.461 C88.456,191.587 131.449,188.267 131.449,188.267 C98.3,184.121 73.812,193.378 58.735,207.517 C61.957,211.826 65.523,215.924 69.426,219.767" fill="#982E2C"></path>
    <path d="M107.477,243.887 C112.029,238.002 115.864,231.211 118.663,223.498 C131.449,188.267 179.182,186.565 179.182,186.565 C132.355,180.708 102.787,201.584 92.658,225.21 C91.255,228.482 89.621,231.496 87.829,234.299 C94.044,238.181 100.626,241.386 107.477,243.887" fill="#982E2C"></path>
    <path d="M143.998,250.313 L144.097,250.313 C145.221,250.312 146.341,250.287 147.46,250.252 C155.305,242.558 161.646,232.592 166.396,220.779 C179.597,187.957 226.915,183.846 226.915,183.846 C180.089,177.989 150.52,198.865 140.392,222.491 C135.702,233.43 128.548,241.646 120.855,247.796 C128.372,249.459 136.122,250.313 143.998,250.313" fill="#982E2C"></path>
    <path d="M208.855,228.253 C210.728,225.019 212.492,221.628 214.13,218.06 C219.06,207.324 228.176,199.557 237.861,193.995 C240.058,189.882 241.981,185.634 243.611,181.27 C214.614,185.6 195.792,201.889 188.125,219.772 C182.527,232.829 173.421,242.01 164.073,248.422 C180.369,245.32 195.654,238.454 208.855,228.253" fill="#982E2C"></path>
    <path d="M50.933,52.107 C48.959,54.082 51.118,56.687 52.623,58.193 C54.128,59.699 56.732,61.86 58.707,59.885 C60.683,57.909 58.523,55.305 57.018,53.8 C55.512,52.293 52.909,50.134 50.933,52.107" fill="#707170"></path>
    <path d="M265.44,101.773 C266.817,101.273 267.122,100.014 266.849,99.259 L266.421,98.078 L262.074,99.651 C262.622,101.216 263.667,102.413 265.44,101.773" fill="#707170"></path>
    <path d="M155.42,14.882 L154.954,19.901 C156.592,20.192 158.11,19.301 158.271,17.564 C158.447,15.67 157.136,14.9 155.42,14.882" fill="#707170"></path>
    <path d="M219.983,38.742 L218.961,38.012 L216.277,41.779 C217.617,42.755 219.158,43.146 220.254,41.613 C221.104,40.418 220.637,39.209 219.983,38.742" fill="#707170"></path>
    <path d="M14.556,125.577 C14.156,128.34 17.445,129.134 19.552,129.438 C21.659,129.743 25.037,129.914 25.436,127.151 C25.836,124.388 22.549,123.596 20.441,123.29 C18.334,122.985 14.956,122.814 14.556,125.577" fill="#707170"></path>
    <path d="M207.868,30.803 C205.43,29.443 203.517,32.231 202.479,34.091 C201.443,35.95 200.079,39.045 202.517,40.404 C204.956,41.763 206.869,38.974 207.906,37.115 C208.941,35.255 210.306,32.161 207.868,30.803" fill="#707170"></path>
    <path d="M264.603,113.833 L267.789,111.737 L267.78,111.703 L264.849,111.329 C264.553,111.294 264.366,111.267 264.248,111.297 C264.078,111.338 264.069,111.52 264.128,111.757 C264.299,112.452 264.432,113.139 264.603,113.833" fill="#707170"></path>
    <path d="M272.453,124.281 L264.324,125.482 C263.236,125.643 262.953,125.861 263.085,126.759 L263.325,128.382 C263.631,130.452 263.913,130.693 266.497,130.875 L266.546,131.679 L263.076,131.945 C262.76,129.453 262.444,126.959 262.077,124.475 C261.913,123.369 261.698,122.273 261.482,121.176 L262.07,121.089 C262.396,122.699 262.464,122.794 262.965,122.721 L272.215,121.353 C272.524,121.307 272.595,121.173 272.545,119.645 L273.167,119.554 C273.219,120.622 273.266,121.656 273.434,122.795 C273.585,123.813 273.838,124.816 274.11,125.94 L273.523,126.027 C273.18,124.543 272.955,124.206 272.453,124.281 Z M260.801,117.734 C260.563,116.767 260.224,115.827 259.986,114.862 L260.563,114.72 C260.833,115.821 260.993,116.033 261.331,115.95 C261.484,115.913 261.735,115.761 262.026,115.563 L264.064,114.2 C263.847,113.246 263.647,112.29 263.334,111.379 C263.271,111.197 263.123,111.107 262.92,111.085 L260.784,110.802 C260.505,110.763 260.341,110.749 260.136,110.799 C259.814,110.878 259.797,111.17 260.008,112.323 L259.398,112.472 C259.257,111.896 259.217,111.295 259.075,110.72 C258.933,110.144 258.689,109.592 258.548,109.016 L259.157,108.866 C259.479,109.883 259.716,109.968 260.647,110.098 L271.415,111.654 L271.595,112.382 L262.43,118.95 C261.925,119.308 261.746,119.46 261.988,120.515 L261.412,120.656 C261.174,119.69 261.038,118.7 260.801,117.734 Z M257.962,107.15 C257.327,105.192 258.005,104.297 259.53,103.744 C261.449,103.049 262.401,102.297 261.737,100.459 L261.518,99.853 L257.138,101.438 C256.693,101.598 256.726,101.94 257.141,103.291 L256.583,103.494 C256.27,102.476 255.956,101.457 255.595,100.455 C255.232,99.456 254.821,98.473 254.41,97.49 L254.968,97.289 C255.502,98.56 255.697,98.842 256.14,98.682 L264.816,95.541 C265.243,95.387 265.23,95.095 264.964,93.745 L265.521,93.543 C265.656,94.069 265.785,94.578 265.938,95.099 C266.083,95.603 266.234,96.124 266.412,96.616 C266.596,97.124 266.79,97.611 267.007,98.107 C267.201,98.593 267.418,99.09 267.596,99.582 C268.439,101.911 268.297,103.466 266.394,104.154 C264.622,104.795 263.272,103.113 262.592,101.746 L262.559,101.757 C263.142,104.033 262.897,105.307 261.071,106.154 C258.736,107.241 258.65,107.309 258.968,108.493 L258.458,108.677 L257.962,107.15 Z M250.276,89.282 C249.766,88.288 249.208,87.318 248.652,86.348 L249.179,86.077 C250.006,87.497 250.102,87.566 250.552,87.335 L258.875,83.06 C259.154,82.916 259.177,82.767 258.637,81.336 L259.197,81.049 C259.549,81.85 259.901,82.651 260.269,83.443 C260.637,84.235 261.004,85.027 261.403,85.804 C261.913,86.798 262.471,87.728 262.938,88.489 C263.407,89.248 263.789,89.837 263.949,90.149 C264.116,90.475 264.031,90.577 263.83,90.68 L261.204,91.95 L260.901,91.36 C262.83,89.958 262.176,88.606 261.226,86.758 L260.572,85.485 L256.441,87.607 L256.976,88.648 C257.63,89.921 258.494,89.692 259.637,89.165 L259.973,89.816 C259.259,90.144 258.56,90.464 257.86,90.823 C257.13,91.198 256.424,91.581 255.716,92.003 L255.349,91.288 C256.389,90.715 257.103,90.192 256.447,88.918 L255.914,87.879 L252.729,89.513 C251.752,90.015 251.553,90.315 251.967,91.123 L252.717,92.582 C253.674,94.445 254.019,94.582 256.525,93.922 L256.831,94.668 L253.629,96.038 C252.526,93.778 251.425,91.518 250.276,89.282 Z M246.672,83.492 L250.362,71.782 L250.344,71.754 L243.778,76.062 C243.296,76.377 243.302,76.543 243.973,77.98 L243.477,78.305 C243.166,77.736 242.855,77.168 242.501,76.628 C242.147,76.088 241.75,75.578 241.351,75.066 L241.848,74.741 C242.822,75.813 242.971,75.881 243.453,75.566 L250.382,71.018 C250.674,70.826 251.054,69.847 250.698,68.891 L251.194,68.566 C251.699,69.527 252.359,70.723 253.26,72.094 L249.985,81.799 L250.004,81.827 L255.329,78.332 C256.072,77.845 256.095,77.559 255.436,76.365 L255.96,76.019 C256.118,76.291 256.252,76.558 256.41,76.831 C256.558,77.088 256.716,77.361 256.878,77.609 C257.214,78.119 257.636,78.572 258.059,79.025 L257.445,79.428 C256.669,78.435 256.398,78.341 255.654,78.829 L247.236,84.353 L246.672,83.492 Z M235.367,67.533 C234.657,66.671 233.907,65.842 233.156,65.012 L233.615,64.635 C234.725,65.847 234.832,65.894 235.223,65.573 L242.447,59.628 C242.69,59.428 242.681,59.278 241.85,57.994 L242.336,57.595 C242.85,58.303 243.364,59.009 243.891,59.707 C244.419,60.402 244.947,61.098 245.502,61.772 C246.212,62.636 246.953,63.427 247.572,64.07 C248.191,64.712 248.689,65.207 248.911,65.477 C249.145,65.761 249.083,65.878 248.908,66.022 L246.612,67.821 L246.19,67.308 C247.777,65.529 246.851,64.346 245.53,62.743 L244.62,61.637 L241.036,64.588 L241.777,65.491 C242.688,66.596 243.484,66.19 244.488,65.431 L244.956,65.997 C244.327,66.47 243.711,66.93 243.104,67.429 C242.471,67.95 241.862,68.474 241.261,69.037 L240.751,68.417 C241.645,67.635 242.23,66.973 241.32,65.868 L240.577,64.965 L237.813,67.239 C236.965,67.937 236.833,68.271 237.409,68.972 L238.453,70.24 C239.784,71.857 240.15,71.918 242.459,70.74 L242.915,71.405 L240.077,73.424 C238.521,71.45 236.964,69.475 235.367,67.533 Z M227.881,59.989 C225.143,57.321 224.923,53.694 227.42,51.131 C229.967,48.518 233.673,48.815 236.211,51.288 C237.698,52.738 237.951,54.154 238.439,54.629 C238.627,54.811 238.85,54.858 239.095,54.731 L239.422,55.148 C238.971,55.56 238.52,55.973 238.093,56.411 C237.667,56.849 237.265,57.311 236.863,57.773 L236.438,57.359 C237.835,55.649 237.512,53.506 236.398,52.422 C234.311,50.387 231.841,51.271 229.514,53.659 C227.846,55.372 226.832,58.137 228.607,59.868 C229.52,60.757 230.422,60.832 230.982,60.257 L231.726,59.494 C232.188,59.019 232.135,58.723 231.123,57.737 L231.537,57.312 C232.176,58.006 232.814,58.702 233.49,59.359 C234.164,60.017 234.877,60.637 235.588,61.259 L235.174,61.684 C234.449,61.027 234.202,61.005 233.775,61.442 L232.618,62.63 C230.989,61.725 229.206,61.28 227.881,59.989 Z M222.393,43.031 C221.299,44.565 219.231,43.948 217.894,43.209 L217.872,43.237 C219.645,44.779 220.17,45.967 219.147,47.704 C217.844,49.924 217.812,50.029 218.745,50.823 L218.431,51.263 L217.153,50.289 C215.518,49.037 215.567,47.916 216.51,46.595 C217.694,44.931 218.05,43.771 216.458,42.637 L215.932,42.262 L213.229,46.055 C212.955,46.44 213.175,46.703 214.284,47.581 L213.94,48.064 C213.104,47.403 212.268,46.743 211.401,46.125 C210.534,45.507 209.637,44.932 208.74,44.357 L209.084,43.874 C210.247,44.617 210.568,44.739 210.841,44.354 L216.199,36.838 C216.462,36.468 216.285,36.236 215.299,35.275 L215.642,34.792 C216.052,35.148 216.449,35.494 216.869,35.837 C217.274,36.169 217.694,36.511 218.121,36.815 C218.563,37.129 218.999,37.419 219.459,37.704 C219.896,37.995 220.356,38.28 220.783,38.583 C222.801,40.021 223.566,41.382 222.393,43.031 Z M202.263,40.862 C199.245,39.179 197.897,35.613 199.63,32.503 C201.362,29.394 205.105,28.663 208.122,30.345 C211.14,32.027 212.487,35.594 210.756,38.702 C209.022,41.812 205.28,42.544 202.263,40.862 Z M196.395,25.487 L192.575,34.483 C192.392,34.917 192.663,35.126 194.032,35.784 L193.801,36.33 C192.81,35.853 191.817,35.374 190.806,34.945 C189.794,34.516 188.762,34.134 187.729,33.752 L187.961,33.206 C189.354,33.722 189.693,33.77 189.877,33.338 L193.697,24.341 C192.041,23.638 190.618,23.641 189.52,25.336 L188.974,25.103 L190.338,22.157 C191.183,22.535 192.005,22.921 192.85,23.298 C193.678,23.669 194.522,24.047 195.357,24.402 C197.045,25.117 198.772,25.738 200.5,26.357 L199.194,29.253 L198.647,29.022 C199.336,27.001 198.066,26.196 196.395,25.487 Z M186.704,25.093 L186.138,24.919 C186.603,22.76 185.338,20.999 183.853,20.543 C181.066,19.683 179.271,21.595 178.289,24.782 C177.605,27.001 177.877,29.971 180.413,30.751 C182.464,31.385 183.999,30.14 185.131,28.481 L185.601,28.735 C185.104,29.695 184.668,30.694 184.305,31.696 C182.751,31.4 181.288,31.642 179.57,31.113 C176.067,30.033 174.219,26.906 175.272,23.487 C176.348,20 179.782,18.576 183.169,19.62 C185.153,20.231 186.024,21.376 186.676,21.577 C186.925,21.654 187.145,21.594 187.305,21.369 L187.781,21.592 C187.568,22.165 187.354,22.739 187.175,23.323 C186.994,23.907 186.848,24.502 186.704,25.093 Z M173.667,17.298 L173.042,20.147 L172.391,20.019 C172.482,17.635 171.016,17.314 168.977,16.918 L167.572,16.644 L166.685,21.202 L167.832,21.425 C169.236,21.699 169.592,20.879 169.884,19.656 L170.604,19.795 C170.42,20.56 170.238,21.306 170.088,22.078 C169.932,22.882 169.794,23.674 169.689,24.49 L168.901,24.336 C169.094,23.165 169.123,22.281 167.718,22.008 L166.57,21.784 L165.888,25.297 C165.678,26.376 165.788,26.719 166.68,26.891 L168.29,27.205 C170.347,27.606 170.666,27.419 171.698,25.04 L172.474,25.263 L171.57,28.625 C169.112,28.094 166.655,27.562 164.188,27.082 C163.092,26.869 161.985,26.706 160.878,26.544 L160.992,25.962 C162.619,26.19 162.731,26.158 162.829,25.661 L164.616,16.479 C164.677,16.17 164.572,16.06 163.115,15.6 L163.235,14.983 C164.083,15.201 164.929,15.419 165.778,15.62 C166.629,15.821 167.479,16.023 168.336,16.188 C169.432,16.402 170.508,16.541 171.396,16.642 C172.281,16.743 172.98,16.809 173.324,16.875 C173.684,16.945 173.711,17.075 173.667,17.298 Z M156.254,20.616 C155.803,20.574 155.353,20.516 154.903,20.456 L154.507,24.711 C154.464,25.181 154.785,25.298 156.396,25.517 L156.343,26.106 C155.253,25.953 154.163,25.799 153.068,25.699 C151.975,25.597 150.874,25.548 149.774,25.498 L149.829,24.907 C151.208,24.966 151.547,24.909 151.589,24.44 L152.442,15.254 C152.484,14.801 152.216,14.689 150.862,14.352 L150.917,13.762 C151.435,13.863 151.949,13.964 152.468,14.047 C152.985,14.13 153.504,14.213 154.024,14.261 C154.545,14.31 155.069,14.323 155.593,14.354 C156.117,14.367 156.64,14.399 157.159,14.448 C159.141,14.631 160.967,15.519 160.75,17.865 C160.53,20.226 158.39,20.815 156.254,20.616 Z M144.123,25.6220724 C142.692,25.616 141.682,25.089 141.369,25.086 C141.176,25.085 141,25.224 140.878,25.329 L140.443,25.257 C140.482,24.157 140.453,23.04 140.441,21.94 L141.051,21.943 C141.237,23.55 141.979,25.09 143.62,25.097 C144.929,25.104 145.962,24.341 145.969,23.101 C145.981,20.204 140.583,21.383 140.604,17.02 C140.612,15.204 142.051,13.571 144.215,13.5809543 C145.664,13.587 146.271,14.236 146.795,14.238 C146.986,14.239 147.197,14.101 147.338,13.945 L147.826,14.016 C147.77,14.924 147.729,15.953 147.708,16.913 L147.114,16.91 C146.98,15.513 146.028,14.112 144.649,14.106 C143.515,14.1 142.673,14.83 142.668,16 C142.656,18.425 148.141,17.491 148.12006,21.959 C148.112,23.617 146.741,25.636 144.123,25.6220724 Z M136.478,15.668 L137.408,25.694 L136.383,25.788 L127.772,17.035 L127.737,17.038 L128.463,24.858 C128.517,25.431 128.663,25.507 130.248,25.586 L130.301,26.178 C129.654,26.186 129.007,26.192 128.364,26.252 C127.72,26.311 127.083,26.424 126.445,26.536 L126.39,25.944 C127.794,25.586 127.925,25.488 127.872,24.914 L127.106,16.66 C127.073,16.313 126.386,15.518 125.376,15.385 L125.32,14.792 C126.407,14.797 127.772,14.776 129.406,14.624 L136.441,22.068 L136.476,22.065 L135.887,15.722 C135.805,14.836 135.563,14.683 134.198,14.705 L134.139,14.08 C134.454,14.068 134.752,14.075 135.067,14.063 C135.364,14.053 135.679,14.042 135.974,14.015 C136.582,13.959 137.18,13.797 137.779,13.637 L137.846,14.366 C136.604,14.587 136.395,14.781 136.478,15.668 Z M121.921,27.328 C120.873,27.519 119.835,27.763 118.796,28.006 L118.69,27.423 C120.202,27.057 120.338,26.926 120.253,26.461 L118.606,17.465 C118.515,16.967 118.123,16.862 116.882,16.965 L116.774,16.381 C117.807,16.298 118.838,16.216 119.852,16.03 C120.865,15.845 121.859,15.555 122.853,15.268 L122.959,15.852 C121.728,16.201 121.399,16.439 121.49,16.937 L123.137,25.933 C123.222,26.398 123.396,26.471 124.974,26.272 L125.082,26.855 C124.025,26.996 122.968,27.136 121.921,27.328 Z M104.634,31.805 C103.57,32.144 102.522,32.531 101.475,32.92 L101.295,32.353 C102.832,31.774 102.916,31.693 102.762,31.211 L99.929,22.301 C99.833,22.001 99.69,21.955 98.192,22.249 L98.001,21.65 C98.848,21.436 99.695,21.221 100.537,20.991 C101.378,20.759 102.221,20.529 103.052,20.264 C104.115,19.926 105.125,19.532 105.952,19.195 C106.778,18.858 107.422,18.58 107.754,18.475 C108.104,18.364 108.19,18.465 108.259,18.68 L109.075,21.478 L108.444,21.679 C107.381,19.546 105.941,19.968 103.963,20.596 L102.6,21.031 L104.005,25.452 L105.119,25.098 C106.483,24.664 106.401,23.775 106.07,22.562 L106.766,22.341 C106.971,23.1 107.171,23.842 107.408,24.59 C107.657,25.371 107.916,26.13 108.217,26.894 L107.453,27.137 C107.06,26.018 106.663,25.229 105.299,25.662 L104.185,26.016 L105.27,29.425 C105.603,30.472 105.864,30.719 106.728,30.443 L108.291,29.948 C110.286,29.312 110.478,28.995 110.243,26.415 L111.029,26.239 L111.845,29.623 C109.436,30.333 107.027,31.044 104.634,31.805 Z M97.624,34.4 C96.684,34.817 95.764,35.282 94.848,35.746 L94.607,35.203 C95.919,34.547 95.994,34.456 95.703,33.802 L93.941,29.83 L89.889,31.627 L91.651,35.6 C91.942,36.253 92.058,36.259 93.427,35.728 L93.665,36.272 C92.703,36.641 91.741,37.01 90.801,37.428 C89.86,37.846 88.94,38.311 88.021,38.776 L87.78,38.234 C89.188,37.532 89.261,37.442 88.971,36.789 L85.327,28.574 C85.121,28.111 84.873,28.069 83.572,28.493 L83.331,27.951 C84.298,27.636 85.265,27.322 86.19,26.911 C87.115,26.5 87.998,25.994 88.883,25.487 L89.123,26.03 C87.936,26.709 87.801,26.922 88.006,27.385 L89.648,31.086 L93.7,29.287 L92.058,25.587 C91.852,25.123 91.604,25.081 90.304,25.506 L90.06,24.965 C91.043,24.642 92.027,24.322 92.967,23.904 C93.908,23.487 94.807,22.973 95.71,22.457 L95.951,23 C94.667,23.722 94.533,23.935 94.738,24.397 L98.383,32.612 C98.673,33.266 98.79,33.272 100.254,32.698 L100.489,33.243 C99.528,33.612 98.566,33.982 97.624,34.4 Z M82.439,41.923 C81.491,42.476 80.566,43.075 79.645,43.672 L79.346,43.159 C80.592,42.352 80.835,42.11 80.598,41.702 L75.682,33.257 C74.129,34.16 73.279,35.303 73.977,37.197 L73.465,37.495 L71.922,34.637 C72.731,34.187 73.533,33.761 74.341,33.31 C75.134,32.869 75.942,32.419 76.727,31.963 C78.31,31.041 79.841,30.029 81.373,29.016 L82.91,31.797 L82.397,32.095 C81.19,30.334 79.784,30.869 78.216,31.782 L83.132,40.228 C83.369,40.636 83.7,40.544 85.047,39.84 L85.343,40.356 C84.366,40.863 83.39,41.37 82.439,41.923 Z M66.906,52.729 C66.033,53.425 65.192,54.162 64.352,54.9 L63.981,54.435 C65.251,53.312 65.238,53.211 64.803,52.665 L59.113,45.527 C58.916,45.281 58.767,45.289 57.471,46.099 L57.079,45.608 C57.794,45.104 58.509,44.601 59.213,44.085 C59.917,43.568 60.621,43.051 61.304,42.507 C62.177,41.811 62.98,41.082 63.633,40.472 C64.285,39.864 64.788,39.374 65.061,39.157 C65.347,38.927 65.464,38.991 65.605,39.168 L67.466,41.614 L66.947,42.027 C65.094,40.29 63.899,41.199 62.274,42.493 L61.155,43.384 L64.049,47.015 L64.964,46.286 C66.083,45.395 65.689,44.592 64.947,43.577 L65.518,43.121 C65.98,43.757 66.432,44.38 66.921,44.993 C67.433,45.635 67.946,46.251 68.501,46.86 L67.873,47.36 C67.105,46.454 66.453,45.859 65.334,46.751 L64.419,47.479 L66.649,50.279 C67.53,51.383 67.627,51.419 69.222,50.258 L69.591,50.722 C68.685,51.378 67.779,52.032 66.906,52.729 Z M59.078,60.254 C56.633,62.698 52.832,63.018 50.315,60.501 C47.798,57.982 48.119,54.181 50.564,51.737 C53.007,49.293 56.809,48.973 59.326,51.493 C61.843,54.01 61.521,57.811 59.078,60.254 Z M45.446,76.166 C44.793,77.072 44.183,78.009 43.572,78.946 L43.091,78.599 C43.979,77.217 43.998,77.102 43.587,76.806 L35.998,71.337 C35.743,71.153 35.601,71.202 34.571,72.331 L34.062,71.965 C34.614,71.286 35.167,70.61 35.706,69.922 C36.244,69.235 36.782,68.546 37.292,67.839 C37.946,66.933 38.521,66.013 38.985,65.251 C39.448,64.488 39.8,63.88 40.004,63.597 C40.218,63.3 40.348,63.329 40.532,63.462 L42.856,65.222 L42.469,65.761 C40.343,64.68 39.436,65.877 38.223,67.563 L37.386,68.724 L41.152,71.438 L41.835,70.489 C42.672,69.327 42.077,68.662 41.088,67.885 L41.516,67.291 C42.133,67.778 42.735,68.255 43.373,68.714 C44.038,69.194 44.7,69.649 45.396,70.086 L44.927,70.737 C43.944,70.071 43.154,69.674 42.318,70.837 L41.634,71.784 L44.536,73.876 C45.429,74.519 45.786,74.56 46.317,73.824 L47.275,72.493 C48.499,70.794 48.464,70.424 46.738,68.492 L47.264,67.882 L49.938,70.111 C48.426,72.119 46.915,74.127 45.446,76.166 Z M40.475,84.669 C38.672,87.861 35.223,88.999 32.107,87.241 C28.931,85.446 28.272,81.787 30.014,78.701 C31.036,76.893 32.34,76.286 32.674,75.695 C32.803,75.466 32.792,75.24 32.607,75.034 L32.921,74.614 C33.435,74.945 33.951,75.276 34.482,75.576 C35.015,75.876 35.563,76.148 36.116,76.415 L35.825,76.932 C33.815,76.017 31.826,76.879 31.062,78.231 C29.628,80.769 31.114,82.931 34.017,84.569 C36.038,85.711 38.996,86.079 40.301,83.77 C41.357,81.9 40.47,80.136 39.089,78.675 L39.437,78.271 C40.27,78.962 41.152,79.6 42.054,80.169 C41.434,81.623 41.359,83.104 40.475,84.669 Z M35.271,94.25 C34.831,95.219 34.439,96.209 34.046,97.201 L33.506,96.955 C34.069,95.506 34.039,95.319 33.609,95.125 L25.284,91.345 C24.822,91.136 24.512,91.397 23.889,92.475 L23.349,92.23 C23.869,91.336 24.391,90.442 24.816,89.504 C25.242,88.567 25.572,87.586 25.902,86.606 L26.442,86.85 C26.026,88.061 26.035,88.468 26.495,88.677 L34.821,92.456 C35.25,92.649 35.411,92.55 36.146,91.14 L36.686,91.385 C36.199,92.332 35.711,93.281 35.271,94.25 Z M30.937,105.159 C30.559,106.209 30.23,107.278 29.902,108.347 L29.344,108.146 C29.834,106.524 29.77,106.445 29.113,106.208 L20.525,103.123 C20.23,103.017 20.106,103.104 19.429,104.472 L18.838,104.26 C19.183,103.457 19.526,102.653 19.854,101.844 C20.182,101.035 20.51,100.226 20.804,99.405 C21.182,98.354 21.482,97.312 21.717,96.451 C21.953,95.59 22.123,94.91 22.241,94.582 C22.365,94.237 22.498,94.229 22.711,94.306 L25.578,95.409 L25.353,96.034 C22.864,95.528 22.325,96.929 21.623,98.883 L21.139,100.229 L25.506,101.798 L25.902,100.699 C26.385,99.352 25.629,98.876 24.465,98.403 L24.712,97.712 C25.44,98.012 26.15,98.303 26.89,98.569 C27.661,98.846 28.422,99.101 29.212,99.329 L28.94,100.085 C27.812,99.716 26.944,99.553 26.46,100.898 L26.065,101.999 L29.431,103.208 C30.761,103.686 30.861,103.666 31.609,101.84 L32.167,102.041 C31.741,103.075 31.314,104.108 30.937,105.159 Z M27.683,116.491 C27.409,117.574 27.187,118.669 26.963,119.765 L26.389,119.619 C26.718,117.957 26.646,117.885 25.97,117.713 L17.119,115.478 C16.813,115.401 16.699,115.499 16.158,116.928 L15.549,116.774 C15.813,115.941 16.078,115.108 16.326,114.269 C16.573,113.432 16.821,112.595 17.034,111.749 C17.308,110.666 17.505,109.599 17.655,108.719 C17.805,107.84 17.909,107.145 17.995,106.807 C18.084,106.451 18.215,106.43 18.435,106.485 L21.396,107.305 L21.234,107.949 C18.707,107.689 18.306,109.137 17.798,111.149 L17.448,112.537 L21.949,113.674 L22.236,112.54 C22.585,111.152 21.787,110.753 20.581,110.395 L20.761,109.683 C21.513,109.91 22.249,110.131 23.011,110.323 C23.806,110.524 24.589,110.704 25.397,110.854 L25.201,111.633 C24.041,111.376 23.161,111.297 22.81,112.686 L22.524,113.819 L25.993,114.695 C27.365,115.041 27.461,115.012 28.029,113.121 L28.604,113.266 C28.28,114.336 27.956,115.408 27.683,116.491 Z M25.956,127.226 C25.461,130.646 22.608,133.178 19.084,132.669 C15.56,132.158 13.543,128.921 14.038,125.501 C14.533,122.082 17.386,119.551 20.909,120.06 C24.432,120.57 26.45,123.807 25.956,127.226 Z M143.871,2.03293883 C65.553,2.104 2.108,65.579 2.036,143.863 L35.149,143.863 C35.222,83.854 83.861,35.2 143.9,35.146 C204.007,35.091 252.778,83.762 252.854,143.863 L285.967,143.863 C285.892,65.46 222.274,1.961 143.871,2.03293883 L143.871,2.03293883 Z" fill="#707170"></path>
    <path d="M32.156,191.05 C32.008,190.691 31.864,190.391 31.728,190.108 L21.804,194.209 C21.886,194.455 21.987,194.794 22.086,195.033 C23.448,198.328 26.21,199.086 29.306,197.806 C32.284,196.575 33.307,193.833 32.156,191.05" fill="#121930"></path>
    <path d="M52.843,228.753 L49.995,229.912 C49.708,230.032 49.527,230.103 49.435,230.191 C49.304,230.316 49.392,230.487 49.57,230.674 C50.093,231.222 50.577,231.782 51.099,232.33 L52.869,228.779 L52.843,228.753" fill="#121930"></path>
    <path d="M155.71,264.099 C152.77,264.402 152.798,267.914 153.025,270.113 C153.252,272.311 153.941,275.755 156.883,275.452 C159.822,275.15 159.795,271.638 159.567,269.439 C159.34,267.241 158.65,263.796 155.71,264.099" fill="#121930"></path>
    <path d="M46.432,220.313 C47.645,219.396 47.546,218.035 47.034,217.357 L46.231,216.296 L42.401,219.189 C43.445,220.6 44.87,221.492 46.432,220.313" fill="#121930"></path>
    <path d="M203.341,248.886 C200.767,250.343 202.199,253.547 203.287,255.47 C204.375,257.392 206.386,260.269 208.958,258.813 C211.532,257.356 210.1,254.151 209.012,252.229 C207.924,250.306 205.913,247.429 203.341,248.886" fill="#121930"></path>
    <path d="M271.104,171.488 C271.696,171.574 271.807,171.44 272.276,169.828 L272.886,169.918 C272.735,170.586 272.583,171.255 272.486,171.931 C272.389,172.607 272.345,173.291 272.302,173.975 L271.691,173.887 C271.675,172.354 271.605,172.195 271.015,172.109 L262.499,170.879 C262.14,170.827 261.169,171.341 260.786,172.349 L260.177,172.261 C260.447,171.143 260.761,169.732 261.009,168.014 L270.246,162.591 L270.251,162.554 L263.707,161.609 C262.793,161.477 262.579,161.689 262.266,163.099 L261.621,163.006 C261.687,162.68 261.767,162.374 261.832,162.048 C261.895,161.739 261.96,161.413 262.005,161.102 C262.097,160.462 262.082,159.806 262.067,159.151 L262.819,159.26 C262.737,160.592 262.882,160.855 263.798,160.988 L274.142,162.482 L273.986,163.561 L263.042,170.285 L263.037,170.323 L271.104,171.488 Z M269.875,183.911 C268.853,187.424 265.538,189.674 261.992,188.642 C258.445,187.611 256.856,183.935 257.879,180.422 C258.902,176.91 262.215,174.66 265.762,175.691 C269.309,176.722 270.897,180.398 269.875,183.911 Z M265.243,196.225 C264.813,197.267 264.434,198.329 264.053,199.391 L263.483,199.157 C264.028,197.602 263.991,197.407 263.539,197.221 L254.771,193.596 C254.286,193.395 253.97,193.685 253.352,194.848 L252.783,194.614 C253.3,193.648 253.816,192.681 254.233,191.674 C254.649,190.666 254.966,189.618 255.281,188.569 L255.85,188.804 C255.452,190.099 255.471,190.527 255.956,190.728 L264.726,194.352 C265.177,194.538 265.341,194.426 266.066,192.907 L266.635,193.142 C266.154,194.163 265.674,195.183 265.243,196.225 Z M260.876,206.273 C260.177,207.618 259.2,208.317 259.046,208.612 C258.953,208.792 258.995,209.023 259.032,209.188 L258.755,209.565 C257.76,209.005 256.715,208.503 255.693,207.993 L255.992,207.419 C257.564,208.008 259.345,208.038 260.146,206.498 C260.786,205.268 260.583,203.933 259.442,203.339 C256.775,201.952 255.248,207.594 251.23,205.504 C249.561,204.635 248.749,202.505 249.808,200.472 C250.516,199.112 251.408,198.847 251.663,198.355 C251.758,198.175 251.731,197.911 251.655,197.705 L251.958,197.28 C252.769,197.764 253.699,198.289 254.573,198.766 L254.284,199.323 C252.931,198.785 251.176,199.018 250.502,200.313 C249.947,201.379 250.214,202.516 251.289,203.077 C253.522,204.239 255.318,198.632 259.432,200.772 C260.957,201.566 262.155,203.814 260.876,206.273 Z M254.804,216.657 C253.979,217.928 252.938,218.53 252.757,218.809 C252.647,218.979 252.668,219.213 252.688,219.381 L252.376,219.729 C251.439,219.076 250.445,218.476 249.478,217.87 L249.83,217.328 C251.34,218.065 253.109,218.267 254.056,216.81 C254.811,215.648 254.735,214.3 253.656,213.6 C251.134,211.963 249.073,217.43 245.272,214.965 C243.692,213.939 243.089,211.742 244.337,209.82 C245.172,208.535 246.088,208.357 246.389,207.892 C246.499,207.722 246.499,207.457 246.442,207.244 L246.785,206.85 C247.546,207.41 248.422,208.022 249.248,208.58 L248.905,209.107 C247.609,208.442 245.839,208.505 245.044,209.729 C244.391,210.736 244.546,211.894 245.564,212.555 C247.677,213.926 250.001,208.518 253.892,211.044 C255.336,211.98 256.313,214.333 254.804,216.657 Z M248.428,225.114 C247.736,226.004 247.088,226.928 246.438,227.851 L245.952,227.473 C246.89,226.119 246.906,225.921 246.52,225.621 L239.019,219.803 C238.604,219.481 238.223,219.677 237.317,220.635 L236.831,220.257 C237.585,219.463 238.34,218.668 239.009,217.807 C239.678,216.946 240.261,216.019 240.844,215.091 L241.33,215.469 C240.603,216.612 240.509,217.03 240.923,217.352 L248.424,223.17 C248.81,223.47 248.999,223.405 250.102,222.133 L250.589,222.51 C249.854,223.367 249.12,224.223 248.428,225.114 Z M242.227,232.632 C241.505,233.374 240.822,234.154 240.14,234.934 L239.698,234.505 C240.665,233.434 240.651,233.162 240.131,232.657 L234.147,226.83 L234.121,226.857 L238.258,236.868 L238,237.133 L228.145,233.701 L228.118,233.727 L233.882,239.339 C234.297,239.743 234.762,239.422 235.651,238.663 L236.094,239.093 C235.59,239.532 235.087,239.971 234.623,240.448 C234.159,240.925 233.734,241.439 233.31,241.954 L232.868,241.524 C233.691,240.444 233.795,240.131 233.185,239.536 L227.161,233.672 C226.473,233.002 226.071,232.999 224.989,233.826 L224.547,233.397 C225.617,232.453 226.688,231.509 227.68,230.489 L236.318,233.561 L232.874,225.152 C233.866,224.132 234.78,223.036 235.695,221.94 L236.136,222.37 C235.545,223.238 235.274,223.594 235.625,223.935 L242.231,230.368 C242.79,230.912 243.062,230.893 244.029,230.055 L244.47,230.482 C243.709,231.186 242.949,231.89 242.227,232.632 Z M228.038,246.141 C227.214,246.768 226.424,247.438 225.634,248.109 L225.261,247.619 C226.374,246.702 226.401,246.432 225.963,245.856 L220.907,239.214 L220.879,239.236 L223.487,249.743 L223.193,249.967 L213.956,245.122 L213.926,245.145 L218.794,251.542 C219.146,252.003 219.652,251.754 220.645,251.135 L221.017,251.625 C220.455,251.985 219.894,252.345 219.363,252.747 C218.834,253.15 218.338,253.597 217.842,254.043 L217.469,253.553 C218.443,252.606 218.591,252.311 218.076,251.635 L212.988,244.95 C212.406,244.186 212.011,244.123 210.817,244.782 L210.444,244.292 C211.643,243.516 212.84,242.741 213.972,241.879 L222.059,246.189 L219.897,237.367 C221.028,236.504 222.096,235.555 223.161,234.607 L223.534,235.097 C222.82,235.868 222.501,236.18 222.796,236.569 L228.377,243.902 C228.849,244.522 229.121,244.542 230.201,243.857 L230.573,244.347 C229.718,244.93 228.86,245.514 228.038,246.141 Z M209.227,259.285 C206.041,261.088 202.099,260.387 200.279,257.172 C198.46,253.958 199.889,250.216 203.072,248.413 C206.258,246.611 210.2,247.312 212.02,250.527 C213.839,253.741 212.41,257.483 209.227,259.285 Z M195.22,266.179 C191.638,267.67 188.035,266.424 186.608,262.996 C185.153,259.503 187.003,256.064 190.466,254.622 C192.497,253.777 193.974,254.103 194.639,253.826 C194.895,253.72 195.034,253.524 195.015,253.238 L195.554,253.093 C195.764,253.692 195.974,254.291 196.217,254.876 C196.461,255.461 196.739,256.032 197.017,256.603 L196.437,256.845 C195.371,254.816 193.16,254.265 191.643,254.898 C188.793,256.084 188.607,258.809 189.938,262.003 C190.863,264.226 193.072,266.406 195.665,265.326 C197.764,264.452 198.185,262.433 197.998,260.353 L198.552,260.241 C198.789,261.338 199.102,262.425 199.475,263.466 C198.009,264.272 196.978,265.448 195.22,266.179 Z M177.259,272.356 L167.032,264.587 L166.995,264.596 L168.824,272.537 C168.959,273.12 169.122,273.175 170.796,273.03 L170.934,273.63 C170.256,273.731 169.577,273.831 168.911,273.985 C168.245,274.139 167.591,274.346 166.937,274.553 L166.799,273.952 C168.223,273.382 168.347,273.261 168.212,272.679 L166.282,264.296 C166.2,263.942 165.372,263.223 164.293,263.231 L164.154,262.631 C165.295,262.479 166.724,262.261 168.417,261.87 L176.812,268.519 L176.848,268.511 L175.364,262.069 C175.157,261.169 174.882,261.047 173.454,261.264 L173.307,260.629 C173.636,260.572 173.95,260.537 174.277,260.48 C174.589,260.427 174.916,260.369 175.223,260.299 C175.853,260.153 176.458,259.902 177.063,259.651 L177.234,260.392 C175.963,260.797 175.77,261.028 175.977,261.928 L178.321,272.111 L177.259,272.356 Z M156.938,275.993 C153.299,276.367 149.969,274.142 149.588,270.466 C149.209,266.79 152.015,263.933 155.653,263.558 C159.293,263.184 162.624,265.409 163.004,269.085 C163.384,272.762 160.576,275.618 156.938,275.993 Z M143.965,276.404 C142.839,276.422 141.712,276.493 140.587,276.566 L140.577,275.95 C142.22,275.833 142.383,275.722 142.375,275.233 L142.222,265.741 C142.212,265.216 141.821,265.041 140.508,264.935 L140.499,264.316 C141.59,264.407 142.682,264.498 143.771,264.481 C144.861,264.464 145.949,264.338 147.037,264.215 L147.047,264.83 C145.7,264.979 145.316,265.166 145.324,265.692 L145.479,275.183 C145.487,275.673 145.654,275.778 147.337,275.843 L147.347,276.458 C146.22,276.422 145.092,276.385 143.965,276.404 Z M138.669,267.617 L138.043,267.565 C138.061,265.348 136.517,264.966 134.603,264.806 L133.761,274.915 C133.72,275.402 134.062,275.522 135.658,275.727 L135.606,276.341 C134.452,276.19 133.296,276.039 132.136,275.943 C130.977,275.846 129.813,275.804 128.648,275.761 L128.699,275.147 C130.27,275.205 130.627,275.144 130.668,274.657 L131.51,264.548 C129.614,264.39 128.186,264.852 127.646,266.879 L127.02,266.827 L127.41,263.479 C128.384,263.578 129.338,263.694 130.313,263.793 C131.269,263.891 132.242,263.991 133.2,264.071 C135.133,264.232 137.075,264.284 139.017,264.338 L138.669,267.617 Z M125.042,265.434 C124.919,266.056 124.832,266.686 124.745,267.315 L124.128,267.193 C124.373,264.914 122.842,263.225 121.228,262.905 C118.201,262.304 116.529,264.466 115.856,267.86 C115.388,270.224 116.01,273.266 118.766,273.813 C120.996,274.255 122.469,272.812 123.473,270.979 L123.996,271.193 C123.582,272.238 123.236,273.315 122.967,274.388 C121.3,274.242 119.789,274.644 117.921,274.273 C114.114,273.518 111.815,270.476 112.537,266.832 C113.272,263.117 116.725,261.291 120.405,262.021 C122.562,262.449 123.608,263.543 124.315,263.684 C124.587,263.737 124.811,263.653 124.954,263.404 L125.484,263.582 C125.325,264.197 125.165,264.812 125.042,265.434 Z M111.105,260.334 L110.105,263.189 L109.437,262.973 C109.819,260.528 108.317,260.005 106.225,259.33 L104.783,258.865 L103.302,263.448 L104.48,263.828 C105.922,264.293 106.394,263.494 106.848,262.271 L107.586,262.51 C107.3,263.274 107.021,264.021 106.77,264.796 C106.508,265.606 106.27,266.404 106.061,267.23 L105.251,266.969 C105.595,265.786 105.733,264.879 104.291,264.414 L103.112,264.034 L101.971,267.566 C101.621,268.651 101.696,269.018 102.61,269.313 L104.264,269.847 C106.374,270.528 106.733,270.377 108.103,268.061 L108.89,268.391 L107.536,271.74 C105.021,270.871 102.504,270.002 99.972,269.184 C98.846,268.821 97.704,268.51 96.562,268.198 L96.751,267.612 C98.432,268.06 98.554,268.042 98.716,267.542 L101.7,258.307 C101.801,257.997 101.705,257.871 100.231,257.205 L100.431,256.584 C101.294,256.92 102.156,257.256 103.024,257.574 C103.893,257.892 104.761,258.21 105.64,258.494 C106.766,258.857 107.878,259.141 108.797,259.361 C109.717,259.581 110.443,259.74 110.794,259.853 C111.164,259.972 111.178,260.11 111.105,260.334 Z M93.811,267.105 C91.408,265.96 89.005,264.814 86.58,263.717 C85.501,263.23 84.401,262.792 83.301,262.354 L83.555,261.793 C85.175,262.426 85.298,262.423 85.515,261.944 L89.513,253.099 C89.647,252.803 89.567,252.666 88.176,251.839 L88.445,251.24 C89.427,251.804 90.376,252.352 91.488,252.854 C92.481,253.304 93.52,253.654 94.677,254.062 L94.422,254.624 C92.905,254.076 92.477,254.082 92.261,254.56 L88.747,262.332 C88.277,263.371 88.311,263.745 89.187,264.141 L90.77,264.857 C92.791,265.77 93.165,265.661 94.786,263.513 L95.531,263.929 L93.811,267.105 Z M78.749,252.192 C80.051,252.968 80.689,252.294 81.405,251.202 L82.072,251.598 C81.623,252.279 81.184,252.945 80.766,253.644 C80.33,254.376 79.919,255.101 79.531,255.862 L78.801,255.427 C79.399,254.35 79.736,253.496 78.434,252.721 L77.37,252.087 L75.469,255.275 C74.884,256.256 74.876,256.63 75.702,257.122 L77.195,258.011 C79.101,259.147 79.485,259.08 81.337,257.127 L82.031,257.625 L79.963,260.588 C77.704,259.179 75.445,257.77 73.158,256.408 C72.142,255.803 71.098,255.243 70.054,254.685 L70.369,254.156 C71.908,254.967 72.031,254.977 72.3,254.527 L77.271,246.189 C77.438,245.909 77.373,245.765 76.084,244.786 L76.418,244.226 C77.185,244.746 77.95,245.265 78.726,245.77 C79.501,246.274 80.277,246.778 81.071,247.251 C82.087,247.857 83.109,248.381 83.956,248.801 C84.803,249.222 85.475,249.537 85.793,249.726 C86.126,249.925 86.109,250.062 85.989,250.264 L84.376,252.825 L83.773,252.465 C84.691,250.166 83.344,249.322 81.455,248.196 L80.152,247.42 L77.685,251.558 L78.749,252.192 Z M66.31,237.303 C64.998,236.365 64.584,236.254 64.246,236.656 L58.753,243.186 C58.019,244.059 57.95,244.429 58.685,245.047 L60.015,246.165 C61.712,247.592 62.102,247.589 64.245,245.959 L64.85,246.561 L62.331,249.154 C60.329,247.399 58.327,245.645 56.29,243.932 C55.385,243.171 54.445,242.451 53.505,241.732 L53.901,241.26 C55.29,242.309 55.409,242.339 55.747,241.936 L61.998,234.505 C62.208,234.256 62.167,234.103 61.054,232.93 L61.474,232.426 C62.266,233.234 63.031,234.019 63.964,234.805 C64.798,235.506 65.703,236.125 66.706,236.831 L66.31,237.303 Z M51.831,240.21 C51.105,239.448 50.456,238.611 49.73,237.849 C49.003,237.087 48.198,236.4 47.472,235.638 L47.917,235.213 C48.746,236.081 49.002,236.194 49.265,235.944 C49.383,235.831 49.529,235.564 49.688,235.233 L50.807,232.942 C50.106,232.18 49.418,231.407 48.651,230.734 C48.498,230.599 48.317,230.593 48.122,230.678 L46.041,231.514 C45.768,231.62 45.612,231.693 45.455,231.843 C45.206,232.08 45.344,232.357 46.146,233.303 L45.674,233.752 C45.241,233.298 44.886,232.768 44.452,232.314 C44.019,231.86 43.507,231.48 43.074,231.025 L43.545,230.576 C44.375,231.341 44.634,231.298 45.544,230.94 L56.102,226.844 L56.651,227.418 L51.847,238.127 C51.58,238.713 51.5,238.943 52.277,239.784 L51.831,240.21 Z M42.124,229.031 L41.677,229.369 L40.694,227.981 C39.436,226.199 39.827,225.094 41.171,224.078 C42.862,222.801 43.57,221.756 42.322,220.106 L41.909,219.56 L38.05,222.476 C37.66,222.77 37.799,223.105 38.644,224.342 L38.153,224.714 C37.517,223.783 36.88,222.851 36.199,221.952 C35.52,221.054 34.796,220.187 34.072,219.321 L34.563,218.95 C35.502,220.07 35.786,220.296 36.176,220.001 L43.822,214.225 C44.199,213.941 44.092,213.651 43.396,212.37 L43.888,211.999 C44.19,212.489 44.481,212.964 44.798,213.442 C45.103,213.906 45.42,214.385 45.754,214.826 C46.101,215.283 46.449,215.715 46.824,216.149 C47.173,216.58 47.547,217.015 47.882,217.457 C49.465,219.549 49.819,221.158 48.143,222.424 C46.581,223.603 44.699,222.316 43.584,221.144 L43.556,221.165 C44.862,223.282 45.026,224.639 43.475,226.042 C41.496,227.839 41.431,227.934 42.124,229.031 Z M28.198,209.319 C27.603,208.297 26.961,207.301 26.32,206.306 L26.852,205.996 C27.804,207.452 27.907,207.521 28.361,207.257 L36.757,202.378 C37.039,202.214 37.052,202.056 36.401,200.576 L36.964,200.248 C37.382,201.074 37.799,201.9 38.232,202.717 C38.665,203.534 39.099,204.351 39.563,205.149 C40.158,206.172 40.797,207.125 41.332,207.904 C41.869,208.682 42.303,209.285 42.49,209.604 C42.685,209.939 42.602,210.051 42.399,210.17 L39.746,211.626 L39.393,211.019 C41.312,209.454 40.545,208.062 39.439,206.162 L38.678,204.852 L34.511,207.273 L35.134,208.344 C35.895,209.654 36.781,209.374 37.936,208.766 L38.327,209.439 C37.603,209.816 36.896,210.184 36.19,210.595 C35.455,211.022 34.743,211.457 34.035,211.932 L33.607,211.197 C34.654,210.546 35.363,209.963 34.601,208.653 L33.979,207.583 L30.768,209.449 C29.781,210.023 29.592,210.347 30.075,211.177 L30.948,212.678 C32.063,214.596 32.431,214.723 34.999,213.914 L35.364,214.686 L32.117,216.275 C30.826,213.947 29.535,211.619 28.198,209.319 Z M22.036,196.713 C21.577,195.603 21.219,194.451 20.76,193.342 C20.301,192.232 19.792,191.142 19.284,190.054 L19.852,189.819 C20.527,191.118 20.669,191.32 21.138,191.127 L30.023,187.454 C30.392,187.302 30.364,187.093 30.041,185.647 L30.61,185.412 C30.806,186.031 31.003,186.649 31.217,187.26 C31.423,187.855 31.637,188.466 31.884,189.064 C32.124,189.644 32.38,190.218 32.661,190.802 C32.917,191.375 33.191,191.942 33.431,192.522 C34.778,195.784 33.997,199.346 30.583,200.756 C26.952,202.257 23.524,200.316 22.036,196.713 Z M16.217,178.448 C15.918,177.304 15.567,176.173 15.215,175.043 L15.811,174.888 C16.337,176.546 16.418,176.639 16.926,176.507 L26.319,174.054 C26.635,173.972 26.689,173.824 26.459,172.222 L27.09,172.057 C27.271,172.966 27.452,173.873 27.65,174.776 C27.849,175.68 28.046,176.583 28.28,177.477 C28.579,178.621 28.938,179.711 29.247,180.605 C29.555,181.499 29.811,182.196 29.905,182.554 C30.003,182.929 29.894,183.014 29.666,183.074 L26.721,183.766 L26.544,183.087 C28.811,182.094 28.445,180.547 27.89,178.419 L27.506,176.953 L22.845,178.17 L23.158,179.368 C23.541,180.834 24.468,180.802 25.744,180.526 L25.94,181.274 C25.142,181.444 24.362,181.61 23.573,181.816 C22.75,182.031 21.948,182.259 21.138,182.531 L20.923,181.708 C22.106,181.362 22.945,180.99 22.562,179.523 L22.249,178.325 L18.657,179.263 C17.553,179.552 17.284,179.813 17.527,180.743 L17.966,182.424 C18.525,184.569 18.846,184.791 21.537,184.7 L21.681,185.541 L18.128,186.197 C17.509,183.609 16.889,181.021 16.217,178.448 Z M14.723,167.829 L14.112,167.91 C14.01,166.731 13.908,165.551 13.752,164.38 C13.597,163.207 13.387,162.042 13.177,160.877 L13.788,160.796 C14.114,162.561 14.21,162.604 14.929,162.509 L24.321,161.26 C24.645,161.216 24.717,161.076 24.685,159.459 L25.332,159.373 C25.399,160.296 25.467,161.219 25.553,162.139 C25.639,163.06 25.725,163.98 25.847,164.896 C26.002,166.068 26.225,167.194 26.421,168.119 C26.617,169.043 26.787,169.766 26.835,170.133 C26.886,170.517 26.768,170.589 26.534,170.62 L23.364,170.968 L23.271,170.271 C25.806,169.543 25.633,167.963 25.343,165.784 L25.143,164.281 L20.367,164.917 L20.529,166.144 C20.729,167.646 21.654,167.728 22.954,167.611 L23.057,168.379 C22.244,168.45 21.449,168.518 20.641,168.626 C19.796,168.738 18.973,168.867 18.136,169.035 L18.024,168.192 C19.24,167.993 20.119,167.727 19.919,166.225 L19.756,164.998 L16.074,165.488 C14.62,165.681 14.537,165.748 14.723,167.829 Z M252.831,145.841 C251.85,205.064 203.569,252.8 144.099,252.854 C84.563,252.909 36.155,205.154 35.169,145.841 L2.056,145.841 C3.045,223.456 66.295,286.038 144.129,285.96706 C221.877,285.896 284.959,223.338 285.944,145.841 L252.831,145.841 L252.831,145.841 Z" fill="#121930"></path>
    <path d="M258.401,180.574 C257.574,183.412 260.837,184.707 262.958,185.324 C265.079,185.941 268.527,186.597 269.354,183.759 C270.18,180.92 266.917,179.625 264.796,179.008 C262.675,178.391 259.227,177.735 258.401,180.574" fill="#121930"></path>
    <path d="M68.077,138.775 C68.077,160.124 76.192,169.591 88.074,169.591 C99.956,169.591 108.071,160.124 108.071,138.775 C108.071,117.426 99.956,107.959 88.074,107.959 C76.192,107.959 68.077,117.426 68.077,138.775 Z M54.553,138.775 C54.553,118.875 69.043,105.447 88.074,105.447 C107.105,105.447 121.595,118.875 121.595,138.775 C121.595,158.675 107.105,172.102 88.074,172.102 C69.043,172.102 54.553,158.675 54.553,138.775 L54.553,138.775 Z" fill="#707170"></path>
    <path d="M127.58,168.045 C135.983,167.755 137.143,167.369 137.143,163.795 L137.143,113.755 C137.143,109.891 135.983,109.504 127.58,109.504 L127.58,106.606 C133.472,106.8 139.171,106.993 144.871,106.993 C149.604,106.993 154.339,106.8 159.168,106.606 L159.168,109.504 C150.764,109.504 149.604,109.891 149.604,113.755 L149.604,163.795 C149.604,167.369 150.764,167.755 159.168,168.045 L159.168,170.943 C153.855,170.751 148.639,170.557 143.325,170.557 C138.108,170.557 132.795,170.751 127.58,170.943 L127.58,168.045" fill="#707170"></path>
    <path d="M226.786,164.085 C219.059,166.307 211.717,172.102 198.386,172.102 C179.064,172.102 165.54,157.998 165.54,138.678 C165.54,118.392 179.548,105.447 199.642,105.447 C211.137,105.447 218.575,110.084 220.797,110.084 C221.859,110.084 222.633,109.118 223.212,108.248 L225.725,108.731 C225.531,115.107 225.145,121.579 225.531,128.052 L222.633,128.052 C221.377,115.107 212.683,108.925 200.994,108.925 C183.895,108.925 179.064,123.705 179.064,138.195 C179.064,152.783 185.247,168.625 202.056,168.625 C208.238,168.625 214.325,166.017 214.325,162.346 L214.325,154.232 C214.325,151.526 213.262,151.044 205.341,150.85 L205.341,147.952 C209.688,148.145 214.132,148.339 218.575,148.339 C223.309,148.339 228.042,148.145 232.679,147.952 L232.679,150.85 C228.042,150.947 226.786,151.623 226.786,153.652 L226.786,164.085" fill="#707170"></path>
    <path d="M196.189,81.711 L189.163,76.635 L182.164,81.748 L184.82,73.497 L177.794,68.421 L186.462,68.398 L189.118,60.147 L191.819,68.383 L200.487,68.36 L193.488,73.474 L196.189,81.711 Z M165.771,81.711 L158.745,76.635 L151.746,81.748 L154.403,73.497 L147.377,68.421 L156.045,68.398 L158.701,60.147 L161.402,68.383 L170.07,68.36 L163.071,73.474 L165.771,81.711 Z M135.354,81.711 L128.328,76.635 L121.329,81.748 L123.985,73.497 L116.959,68.421 L125.627,68.398 L128.284,60.147 L130.984,68.383 L139.653,68.36 L132.654,73.474 L135.354,81.711 Z M104.937,81.711 L97.911,76.635 L90.912,81.748 L93.568,73.497 L86.542,68.421 L95.21,68.398 L97.867,60.147 L100.567,68.383 L109.235,68.36 L102.236,73.474 L104.937,81.711 Z M219.127,68.777 C199.053,48.728 172.373,37.687 144.002,37.687 L143.903,37.687 C115.546,37.713 88.886,48.769 68.834,68.818 C62.218,75.433 56.588,82.771 52.003,90.648 L236,90.648 C231.405,82.754 225.761,75.403 219.127,68.777 L219.127,68.777 Z" fill="#121930"></path>
  </g>
</svg>