<?xml version="1.0" encoding="utf-8"?>
<!-- Generator: Adobe Illustrator 24.0.3, SVG Export Plug-In . SVG Version: 6.00 Build 0)  -->
<svg version="1.1" id="Layer_1" xmlns="http://www.w3.org/2000/svg" xmlns:xlink="http://www.w3.org/1999/xlink" x="0px" y="0px"
	 viewBox="0 0 60 61" style="enable-background:new 0 0 60 61;" xml:space="preserve">
<style type="text/css">
	.st0{fill-rule:evenodd;clip-rule:evenodd;fill:#FFFFFF;}
	.st1{fill-rule:evenodd;clip-rule:evenodd;fill:#36BDBB;}
</style>
<title>i-elections--primary-contrast</title>
<desc>Created with Sketch.</desc>
<g id="Cards">
	<g id="Horizontal-cards" transform="translate(-776.000000, -494.000000)">
		<g id="i-elections--primary-contrast" transform="translate(776.000000, 494.000000)">
			<g id="Group-7-Copy-4" transform="translate(0.000000, 0.299980)">
				<circle id="Oval-37" class="st0" cx="30" cy="30" r="30"/>
			</g>
		</g>
	</g>
</g>
<g id="Flat-SVG-icons">
	<g id="map-us-states">
		<g id="Group-2">
			<path id="Fill-1" class="st1" d="M38.8,22.4C39,22.4,38.8,22.3,38.8,22.4C38.8,22.4,38.8,22.4,38.8,22.4"/>
			<path id="Fill-2" class="st1" d="M46.9,28.8c-0.1,0-0.2,0-0.2,0s-0.1,0.7,0,0.9C46.8,29.5,46.8,29,46.9,28.8"/>
			<path id="Fill-3" class="st1" d="M47.9,25.8c-0.1,0.1-0.1,0.2-0.2,0.2c0.4,0.1,0.9-0.3,1.2-0.7c-0.1,0.1-0.3,0.2-0.5,0.3
				c0,0,0.1-0.1,0.1-0.1C48.3,25.5,48.1,25.6,47.9,25.8"/>
			<path id="Fill-4" class="st1" d="M20,25.8c0,0.2-0.1,0.5-0.1,0.7c1.6,0.2,3.2,0.4,4.8,0.5c0.1-0.9,0.1-1.8,0.2-2.6
				c0-0.3,0-0.5,0.1-0.8c0-0.2-0.4-0.1-0.5-0.1c-0.5,0-1-0.1-1.5-0.1c-0.4,0-0.9-0.1-1.3-0.2c-0.3,0-1.1-0.3-1.2,0
				C20.2,24,20.1,24.9,20,25.8"/>
			<path id="Fill-5" class="st1" d="M41.7,29.4c0.1,0.2,0.3,0.3,0.5,0.4c0.3,0.2,0.6-0.1,0.9-0.2c0-0.4,0.2-0.7,0.3-1
				c0-0.1,0.2-0.2,0.3-0.2c0.2,0,0.5-0.3,0.5-0.6C44,28,44,28.1,43.8,28.2c-0.3,0.3-0.5-0.2-0.5-0.4c-0.2,0-0.4,0.1-0.6,0.1
				c-0.1,0-0.5,0.5-0.6,0.7c-0.1,0.2-0.2,0.3-0.2,0.5C41.9,29.2,41.7,29.3,41.7,29.4C41.7,29.5,41.7,29.4,41.7,29.4"/>
			<path id="Fill-6" class="st1" d="M34.6,24.8c0.1,0.2,0,0.6,0.2,0.7c0.1,0,0.1,0,0.2,0.1c0.2,0.2,1.4-0.1,1.7-0.1
				c0-0.3-0.2-0.5-0.1-0.8c0-0.2,0.1-0.6,0.1-0.8c-0.6,0.1-0.1-0.7-0.2-0.8c-0.1-0.1-0.1-0.2-0.1-0.4c-0.1,0-0.2-0.1-0.2-0.2
				c-0.1,0-0.2,0-0.4,0c-0.4-0.1-0.8-0.2-1.1-0.4c-0.2-0.1-0.3,0-0.5-0.1c-0.2-0.1,0-0.1-0.2,0c-0.1,0-0.3,0-0.3,0.1
				c0,0.2,0,0.4-0.2,0.6c-0.1,0.1-0.2,0.1-0.1,0.2c0.2,0.2,0,0.5,0,0.8c0,0,0.4,0.2,0.4,0.2c0.2,0.1,0.4,0.3,0.5,0.4
				C34.6,24.4,34.5,24.6,34.6,24.8"/>
			<path id="Fill-7" class="st1" d="M45.3,28.1c-0.1,0-0.5,0-0.6-0.1c-0.1,0.3-0.3,0.4-0.4,0.7c0,0.1-0.1,0.1-0.1,0.2
				c0,0-0.1,0-0.1,0.1c-0.2,0.1-0.2-0.1-0.3,0.2c-0.1,0.2-0.2,0.3-0.2,0.5c0,0.5-0.7,0.8-1.1,0.8c-0.4,0-0.6-0.1-0.8,0.4
				c1.6-0.2,3.2-0.5,4.8-0.8c-0.3-0.3-0.2-0.8-0.5-1c-0.2,0-0.7-0.1-0.8-0.3C45.2,28.6,45.3,28.1,45.3,28.1
				C45.2,28.1,45.3,28.1,45.3,28.1"/>
			<path id="Fill-8" class="st1" d="M19.5,27c-0.3,0-0.2-0.6-0.1-0.8c0.1-0.4,0-0.3-0.4-0.3c-0.4-0.1-0.9-0.1-1.3-0.2
				c-0.3,1.4-0.5,2.9-0.8,4.3c0,0.3,0.2,0.2,0.5,0.2c0.4,0.1,0.7,0.1,1.1,0.2c0.6,0.1,1.3,0.2,1.9,0.3c0.1-0.9,0.2-1.8,0.3-2.7
				c0-0.1,0.1-0.8,0.1-0.8C20.4,27.1,20,27,19.5,27"/>
			<path id="Fill-9" class="st1" d="M32.2,35.1c-0.2-0.1-0.4-0.2-0.6-0.2c-0.4-0.1-0.7,0.3-1.1,0c-0.2-0.2-0.4,0.3-0.6,0
				c-0.2,0-0.2,0-0.4,0c-0.1,0-0.2,0-0.3-0.1c-0.1-0.1-0.2,0-0.3-0.1c-0.4-0.1-1.4-0.3-1.4-0.8c0-0.4,0-0.9,0.1-1.3
				c-0.2,0-2-0.1-2-0.1c-0.1,0.8-0.1,1.5-0.2,2.3c0,0.4-0.1,0.7-0.1,1.1c0,0.2,0,0.4,0,0.5c0,0.3-0.4,0.2-0.6,0.2
				c-0.7,0-1.4-0.1-2.1-0.2c0.3,0.3,0.7,0.7,0.9,1.1c0.3,0.5,0.3,0.9,0.8,1.2c0.1,0.1,0.3,0.2,0.4,0.3c0.1-0.3,0.3-0.5,0.6-0.6
				c0.5-0.2,1-0.1,1.4,0.3c0.6,0.6,0.9,1.5,1.4,2c0.1,0.1,0.1,0.3,0.1,0.5c0,0.2,0.2,0.6,0.4,0.7c0.1,0.1,0.3,0,0.4,0.1
				c0.2,0.1,0.4,0.1,0.6,0.2c-0.2-0.9,0-1.8,0.8-2.3c0-0.2,0.3-0.3,0.5-0.3c0.2,0,0.4-0.2,0.6-0.3c0.2-0.2,0.3-1.1,0.7-0.6
				c0.6-0.2,0.4-0.4,0.5-0.9c0.1-0.3,0.1-0.4,0-0.7c-0.1-0.2-0.3-0.4-0.3-0.6c-0.1-0.2,0-0.5,0-0.7c0-0.2,0-0.4,0-0.5
				C32.4,35.1,32.3,35.2,32.2,35.1"/>
			<path id="Fill-10" class="st1" d="M40.3,32.6c0.1-0.3,0.4-0.5,0.7-0.7c0.2-0.1,0.3-0.3,0.5-0.4c0.1-0.1,0.4-0.2,0.5-0.3
				c-1.2,0.2-2.4,0.3-3.7,0.4c-0.3,0-0.5,0-0.8,0.2c-0.1,0.1-0.2,0.1-0.4,0.1c-0.1,0-0.7,0-0.8,0.1c-0.1,0.3-0.3,0.7-0.3,1
				c0.7-0.1,1.3-0.1,2-0.2C38.2,32.8,40.2,32.8,40.3,32.6"/>
			<path id="Fill-11" class="st1" d="M25.3,25.1c0.8,0.1,1.6,0.1,2.4,0.1c0.4,0,0.9,0,1.3,0c0.2,0,0.3,0.1,0.4,0.2
				c0.3-0.2,0.6,0,0.8,0.1c0-0.2-0.1-0.5,0-0.7c0.1-0.1,0.1-0.3,0.1-0.5c0-0.3,0-0.6,0-1c0-0.2-0.4-0.3-0.3-0.6
				c-1.2,0-2.4,0-3.6-0.1c-0.3,0-0.6,0-0.9-0.1c-0.2,0-0.1,0.6-0.1,0.7C25.3,23.9,25.3,24.5,25.3,25.1"/>
			<path id="Fill-12" class="st1" d="M41.7,32.9c0,0,1.4,1.2,1.6,1.4c0.4,0.3,0.2,0.5,0.8,0.3c0.6-0.3,0.6-0.8,0.9-1.2
				c0.1-0.2-0.4-0.5-0.6-0.6c-0.2-0.2-0.6,0.1-0.9,0.1c-0.3,0-0.2-0.3-0.4-0.3c-0.2,0-0.5,0-0.7,0C42.2,32.6,41.8,32.8,41.7,32.9"/>
			<path id="Fill-13" class="st1" d="M43.2,27.3c0.6-0.1,1.2-0.2,1.7-0.3c0.6-0.1,1.3-0.2,1.7-0.6c-0.2-0.1-0.4-0.4-0.3-0.6
				c-0.1-0.1,0.1-0.5,0.1-0.5c-0.1-0.1-0.1-0.2-0.2-0.3c-0.2-0.2-1.5,0.2-1.8,0.3c-0.3,0.1-1.4,0.4-1.6,0.2c-0.1-0.1,0,0.7,0,0.8
				c0.1,0.4,0.1,0.7,0.2,1.1C43,27.3,43.1,27.3,43.2,27.3"/>
			<path id="Fill-14" class="st1" d="M16.2,21.4c-0.2-0.2-0.5-0.2-0.8-0.3c-0.8-0.2-1.5,0-2.3-0.3c-0.3-0.1-0.7,0.1-1-0.3
				c-0.1-0.1,0-0.4-0.1-0.5c-0.3-0.1-0.3-0.1-0.3,0.2c-0.2,0.9-0.6,1.8-1.2,2.6c0,0.1-0.1,0.6,0,0.6c0.3,0.1,0.6,0.2,0.8,0.2
				c0.4,0.1,0.9,0.2,1.3,0.4c0.9,0.2,1.7,0.4,2.6,0.6c0.1-0.5,0.2-1,0.3-1.5c0-0.2,0.1-0.1,0-0.3c-0.1-0.2,0-0.5,0.2-0.7
				C15.8,22,16.3,21.6,16.2,21.4"/>
			<path id="Fill-15" class="st1" d="M25.5,31.9c0.5,0.1,1.1,0,1.7,0.1c0.2,0,0.8,0,0.8,0.2c0,0.4,0,0.8,0,1.1c0,0.1,0,0.3,0,0.4
				c0,0.2,0.2,0.1,0.3,0.1c0.3,0,0.2,0.3,0.5,0.3c0.2,0,0.5,0,0.6,0.1c0.2,0.2,0,0.1,0.2,0.1c0.1,0,0.1,0,0.2,0.1c0.2,0,0.3,0,0.5,0
				c0.2,0,0.3,0.1,0.4,0.2c0.1-0.1,0.3-0.1,0.5-0.1c0.3,0,0.5,0,0.8,0.1c0-0.4,0-0.8,0-1.2c0-0.5-0.2-0.9-0.2-1.4
				c0-0.2-0.5-0.1-0.8-0.1h-1.4c-0.8,0-1.5-0.1-2.3-0.1c-0.3,0-0.7,0-1,0c-0.2,0-0.4,0-0.7,0C25.5,31.6,25.6,31.8,25.5,31.9"/>
			<path id="Fill-16" class="st1" d="M39.8,28.5c0.4,0,0.4,0.3,0.8,0.3c0.3,0,0.5-0.1,0.8,0.1c0-0.3,0.3-0.6,0.5-0.9
				c0.2-0.2,0.4-0.1,0.4-0.5c0-0.2,0-0.4,0-0.7c0-0.4,0-0.7-0.1-1.1c-0.4,0.2-0.8,0.7-1.3,0.6c-0.4-0.1-0.7-0.2-1.1-0.1
				c-0.2,0-0.2,0-0.2,0.2c0,0.3,0.1,0.5,0.1,0.8C39.7,27.7,39.8,28.1,39.8,28.5"/>
			<path id="Fill-17" class="st1" d="M47.1,25.1c0.1-0.3,0.3-0.1,0.2-0.4c0-0.1,0-0.2-0.1-0.3c-0.1-0.2,0-0.5,0-0.7
				c0-0.2-0.1-0.5-0.2-0.6c-0.2-0.2-0.3-1-0.4-1.3c-0.2,0.1-0.4,0.1-0.6,0.2c-0.4,0-0.4,0.5-0.6,0.8c-0.2,0.2,0,0.3,0,0.5
				c0,0.3-0.3,0.6-0.5,0.7c-0.4,0.2-0.9,0-1.3,0.2c0.2,0.4-0.1,0.7-0.3,1c0.7-0.1,1.4-0.3,2.1-0.4c0.5-0.1,0.8-0.3,1.1,0.1
				C46.8,24.9,46.8,25,47.1,25.1"/>
			<path id="Fill-18" class="st1" d="M15.9,30.9c0.1-0.1,0.3-0.1,0.4,0c0.2-0.6,0.2-1.2,0.3-1.8c0.2-0.9,0.3-1.8,0.5-2.7
				c0-0.2,0.1-0.5,0.1-0.7c0-0.1-0.6-0.1-0.7-0.2c-0.7-0.1-1.3-0.3-1.9-0.4c-0.3-0.1-0.6-0.1-0.9-0.2c-0.4-0.1-0.3,0-0.4,0.4
				c-0.2,0.7-0.3,1.4-0.5,2.1c0,0.1,0.2,0.4,0.3,0.4c0.3,0.4,0.5,0.8,0.8,1.1c0.4,0.6,0.8,1.2,1.2,1.7c0.2,0.3,0.4,0.6,0.6,0.9
				C15.7,31.3,15.6,31,15.9,30.9C15.9,30.8,15.6,31,15.9,30.9"/>
			<path id="Fill-19" class="st1" d="M21.7,36c0.2-0.3,0.7-0.1,1-0.1c0.7,0.1,1.4,0.1,2,0.2c0.1-1.3,0.2-2.6,0.3-3.9
				c0-0.1,0-0.3,0-0.5c0.1-0.3-0.4-0.2-0.6-0.2c-0.6,0-1.2-0.1-1.8-0.2c-0.3,0-0.5-0.1-0.8-0.1c-0.2,0-0.9-0.2-1-0.1
				c-0.1,0-0.1,0.4-0.1,0.5c0,0.4-0.1,0.7-0.1,1.1c-0.1,0.9-0.2,1.8-0.3,2.7c0,0.3-0.1,0.5-0.1,0.8c0,0.2,0.4,0.2,0.5,0.2
				C20.7,35.6,21.5,36.4,21.7,36"/>
			<path id="Fill-20" class="st1" d="M29.4,25.9c-0.2,0-0.3-0.2-0.5-0.2c-0.2-0.1-0.4,0-0.6,0c-0.4,0-0.8,0-1.1,0
				c-0.7,0-1.3-0.1-2-0.1c0,0.3,0,0.7-0.1,1c0,0.5-0.1,0.5,0.4,0.5c0.3,0,0.7-0.1,0.9,0.1c0.3,0.1,0.1,0.8,0.1,1
				c1.5,0.1,2.9,0.1,4.4,0.1c-0.2-0.3-0.1-0.7-0.2-1.1c-0.3-0.1-0.2-0.9-0.5-1.1C30,25.9,29.8,25.8,29.4,25.9"/>
			<path id="Fill-21" class="st1" d="M27.9,22.3c0.8,0,1.6,0,2.3,0c0-0.2-0.1-0.3-0.2-0.5c0-0.3,0-0.8-0.1-1.1
				c-0.1-0.3-0.2-0.6-0.1-0.9c0-0.2-0.3-0.1-0.4-0.1c-0.7,0-1.4,0-2.1-0.1c-0.3,0-0.7,0-1,0c-0.3,0-0.7-0.2-0.7,0.1
				c-0.1,0.8-0.1,1.6-0.2,2.4C26.3,22.2,27.1,22.2,27.9,22.3"/>
			<path id="Fill-22" class="st1" d="M42.6,31.3c-0.1,0.3-0.4,0.4-0.6,0.6c-0.1,0.1-0.2,0.1-0.3,0.2c-0.2,0.2-0.6,0.3-0.7,0.5
				c0.5-0.1,0.9-0.4,1.3-0.4c0.3,0,0.7-0.1,1,0c0.1,0,0.3,0.2,0.3,0.2c0.2,0,0.3,0,0.5-0.1c0.4-0.1,0.5,0.1,0.8,0.3
				c0.3,0.2,0.4,0.4,0.8,0.3c0-0.2,0.1-0.4,0.3-0.6c0.1-0.1,0.2-0.2,0.3-0.3c-0.1-0.1,0-0.3,0.1-0.3c-0.2,0-0.4-0.4-0.1-0.5
				c0.2-0.1,0.7,0.1,0.8-0.1c-0.2,0-1.2,0.1-0.8-0.5c-0.6,0.1-1.3,0.2-1.9,0.4C44,31,42.7,31,42.6,31.3"/>
			<path id="Fill-23" class="st1" d="M19.6,22.9c0.1-0.1,0.2-0.1,0.3-0.2c0,0,0-0.1,0.1-0.1c0.1-0.1,0.1-0.1,0.2-0.1
				c0.5,0.1,0.9,0.1,1.4,0.2c1.1,0.1,2.2,0.2,3.3,0.3c0.1-1.1,0.2-2.3,0.2-3.4c0,0-3-0.3-3.3-0.4c-1.1-0.1-2.3-0.3-3.4-0.5
				c-0.3,0-0.5-0.1-0.8-0.1c0,0-0.2,0.7-0.1,0.8c0.1,0.2,0.1,0.4,0.2,0.6c0.1,0.2,0.2,0.3,0.3,0.5c0,0.1,0.2,0.1,0.3,0.2
				c0.1,0.2-0.2,0.6-0.2,0.9c0.4-0.2,0.5,0.5,0.5,0.7c0,0.3,0.3,0.3,0.3,0.6C19.2,22.8,19.4,22.8,19.6,22.9
				C19.7,22.8,19.4,22.8,19.6,22.9"/>
			<path id="Fill-24" class="st1" d="M35.8,33.6c-0.1,0.3-0.3,0.6-0.4,0.9c-0.1,0.3-0.1,0.6-0.1,0.9c0,0.1,0,0.2,0.1,0.3
				c0.3,0.5-0.2,0.9-0.3,1.4c0.4,0,1-0.2,1.3-0.1c0.3,0,0.3,0.3,0.2,0.5c-0.2,0.4,0.5,0.1,0.7,0.1c-0.2-1.4-0.1-2.7-0.1-4.1
				C36.7,33.5,36.3,33.5,35.8,33.6"/>
			<path id="Fill-25" class="st1" d="M30.7,22.6c0,0.1,0,0.2-0.1,0.3c0.4,0.2,0.2,1.4,0.2,1.8c1.1,0,2.2,0,3.3-0.1
				c-0.1-0.1-0.3-0.2-0.4-0.3c-0.2-0.3-0.6-0.2-0.7-0.6c0-0.2-0.1-0.4,0-0.5c0-0.3-0.2-0.4,0-0.7c0.2-0.3,0.3-0.2,0.3-0.6
				c0-0.1,0-0.2,0.1-0.3c0.1-0.1,0.2-0.2,0.3-0.3c0.3-0.2,0.5-0.6,0.8-0.8c-0.2-0.1-0.3,0.2-0.6,0.1c-0.1,0-0.2-0.1-0.2-0.2
				c-0.1,0-0.1,0-0.3,0c-0.2-0.1-0.3-0.3-0.5-0.3c-0.2,0-0.3,0.2-0.5,0.1c-0.2-0.1-0.3-0.1-0.5-0.1c-0.3-0.1-0.2-0.3-0.4-0.3
				c-0.3,0-0.6,0-1,0c0,0.2-0.1,0.4,0,0.6c0.2,0.5,0.2,0.9,0.2,1.4C30.6,22,30.7,22.3,30.7,22.6"/>
			<path id="Fill-26" class="st1" d="M36,31.6c0-0.1,0.1-0.1,0.1-0.2c-0.3-0.2-0.2-0.6-0.4-0.8c-0.5,0.1-0.8-0.7-0.6-1
				c-0.4,0.1-0.3-0.4-0.5-0.6c-0.2-0.1-0.4-0.3-0.5-0.5C34,28.2,34.3,28,33.7,28c-0.7,0.1-1.4,0.1-2.1,0.1c0.1,0.2,0.1,0.1,0.3,0.3
				c0.3,0.2,0,0.4,0.2,0.7c0.1,0.2,0.2,0.2,0.2,0.4c0,0.7,0,1.5,0.1,2.2c0.7,0,1.4,0,2.1-0.1c0.4,0,1.2-0.3,1.5,0.1
				C35.9,31.7,36,31.7,36,31.6"/>
			<path id="Fill-27" class="st1" d="M35,36c-0.2-0.3,0-0.4-0.4-0.3c-0.2,0-0.5,0-0.7,0c-0.1,0-0.9,0-0.9,0.1c0,0.2,0,0.4,0,0.6
				c0,0.2,0.3,0.6,0.4,0.8c0.1,0.3-0.1,0.5,0,0.8c0,0.2,0,0.3,0,0.5c0.3,0,0.6,0.2,0.9,0.2c0.1-0.3,0.5-0.2,0.7-0.1
				c0.2,0.1,0.5,0.2,0.6,0.4c0.2,0.1,0.4-0.4,0.5-0.4c-0.3,0-0.6-0.3-0.4-0.6c0.1-0.2,0.4-0.1,0.4-0.4c-0.4,0-1,0.2-1.3,0.1
				C34,37.7,35.1,36.2,35,36C34.9,35.9,35,36,35,36"/>
			<path id="Fill-28" class="st1" d="M39.8,29.2c0,0.1-0.2,0.3-0.3,0.3c-0.1,0-0.2,0.3-0.3,0.4c-0.1,0.1,0,0.2-0.2,0.3
				c-0.2,0.2-0.3,0-0.5,0.2c-0.1,0.1-0.5,0.2-0.7,0.2c-0.2,0-0.2,0-0.4,0.1c0,0-0.2,0.5-0.2,0.6c-0.1,0.2-0.3,0.2-0.5,0.2
				c0,0.1,0,0.1,0,0.2c0.4,0,0.6-0.2,1.1-0.2c0.8-0.1,1.5-0.1,2.3-0.2c0.4,0,0.9,0,1.1-0.4c0.1-0.2,0.2-0.3,0.4-0.5
				c-0.2-0.2-0.5-0.5-0.5-0.7c0-0.2-0.3-0.1-0.3-0.1c-0.1,0-0.3,0-0.4,0C40.2,29.3,39.9,29.1,39.8,29.2"/>
			<path id="Fill-29" class="st1" d="M30.2,28.7c-1.2,0-2.4,0-3.6-0.1c0,0.8-0.1,1.7-0.1,2.5c1.8,0.1,3.6,0.1,5.4,0.1
				c0-0.5,0.2-1.5-0.1-1.8c-0.1-0.1-0.2-0.3-0.3-0.5c0-0.2,0.1-0.2-0.1-0.2C30.9,28.7,30.5,28.7,30.2,28.7"/>
			<path id="Fill-30" class="st1" d="M37.7,30c0.2,0,0.3-0.1,0.5-0.1c0.2-0.3,0.4-0.1,0.6-0.3c0.2-0.2,0.2-0.7,0.6-0.6
				c-0.1-0.2,0-0.6-0.1-0.9c-0.1-0.6-0.1-1.1-0.2-1.7c-0.4,0-0.7,0.1-1.1,0.1c-0.6,0.1-0.4,0.4-0.4,0.8c0,0.4,0.1,0.9,0.1,1.3
				c0,0.4,0.1,0.9-0.2,1.3C37.6,30,37.7,30,37.7,30"/>
			<path id="Fill-31" class="st1" d="M35.5,26.1c0.1,0.3,0,0.6-0.1,0.8c-0.1,0.1-0.2,0.2-0.4,0.3c0.1,0.1,0.1,0.2,0,0.4
				c-0.2,0.4-0.6,0.8-0.1,1.1c0.2,0.2,0.4,0.3,0.4,0.5c0.4-0.1,0.6,0.3,0.4,0.6c-0.1,0.3,0,0.3,0.3,0.4c0.3,0.1,0.3,0.4,0.4,0.7
				c0.1-0.1,0.3,0,0.4-0.1c0.1-0.2,0.2-0.1,0.2-0.3c0,0,0-0.3,0-0.4c0-0.2,0.4-0.5,0.3-0.8c-0.1-0.2-0.1-0.7-0.1-0.9
				c-0.1-0.6,0-1.4-0.3-1.9c-0.1-0.1-0.1-0.4-0.2-0.4c-0.2,0-0.3,0-0.5,0C35.9,26,35.7,26,35.5,26.1C35.4,26,35.5,26.1,35.5,26.1"/>
			<path id="Fill-32" class="st1" d="M17.1,19.2c0-0.2,0.1-0.4,0.1-0.6c0-0.2-0.1-0.2-0.3-0.2c-0.1,0.5-0.2,1-0.3,1.6
				c-0.1,0.3-0.3,0.9-0.1,1.1c0.3,0.3,0,0.6-0.2,0.9c-0.1,0.1-0.4,0.5-0.4,0.6c0.2,0.2,0,0.5-0.1,0.7c-0.1,0.5-0.2,1-0.3,1.5
				c1.3,0.3,2.6,0.5,3.9,0.7c0.1-0.7,0.2-1.4,0.3-2c-0.1,0-0.1,0-0.2,0c-0.2,0-0.3-0.1-0.5-0.1c-0.2,0-0.3,0.2-0.5,0
				c-0.1-0.1-0.1-0.2-0.2-0.3c0-0.2-0.2-0.2-0.2-0.4c0-0.2-0.1-0.3-0.1-0.5c0-0.2-0.3,0-0.5-0.3c-0.2-0.3,0-0.7,0.1-1
				c0,0-0.3-0.5-0.3-0.6C17.1,19.9,17.1,19.8,17.1,19.2"/>
			<path id="Fill-33" class="st1" d="M33.6,25.1c-0.9,0-1.9,0.1-2.8,0.1c0,0.2-0.1,0.3,0,0.5c0.2,0.7,0.4,1.2,0.5,1.9
				c0.1,0.1,0.6,0,0.8,0c0.3,0,0.6,0,0.9,0c0.3,0,1.1-0.2,1.3,0c0.1-0.3-0.1-0.6,0.1-0.8c0.3-0.3,0.8-0.2,0.3-0.7
				c-0.3-0.3-0.6-0.5-0.6-1C34,25.1,33.8,25.1,33.6,25.1"/>
			<path id="Fill-34" class="st1" d="M40.6,33.1c-0.3,0-0.5,0.1-0.8,0.1c0.2,0.5,0.3,1.1,0.5,1.6c0.1,0.3,0.3,0.5,0.4,0.7
				c0,0.2-0.1,0.3-0.1,0.5c0,0.1,0.1,0.3,0.1,0.4c0,0.3,0.1,0.4,0.4,0.4c0.6,0,1.2-0.1,1.8-0.1c0.1,0,0.2-0.3,0.4-0.3
				c0.1,0,0.2-0.6,0.2-0.7c0.1-0.3,0.1-0.2-0.1-0.5c-0.1-0.2-0.2-0.4-0.4-0.6c-0.4-0.4-0.8-0.6-1.2-1c-0.2-0.2-0.2-0.2-0.4-0.3
				c-0.1-0.1-0.3-0.2-0.3-0.3C41.1,32.9,40.7,33.1,40.6,33.1"/>
			<path id="Fill-35" class="st1" d="M45.5,41c-0.1-0.6-0.2-0.9-0.5-1.4c-0.2-0.3-0.5-0.6-0.6-1c0.3,0.2,0.2,0.5,0.4,0.7
				c-0.1-0.2-0.1-0.3-0.2-0.5c0-0.2-0.3-0.4-0.4-0.5c-0.2-0.3-0.4-0.5-0.5-0.8c-0.1-0.3-0.1-0.5-0.4-0.5c0,0.2-0.1,0.4-0.3,0.4
				c-0.2,0-0.3-0.2-0.6-0.1c-0.3,0-0.6,0-1,0.1c-0.3,0-0.6,0-0.9,0.1c-0.3,0-0.3-0.2-0.5-0.2c-0.5,0.1-1,0.1-1.6,0.2
				c0.1,0.1,0.1,0.3,0,0.4c0.5-0.1,1-0.2,1.4,0.1c0.2,0.1,0.3,0.4,0.5,0.3c0.2,0,0.3-0.2,0.5-0.2c0.2-0.1,0.1-0.2,0.2-0.2
				c0.5-0.1,0.7,0.5,1.1,0.7c0.3,0.2,0.5,0.2,0.5,0.7c0,0.2,0,0.4-0.1,0.6c0,0.1,0.1,0.3,0.2,0.2c0.2-0.3,0.2,0,0,0.2
				c-0.1,0.1,0.4,0.6,0.5,0.6c-0.1,0-0.1-0.1,0-0.1c0.1,0.1,0.4,0.5,0.4,0.7c0.1,0.3,0.5,0.3,0.7,0.6c0.1,0.1,0.1,0.3,0.2,0.3
				c0.2,0,0.3,0,0.4-0.3c0-0.2,0.2-0.3,0.3-0.4C45.5,41.3,45.5,41.2,45.5,41L45.5,41z M45.2,41.8c0-0.1,0-0.2,0-0.3
				C45.2,41.4,45.1,41.9,45.2,41.8C45.1,41.7,45.2,41.8,45.2,41.8L45.2,41.8z"/>
			<path id="Fill-36" class="st1" d="M23.1,30.9c0.9,0.1,1.9,0.1,2.8,0.2c0.1-1.2,0.1-2.3,0.2-3.5c-1.4-0.1-2.8-0.2-4.1-0.3
				c-0.1,0-0.7-0.1-0.7,0c0,0.4-0.1,0.7-0.1,1.1c-0.1,0.8-0.2,1.6-0.3,2.3C21.6,30.8,22.3,30.9,23.1,30.9"/>
			<path id="Fill-37" class="st1" d="M15.7,32.7c-0.1-0.7-0.8-1.5-1.3-2.1c-0.7-1-1.4-2-2.1-3.1c-0.2-0.3,0-0.7,0.1-1
				c0.2-0.6,0.3-1.2,0.5-1.9c0,0-2.5-0.7-2.7-0.8C10,24.3,10,24.6,9.8,25c-0.2,0.4,0.1,0.7,0.1,1.1c-0.1,0.5-0.1,0.8,0.1,1.2
				c0.2,0.3,0.1,0.5,0.4,0.8c0.1-0.5,0.7-0.3,0.9,0c-0.1-0.1-0.5-0.2-0.6-0.2c-0.2,0,0,0.5,0.1,0.6c-0.1-0.1-0.2-0.2-0.2-0.4
				c-0.3,0.2,0,0.7,0.1,1c0.1,0.3-0.1,0.4,0,0.7c0,0.3,0.3,0.6,0.4,0.9c0,0.1,0.2,0.4,0.2,0.5c0,0.2-0.1,0.2,0,0.4
				c0.2,0.3,0.6,0.5,0.9,0.6c0.1,0.1,0.3,0.2,0.4,0.3c0.2,0.1,0.1,0.3,0.3,0.5c0.2,0.2,0.5,0.3,0.6,0.6c0.1,0.2,0,0.8,0.2,0.8
				c0.5,0,0.9,0.1,1.4,0.1c0.3,0,0.4-0.1,0.4-0.3c0-0.1,0-0.2,0-0.3c0-0.1,0.1-0.2,0.2-0.2c0.1-0.1,0.1-0.3,0.2-0.4
				C15.7,32.8,15.6,33,15.7,32.7C15.7,32.7,15.7,32.8,15.7,32.7L15.7,32.7z M10.8,28.2C10.8,28.2,10.7,28.2,10.8,28.2
				C10.8,28.2,10.8,28.2,10.8,28.2C10.8,28.2,10.8,28.2,10.8,28.2L10.8,28.2z M10.7,28.7C10.7,28.7,10.6,28.7,10.7,28.7
				C10.6,28.7,10.6,28.7,10.7,28.7C10.7,28.7,10.7,28.7,10.7,28.7L10.7,28.7z"/>
			<path id="Fill-38" class="st1" d="M20,31.1c-1.1-0.1-2.1-0.3-3.2-0.5c0,0.3-0.2,1.2-0.7,0.8c0,0.3-0.2,0.7-0.1,0.9
				c0.1,0.2,0.3,0.6,0.2,0.8c-0.1,0.1-0.1,0.1-0.2,0.2c-0.1,0.1-0.1,0.2-0.2,0.3c-0.1,0.2-0.3,0.2-0.2,0.4c0.2,0.2,0.1,0.4-0.1,0.5
				c0.7,0.4,1.4,0.8,2.1,1.2c0.4,0.2,0.7,0.3,1.2,0.4c0.3,0,0.7,0.2,0.7-0.1c0.1-1,0.3-2,0.4-3c0-0.3,0.1-0.7,0.1-1
				C20.2,31.8,20.5,31.1,20,31.1"/>
			<path id="Fill-39" class="st1" d="M35.4,33.2c0.1-0.2,0.2-0.4,0.3-0.6c-0.3,0.1-0.5-0.2-0.3-0.5c-1,0.1-2,0.1-3,0.1
				c0.1,0.5,0.1,1,0.1,1.5c0,0.3,0,0.6,0,0.9c0,0,0.4,0.1,0.4,0.3c0,0.1,0,0.2,0,0.3c0.3,0,1.9,0,1.9-0.2
				C34.5,34.5,35.2,33.7,35.4,33.2"/>
			<path id="Fill-40" class="st1" d="M38.3,36.9c0.6-0.1,1.2-0.1,1.8-0.2c0-0.2-0.1-0.4-0.1-0.6c0-0.1,0.1-0.3,0.1-0.4
				c-0.1-0.1-0.1-0.2-0.2-0.3c-0.2-0.4-0.3-0.8-0.4-1.2c0-0.1-0.2-0.9-0.3-0.9c-0.4,0-0.9,0.1-1.3,0.1c-0.3,0-0.2,0.1-0.3,0.4
				c0,0.5,0,1,0,1.5c0,0.7,0,1.3,0.1,1.9c0.3-0.1,0.1,0.1,0.2-0.2C38.1,37,38.2,36.9,38.3,36.9"/>
			<path id="Fill-41" class="st1" d="M12.3,19.8c-0.1,0-0.2-0.2-0.3-0.2c-0.2-0.1-0.1-0.1-0.1-0.3c-0.1,0.3,0.1,0.2,0.1,0
				c0-0.1-0.1-0.2,0-0.3c0.1,0.1,0.1,0,0.2,0c-0.1-0.1-0.2-0.2-0.2-0.1c-0.1-0.4,0.1-0.9,0-1.3c0.3,0.2,0.7,0.4,1,0.6
				c0,0,0-0.1,0.1-0.1c0,0.2,0.2,0.3,0,0.4c0,0.1,0,0.4,0.1,0.4c0.1,0,0.2-0.9,0.2-1c0.1-0.1-0.1-0.4,0-0.4c0.2,0,0.4,0.1,0.6,0.1
				c0.6,0.2,1.2,0.3,1.8,0.4c0.3,0.1,0.6,0.1,0.9,0.2c0.2,0,0,0.5,0,0.6c-0.1,0.6-0.4,1.4-0.3,2.1c-0.4-0.1-0.9-0.2-1.3-0.3
				c-0.6,0.1-1.1,0.1-1.6-0.1c-0.2-0.1-0.6,0.1-0.7-0.1C12.4,20.2,12.6,20,12.3,19.8"/>
			<path id="Fill-42" class="st1" d="M46.8,26.6c-0.1,0.2-0.1,0.3-0.1,0.5c0,0.1,0.2,0.2,0.3,0.3c0.3-0.1,0.1,0.2,0.2,0.2
				c0.1,0,0.9-1.8,0.1-1.6c0-0.2,0.3-0.5,0.1-0.6c-0.2-0.1-0.6-0.3-0.7-0.1c-0.1,0.2-0.2,0.4-0.1,0.7C46.7,26.2,47.2,26.3,46.8,26.6
				"/>
			<path id="Fill-43" class="st1" d="M48,21.2c0,0.1,0,0.2,0,0.3c0,0.2-0.2,0.3-0.1,0.5c-0.1,0.2-0.2,1,0,1.1c-0.2,0-0.4,0.2-0.5,0
				c0,0-0.2-0.6-0.2-0.5c-0.1-0.3-0.1-0.8-0.3-1.1C47.4,21.4,47.7,21.3,48,21.2"/>
			<path id="Fill-44" class="st1" d="M49.1,22.8c-0.1,0-0.2,0.2-0.3,0.2c-0.2,0-0.4,0.1-0.6,0.1c-0.3,0.1-0.2-0.7-0.2-0.9
				c0.1-0.3,0.1-0.6,0.1-0.9c0.1-0.2-0.1-0.3,0.2-0.5l0.4,1.1C48.9,22.4,49.1,22.6,49.1,22.8"/>
			<path id="Fill-45" class="st1" d="M34.9,21.5c0.2-0.1,0.4-0.2,0.6-0.3c0.2-0.1,0.7-0.7,0.7-0.1c0,0,0,0,0-0.1c0,0.1,0,0.1,0,0.2
				c0.3-0.4,0.6,0.1,0.8,0.2c0.5,0.2,1-0.4,1.6-0.4c-0.1,0.4,0.2,0.3,0.4,0.2c0,0,0.4,0.4,0.4,0.4c-0.1,0.1-0.7-0.1-0.6,0.2
				c-0.1-0.1-0.4-0.3-0.6-0.2c-0.2,0.2-0.4,0.1-0.6,0.4c-0.1-0.1-0.2,0-0.3,0.1c0-0.1-0.1-0.1-0.1-0.2c-0.1,0.3-0.2,0.6-0.4,0.8
				c-0.1-0.1-0.1-0.1-0.1-0.3c-0.2,0.1-0.1-0.2-0.1-0.3c0-0.1-0.4-0.3-0.5-0.3c-0.3,0-0.5-0.1-0.8-0.1
				C35.3,21.8,35.1,21.7,34.9,21.5"/>
			<path id="Fill-46" class="st1" d="M39.4,26c0.3,0,0.6-0.1,0.8-0.1c0.4-0.1,0.3-0.8,0.6-1c0,0,0.1,0,0,0.1
				c0.3-0.2-0.1-1.1-0.2-1.3c-0.4-0.5-0.7,0.7-0.9,0.2c-0.1-0.2,0.4-0.5,0.4-0.7c0-0.1-0.2-0.6-0.1-0.7c0.2-0.2-1.7-0.9-1.2-0.1
				c-0.6-0.1-0.9,1.1-0.9,1.5c0,0.7,0.8,1.7,0,2.2C38.4,26.1,38.9,26,39.4,26"/>
			<path id="Fill-47" class="st1" d="M49.2,24.2c0.1,0,0.2,0.1,0.2,0.2c0.1-0.1,0.2-0.3,0.3-0.3c0,0.1,0,0.1,0,0.2
				c0.1-0.1,0.3-0.1,0.4-0.2c0.3-0.1,0-0.4-0.2-0.4c0.2,0.1,0.3,0.4,0,0.4c-0.1,0-0.3-0.3-0.2-0.2c-0.1-0.2-0.3-0.1-0.4-0.2
				c0-0.1,0.3-0.3,0.2-0.3c-0.1,0-0.2-0.1-0.2-0.2c-0.2,0-0.3,0.2-0.5,0.3c-0.2,0-0.4,0.1-0.7,0.1c-0.2,0-0.3,0.1-0.5,0.1
				c-0.2,0-0.1,0.4-0.1,0.5c0,0.4,0.4,0.2,0.7,0.1c0.2,0,0.4-0.1,0.6-0.1C49.1,24,48.9,24,49.2,24.2"/>
			<path id="Fill-48" class="st1" d="M48.7,20.5c0.2,0,0.4-0.6,0.4-0.8c0-0.4,0-0.8,0.2-1.2c0-0.1,0.1-0.4,0.1-0.4
				c0.2-0.1,0.2,0.3,0.3,0.2c0.1,0,0.2-0.2,0.3-0.2c0.1,0,0.4,0.1,0.5,0.2c0.1,0.3,0.3,0.7,0.3,1c0,0.3,0.2,0.1,0.3,0.2
				c0,0.1,0.1,0.3,0.1,0.3c0.1,0.1,0.4,0,0.3,0.2c0,0-0.1,0.1,0,0.1c0,0,0.1-0.1,0.1,0c0,0.4-0.9,0.4-0.9,0.8c-0.1,0-0.1,0-0.2,0
				c0-0.1,0-0.1-0.1-0.2c-0.1,0.2,0,0.6-0.2,0.6c0,0-0.2,0.6-0.4,0.3c-0.2,0.3-0.1,0.6-0.3,0.9C49.1,22.1,49,21.2,48.7,20.5"/>
			<path id="Fill-49" class="st1" d="M19.2,39.4c0.3,0,0.2-0.7-0.1-0.5C18.7,39.2,18.8,39.3,19.2,39.4
				C19.3,39.4,19.1,39.4,19.2,39.4"/>
			<path id="Fill-50" class="st1" d="M23.1,41.1c0.3,0,0.7-0.4,0.2-0.5c-0.1,0-0.4-0.1-0.5-0.1C22.5,40.6,23,41.1,23.1,41.1
				C23.1,41.1,23,41.1,23.1,41.1"/>
			<path id="Fill-51" class="st1" d="M24,43.3c0.1,0.1,0.3-0.2,0.4-0.3c0.2-0.1,0.4-0.2,0.6-0.3c0.3-0.2-0.7-0.9-0.9-0.9
				c-0.1,0-0.6-0.3-0.3,0c0.2,0.2-0.2,0.3-0.2,0.5c0,0.2,0.1,0.3,0.2,0.5C23.9,43,23.7,43,24,43.3"/>
			<path id="Fill-52" class="st1" d="M21.3,40.2c0.4-0.1-0.1-0.7-0.4-0.5c-0.1,0.1-0.2,0-0.1,0.2C20.9,40.2,21,40.2,21.3,40.2
				C21.3,40.2,21.2,40.2,21.3,40.2"/>
			<path id="Fill-53" class="st1" d="M22.4,40.5c0.1,0,0.2-0.1,0.1-0.2c-0.1,0-0.3,0-0.4,0c-0.2-0.1-0.3-0.1-0.3,0.1
				C22.1,40.5,22.2,40.5,22.4,40.5C22.5,40.5,22.3,40.5,22.4,40.5"/>
			<path id="Fill-54" class="st1" d="M22.4,40.9c0.3-0.1,0-0.3-0.2-0.2C22.3,40.8,22.3,40.9,22.4,40.9
				C22.4,40.9,22.3,40.9,22.4,40.9"/>
			<path id="Fill-55" class="st1" d="M14.4,42.3c0.1-0.1,0.1-0.1,0.2-0.1C14.8,42.2,14.4,42.5,14.4,42.3
				C14.5,42.2,14.4,42.4,14.4,42.3"/>
			<path id="Fill-56" class="st1" d="M10.5,39.8c-0.1,0.1-0.2-0.1-0.1-0.1c0.1,0.1,0.3,0.1,0.4,0.2c0.2,0.2,0.1,0.1-0.1,0.2
				C10.7,40,10.6,39.8,10.5,39.8C10.4,39.9,10.6,39.8,10.5,39.8"/>
			<path id="Fill-57" class="st1" d="M11.1,41.5c-0.1-0.1,0.1-0.2,0.2-0.2C11.5,41.3,11.4,41.7,11.1,41.5
				C11.1,41.4,11.2,41.5,11.1,41.5"/>
			<path id="Fill-58" class="st1" d="M11.5,44c0.1,0,0.4-0.4,0.4-0.1C11.9,44,11.4,44.1,11.5,44C11.5,44,11.4,44,11.5,44"/>
			<path id="Fill-59" class="st1" d="M14.4,42.8c-0.2,0.1,0,0.2-0.3,0.1c-0.2-0.1,0-0.3,0.1-0.3c0.1,0,0.2-0.1,0.2-0.1
				c0.1-0.2,0.3,0.1,0.3,0.1C14.6,42.7,14.5,42.7,14.4,42.8C14.4,42.8,14.4,42.7,14.4,42.8"/>
			<path id="Fill-60" class="st1" d="M10.6,44.4c0,0.1-0.3,0.2-0.4,0.2C10.3,44.6,10.5,44.3,10.6,44.4
				C10.6,44.5,10.6,44.3,10.6,44.4"/>
			<path id="Fill-61" class="st1" d="M10.7,44.5c0,0.1,0.2-0.3,0.3-0.3C11.4,44.2,10.7,44.5,10.7,44.5"/>
			<path id="Fill-62" class="st1" d="M18.5,41.6c-0.6-0.2,0.4-0.5,0.3,0C18.7,41.7,18.6,41.4,18.5,41.6
				C18.6,41.6,18.6,41.6,18.5,41.6C18.5,41.6,18.5,41.6,18.5,41.6"/>
			<path id="Fill-63" class="st1" d="M18.9,41.5c-0.1-0.1-0.2-0.2-0.2-0.3c0.1,0.1,0.7,0.3,0.3,0.5C19,41.6,18.9,41.6,18.9,41.5
				C18.8,41.5,19,41.6,18.9,41.5"/>
			<path id="Fill-64" class="st1" d="M18.9,42c-0.1-0.1-0.3-0.3-0.2-0.4c0.2,0,0.4,0.3,0.4,0.5C19,42.1,18.9,42,18.9,42
				C18.8,41.9,19,42,18.9,42"/>
			<path id="Fill-65" class="st1" d="M19.2,42c0,0-0.2-0.3-0.1-0.3C19.2,41.8,19.2,42,19.2,42C19.1,42,19.2,42,19.2,42"/>
			<path id="Fill-66" class="st1" d="M19.3,41.9c0,0-0.2-0.2-0.2-0.2c0,0,0.2-0.1,0.2,0C19.5,41.7,19.3,41.8,19.3,41.9"/>
			<path id="Fill-67" class="st1" d="M19.4,42c-0.1,0-0.1,0-0.1-0.1c0.1,0,0.3,0.1,0.4,0.2c0,0,0.5,0.4,0.2,0.4c0,0-0.2-0.2-0.3-0.1
				C19.5,42.3,19.5,42,19.4,42"/>
			<path id="Fill-68" class="st1" d="M19.6,41.8c0,0,0.1,0.1,0.1,0.1C19.6,42.1,19.5,41.8,19.6,41.8C19.6,41.8,19.5,41.8,19.6,41.8"
				/>
			<path id="Fill-69" class="st1" d="M20,42.2c-0.1,0-0.1-0.2-0.1-0.3c0.1-0.1,0.2,0.2,0.2,0.3C20,42.2,20,42.2,20,42.2
				C19.9,42.1,20,42.1,20,42.2"/>
			<path id="Fill-70" class="st1" d="M17,40.8c0.1,0.2,0.4-0.2,0.4,0c0,0.1,0.5,0.3,0.6,0.4c0.2-0.3,0.2-0.7,0.6-0.3
				c0.5,0,0.8,0.8,1.3,0.8c0.1,0,0.3,0,0.3,0.2c0,0.1,0.3,0.4,0.1,0.5c-0.1,0.1-0.1-0.2-0.2-0.3c-0.3-0.4-0.2,0.1-0.3,0.1
				c-0.1,0-0.1-0.3-0.2-0.4c-0.1,0-0.4-0.2-0.5-0.2c-0.1-0.2-0.4-0.6-0.6-0.3c0,0-0.3,0.1-0.3,0.1c-0.1,0.1-0.3-0.1-0.4-0.2
				c-0.1-0.1-0.4,0-0.5-0.2c-0.1-0.2-0.2,0-0.4,0c-0.2,0-0.3-0.1-0.5,0c-0.2,0.1-0.2,0-0.4-0.1c-0.2,0-0.7-0.1-0.8-0.2
				c0,0.2,0.1,0.3,0,0.4c0,0.1-0.2,0.1-0.3,0.2c-0.1,0.1-0.3,0.4-0.5,0.4c-0.1,0,0.1-0.3,0.1-0.3c-0.4,0.3,0.1-0.9,0.2-0.7
				c-0.1-0.2-0.4,0.2-0.5,0.3c-0.1,0.1-0.1,0.3-0.1,0.4c-0.1,0.1-0.2,0.2-0.3,0.3c0,0,0.3,0,0.2,0.1c0,0-0.2,0.3-0.2,0.3
				c-0.1,0.1-0.3,0.2-0.4,0.3c-0.1,0.1-0.1,0.3-0.3,0.3c-0.1,0-0.5,0.6-0.6,0.5c0,0-0.5,0.2-0.6,0.2c-0.2,0.2-0.6,0.3-0.2,0
				c0.1-0.1,0.1-0.2,0.3-0.3c0.1,0,0.1,0.1,0.2,0c0.2-0.3,0.4-0.3,0.6-0.6c0.1-0.1,0.3-0.6,0.3-0.7c0-0.1-0.3,0.2-0.4,0
				c-0.1,0.1,0,0.2,0,0.2c-0.1,0-0.2-0.2-0.2-0.2c-0.1,0.1-0.1-0.1-0.3,0c-0.1,0-0.2,0.1-0.2,0.2c-0.1,0,0.1-0.8-0.2-0.6
				c-0.1,0-0.4,0.1-0.3,0c-0.2-0.3-0.2-0.2-0.1-0.5c-0.3,0-0.1-0.2-0.3-0.2c0-0.2,0.3-0.6,0.4-0.7c0.2-0.2,0.2,0.2,0.4-0.1
				c0.1-0.1,0.3,0.1,0.3-0.1c0-0.1,0-0.2,0-0.3c0-0.2,0.1-0.2,0.1-0.3c0-0.1-0.4,0.2-0.4,0.2c-0.1-0.1-0.2-0.1-0.4-0.1
				c-0.2,0-0.6-0.3-0.3-0.4c-0.5-0.3-0.1-0.2,0.2-0.5c0.1-0.1,0.4-0.2,0.3,0c-0.1,0.3,0.4,0.1,0.5,0.1c-0.2-0.1-0.2-0.3-0.4-0.4
				C12.1,38.3,12,38,12,38c-0.2-0.2-0.3-0.2-0.2-0.4c0-0.2,0.2-0.1,0.3-0.1c0.2,0,0.3-0.3,0.4-0.4c0.1-0.2,1.1-0.7,1.1-0.5
				c0,0-0.1,0-0.1,0.1c0-0.1,0.4,0,0.6,0c0.4,0.1,0.9,0.2,1.4,0.1c0.6-0.2,0.6,0.4,0.8,0.8C16.3,38.6,16.7,39.7,17,40.8"/>
			<path id="Fill-71" class="st1" d="M48.8,25.1c0.2-0.1,0.3-0.1,0.2-0.3c0,0-0.1-0.2,0-0.2c-0.1,0-0.1-0.2-0.2-0.2
				c0,0-0.3,0.1-0.2,0.1C48.8,24.6,48.8,24.8,48.8,25.1"/>
			<path id="Fill-72" class="st1" d="M48.3,24.5c-0.1,0-0.8,0.1-0.8,0.2c0.1,0.3,0.2,0.7,0.1,0.9c-0.1,0.2,0.2,0,0.2,0
				c0.2-0.2,0.2-0.3,0.5-0.3c0.2-0.1,0.3-0.1,0.2-0.3C48.5,24.8,48.5,24.5,48.3,24.5"/>
			<path id="Fill-73" class="st1" d="M45.4,27.9c0.3,0.1-0.1,0.4,0.1,0.5c0,0,0.6,0.2,0.7,0.2c0-0.2-0.2-0.3-0.2-0.5
				c-0.1-0.1-0.1-0.3-0.1-0.4c0,0,0.2-0.5,0.3-0.4c0.1,0.3-0.2,0.6,0.1,0.9c0,0.1,0,0.2,0.1,0.2c0.1,0,0.3,0,0.3,0.1
				c0.1,0.2,0,0.2,0.2,0.2c0.3,0,0.4-0.3,0.4-0.5c-0.1,0-0.5,0.2-0.6,0.1c-0.1,0-0.1-0.5-0.2-0.6c-0.1-0.2-0.1-0.5-0.2-0.7
				c0,0-0.6,0.1-0.6,0.1c-0.4,0.1-0.8,0.2-1.2,0.3c-0.3,0-0.5,0.1-0.8,0.1c-0.1,0,0,0.4,0,0.5c0.1-0.2,0.3-0.3,0.5-0.5
				c0,0,0.3,0.2,0.2,0.1c0.1,0,0.1-0.2,0.3-0.1c0.2,0,0.3,0.1,0.4,0.2c0.1,0.1,0,0.1,0.1,0.2C45.2,27.9,45.3,27.9,45.4,27.9"/>
			<path id="Fill-74" class="st1" d="M46.3,26.9c0-0.2,0.2-0.2,0.1,0c0,0.1,0,0.4,0.1,0.5c0.1,0.1,0.4,0.4,0.4,0.6
				c-0.2,0-0.4,0.2-0.4,0c-0.1-0.3-0.2-0.5-0.2-0.8"/>
		</g>
	</g>
</g>
</svg>
