<svg xmlns="http://www.w3.org/2000/svg" xmlns:xlink="http://www.w3.org/1999/xlink" viewBox="0 0 104 104">
 <title>map-chart-icon</title>
  <defs>
    <clipPath id="clip-border">
      <circle cx="52" cy="52" r="51"></circle>
    </clipPath>
    <clipPath id="a" transform="translate(-0.97 -0.32)">
      <path d="M22.17,28.48l.92.25c1,.27,2,.51,3.05.75.51.12,1,.23,1.52.33.3.06,0,.79-.06,1A11.22,11.22,0,0,0,27,34.33a21.64,21.64,0,0,0-2.2-.48,6.25,6.25,0,0,1-2.69-.21c-.38-.13-.95.15-1.22-.23s.17-.67-.33-.93c-.23-.08-.33-.27-.59-.34s-.22-.22-.14-.56c-.11.5.17.27.15,0s-.14-.29-.07-.45c.1.09.2,0,.33,0C20.18,31,20,30.83,20,31c-.09-.72.11-1.53,0-2.23.58.39,1.18.68,1.71,1.08a.57.57,0,0,1,.12-.18c0,.26.3.55,0,.64,0,.1,0,.61.1.63s.3-1.58.35-1.77S22,28.44,22.17,28.48Zm40.14,5.61L62.26,34l0,.1a.74.74,0,0,1,0,.21c.55-.81,1,.11,1.47.3.9.36,1.82-.83,2.72-.75-.15.7.34.5.76.45a3.53,3.53,0,0,1,.77.81c-.25.12-1.13-.1-1,.39-.21-.15-.78-.61-1-.29s-.79.14-1.08.66c-.22-.22-.37-.05-.55.21a.45.45,0,0,1-.09-.36c-.22.51-.43,1-.62,1.56a.31.31,0,0,1-.12-.48c-.37.13-.2-.29-.23-.49s-.64-.57-.84-.6a5.85,5.85,0,0,1-1.35-.26A6,6,0,0,1,60,34.85a10.83,10.83,0,0,1,1.12-.58C61.49,34.15,62.25,32.94,62.31,34.09ZM87.86,29.6a8.17,8.17,0,0,1,.6,1.83c0,.48.33.22.59.38.08.09.1.53.15.57s.63,0,.56.33c0,0-.13.21,0,.22s.17-.17.15,0c-.06.75-1.62.75-1.56,1.47a.63.63,0,0,0-.31,0c0-.16,0-.2-.11-.35-.22.43.08,1-.41,1.12-.08,0-.44,1.05-.76.54-.28.46-.17,1.11-.44,1.56-.88-.87-1.14-2.51-1.53-3.69.35,0,.61-1,.62-1.39a6,6,0,0,1,.26-2.1c0-.09.16-.71.25-.75.28-.1.34.53.59.28.21,0,.32-.3.5-.38A.89.89,0,0,1,87.86,29.6Zm-43.7,2.9c0-.62.78-.26,1.25-.23s1.13.06,1.7.08c1.17.06,2.35.12,3.52.12.12,0,.73-.12.65.17a2.85,2.85,0,0,0,.17,1.63,6.87,6.87,0,0,1,.21,2c.05.34.21.62.26.95-1.32,0-2.65,0-4-.07s-2.71-.14-4.06-.24C44,35.47,44.07,34,44.16,32.5Zm39.17,1.83a1.22,1.22,0,0,0,0,.54c0,.29-.29.57-.2.9-.09.43-.23,1.77.07,2.06-.24.06-.62.34-.68,0,0-.1-.23-1.2-.3-.93a9.07,9.07,0,0,0-.35-2Zm.52,0,.52,1.79a10,10,0,0,1,.46,1.28c-.13.07-.27.33-.39.37l-.8.21c-.4.11-.24-1.17-.23-1.45.08-.52.17-1,.2-1.41S83.52,34.58,83.85,34.33ZM30.24,29.94l1.38.27c2.06.34,4.12.7,6.19.94.59.07,6.07.63,6.07.67-.15,2-.29,4.11-.44,6.17-2-.15-4-.36-6-.59-.85-.1-1.71-.21-2.55-.35a.47.47,0,0,0-.38.12.45.45,0,0,0-.11.17c-.1.27-.34.11-.54.37l-.06,0,.06,0a4,4,0,0,0-1.24-.08c0-.49-.47-.51-.53-1s-.22-1.74-.94-1.34c.12-.4.62-1.15.45-1.57-.11-.25-.43-.17-.51-.34a6.2,6.2,0,0,0-.63-1A4.28,4.28,0,0,1,30,31.34,3.49,3.49,0,0,1,30.24,29.94ZM86,38c0,.21.12.33.37.29,0,0-.39.47-.44.56.14.25.56.06.75.39-.18-.08.28.36.46.38.63.08.45-.45,0-.57.37,0,.91.41.42.62a7.35,7.35,0,0,0-.76.34.67.67,0,0,1-.09-.26c-.19,0-.36.35-.54.44,0-.16-.18-.28-.35-.33-.42-.33-.18-.35-.81-.25-.36,0-.73.12-1.09.19-.55.09-1.31.44-1.27-.17,0-.24-.12-.77.22-.82l.95-.14,1.26-.21C85.48,38.38,85.58,38.06,86,38ZM19.73,33.28c.14-.5.14-.47.59-.3.18.1.05.63.16.82.41.75,1.08.31,1.68.51,1.39.44,2.73.15,4.12.46.52.12,1.15.08,1.47.5s-.57,1.1-.82,1.34a.92.92,0,0,0-.32,1.13c.18.32,0,.21-.05.55L26,40.91c-1.53-.32-3-.67-4.57-1l-2.35-.61-1.49-.4c-.11,0,.14-.88.09-1.09A13.49,13.49,0,0,0,19.73,33.28Zm34.7-1.14c.48,0,.33.37.79.47a2.49,2.49,0,0,1,.87.24c.4.24.62-.14,1-.14s.58.5,1,.61c.19,0,.29-.09.45,0a1.09,1.09,0,0,0,.42.27c.45.15.71-.24,1.08-.13a16.43,16.43,0,0,0-1.47,1.42,3,3,0,0,0-.48.46,1,1,0,0,0-.17.56c0,.69-.11.56-.53,1.13s.15.73.08,1.19a2.65,2.65,0,0,0,.05.93c.15.63.89.5,1.21,1,.17.26.67.35.77.61-2,.11-3.93.17-5.89.18,0-.75.4-2.81-.41-3.25a.75.75,0,0,0,.26-.57c0-.47-.29-.9-.3-1.32a8.56,8.56,0,0,0-.39-2.52c-.12-.37,0-.74,0-1.09Zm30.75,8h0c.12,0,.2.34.28.43-.23,0,0,.32-.06.41.06.37-.11.49-.38.62a12.08,12.08,0,0,0-.22-1.27c0-.07.31-.21.38-.19Zm-3.69-4.39c.07.48.23,2,.64,2.27.24.18.33.77.37,1.09s-.14.88,0,1.26a2.91,2.91,0,0,1,.12.51c.12.62-.2.21-.37.72a1.52,1.52,0,0,1-.95-.58c-.64-.71-1.26-.39-2.08-.21-1.29.27-2.58.54-3.89.75.44-.46,1-1,.57-1.67.75-.26,1.57,0,2.32-.32a1.67,1.67,0,0,0,1-1.27c0-.44-.32-.52,0-.91s.46-1.27,1.14-1.35A9.24,9.24,0,0,0,81.49,35.79Zm-22.62.12c.45-.17.11-.16.39.07s.56,0,.85.15a5.3,5.3,0,0,0,2,.76c.23,0,.42,0,.64,0a.5.5,0,0,0,.38.32c0,.3.12.47.22.72s-.82,1.64.32,1.4a5.91,5.91,0,0,1-.17,1.37,2.93,2.93,0,0,0,.12,1.38c-.59,0-2.59.48-3,.15a.53.53,0,0,0-.26-.13C60,42,60.16,41.3,60,41s-.1-.7-.38-1-.65-.52-.94-.76c-.09-.08-.71-.36-.72-.41-.05-.42.23-1-.05-1.31s0-.24.17-.4a1,1,0,0,0,.31-1C58.34,35.94,58.71,36,58.87,35.91Zm24.9,5c.25,0,.25.39.31.6s0,.24-.29.35a1.17,1.17,0,0,0-.75.41s-.43.21-.31,0,0-.79-.09-1.16C82.63,41.09,83.6,41,83.77,40.91ZM44.33,37.26l1.63.1c2.06.12,4.12.17,6.17.18-.14.5.49.66.49,1v1.74c0,.3.09.67-.09.9s.06.81,0,1.18c-.43-.1-1-.41-1.47-.12a1.32,1.32,0,0,0-.72-.35L48,41.84c-1.38-.05-2.76-.12-4.14-.22a15.34,15.34,0,0,1,.24-3C44.19,38.31,44.06,37.24,44.33,37.26ZM29.41,29.94c.38.1.55,0,.47.41s-.13.67-.2,1a2.55,2.55,0,0,0,.6,2.08,4.74,4.74,0,0,1,.59,1c-.18.48-.58,1.27-.24,1.77s.76,0,.82.46a7.94,7.94,0,0,0,.13.83c.08.3.32.34.39.63a1.24,1.24,0,0,0,.31.56c.31.33.55-.06.88-.06a5.16,5.16,0,0,1,.87.1.78.78,0,0,0,.34,0c-.17,1.2-.35,2.41-.53,3.61-2.27-.34-4.53-.75-6.78-1.21.18-.86.29-1.76.54-2.6.22-.31.43-.89.15-1.22-.08-.09.58-.83.69-1,.31-.57.75-1,.26-1.58-.37-.46,0-1.5.12-2C29,31.79,29.21,30.87,29.41,29.94ZM84.83,42.37c-.26.81-.9,1.57-1.46,1.46.09-.16.11-.32.2-.47a2,2,0,0,1,.81-.77.8.8,0,0,1-.13.28C84.42,42.84,84.66,42.48,84.83,42.37ZM67.37,36.53c.58-.1,2.1.66,1.87.87s.21,1,.24,1.25-.73.75-.59,1.16c.3.91.88-1.3,1.46-.42.24.37.93,2,.38,2.35,0-.1,0-.16-.06-.19-.57.33-.3,1.69-1,1.84-.45.1-.91.17-1.36.25l0-.11c-.82.11-1.65.22-2.48.31,1.27-1,0-2.79,0-4,0-.72.41-2.77,1.45-2.68-.22-.36-.2-.55,0-.63h0v0s0,0,.06,0ZM35.25,38.19c.07-.47,1.62,0,2.08.07.77.09,1.54.2,2.31.28s1.73.18,2.6.25c.26,0,.93-.1.91.24s-.07,1-.1,1.44c-.11,1.61-.21,3.22-.32,4.83-2.8-.23-5.58-.56-8.36-.95.07-.46.14-.92.2-1.37C34.79,41.38,35,39.79,35.25,38.19Zm41.64,3.37c.56-.11,3-.93,3.39-.54.18.17.23.39.46.52,0,0-.33.62-.15.86-.18.45.26.86.58,1.11-.8.82-2,.89-3.21,1.13s-2.15.4-3.23.59a1.76,1.76,0,0,1-.4.07l-.36-2c0-.09-.19-1.56-.06-1.43C74.37,42.35,76.33,41.66,76.89,41.56Zm4.46.3c.1-.49.69,0,.93.09s-.09.81-.07,1.12c1-.37-.06,3-.2,3s.11-.69-.26-.45c-.1-.13-.33-.3-.35-.48a2.21,2.21,0,0,1,.15-1c.53-.52-.11-.59-.3-1.06S81.27,42.28,81.35,41.86Zm-22.12-.22a2.22,2.22,0,0,0,1.05,2c1,.9,0,.8-.57,1.37s0,1.07-.24,1.61c-.39-.46-2,0-2.55,0s-1.19.07-1.78.08c-.29,0-1.32.16-1.47,0a21.79,21.79,0,0,0-1-3.79c-.1-.36.13-.65,0-1,1.8,0,3.6-.08,5.39-.16ZM80.72,44.8a1,1,0,0,0,.31.83,3.38,3.38,0,0,1,.87.95h0v0h0c0,.34-.2.9-.66.86s-.09-.1-.3-.38a.75.75,0,0,0-.59-.22c-.2,0-.06-.2-.14-.34-.39-.51.12-1-.1-1.48-.09-.18-.47.66-.48.73a1.47,1.47,0,0,0,.14.77,4,4,0,0,1,.44.85,9,9,0,0,0-1.28-.33c-.3-.17.52-.76-.1-.89-.14-.05-.44-.07-.53-.16s0-.2-.21-.3a2,2,0,0,0-.78-.27c-.33,0-.32.26-.58.25,0,.22-.41-.26-.45-.2-.19.29-.57.53-.82.85,0-.18-.27-.86-.07-.9l1.41-.25c.74-.13,1.47-.28,2.2-.43a6.48,6.48,0,0,1,1.11-.21l.36,1.18c0,.15.16,1,.3,1a.81.81,0,0,0,.43,0,.28.28,0,0,1-.21-.21l-.51-1.4,0-.3C80.51,44.53,80.77,44.44,80.72,44.8ZM43.31,42.37c1.16.1,2.31.17,3.47.22.66,0,1.32.06,2,.07a4.41,4.41,0,0,1,1.09,0c.29.09.45.44.82.44a1.38,1.38,0,0,1,1.51.28c.51.41.23,1.76.81,2,.19.68,0,1.42.4,2.06-2.58,0-5.15,0-7.72-.16,0-.44.29-1.66-.19-1.9a4.66,4.66,0,0,0-1.63-.12c-.84-.07-.72-.06-.66-.94Zm29.61.74a16.2,16.2,0,0,1,.18,1.79,3.62,3.62,0,0,1,0,1.09c-.13.59-.47.37-.79.77a3.42,3.42,0,0,0-.84,1.47c-.53-.37-.89-.21-1.48-.15s-.83-.44-1.51-.5l-.26-2L68,44.27c0-.3,0-.23.38-.29a5.49,5.49,0,0,1,2,.17C71.42,44.34,72.2,43.51,72.92,43.11ZM75.36,46c0,.38.33,1.2.84.69a4.61,4.61,0,0,1,.59-.58c-.07.41-.51,1-.87,1a.53.53,0,0,0-.5.36,5.25,5.25,0,0,0-.52,1.79c-.53.16-1,.61-1.6.3a2.43,2.43,0,0,1-.9-.78c0-.17.3-.36.36-.58a2.32,2.32,0,0,1,.44-.89c.16-.23.91-1.13,1.12-1.13A4.61,4.61,0,0,0,75.36,46Zm-7.8-2.19.33,2.73A9.27,9.27,0,0,0,68,48c-.55-.1-.69.63-.94,1s-.66.08-.9.56c-.26,0-.48.1-.75.1a.92.92,0,0,0-.33.06,2.86,2.86,0,0,0,.31-2.09l-.2-2.18c-.07-.7-.34-1.29.6-1.38C66.39,44,67,43.91,67.56,43.84Zm13.68,4.39a1.26,1.26,0,0,0,.29,0,3.14,3.14,0,0,1-.33,1.44A8.76,8.76,0,0,1,81.24,48.23ZM29.87,42.37c.73.14,1.46.26,2.2.38s.75,0,.66.57c-.06.37-.35,1.28.24,1.36l2.12.29a12.36,12.36,0,0,1-.15,1.48c-.2,1.57-.39,3.14-.59,4.7-1.08-.14-2.16-.29-3.24-.47l-1.8-.29c-.38-.07-.86,0-.78-.4Zm33.32,1.47c.31,0,.32.44.46.66.54.86.39,2.2.5,3.16,0,.47-.09,1.16.15,1.54s-.43.89-.5,1.29a4.06,4.06,0,0,1,0,.64c-.13.34-.23.21-.47.51s-.44.07-.73.24c-.09-.39-.2-.91-.72-1.07s-.75-.21-.53-.69a.73.73,0,0,0-.85-1c-.09-.42-.42-.59-.8-.84-.9-.59-.14-1.23.19-1.88a.55.55,0,0,0-.07-.59,1.57,1.57,0,0,0,.79-.43,1,1,0,0,0,.28-1.25,1,1,0,0,0-.08-.11c.47,0,.94,0,1.4-.08Zm14.25,2.92a2.55,2.55,0,0,0,1,.23h0a3.35,3.35,0,0,0-.06,1c.13.35,1,.48,1.27.48.48.48.28,1.27.76,1.91-2.67.59-5.34,1.12-8,1.51.33-.83.69-.65,1.31-.65s2-.5,1.93-1.41a2.52,2.52,0,0,1,.28-.92c.19-.48.09-.13.48-.33a.45.45,0,0,0,.14-.1.86.86,0,0,0,.2-.36C76.87,47.58,77.34,47.37,77.44,46.76Zm-31.88.73c2.11.12,4.23.18,6.34.18l1.88,0c.37,0,.2,0,.27.41a2.13,2.13,0,0,0,.48.9c.54.71.23,2.7.25,3.63-3.15.06-6.29,0-9.44-.15ZM22.14,41.64c.17-.67,0-.83.74-.67l1.56.35c1.16.23,2.32.48,3.48.69.2,0,1.36.16,1.33.29L29,43.52l-.89,4.75c-.2,1-.27,2.18-.56,3.18a.74.74,0,0,0-.72-.05h0l-.08,0,0,0,.06,0,0,0-.07,0c-.42.25-.33.75-.34,1.16L25.29,51l-2.17-3-1.41-2c-.1-.13-.54-.58-.5-.75C21.53,44.05,21.83,42.85,22.14,41.64Zm14.49,3.73c0-.18,1,0,1.23.06,2.49.27,5,.51,7.48.63-.11,2.19-.21,4.37-.32,6.55-1.71-.11-3.42-.23-5.13-.38-1.35-.14-2.7-.28-4.06-.44l.54-4.34Zm21.21,1.41c1-.09.55.2.89.92a2.3,2.3,0,0,0,.82.93c.41.28.2,1.12.94,1-.29.6.16,2,1,1.75.22.45.13,1.13.64,1.42a.61.61,0,0,0-.23.27c0,.1-.16.15-.19.27-.49-.74-1.93-.27-2.62-.23-1.22.08-2.44.13-3.66.16l-.09-4c0-.42-.23-.45-.4-.76s.23-.84-.28-1.17-.36-.11-.57-.47A30.84,30.84,0,0,0,57.84,46.78ZM68.47,49c0-.11.73.35,1.08.35l.75,0c.09,0,.61-.23.55.11-.08.5.48,1.07.82,1.35-.3.31-.58.47-.74.91-.4.7-1.35.67-2,.75-1.36.17-2.73.31-4.1.42-.8.07-1.18.4-1.94.46a1.06,1.06,0,0,0,0-.31c.33.16.79.14.91-.3a6.45,6.45,0,0,1,.42-1.1.92.92,0,0,1,.72-.12,2.43,2.43,0,0,0,1.17-.3c.27-.25.55,0,.86-.32s.12-.42.27-.63.34-.68.61-.73A.83.83,0,0,0,68.47,49Zm12,2.18c-.69,1,1.1.87,1.48.85-.17.51-1,.08-1.38.23-.54.24-.19.87.24,1a.47.47,0,0,0-.14.65,3.31,3.31,0,0,0-.62.56,1.88,1.88,0,0,0-.54,1.11c-.64.15-.84-.17-1.38-.57s-.79-.71-1.51-.59l-.84.14c-.1,0-.43-.35-.59-.4a5.17,5.17,0,0,0-1.88.05c-.79.09-1.5.65-2.33.77.16-.35,1-.6,1.3-.95s.35-.2.61-.39a2.6,2.6,0,0,0,1.07-1.06c.19-.44,2.47-.56,3-.66C78.13,51.62,79.28,51.39,80.43,51.15Zm-8,1.46a5.54,5.54,0,0,0-.88.42,2.57,2.57,0,0,1-.81.69,2,2,0,0,0-1.16,1.08c-.09.27-3.66.42-3.93.44-1.15.11-2.31.21-3.46.3.08-.57.47-1.12.59-1.7a6.46,6.46,0,0,1,1.32-.12,1.3,1.3,0,0,0,.62-.12A2.22,2.22,0,0,1,66,53.31C68.14,53.14,70.27,52.88,72.4,52.61ZM16.87,39.45c.37.08,5,1.35,5,1.37-.27,1.08-.55,2.15-.83,3.23-.14.54-.59,1.34-.23,1.83l3.91,5.34c.78,1.06,2.18,2.32,2.31,3.62,0,0,0,.07,0,0v0c0,.33,0,.16-.2.49l-.06.1c-.14.24-.08.48-.29.68a1,1,0,0,0-.31.42,1.81,1.81,0,0,0-.09.61c0,.34-.05.55-.66.49l-2.59-.25c-.41,0-.2-1.07-.33-1.38-.24-.57-.77-.6-1.1-1s0-.54-.46-.8c-.26-.16-.53-.3-.81-.44a4.38,4.38,0,0,1-1.63-1.13c-.21-.31,0-.39.05-.7s-.32-.71-.41-.89c-.25-.49-.74-1-.78-1.55s.26-.63.06-1.14-.67-1.28-.12-1.7a.73.73,0,0,0,.37.71c-.06-.19-.5-1-.11-1.08a1.86,1.86,0,0,1,1.18.39c-.29-.52-1.45-1-1.56-.08-.54-.47-.35-.76-.69-1.32a2.51,2.51,0,0,1-.21-2.07c.12-.67-.44-1.28-.1-1.92A7.75,7.75,0,0,0,16.87,39.45ZM74.8,54.81c.42,0,.3.52.79.45s1.15-.41,1.53-.15,1.34.64,1.09,1c-.51.78-.56,1.68-1.56,2.12s-.72.09-1.42-.48c-.41-.34-2.82-2.42-2.83-2.41a2.58,2.58,0,0,1,1.1-.48C73.93,54.85,74.37,54.81,74.8,54.81ZM44.85,53.34l1.12,0,1.71.08c1.3.07,2.6.17,3.9.17H54c.37,0,1.28-.24,1.29.19,0,.8.3,1.57.31,2.38v2.2a1.88,1.88,0,0,0-1.32-.19,2.11,2.11,0,0,0-.82.24,1.13,1.13,0,0,0-.75-.29c-.31,0-.49.16-.8.08a.57.57,0,0,0-.36-.14c-.41,0,0,.06-.35-.21s-.8-.09-1.09-.12c-.46-.05-.44-.51-.87-.58-.15,0-.53.2-.52-.13s0-.47,0-.71c0-.66,0-1.32.07-2,0-.35-1.06-.28-1.36-.31-.93-.09-1.89,0-2.82-.14C44.65,53.69,44.58,53.33,44.85,53.34Zm16.74.74a.52.52,0,0,0,.57.8c-.15.36-.32.69-.47,1-.34.83-1.55,2.14-1,3,0,.25-3,.26-3.42.27a1.23,1.23,0,0,0,0-.47c0-.33-.65-.41-.65-.43,0-.49,0-1,0-1.46a10.17,10.17,0,0,0-.24-2.52C58.07,54.27,59.83,54.18,61.59,54.08ZM28.44,51.15q2.73.51,5.48.88c.81-.07.3,1.23.24,1.77l-.23,1.86-.66,5.39c-.07.59-.7.25-1.19.18A4.85,4.85,0,0,1,30,60.57c-1.23-.72-2.46-1.46-3.68-2.19a.63.63,0,0,0,.19-1c-.29-.33.1-.46.26-.78s0-.52.27-.63a.88.88,0,0,0,.36-.28c.25-.39-.13-1.08-.3-1.4s.16-1.23.13-1.69C28.1,53.26,28.39,51.68,28.44,51.15Zm41.68,4.51c.2,0,1-.23,1,0a1,1,0,0,0,.58.57c.36.16.36.26.67.55.64.62,1.44,1.08,2.07,1.71a5.21,5.21,0,0,1,.67,1c.26.41.25.22.11.78,0,.13-.23,1.2-.37,1.21-.34,0-.59.45-.7.46L71,62.11c-.57,0-.68-.13-.76-.64a5.23,5.23,0,0,0-.18-.76c0-.3.28-.57.2-.88s-.5-.8-.64-1.25l-.87-2.75Zm-34.6-3c.23-.17,1.49.18,1.8.21.48.06,1,.1,1.45.15,1.08.11,2.17.21,3.25.29.34,0,1.33-.15,1.09.37a2.47,2.47,0,0,0-.08.86c-.15,2.33-.33,4.65-.48,7-1.21-.08-2.41-.18-3.62-.28-.43,0-1.48-.42-1.75.1s-1.86-.69-1.87.79c-.28,0-1,0-.94-.34l.18-1.42.61-4.84c.09-.68.17-1.35.26-2C35.43,53.38,35.42,52.73,35.52,52.66Zm32.4,2.88a11.07,11.07,0,0,1,.51,1.67,13.31,13.31,0,0,0,.68,2.14c.1.18.24.33.33.51a2.48,2.48,0,0,0-.2.8,5.86,5.86,0,0,0,.23,1.15c-1.09.13-2.19.26-3.29.37a.63.63,0,0,0-.46.38c-.19.4,0,0-.43.29a23.28,23.28,0,0,1-.2-3.54l0-2.82c0-.57-.12-.65.45-.71Zm-3.07.73a40.77,40.77,0,0,0,.24,7.16c-.36,0-1.68.46-1.36-.15.16-.32.06-.83-.45-.8a9.85,9.85,0,0,0-2.58.16c.23-.83,1.26-1.55.67-2.45a1.13,1.13,0,0,1-.21-.54A2.93,2.93,0,0,1,61.34,58a13.82,13.82,0,0,1,.77-1.54C63,56.41,63.94,56.35,64.85,56.27Zm-5.19,3.66c.64,0,.33,0,.72.6.16.41-1.55,3-.33,3a6.89,6.89,0,0,0,2.11-.16c-.06.43-.43.21-.66.64a.73.73,0,0,0,.63,1c-.28.07-.53.91-.86.76-.15-.35-.66-.59-1-.78s-1-.34-1.19.21c-.51,0-1-.4-1.52-.33a3,3,0,0,0,0-.84c-.06-.52.27-.9.06-1.49a7.39,7.39,0,0,1-.6-1.34l0-1.09A9.33,9.33,0,0,1,58.5,60ZM32.81,65.15c.88-.55,1.15,1.22.36,1.36l-.05,0,.05,0C32.09,66.2,31.78,65.79,32.81,65.15ZM16.88,67.24c.29.15.73.17,1.08.32.6.25.26.1-.17.31,0-.13-.3-.39-.57-.4h0c.05,0-.26.12-.11,0l.06,0C16.82,67.65,16.75,67.35,16.88,67.24Zm18.55.17c.6-.71,1.64,1,.85,1.29l0,0,0,0c-.45-.22-.79-.21-1.08-.78S35.29,67.58,35.43,67.41Zm2.6,1.3a.62.62,0,0,1,.44.11h.26c.09.15,0,.2-.19.24l-.09,0h0l-.12,0a.09.09,0,0,1,0,0l0,0a5.8,5.8,0,0,0-1-.1c.05-.27.24-.33.58-.18l.23,0Zm.8,0c.12-.07.72.2.89.24,1,.25.35,1.14-.27,1.21a.05.05,0,0,1,0,0v0h0c-.2-.24-.81-1.14-.62-1.38ZM18.65,70.16c.3,0,.17.52-.26.29l0,0h0s-.05-.06-.05,0h0C18.19,70.19,18.47,70.17,18.65,70.16Zm13.5.35c-.09.24-.23-.31-.28.16l-.14-.08C30.82,70.28,32.4,69.85,32.15,70.51Zm43.13-7.66c.55.07.5.34.75.83a9.52,9.52,0,0,0,.87,1.39c.19.26.62.58.7.91a6.13,6.13,0,0,0,.28.82c-.39-.43-.21-.89-.75-1.2a6.49,6.49,0,0,0,1,1.74A5.4,5.4,0,0,1,79,69.75a1.17,1.17,0,0,1-.12.72c-.12.26-.42.4-.46.72s-.29.43-.67.44c-.14-.06-.16-.43-.26-.58-.32-.5-1-.54-1.18-1a3.76,3.76,0,0,0-.73-1.15.2.2,0,0,0,.07.25c-.27,0-1.13-.85-.91-1.1s.3-.92-.06-.33c-.15.25-.35-.15-.32-.3a5.57,5.57,0,0,0,.11-1c0-.73-.29-.78-.86-1.13s-1-1.38-1.86-1.16c-.29.08-.11.28-.42.4a4.3,4.3,0,0,1-.81.38c-.34.08-.54-.36-.82-.54a2.83,2.83,0,0,0-2.33-.19.84.84,0,0,0-.06-.64c.89-.09,1.77-.19,2.65-.3.38,0,.41.4.86.37l1.45-.1,1.65-.12c.4,0,.59.32,1,.25A.66.66,0,0,0,75.28,62.85ZM32.18,70.9a.8.8,0,0,1,.63.73.67.67,0,0,1-.2-.12l0,0h0s0,0,0,0S32.14,71.06,32.18,70.9Zm12-16.82s3.15.14,3.45.14c0,.79,0,1.57-.09,2.35s1.84,1.28,2.46,1.49c.33.11.36-.08.62.19a.7.7,0,0,0,.49.22,1.87,1.87,0,0,1,.63,0c.41.57.75-.3,1.12,0,.61.53,1.19-.18,1.94-.08a2.53,2.53,0,0,1,1.1.44c.28.22.38,0,.39.34l0,.95a5.73,5.73,0,0,0,0,1.31c.09.32.44.7.57,1,.25.52.14.69,0,1.2-.2.91.15,1.3-1,1.65-.74-.82-.95.78-1.31,1.07a1.83,1.83,0,0,1-1.11.56c-.35,0-.77.16-.83.55a3.44,3.44,0,0,0-1.49,4.09c-.37-.12-.72-.21-1.1-.34-.19-.06-.55,0-.7-.15a3.33,3.33,0,0,1-.64-1.31c0-.33,0-.61-.22-.87-1-1.06-1.38-2.68-2.49-3.68a2.29,2.29,0,0,0-2.51-.46A2.91,2.91,0,0,0,42.5,66a7.32,7.32,0,0,1-.76-.52c-.84-.62-.87-1.32-1.33-2.21a10.78,10.78,0,0,0-1.65-2c1.24.12,2.49.21,3.74.3.36,0,1.07.18,1.11-.38a3.59,3.59,0,0,0,.06-1c0-.67.1-1.34.16-2C43.94,56.79,44,55.43,44.13,54.08ZM33.71,70.9c.06,0,.12.07.16.16l.05,0,0,0a.56.56,0,0,1,0,.22h-.17c.13.17.91,1,.47,1-.09,0-.43-.41-.66-.38s-.26-.46-.36-.74c0,0,0,.07,0,.09s0,0,0,0a0,0,0,0,1,0,0h0v0a2,2,0,0,1-.15-.26l0-.06v-.06h0s0,0,0,0h0a.48.48,0,0,1,.12,0,.54.54,0,0,1,.13,0s.09,0,.1.07a.89.89,0,0,1,.35.23.78.78,0,0,1,0-.21.09.09,0,0,1,0-.09h0l0,0h0Zm-9.19.76s0,0,0,.06a3.18,3.18,0,0,1,.33.36c-.16.26-.39.32-.57.5l-.08.11c-.41.34,0,.55-.62.26s0-.74.2-.87.25-.12.35-.21v0s0-.08,0-.07v0l0,0a.38.38,0,0,1,.12-.11h.05A.4.4,0,0,1,24.52,71.66Zm16.72-1.22c-.29-.51.31-.18.47-.09l0,0c.27.11,1.8,1.26,1.31,1.66-.31.25-.64.29-.95.52-.15.12-.36.67-.57.51-.46-.4-.15-.42-.33-1a2,2,0,0,1-.24-.86C41,70.89,41.47,70.87,41.24,70.44Zm-18.5-9,0,0-.05,0h0a2.63,2.63,0,0,1,.9.08,4.78,4.78,0,0,0,2.43.17c1.12-.36,1.13.74,1.36,1.49q.86,2.91,1.73,5.82c.14.39.77-.35.77-.08s.84.54,1,.78c.32-.59.34-1.18,1-.61.93,0,1.39,1.46,2.36,1.43.18,0,.62,0,.57.29s.52.69.14.87-.23-.42-.32-.55c-.49-.67-.32.13-.51.23s-.16-.55-.36-.63a7.27,7.27,0,0,1-.82-.34l-.15-.23a.56.56,0,0,1-.19.65.87.87,0,0,0-.06-.47l-.05-.08c.15.08-.09-.14,0,0h0l0,0a2.3,2.3,0,0,1-.24-.52c-.09,0-.18.06-.26.2,0-.07-.51.17-.55.19s-.59-.24-.73-.3-.78,0-.88-.35-.43.09-.64,0a1.38,1.38,0,0,0-1,.08c-.31.15-.37-.08-.65-.14s-1.22-.11-1.39-.32c0,.28.21.51.08.79s-.36.1-.47.29S25.28,71,25,71c-.14,0,.17-.46.18-.51-.67.46.18-1.4.36-1.22v0l0,0c-.19-.28-.75.47-.79.57s-.1.54-.27.74-.39.3-.47.57c.05.08.45,0,.41.2s-.35.6-.37.61a2.56,2.56,0,0,0-.73.54c-.17.2-.12.57-.48.61-.13,0-1,1-1.06.86a6.51,6.51,0,0,1-1,.33c-.36.28-1.1.48-.41,0,.24-.17.23-.41.58-.47s.24.22.4,0c.31-.46.71-.62,1-1a4.93,4.93,0,0,0,.53-1.26c-.08-.19-.52.34-.71-.09-.12.12.05.34-.07.42s-.32-.35-.34-.42c-.2.27-.22-.13-.49,0-.09,0-.29.27-.38.29s.22-1.36-.44-1.13c-.12,0-.64.26-.56-.06-.37-.55-.35-.31-.19-.92-.45,0-.2-.33-.49-.37a3.58,3.58,0,0,1,.71-1.27c.29-.31.4.3.73-.13.2-.27.52.15.57-.27a1.25,1.25,0,0,0,0-.47c-.08-.27.17-.27.1-.46s-.63.28-.65.31c-.11-.15-.38-.15-.67-.1s-1-.57-.49-.67c-.85-.54-.16-.42.28-.86.12-.11.64-.37.57,0-.13.58.64.26.91.16-.4-.18-.35-.51-.64-.67s-.4-.57-.42-.59c-.32-.29-.51-.35-.44-.76s.29-.18.47-.18c.39,0,.53-.46.66-.74S22.73,61.09,22.74,61.47ZM19.65,74.73c0,.14-.62.33-.63.16h0v0C19.11,74.81,19.62,74.29,19.65,74.73Zm-2,1h0l0-.06-.1,0a5.29,5.29,0,0,1,.36-.39l.05,0C18.59,75.25,17.83,75.63,17.61,75.74Z" style="fill: none;clip-rule: evenodd"/>
    </clipPath>
    <clipPath id="b" transform="translate(-0.97 -0.32)">
      <rect x="-62.89" y="-366.9" width="748.84" height="2362.06" style="fill: none"/>
    </clipPath>
    <clipPath id="c" transform="translate(-0.97 -0.32)">
      <path d="M51.92,80.61v1.5H79a1.5,1.5,0,0,0,0-3s-24,.14-24,0v-24a1.5,1.5,0,1,0-3,0Z" style="fill: none"/>
    </clipPath>
    <clipPath id="e" transform="translate(-0.97 -0.32)">
      <path d="M63.31,71.87a.73.73,0,0,1,.73.72v2.94a.73.73,0,0,1-.73.73H59.07a.73.73,0,0,1-.73-.73V72.59a.72.72,0,0,1,.73-.72Z" style="fill: none"/>
    </clipPath>
    <clipPath id="g" transform="translate(-0.97 -0.32)">
      <path d="M75.08,58.34a.73.73,0,0,1,.73.72V62a.73.73,0,0,1-.73.73H58.72A.74.74,0,0,1,58,62V59.06a.73.73,0,0,1,.74-.72Z" style="fill: none"/>
    </clipPath>
    <clipPath id="i" transform="translate(-0.97 -0.32)">
      <path d="M69,65.29a.73.73,0,0,1,.73.72V69a.73.73,0,0,1-.73.73H59.07a.73.73,0,0,1-.73-.73V66a.73.73,0,0,1,.73-.72Z" style="fill: none"/>
    </clipPath>
  </defs>
  <title>Map_chart_icon</title>
  <circle cx="52" cy="52" r="51" stroke="#EAEBEC" stroke-width="2" stroke-opacity="100%" style="fill: #f1f1f1"/>
  <g style="clip-path: url(#a)">
    <g style="clip-path: url(#b)">
      <rect x="11.46" y="24.51" width="81.17" height="54.58" style="fill: #f77b42"/>
    </g>
  </g>
  <g style="clip-path: url(#c)">
    <g style="clip-path: url(#b)">
      <rect x="47.3" y="49.61" width="35.83" height="35.83" style="fill: #112e51"/>
    </g>
  </g>
  <g style="clip-path: url(#e)">
    <g style="clip-path: url(#b)">
      <rect x="53.71" y="67.9" width="13.02" height="11.7" style="fill: #112e51"/>
    </g>
  </g>
  <g style="clip-path: url(#g)">
    <g style="clip-path: url(#b)">
      <rect x="53.36" y="54.37" width="25.14" height="11.7" style="fill: #112e51"/>
    </g>
  </g>
  <g style="clip-path: url(#i)">
    <g style="clip-path: url(#b)">
      <rect x="53.71" y="61.31" width="18.72" height="11.7" style="fill: #112e51"/>
    </g>
  </g>
</svg>
