<?xml version="1.0" encoding="UTF-8" standalone="no"?>
<svg width="18px" height="20px" viewBox="0 0 18 20" version="1.1" xmlns="http://www.w3.org/2000/svg" xmlns:xlink="http://www.w3.org/1999/xlink">
    <!-- Generator: Sketch 3.8.3 (29802) - http://www.bohemiancoding.com/sketch -->
    <title>all-files</title>
    <desc>Created with Sketch.</desc>
    <defs></defs>
    <g id="Page-1" stroke="none" stroke-width="1" fill="none" fill-rule="evenodd">
        <g id="all-files" fill="#000000">
            <path d="M15.5,18 L8.00964952,18 C7.72765279,18 7.5,18.2259549 7.5,18.5046844 L7.5,19.4953156 C7.5,19.785965 7.72817786,20 8.00964952,20 L16.9903505,20 C17.1321764,20 17.2602563,19.9428463 17.3525431,19.8505697 C17.4458619,19.7599925 17.5,19.6319116 17.5,19.4903505 L17.5,10.5096495 C17.5,10.2276528 17.2740451,10 16.9953156,10 L16.0046844,10 C15.714035,10 15.5,10.2281779 15.5,10.5096495 L15.5,18 Z M12,14.5 L4.50964952,14.5 C4.22765279,14.5 4,14.7259549 4,15.0046844 L4,15.9953156 C4,16.285965 4.22817786,16.5 4.50964952,16.5 L13.4903505,16.5 C13.6321764,16.5 13.7602563,16.4428463 13.8525431,16.3505697 C13.9458619,16.2599925 14,16.1319116 14,15.9903505 L14,7.00964952 C14,6.72765279 13.7740451,6.5 13.4953156,6.5 L12.5046844,6.5 C12.214035,6.5 12,6.72817786 12,7.00964952 L12,14.5 Z M0,0.493741035 C0,0.221055391 0.226662825,1.43708616e-17 0.501193199,3.04759529e-17 C0.501193199,3.04759529e-17 4.87173382,3.30939576e-16 7.05438232,0 C8,1 9.5,2.5 10.5,3.49407959 L10.5,12.4970675 C10.5,12.7748295 10.2806926,13 9.99356318,13 L0.506436825,13 C0.22673949,13 0,12.7743607 0,12.506259 L0,0.493741035 Z M2,2 L2,11 L8.5,11 L8.5,4.5 L6.5,4.5 L6.5,2 L2,2 Z"></path>
        </g>
    </g>
</svg>