<?xml version="1.0" encoding="UTF-8"?>
<svg width="20px" height="20px" viewBox="0 0 20 20" version="1.1" xmlns="http://www.w3.org/2000/svg" xmlns:xlink="http://www.w3.org/1999/xlink">
    <!-- Generator: Sketch 63.1 (92452) - https://sketch.com -->
    <title>mission-target</title>
    <desc>Created with Sketch.</desc>
    <defs>
        <path d="M9.52234707,11.528885 C9.24570226,11.5429575 8.96595581,11.4512372 8.75735931,11.2426407 C8.54876281,11.0340442 8.45704249,10.7542977 8.47468802,10.4778511 L8.76038594,5.94574129 C8.77953675,5.70503035 8.87660323,5.46654252 9.06270088,5.28044487 C9.4618948,4.88125095 10.1024264,4.87381562 10.492985,5.26437426 C10.7015815,5.47297076 10.7930608,5.75295827 10.7754153,6.02940488 L10.6580302,7.92775624 L15.8123565,2.77342992 C16.2117915,2.37399494 16.852082,2.36680067 17.2426407,2.75735931 C17.6331993,3.14791796 17.6260051,3.78820851 17.2265701,4.18764348 L12.0722438,9.3419698 L13.970638,9.22077063 C14.2470417,9.20693919 14.5270292,9.29841845 14.7356257,9.50701495 C15.1261844,9.8975736 15.118749,10.5381052 14.7195551,10.9372991 C14.5334575,11.1233968 14.2949696,11.2204632 14.0540605,11.236041 L9.52234707,11.528885 Z" id="path-1"></path>
    </defs>
    <g id="mission-target" stroke="none" stroke-width="1" fill="none" fill-rule="evenodd">
        <path d="M17.9221445,8.88661519 C18.53705,13.2618948 15.4886644,17.3072391 11.1133848,17.9221445 C6.73810519,18.53705 2.6927609,15.4886644 2.07785545,11.1133848 C1.46295,6.73810519 4.51133557,2.6927609 8.88661519,2.07785545 C13.2618948,1.46295 17.3072391,4.51133557 17.9221445,8.88661519 Z" id="Oval" stroke="#000000" stroke-width="2.5" stroke-linecap="round" stroke-linejoin="round" stroke-dasharray="40.18999862670898"></path>
        <circle id="Oval" fill="#000000" cx="10" cy="10" r="4"></circle>
        <mask id="mask-2" fill="white">
            <use xlink:href="#path-1"></use>
        </mask>
        <path stroke="#FFFFFF" stroke-width="0.75" d="M17.5078057,2.49219427 C17.2386273,2.22301585 16.8835759,2.09015987 16.526614,2.09417068 C16.1739655,2.09813302 15.8194451,2.23601128 15.5471915,2.50826488 L11.0934648,6.96199159 L11.1497004,6.0525489 C11.174006,5.67177214 11.0455188,5.28657793 10.7581501,4.99920922 C10.4890096,4.73006874 10.1339456,4.59726391 9.77698517,4.6012747 C9.42423709,4.60523816 9.0696636,4.74315207 8.79753583,5.01527983 C8.545549,5.26726667 8.4125279,5.5896939 8.38656716,5.9160005 L8.10043091,10.4542585 C8.07609725,10.8354839 8.20479851,11.22041 8.49219427,11.5078057 C8.77824823,11.7938597 9.16118129,11.9227418 9.54139811,11.9034008 L14.078243,11.6102605 C14.4066182,11.5890269 14.7312234,11.4559609 14.9847202,11.2024642 C15.2568479,10.9303364 15.3947618,10.5757629 15.3987253,10.2230148 C15.4027361,9.86605438 15.2699313,9.51099039 15.0007908,9.24184991 C14.7148223,8.9558814 14.3317045,8.82723339 13.9518962,8.84623926 L13.0401103,8.90443337 L17.4917351,4.45280853 C17.7639887,4.18055493 17.901867,3.82603452 17.9058293,3.47338599 C17.9098401,3.11642414 17.7769842,2.76137269 17.5078057,2.49219427 Z"></path>
    </g>
</svg>