<?xml version="1.0" encoding="UTF-8" standalone="no"?>
<svg width="12px" height="10px" viewBox="0 0 12 10" version="1.1" xmlns="http://www.w3.org/2000/svg" xmlns:xlink="http://www.w3.org/1999/xlink">
    <!-- Generator: Sketch 3.7.2 (28276) - http://www.bohemiancoding.com/sketch -->
    <title>arrow-left-border</title>
    <desc>Created with Sketch.</desc>
    <defs></defs>
    <g id="Page-1" stroke="none" stroke-width="1" fill="none" fill-rule="evenodd">
        <g id="arrow-left-border" transform="translate(-4.000000, -5.000000)" fill="#000000">
            <path d="M4.41831416,8.8088546 L10.6518762,5.12434064 C10.7886655,5.04315018 10.9368066,5 11.0948805,5 C11.5651292,5 11.9462662,5.38125451 11.9462662,5.85164819 L11.9462662,13.2325992 C11.9462662,13.702709 11.5651292,14.0842474 11.0948805,14.0842474 C10.9368066,14.0842474 10.7886655,14.0408133 10.661809,13.9655844 C10.6561331,13.9624617 4.41831416,10.2753928 4.41831416,10.2753928 C4.16800677,10.1269221 4,9.85411082 4,9.54212369 C4,9.22985269 4.16800677,8.95704139 4.41831416,8.8088546 Z M13.5,6 L13.5,13.15 C13.5,13.7022847 13.9477153,14.15 14.5,14.15 C15.0522847,14.15 15.5,13.7022847 15.5,13.15 L15.5,6 C15.5,5.44771525 15.0522847,5 14.5,5 C13.9477153,5 13.5,5.44771525 13.5,6 Z"></path>
        </g>
    </g>
</svg>