<?xml version="1.0" encoding="UTF-8"?>
<svg width="20px" height="20px" viewBox="0 0 20 20" version="1.1" xmlns="http://www.w3.org/2000/svg" xmlns:xlink="http://www.w3.org/1999/xlink">
    <title>arrow-target</title>
    <g id="Page-1" stroke="none" stroke-width="1" fill="none" fill-rule="evenodd">
        <g id="arrow-target" transform="translate(1.999, 1.999)">
            <path d="M15.9231406,6.88761128 C16.5380461,11.2628909 13.4896605,15.3082352 9.11438089,15.9231406 C4.73910128,16.5380461 0.693756989,13.4896605 0.078851539,9.11438089 C-0.536053911,4.73910128 2.51233166,0.693756989 6.88761128,0.078851539 C11.2628909,-0.536053911 15.3082352,2.51233166 15.9231406,6.88761128 Z" id="Oval" stroke="#000000" stroke-width="2.5" stroke-linecap="round" stroke-linejoin="round" stroke-dasharray="40.18999862670898"></path>
            <circle id="Oval" fill="#000000" fill-rule="nonzero" cx="8.00099609" cy="8.00099609" r="4"></circle>
            <path d="M15.5088018,0.493190359 C15.2396234,0.224011939 14.884572,0.091155959 14.5276101,0.0950786163 C14.1749616,0.099129109 13.8204412,0.237007369 13.5481876,0.509260969 L9.09446089,4.96298768 L9.15069649,4.05354499 C9.17500209,3.67276823 9.04651489,3.28757402 8.75914619,3.00020531 C8.49000569,2.73106483 8.13494169,2.59826 7.77798126,2.60227079 C7.42523318,2.60623425 7.07065969,2.74414816 6.79853192,3.01627592 C6.54654509,3.26826276 6.41352399,3.59068999 6.38756325,3.91699659 L6.101427,8.45525459 C6.07709334,8.83647999 6.2057946,9.22140609 6.49319036,9.50880179 C6.77924432,9.79485579 7.16217738,9.92373789 7.5423942,9.90439689 L12.0792391,9.61125659 C12.4076143,9.59002299 12.7322195,9.45695699 12.9857163,9.20346029 C13.257844,8.93133249 13.3957579,8.57675899 13.3997214,8.22401089 C13.4037322,7.86705047 13.2709274,7.51198648 13.0017869,7.242846 C12.7158184,6.95687749 12.3327006,6.82822948 11.9528923,6.84723535 L11.0411064,6.90542946 L15.4927312,2.45380462 C15.7649848,2.18155102 15.9028631,1.82703061 15.9069135,1.47438208 C15.9108362,1.11742023 15.7779803,0.762368779 15.5088018,0.493190359 Z" id="Path" stroke="#FFFFFF" stroke-width="0.75" fill="#000000"></path>
        </g>
    </g>
</svg>
