<?xml version="1.0" encoding="UTF-8" standalone="no"?>
<svg width="10px" height="13px" viewBox="0 0 10 13" version="1.1" xmlns="http://www.w3.org/2000/svg" xmlns:xlink="http://www.w3.org/1999/xlink">
    <!-- Generator: Sketch 3.7.2 (28276) - http://www.bohemiancoding.com/sketch -->
    <title>arrow-up-border</title>
    <desc>Created with Sketch.</desc>
    <defs></defs>
    <g id="Page-1" stroke="none" stroke-width="1" fill="none" fill-rule="evenodd">
        <path d="M10.0816858,5.8088546 L3.84812382,2.12434064 C3.71133452,2.04315018 3.56319342,2 3.40511948,2 C2.9348708,2 2.55373382,2.38125451 2.55373382,2.85164819 L2.55373382,10.2325992 C2.55373382,10.702709 2.9348708,11.0842474 3.40511948,11.0842474 C3.56319342,11.0842474 3.71133452,11.0408133 3.83819099,10.9655844 C3.84386689,10.9624617 10.0816858,7.2753928 10.0816858,7.2753928 C10.3319932,7.1269221 10.5,6.85411082 10.5,6.54212369 C10.5,6.22985269 10.3319932,5.95704139 10.0816858,5.8088546 L10.0816858,5.8088546 Z M1,3 L1,10.15 C1,10.7022847 0.55228475,11.15 -1.77635684e-15,11.15 C-0.55228475,11.15 -1,10.7022847 -1,10.15 L-1,3 C-1,2.44771525 -0.55228475,2 -1.77635684e-15,2 C0.55228475,2 1,2.44771525 1,3 L1,3 Z" id="arrow-up-border" fill="#000000" transform="translate(4.750000, 6.575000) rotate(-90.000000) translate(-4.750000, -6.575000) "></path>
    </g>
</svg>