<?xml version="1.0" encoding="UTF-8"?>
<svg width="18" height="13" viewBox="0 -0.4 18 13" version="1.1" xmlns="http://www.w3.org/2000/svg" xmlns:xlink="http://www.w3.org/1999/xlink">
  <g fill="none" fill-rule="evenodd">
    <g fill="#000000" fill-rule="nonzero">
      <path d="M.56,5.09L8.9.17c.35-.21.79-.22,1.15-.02.36.2.58.58.58.99v9.87c0,.41-.22.79-.57.99-.35.2-.79.2-1.14,0L.56,7.06c-.35-.2-.56-.58-.56-.98s.21-.78.56-.98h0ZM7.93,5.1L16.27.17c.35-.21.79-.22,1.15-.02s.58.58.58.99v9.87c0,.41-.22.79-.57.99-.35.2-.79.2-1.14,0L7.93,7.06c-.35-.21-.56-.58-.56-.98s.21-.78.56-.98Z"/>
    </g>
  </g>
</svg>
