<?xml version="1.0" encoding="UTF-8"?>
<svg width="20px" height="20px" viewBox="0 0 20 20" version="1.1" xmlns="http://www.w3.org/2000/svg" xmlns:xlink="http://www.w3.org/1999/xlink">
    <title>arrow-target</title>
    <g stroke="none" stroke-width="1" fill="none" fill-rule="evenodd">
        <g id="arrow-target" transform="translate(0.7498, 0.75)" fill="#000000" fill-rule="nonzero">
            <path d="M11.1165263,0.188815941 C11.7927025,0.328017426 12.2280065,0.989011648 12.088805,1.66518786 C11.9496035,2.34136407 11.2886093,2.77666809 10.6124331,2.63746661 C9.8626572,2.48311347 9.08782937,2.45761903 8.3117333,2.56669222 C4.62009112,3.08551869 2.04801579,6.49877793 2.56684226,10.1904201 C3.08566874,13.8820623 6.49892799,16.4541376 10.1905702,15.9353111 C13.8822123,15.4164847 16.4542877,12.0032254 15.9354612,8.31158326 C15.8393822,7.62794582 16.3156924,6.99586077 16.9993298,6.89978179 C17.6829673,6.8037028 18.3150523,7.28001304 18.4111313,7.96365048 C19.1221158,13.0225675 15.59742,17.6999969 10.5385029,18.4109813 C5.47958588,19.1219658 0.802156521,15.5972699 0.0911720921,10.5383529 C-0.619812335,5.4794358 2.90488348,0.80200647 7.96380054,0.0910220442 C9.02436108,-0.0580300184 10.0873618,-0.0230537168 11.1165263,0.188815941 Z" id="Path"></path>
            <path d="M7.22117544,5.80364503 L6.97732579,9.68166336 C6.94546832,10.1807594 7.12150641,10.667298 7.47818098,11.0239725 C7.83190445,11.377696 8.31395533,11.5542327 8.81160084,11.5289182 L12.7008594,11.2769888 C12.0056179,12.4582458 10.7209639,13.2510017 9.25115173,13.2510017 C7.04201273,13.2510017 5.25115173,11.4601407 5.25115173,9.25100168 C5.25115173,7.78284472 6.04212311,6.49942903 7.22117544,5.80364503 Z" id="Path"></path>
            <path d="M15.7821624,1.71980265 C16.0492113,1.71710275 16.303656,1.81822461 16.4937924,2.00836103 C16.6839288,2.19849734 16.7850506,2.45294201 16.7823471,2.72035562 C16.779054,2.98654328 16.6725729,3.24379411 16.4777218,3.43864517 L11.3233955,8.59297148 L13.2269335,8.47147948 C13.5119013,8.45725492 13.7865728,8.55781194 13.9867775,8.75801663 C14.1768594,8.94809856 14.2779042,9.20249631 14.2749007,9.46980325 C14.2719067,9.73627027 14.1654677,9.99353998 13.9707068,10.1883009 C13.791204,10.3678037 13.5568322,10.4707723 13.3051968,10.4870437 L8.76837029,10.7801828 C8.4834847,10.7946393 8.20897813,10.6941095 8.00851106,10.4936424 C7.80695936,10.2920907 7.70744431,10.0170485 7.72582104,9.72914786 L8.01197574,5.190599 C8.03169712,4.94335417 8.13562554,4.70967362 8.31385261,4.53144655 C8.50861346,4.3366857 8.76588313,4.23024672 9.03235011,4.22725271 C9.29965705,4.22424926 9.55405484,4.32529401 9.7441368,4.51537595 C9.94548771,4.71672687 10.0449794,4.99194203 10.0266138,5.27966234 L9.90918201,7.17875788 L15.0635083,2.0244316 C15.2583593,1.82958057 15.5156101,1.72309943 15.7821624,1.71980265 Z" id="Path"></path>
        </g>
    </g>
</svg>
