<?xml version="1.0" encoding="UTF-8" standalone="no"?>
<svg width="12px" height="10px" viewBox="0 0 12 10" version="1.1" xmlns="http://www.w3.org/2000/svg" xmlns:xlink="http://www.w3.org/1999/xlink">
    <!-- Generator: Sketch 3.7.2 (28276) - http://www.bohemiancoding.com/sketch -->
    <title>arrow-right-border</title>
    <desc>Created with Sketch.</desc>
    <defs></defs>
    <g id="Page-1" stroke="none" stroke-width="1" fill="none" fill-rule="evenodd">
        <g id="arrow-border-right" transform="translate(-4.000000, -5.000000)" fill="#000000">
            <path d="M15.5816858,8.8088546 L9.34812382,5.12434064 C9.21133452,5.04315018 9.06319342,5 8.90511948,5 C8.4348708,5 8.05373382,5.38125451 8.05373382,5.85164819 L8.05373382,13.2325992 C8.05373382,13.702709 8.4348708,14.0842474 8.90511948,14.0842474 C9.06319342,14.0842474 9.21133452,14.0408133 9.33819099,13.9655844 C9.34386689,13.9624617 15.5816858,10.2753928 15.5816858,10.2753928 C15.8319932,10.1269221 16,9.85411082 16,9.54212369 C16,9.22985269 15.8319932,8.95704139 15.5816858,8.8088546 Z M6.5,6 L6.5,13.15 C6.5,13.7022847 6.05228475,14.15 5.5,14.15 C4.94771525,14.15 4.5,13.7022847 4.5,13.15 L4.5,6 C4.5,5.44771525 4.94771525,5 5.5,5 C6.05228475,5 6.5,5.44771525 6.5,6 Z" id="arrow-right-border"></path>
        </g>
    </g>
</svg>