<?xml version="1.0" encoding="UTF-8"?>
<svg width="20px" height="20px" viewBox="0 0 20 20" version="1.1" xmlns="http://www.w3.org/2000/svg" xmlns:xlink="http://www.w3.org/1999/xlink">
    <title>bluesky-circle</title>
    <g id="bluesky-circle" stroke="none" stroke-width="1" fill="none" fill-rule="evenodd">
        <g fill="#000000" fill-rule="nonzero" id="Shape">
            <path d="M10,0 C15.5228475,0 20,4.4771525 20,10 C20,15.5228475 15.5228475,20 10,20 C4.4771525,20 0,15.5228475 0,10 C0,4.4771525 4.4771525,0 10,0 Z M16,6.14038179 C16,4.05641006 14.3915956,4.71132427 13.3989118,5.55774759 C12.0230992,6.73077034 10.5433837,9.10933715 10.0000352,10.3856573 C9.45672801,9.10924316 7.97692979,6.73079384 6.6010882,5.55774759 L6.41997631,5.41088525 C5.42478239,4.64375265 4,4.17899663 4,6.14038179 L4.00498593,6.31598533 C4.03748174,7.09522416 4.2213009,9.68207225 4.33332908,10.1366955 C4.76160243,11.875173 6.32246225,12.3185836 7.71089549,12.0502123 C5.28397178,12.5192334 4.66661678,14.0732066 5.9999331,15.6270858 C8.19781039,18.1885171 9.32220472,15.7459167 9.76638211,14.43758 L9.97520484,13.7731727 C9.99175931,13.7253514 9.99979429,13.7157556 10,13.7551746 C10.0002045,13.7157569 10.0082397,13.7253526 10.0247945,13.7731735 L10.2056483,14.3539217 C10.6295426,15.6373329 11.7545381,18.244117 14.0000669,15.6270858 C15.3333625,14.0732066 14.7159868,12.5193274 12.2891045,12.0502123 C13.6774964,12.3185836 15.2383355,11.8751753 15.6666709,10.1366955 C15.7898978,9.63665693 16,6.55657929 16,6.14038179 Z"></path>
        </g>
    </g>
</svg>
