<?xml version="1.0" encoding="UTF-8" standalone="no"?>
<svg width="19px" height="20px" viewBox="0 0 19 20" version="1.1" xmlns="http://www.w3.org/2000/svg" xmlns:xlink="http://www.w3.org/1999/xlink">
    <!-- Generator: Sketch 43.2 (39069) - http://www.bohemiancoding.com/sketch -->
    <title>bulk</title>
    <desc>Created with Sketch.</desc>
    <defs></defs>
    <g id="Images-/-icons" stroke="none" stroke-width="1" fill="none" fill-rule="evenodd">
        <g id="bulk" fill-rule="nonzero" fill="#000000">
            <path d="M5.71554643,15.065099 L2.230741,2.0596281 L1.09900444,2.362876 C0.63335686,2.48764589 0.154728925,2.21130993 0.0299590309,1.74566234 C-0.0948108633,1.28001476 0.181525104,0.801386823 0.647172688,0.676616929 L2.62203878,0.147453154 C3.08768637,0.0226832599 3.5663143,0.299019227 3.69108419,0.764666811 L7.50052374,14.9816888 C7.93543516,15.1216434 8.32800509,15.3765305 8.63305948,15.7202689 L16.5222896,13.5402979 C16.9895138,13.4111933 17.4724427,13.6875082 17.5979009,14.1557247 L18.0656201,15.9012762 C18.19039,16.3669238 17.914054,16.8455517 17.4484064,16.9703216 C16.9827588,17.0950915 16.5041309,16.8187556 16.379361,16.353108 L16.1393259,15.4572846 L9.27535178,17.3539545 C9.30406398,18.5067893 8.54437629,19.5724546 7.38129399,19.8841015 C6.01793346,20.2494129 4.61656801,19.4403341 4.25125666,18.0769736 C3.91772696,16.8322238 4.56313499,15.5557942 5.71554643,15.065099 Z M7.60093057,10.8294659 L14.5129619,8.97739269 L15.5712894,12.9271249 L8.65925812,14.7791981 L7.60093057,10.8294659 Z M6.27802113,5.89230067 L12.4494777,4.23866387 L13.5078052,8.18839606 L7.33634868,9.84203285 L6.27802113,5.89230067 Z M5.24781731,2.04752768 L9.39971031,0.935031302 L10.1653322,3.79237125 L6.01343924,4.90486762 L5.24781731,2.04752768 Z M6.77296643,18.4485205 C7.3375483,18.4485205 7.79523234,17.9908364 7.79523234,17.4262546 C7.79523234,16.8616727 7.3375483,16.4039887 6.77296643,16.4039887 C6.20838455,16.4039887 5.75070051,16.8616727 5.75070051,17.4262546 C5.75070051,17.9908364 6.20838455,18.4485205 6.77296643,18.4485205 Z" id="Combined-Shape"></path>
        </g>
    </g>
</svg>