<?xml version="1.0" encoding="UTF-8" standalone="no"?>
<svg width="25px" height="20px" viewBox="0 0 25 20" version="1.1" xmlns="http://www.w3.org/2000/svg" xmlns:xlink="http://www.w3.org/1999/xlink">
    <!-- Generator: Sketch 3.7.2 (28276) - http://www.bohemiancoding.com/sketch -->
    <title>cal-add</title>
    <desc>Created with Sketch.</desc>
    <defs></defs>
    <g id="Page-1" stroke="none" stroke-width="1" fill="none" fill-rule="evenodd">
        <g id="cal-add" fill="#000000">
            <g id="Group-2">
                <path d="M18.830702,19.4444444 C22.2379112,19.4444444 25,16.6823557 25,13.2751465 C25,9.86793731 22.2379112,7.10584852 18.830702,7.10584852 C15.4234929,7.10584852 12.6614041,9.86793731 12.6614041,13.2751465 C12.6614041,16.6823557 15.4234929,19.4444444 18.830702,19.4444444 L18.830702,19.4444444 Z M19.481284,10.4531532 L19.481284,12.6564739 L21.6498907,12.6564739 C22.0092288,12.6564739 22.3004727,12.9523799 22.3004727,13.3174702 C22.3004727,13.6825604 22.0092288,13.9784664 21.6498907,13.9784664 L19.481284,13.9784664 L19.481284,16.1817871 C19.481284,16.5468773 19.1900402,16.8427833 18.830702,16.8427833 C18.4713639,16.8427833 18.18012,16.5468773 18.18012,16.1817871 L18.18012,13.9784664 L16.0115134,13.9784664 C15.6521753,13.9784664 15.3609314,13.6825604 15.3609314,13.3174702 C15.3609314,12.9523799 15.6521753,12.6564739 16.0115134,12.6564739 L18.18012,12.6564739 L18.18012,10.4531532 C18.18012,10.088063 18.4713639,9.79215704 18.830702,9.79215704 C19.1900402,9.79215704 19.481284,10.088063 19.481284,10.4531532 L19.481284,10.4531532 Z" id="Oval-284-Copy-2"></path>
                <path d="M0.694444444,6.25 L0.694444444,2.08152201 C0.694444444,1.31546023 1.31937327,0.694444444 2.09284093,0.694444444 L18.7404924,0.694444444 C19.5128054,0.694444444 20.1388889,1.31656792 20.1388889,2.08152201 L20.1388889,6.25 L20.1388889,8.33333333 L18.0555556,8.33333333 L18.0555556,6.94444444 L2.77777778,6.94444444 L2.77777778,16.6666667 L20.1388889,16.6666667 L20.1388889,17.7083333 C20.1388889,18.28363 19.6774156,18.75 19.0934711,18.75 L1.73986224,18.75 C1.16249393,18.75 0.694444444,18.2876408 0.694444444,17.7083333 L0.694444444,17.1875 L0.694444444,6.25 L0.694444444,6.25 Z" id="Combined-Shape"></path>
            </g>
        </g>
    </g>
</svg>