<?xml version="1.0" encoding="UTF-8" standalone="no"?>
<svg width="20px" height="20px" viewBox="0 0 20 20" version="1.1" xmlns="http://www.w3.org/2000/svg" xmlns:xlink="http://www.w3.org/1999/xlink">
    <!-- Generator: Sketch 42 (36781) - http://www.bohemiancoding.com/sketch -->
    <title>calculator</title>
    <desc>Created with Sketch.</desc>
    <defs></defs>
    <g id="Flat-SVG-icons" stroke="none" stroke-width="1" fill="none" fill-rule="evenodd">
        <g id="calculator" fill="#000000">
            <path d="M10.5,9.5 L19.5056152,9.5 C19.7786564,9.5 20,9.73193359 20,10 C20,10.2761424 19.7753906,10.5 19.5056152,10.5 L10.5,10.5 L10.5,19.5056152 C10.5,19.7786564 10.2680664,20 10,20 C9.72385763,20 9.5,19.7753906 9.5,19.5056152 L9.5,10.5 L0.494384766,10.5 C0.221343599,10.5 0,10.2680664 0,10 C0,9.72385763 0.224609375,9.5 0.494384766,9.5 L9.5,9.5 L9.5,0.494384766 C9.5,0.221343599 9.73193359,0 10,0 C10.2761424,0 10.5,0.224609375 10.5,0.494384766 L10.5,9.5 Z M13.412618,5.51411929 C13.0466642,5.51411929 12.75,5.21745512 12.75,4.85150132 C12.75,4.48554753 13.0466642,4.18888336 13.412618,4.18888336 L16.9277419,4.18888336 C17.2936957,4.18888336 17.5903599,4.48554753 17.5903599,4.85150132 C17.5903599,5.21745512 17.2936957,5.51411929 16.9277419,5.51411929 L13.412618,5.51411929 Z M5.35999474,5.41577586 L5.35999474,7.05217159 C5.35999474,7.37476589 5.09434638,7.63901637 4.76658814,7.63901637 C4.43882989,7.63901637 4.17318154,7.37476589 4.17318154,7.05217159 L4.17318154,5.41577586 L2.64611,5.41577586 C2.31835175,5.41577586 2.0527034,5.15431289 2.0527034,4.83171858 C2.0527034,4.50912427 2.31835175,4.2476613 2.64611,4.2476613 L4.17318154,4.2476613 L4.17318154,2.65083164 C4.17318154,2.32823734 4.43882989,2.06398628 4.76658814,2.06398628 C5.09434638,2.06398628 5.35999474,2.32823734 5.35999474,2.65083164 L5.35999474,4.2476613 L6.92519061,4.2476613 C7.25294886,4.2476613 7.51859721,4.50912427 7.51859721,4.83171858 C7.51859721,5.15431289 7.25294886,5.41577586 6.92519061,5.41577586 L5.35999474,5.41577586 Z M6.19093404,17.5380789 L4.79226127,16.1394062 L3.41562505,17.5160424 C3.18751643,17.744151 2.81479243,17.7411915 2.58303236,17.5094314 C2.35127228,17.2776713 2.34831277,16.9049473 2.57642139,16.6768387 L3.95305761,15.3002025 L2.55438484,13.9015297 C2.32262476,13.6697697 2.31966525,13.2970457 2.54777388,13.068937 C2.7758825,12.8408284 3.14860649,12.8437879 3.38036657,13.075548 L4.77903934,14.4742208 L6.15567556,13.0975846 C6.38378418,12.8694759 6.75650818,12.8724354 6.98826825,13.1041955 C7.22002833,13.3359556 7.22298784,13.7086796 6.99487922,13.9367882 L5.618243,15.3134244 L7.01691577,16.7120972 C7.24867585,16.9438573 7.25163536,17.3165813 7.02352673,17.5446899 C6.79541811,17.7727985 6.42269412,17.769839 6.19093404,17.5380789 Z M13.412618,14.7005567 C13.0466642,14.7005567 12.75,14.4038925 12.75,14.0379387 C12.75,13.6719849 13.0466642,13.3753207 13.412618,13.3753207 L16.9277419,13.3753207 C17.2936957,13.3753207 17.5903599,13.6719849 17.5903599,14.0379387 C17.5903599,14.4038925 17.2936957,14.7005567 16.9277419,14.7005567 L13.412618,14.7005567 Z M13.412618,16.8111166 C13.0466642,16.8111166 12.75,16.5144525 12.75,16.1484987 C12.75,15.7825449 13.0466642,15.4858807 13.412618,15.4858807 L16.9277419,15.4858807 C17.2936957,15.4858807 17.5903599,15.7825449 17.5903599,16.1484987 C17.5903599,16.5144525 17.2936957,16.8111166 16.9277419,16.8111166 L13.412618,16.8111166 Z" id="Combined-Shape"></path>
        </g>
    </g>
</svg>