<svg id="calendar" xmlns="http://www.w3.org/2000/svg" width="20" height="19.88" viewBox="0 0 20 19.88"><defs><style>.cls-1{fill-rule:evenodd;}</style></defs><title>calendar</title><path class="cls-1" d="M164,224.49a0.77,0.77,0,0,0,.77-0.77v-1.57a0.77,0.77,0,0,0-1.54,0v1.57A0.77,0.77,0,0,0,164,224.49Z" transform="translate(-160.1 -221.38)"/><path class="cls-1" d="M175.9,224.49a0.77,0.77,0,0,0,.77-0.77v-1.57a0.77,0.77,0,0,0-1.54,0v1.57A0.77,0.77,0,0,0,175.9,224.49Z" transform="translate(-160.1 -221.38)"/><path class="cls-1" d="M178.1,223.12h-0.44v0.61a1.77,1.77,0,1,1-3.54,0v-0.61h-8.3v0.61a1.77,1.77,0,1,1-3.54,0v-0.61h-0.2a2,2,0,0,0-2,2v14.16a2,2,0,0,0,2,2h16a2,2,0,0,0,2-2V225.11A2,2,0,0,0,178.1,223.12ZM165,237.91h-2.58v-2.58H165v2.58Zm0-3.76h-2.58v-2.58H165v2.58Zm0-3.92h-2.58v-2.58H165v2.58Zm4.22,7.68h-2.58v-2.58h2.58v2.58Zm0-3.76h-2.58v-2.58h2.58v2.58Zm0-3.92h-2.58v-2.58h2.58v2.58Zm4.23,7.68h-2.58v-2.58h2.58v2.58Zm0-3.76h-2.58v-2.58h2.58v2.58Zm0-3.92h-2.58v-2.58h2.58v2.58Zm4.23,7.68h-2.58v-2.58h2.58v2.58Zm0-3.76h-2.58v-2.58h2.58v2.58Zm0-3.92h-2.58v-2.58h2.58v2.58Z" transform="translate(-160.1 -221.38)"/></svg>