<?xml version="1.0" encoding="UTF-8" standalone="no"?>
<svg width="14px" height="18px" viewBox="0 0 14 18" version="1.1" xmlns="http://www.w3.org/2000/svg" xmlns:xlink="http://www.w3.org/1999/xlink">
    <!-- Generator: Sketch 3.7.1 (28215) - http://www.bohemiancoding.com/sketch -->
    <title>candidate</title>
    <desc>Created with Sketch.</desc>
    <defs></defs>
    <g id="Page-1" stroke="none" stroke-width="1" fill="none" fill-rule="evenodd">
        <g id="candidate" fill="#000000">
            <path d="M8.89765199,10.1062565 L9.27037351,8.20353563 C9.29170053,8.08246927 9.30527227,7.95994428 9.30527227,7.83255719 C9.30527227,6.76185291 8.48828844,5.87919241 7.44390603,5.7909225 C6.70724355,6.38562568 5.77091575,6.7415542 4.75171376,6.7415542 C3.73581013,6.7415542 2.80224516,6.38792568 2.06667976,5.79668876 C1.05033886,5.912164 0.263585708,6.78139665 0.263585708,7.83255719 C0.263585708,7.95994428 0.268917462,8.08246927 0.290244481,8.20353563 L1.96296134,16.6981152 C2.14036336,17.523214 2.9827806,18.2432914 3.93522588,18.2432914 L5.6341168,18.2432914 C5.7199256,18.2432914 5.80484828,18.2374408 5.88847733,18.2261899 C4.36135981,17.5570038 3.29411765,16.0285229 3.29411765,14.25 C3.29411765,11.8547651 5.2298277,9.91304348 7.61764706,9.91304348 C8.06327652,9.91304348 8.49315933,9.9806723 8.89765199,10.1062565 Z M8.23333277,16.922848 C8.11023241,17.0420278 7.93989058,17.1159105 7.75160608,17.1159105 C7.5635487,17.1159105 7.39320687,17.0420278 7.26987938,16.922848 L4.31728768,14.0642914 C4.1939602,13.9448917 4.11764706,13.779975 4.11764706,13.597687 C4.11764706,13.233331 4.42267249,12.9380201 4.79901437,12.9380201 C4.98729888,12.9380201 5.15741358,13.0119028 5.28074107,13.1313025 L7.75160608,15.5234746 L12.4936955,10.9324128 C12.617023,10.8130131 12.7873648,10.7391304 12.9754222,10.7391304 C13.351764,10.7391304 13.6567895,11.0344413 13.6567895,11.3987973 C13.6567895,11.5808654 13.5804763,11.746002 13.457376,11.8654017 L8.23333277,16.922848 Z M4.75171376,4.82578005 C6.07018518,4.82578005 7.13901746,3.75362842 7.13901746,2.43106236 C7.13901746,1.1084963 6.07018518,0.0363446678 4.75171376,0.0363446678 C3.43324233,0.0363446678 2.36441005,1.1084963 2.36441005,2.43106236 C2.36441005,3.75362842 3.43324233,4.82578005 4.75171376,4.82578005 Z"></path>
        </g>
    </g>
</svg>