<?xml version="1.0" encoding="UTF-8" standalone="no"?>
<svg width="20px" height="7px" viewBox="0 0 20 7" version="1.1" xmlns="http://www.w3.org/2000/svg" xmlns:xlink="http://www.w3.org/1999/xlink">
    <!-- Generator: Sketch 43.2 (39069) - http://www.bohemiancoding.com/sketch -->
    <title>cfr</title>
    <desc>Created with Sketch.</desc>
    <defs></defs>
    <g id="Images-/-icons" stroke="none" stroke-width="1" fill="none" fill-rule="evenodd">
        <g id="cfr" fill="#000000">
            <path d="M4.88574999,-1.44773082e-13 C5.24575179,-1.43884904e-13 5.55774867,0.043499565 5.82174999,0.1305 C6.08575131,0.217500435 6.31374903,0.33899922 6.50574999,0.495 C6.88375188,0.80100153 7.12974942,1.22999724 7.24374999,1.782 L6.10974999,1.989 C6.01374951,1.68299847 5.86525099,1.43550094 5.66424999,1.2465 C5.46324898,1.05749905 5.21275149,0.963 4.91274999,0.963 C4.50474795,0.963 4.17475125,1.13399829 3.92274999,1.476 C3.65274864,1.84800186 3.51774999,2.36249671 3.51774999,3.0195 C3.51774999,3.67650328 3.63774879,4.18949815 3.87774999,4.5585 C4.11775119,4.92750184 4.44474792,5.112 4.85874999,5.112 C5.27275206,5.112 5.58474894,5.011501 5.79474999,4.8105 C6.00475104,4.60949899 6.10974999,4.35000159 6.10974999,4.032 L7.25274999,4.032 C7.25274999,4.68600327 7.04425207,5.19149821 6.62724999,5.5485 C6.2102479,5.90550178 5.63875362,6.084 4.91274999,6.084 C4.13874612,6.084 3.52375227,5.8140027 3.06774999,5.274 C2.60574768,4.72199724 2.37474999,3.97200474 2.37474999,3.024 C2.37474999,2.0639952 2.61174762,1.3140027 3.08574999,0.774 C3.54175227,0.25799742 4.14174627,-1.43884904e-13 4.88574999,-1.44773082e-13 Z M8.326,0.117 L12.007,0.117 L12.007,1.035 L9.388,1.035 L9.388,2.574 L11.782,2.574 L11.782,3.483 L9.388,3.483 L9.388,5.958 L8.326,5.958 L8.326,0.117 Z M17.41825,1.908 C17.41825,2.32200207 17.3012512,2.67599853 17.06725,2.97 C16.8332488,3.26400147 16.4972522,3.46799943 16.05925,3.582 L17.62525,5.958 L16.23925,5.958 L14.95225,3.681 L14.14225,3.681 L14.14225,5.958 L13.08025,5.958 L13.08025,0.117 L15.24025,0.117 C15.9302535,0.117 16.4672481,0.28199835 16.85125,0.612 C17.2292519,0.93000159 17.41825,1.36199727 17.41825,1.908 Z M15.2550581,2.97 C15.64506,2.97 15.9390571,2.88150088 16.1370581,2.7045 C16.3350591,2.52749911 16.4340581,2.29350145 16.4340581,2.0025 C16.4340581,1.71149854 16.344059,1.47750088 16.1640581,1.3005 C15.9840572,1.12349911 15.7140599,1.035 15.3540581,1.035 L14.2560581,1.035 L14.2560581,2.97 L15.2550581,2.97 Z" id="CFR"></path>
        </g>
    </g>
</svg>