<?xml version="1.0" encoding="UTF-8" standalone="no"?>
<svg width="20px" height="15px" viewBox="0 0 20 15" version="1.1" xmlns="http://www.w3.org/2000/svg" xmlns:xlink="http://www.w3.org/1999/xlink">
    <!-- Generator: Sketch 43.2 (39069) - http://www.bohemiancoding.com/sketch -->
    <title>checklist</title>
    <desc>Created with Sketch.</desc>
    <defs></defs>
    <g id="Images-/-icons" stroke="none" stroke-width="1" fill="none" fill-rule="evenodd">
        <g id="checklist" fill="#000000">
            <path d="M5.01499308,2.06085159 C5.01499308,2.06085159 5.01499308,2.06085159 5.01499308,2.06085159 L5.06903408,2.1148926 C5.13920008,2.04472659 5.17944498,1.94956314 5.17944498,1.84834648 C5.17944498,1.64019959 5.01073501,1.47148961 4.80258811,1.47148961 C4.70138672,1.47148961 4.60632182,1.51172084 4.53614214,1.58190052 L2.44524008,3.67280258 L2.55332208,3.67280258 L1.46385786,2.58333836 C1.39365295,2.51313345 1.29868077,2.47292745 1.19741189,2.47292745 C0.98926499,2.47292745 0.820555018,2.64163743 0.820555018,2.84978432 C0.820555018,2.95106846 0.860774728,3.04613924 0.930965921,3.11633044 L2.23283511,4.41819963 C2.30308428,4.48831947 2.39813216,4.52851039 2.49928108,4.52851039 C2.60043,4.52851039 2.69547788,4.48831947 2.76567722,4.41824941 L5.06903408,2.1148926 L5.01499308,2.06085159 Z M5.01499308,10.4772672 C5.01499308,10.4772672 5.01499308,10.4772672 5.01499308,10.4772672 L5.06903408,10.5313082 C5.13920008,10.4611422 5.17944498,10.3659788 5.17944498,10.2647621 C5.17944498,10.0566152 5.01073501,9.88790526 4.80258811,9.88790526 C4.70138672,9.88790526 4.60632182,9.92813649 4.53614214,9.99831616 L2.44524008,12.0892182 L2.55332208,12.0892182 L1.46385786,10.999754 C1.39365295,10.9295491 1.29868077,10.8893431 1.19741189,10.8893431 C0.98926499,10.8893431 0.820555018,11.0580531 0.820555018,11.2662 C0.820555018,11.3674841 0.860774728,11.4625549 0.930965921,11.5327461 L2.23283511,12.8346153 C2.30308428,12.9047351 2.39813216,12.944926 2.49928108,12.944926 C2.60043,12.944926 2.69547788,12.9047351 2.76567722,12.8346651 L5.06903408,10.5313082 L5.01499308,10.4772672 Z M0,9.40719362 C0,8.86000205 0.45097518,8.41641565 0.990777969,8.41641565 L5.00922203,8.41641565 C5.55641359,8.41641565 6,8.86739083 6,9.40719362 L6,13.4256377 C6,13.9728292 5.54902482,14.4164156 5.00922203,14.4164156 L0.990777969,14.4164156 C0.443586406,14.4164156 0,13.9654405 0,13.4256377 L0,9.40719362 Z M0,0.990777969 C0,0.443586406 0.45097518,0 0.990777969,0 L5.00922203,0 C5.55641359,0 6,0.45097518 6,0.990777969 L6,5.00922203 C6,5.55641359 5.54902482,6 5.00922203,6 L0.990777969,6 C0.443586406,6 0,5.54902482 0,5.00922203 L0,0.990777969 Z M7.50419484,11.5765636 C7.50419484,10.7875854 8.14104294,10.1479921 8.93762258,10.1479921 L18.5665723,10.1479921 C19.3582325,10.1479921 20,10.7820847 20,11.5765636 C20,12.3655418 19.3631519,13.005135 18.5665723,13.005135 L8.93762258,13.005135 C8.1459623,13.005135 7.50419484,12.3710424 7.50419484,11.5765636 Z M7.50419484,3.16014793 C7.50419484,2.37116971 8.14104294,1.7315765 8.93762258,1.7315765 L18.5665723,1.7315765 C19.3582325,1.7315765 20,2.3656691 20,3.16014793 C20,3.94912614 19.3631519,4.58871936 18.5665723,4.58871936 L8.93762258,4.58871936 C8.1459623,4.58871936 7.50419484,3.95462675 7.50419484,3.16014793 Z" id="Combined-Shape"></path>
        </g>
    </g>
</svg>