<?xml version="1.0" encoding="UTF-8" standalone="no"?>
<svg width="20px" height="20px" viewBox="0 0 20 20" version="1.1" xmlns="http://www.w3.org/2000/svg" xmlns:xlink="http://www.w3.org/1999/xlink">
    <!-- Generator: Sketch 3.7.2 (28276) - http://www.bohemiancoding.com/sketch -->
    <title>check-circle</title>
    <desc>Created with Sketch.</desc>
    <defs></defs>
    <g id="Page-1" stroke="none" stroke-width="1" fill="none" fill-rule="evenodd">
        <g id="check-circle" fill="#000000">
            <path d="M10,20 C15.5228475,20 20,15.5228475 20,10 C20,4.4771525 15.5228475,0 10,0 C4.4771525,0 0,4.4771525 0,10 C0,15.5228475 4.4771525,20 10,20 Z M16.4625417,6.86375559 L8.79554167,14.5189965 C8.614875,14.6993939 8.364875,14.811227 8.08854167,14.811227 C7.81254167,14.811227 7.56254167,14.6993939 7.38154167,14.5189965 L3.04820833,10.1921212 C2.86720833,10.011391 2.75520833,9.76176354 2.75520833,9.48584203 C2.75520833,8.93433184 3.202875,8.48733234 3.75520833,8.48733234 C4.03154167,8.48733234 4.28120833,8.59916542 4.46220833,8.77989568 L8.08854167,12.4008246 L15.0482083,5.45153005 C15.2292083,5.2707998 15.4792083,5.15896672 15.7552083,5.15896672 C16.3075417,5.15896672 16.7552083,5.60596622 16.7552083,6.1574764 C16.7552083,6.43306508 16.6432083,6.68302534 16.4625417,6.86375559 Z"></path>
        </g>
    </g>
</svg>