<svg id="checklist" xmlns="http://www.w3.org/2000/svg" width="20" height="20" viewBox="0 0 20 20"><defs><style>.cls-1{fill-rule:evenodd;}</style></defs><path class="cls-1" d="M7.51,7.09L6.44,8.18,5.93,7.66a0.3,0.3,0,0,0-.21-0.09,0.31,0.31,0,0,0-.21.52L6.22,8.83a0.3,0.3,0,0,0,.43,0L7.93,7.52h0A0.31,0.31,0,0,0,8,7.3,0.3,0.3,0,0,0,7.72,7,0.3,0.3,0,0,0,7.51,7.09Z"/><path class="cls-1" d="M7.51,12l-1.07,1.1L5.93,12.6a0.3,0.3,0,0,0-.21-0.09A0.31,0.31,0,0,0,5.5,13l0.72,0.74a0.3,0.3,0,0,0,.43,0l1.28-1.32h0A0.31,0.31,0,0,0,8,12.24a0.3,0.3,0,0,0-.3-0.3A0.3,0.3,0,0,0,7.51,12Z"/><path class="cls-1" d="M15.27,3.56H4.51A0.47,0.47,0,0,0,4,4V16.44a0.47,0.47,0,0,0,.47.47H15.27a0.47,0.47,0,0,0,.47-0.47V4A0.47,0.47,0,0,0,15.27,3.56ZM6.72,14.44a1.66,1.66,0,1,1,1.66-1.66A1.66,1.66,0,0,1,6.72,14.44Zm0-4.94A1.66,1.66,0,1,1,8.38,7.84,1.66,1.66,0,0,1,6.72,9.5ZM14,14.43H9.71a0.5,0.5,0,0,1,0-1H14A0.5,0.5,0,0,1,14,14.43Zm0-2.06H9.71a0.5,0.5,0,0,1,0-1H14A0.5,0.5,0,0,1,14,12.37ZM14,9.5H9.71a0.5,0.5,0,0,1,0-1H14A0.5,0.5,0,0,1,14,9.5Zm0-2.06H9.71a0.5,0.5,0,0,1,0-1H14A0.5,0.5,0,0,1,14,7.43Z"/></svg>