<?xml version="1.0" encoding="UTF-8" standalone="no"?>
<svg width="20px" height="20px" viewBox="0 0 20 20" version="1.1" xmlns="http://www.w3.org/2000/svg" xmlns:xlink="http://www.w3.org/1999/xlink">
    <!-- Generator: Sketch 3.7.1 (28215) - http://www.bohemiancoding.com/sketch -->
    <title>check</title>
    <desc>Created with Sketch.</desc>
    <defs></defs>
    <g id="Page-1" stroke="none" stroke-width="1" fill="none" fill-rule="evenodd">
        <g id="check" fill="#000000">
            <path d="M16.4706724,6.67789655 L16.6474491,6.85467325 C16.8769732,6.62514911 17.0086207,6.31385437 17.0086207,5.98275862 C17.0086207,5.30187709 16.4567436,4.75 15.7758621,4.75 C15.4448162,4.75 15.1338439,4.88160272 14.904275,5.11117158 L8.06460262,11.950844 L8.41815601,11.950844 L4.85434566,8.38703365 C4.62469426,8.15738225 4.31402519,8.02586207 3.98275862,8.02586207 C3.30187709,8.02586207 2.75,8.57773916 2.75,9.25862069 C2.75,9.58993716 2.88156505,9.90092879 3.11117158,10.1305353 L7.36979227,14.389156 C7.59958844,14.6185291 7.91050514,14.75 8.24137931,14.75 C8.57225348,14.75 8.88317018,14.6185291 9.11280335,14.3893189 L16.6474491,6.85467325 L16.4706724,6.67789655 C16.4706724,6.67789655 16.4706724,6.67789655 16.4706724,6.67789655 Z" id="Combined-Shape"></path>
        </g>
    </g>
</svg>