<?xml version="1.0" encoding="UTF-8"?>
<svg width="20px" height="20px" viewBox="0 0 20 20" version="1.1" xmlns="http://www.w3.org/2000/svg" xmlns:xlink="http://www.w3.org/1999/xlink">
    <title>clipboard-checklist</title>
    <g stroke="none" stroke-width="1" fill="none" fill-rule="evenodd">
        <g id="clipboard-checklist" transform="translate(1.25, 0)" fill="#000000" fill-rule="nonzero">
            <path d="M3.44711709,2 C3.72325946,2 3.94711709,2.22385763 3.94711709,2.5 C3.94711709,2.77614237 3.72325946,3 3.44711709,3 L0.5,3 L0.5,18.554 L17.1,18.554 L17.1,3 L14.8493495,3 C14.6038897,3 14.3997412,2.82312484 14.3574052,2.58987563 L14.3493495,2.5 C14.3493495,2.22385763 14.5732072,2 14.8493495,2 L17.6003469,2 C17.8764892,2 18.1003469,2.22385763 18.1003469,2.5 L18.1003469,19.0544663 C18.1003469,19.3306087 17.8764892,19.5544663 17.6003469,19.5544663 L0,19.5544663 C-0.276142375,19.5544663 -0.5,19.3306087 -0.5,19.0544663 L-0.5,2.5 C-0.5,2.22385763 -0.276142375,2 0,2 L3.44711709,2 Z" id="outline"></path>
            <path d="M4.10034685,0 L14.1003468,0 C14.3764892,0 14.6003468,0.223857625 14.6003468,0.5 L14.6003468,3.5 C14.6003468,3.77614237 14.3764892,4 14.1003468,4 L4.10034685,4 C3.82420448,4 3.60034685,3.77614237 3.60034685,3.5 L3.60034685,0.5 C3.60034685,0.223857625 3.82420448,0 4.10034685,0 Z" id="Rectangle"></path>
            <path d="M14.6710956,13.3081401 C15.4161972,13.3081401 16.02852,13.8698276 16.0979798,14.5982707 L16.1045417,14.7367115 C16.1045417,15.5256897 15.4585455,16.1652829 14.6710956,16.1652829 L10.5379876,16.1652829 C9.74631735,16.1652829 9.10454165,15.5311903 9.10454165,14.7367115 C9.10454165,13.9477333 9.75053775,13.3081401 10.5379876,13.3081401 L14.6710956,13.3081401 Z" id="Combined-Shape-path"></path>
            <path d="M6.60956888,11.5765636 C7.15676044,11.5765636 7.60034685,12.0275388 7.60034685,12.5673415 L7.60034685,16.5857856 C7.60034685,17.1329772 7.14937167,17.5765636 6.60956888,17.5765636 L2.59112482,17.5765636 C2.04393326,17.5765636 1.60034685,17.1255884 1.60034685,16.5857856 L1.60034685,12.5673415 C1.60034685,12.02015 2.05132203,11.5765636 2.59112482,11.5765636 L6.60956888,11.5765636 Z M6.57124846,12.9666076 C6.50449982,12.9666076 6.44246711,12.9868921 6.39099992,13.0216203 L6.34327122,13.0609467 L4.09907656,15.3017968 L2.92973925,14.1342022 C2.8713745,14.0759244 2.79086768,14.039863 2.70176201,14.039863 C2.52365815,14.039863 2.37930481,14.1840012 2.37930481,14.3618397 C2.37930481,14.4285693 2.39961961,14.4905297 2.43439964,14.5419252 L2.47378477,14.5895845 L3.87109932,15.9848166 C3.92946407,16.042987 4.01007837,16.0790484 4.09907656,16.0790484 C4.16590582,16.0790484 4.22795868,16.0587639 4.27938556,16.024081 L4.3270538,15.9848166 L6.79933319,13.516329 L6.83865617,13.4686547 C6.87339086,13.417234 6.89370567,13.3552334 6.89370567,13.2885842 C6.89370567,13.1107458 6.74935232,12.9666076 6.57124846,12.9666076 Z" id="Shape"></path>
            <path d="M14.6710956,6.7315765 C15.4161972,6.7315765 16.02852,7.29326406 16.0979798,8.02170711 L16.1045417,8.16014793 C16.1045417,8.94912614 15.4585455,9.58871936 14.6710956,9.58871936 L10.5379876,9.58871936 C9.74631735,9.58871936 9.10454165,8.95462675 9.10454165,8.16014793 C9.10454165,7.37116971 9.75053775,6.7315765 10.5379876,6.7315765 L14.6710956,6.7315765 Z" id="Combined-Shape-path"></path>
            <path d="M6.60956888,5 C7.15676044,5 7.60034685,5.45097518 7.60034685,5.99077797 L7.60034685,10.009222 C7.60034685,10.5564136 7.14937167,11 6.60956888,11 L2.59112482,11 C2.04393326,11 1.60034685,10.5490248 1.60034685,10.009222 L1.60034685,5.99077797 C1.60034685,5.44358641 2.05132203,5 2.59112482,5 L6.60956888,5 Z M6.57124846,6.39004398 C6.50449982,6.39004398 6.44246711,6.41032851 6.39099992,6.44505671 L6.34327122,6.48438314 L4.09907656,8.72523324 L2.92973925,7.55763861 C2.8713745,7.49936084 2.79086768,7.46329946 2.70176201,7.46329946 C2.52365815,7.46329946 2.37930481,7.60743767 2.37930481,7.7852761 C2.37930481,7.85200576 2.39961961,7.91396614 2.43439964,7.96536166 L2.47378477,8.01302091 L3.87109932,9.40825302 C3.92946407,9.46642347 4.01007837,9.50248486 4.09907656,9.50248486 C4.16590582,9.50248486 4.22795868,9.48220033 4.27938556,9.4475174 L4.3270538,9.40825302 L6.79933319,6.93976543 L6.83865617,6.89209109 C6.87339086,6.84067042 6.89370567,6.77866979 6.89370567,6.71202062 C6.89370567,6.53418219 6.74935232,6.39004398 6.57124846,6.39004398 Z" id="Shape"></path>
        </g>
    </g>
</svg>
