<?xml version="1.0" encoding="UTF-8"?>
<svg width="20px" height="20px" viewBox="0 0 20 20" version="1.1" xmlns="http://www.w3.org/2000/svg" xmlns:xlink="http://www.w3.org/1999/xlink">
    <!-- Generator: Sketch 63.1 (92452) - https://sketch.com -->
    <title>icon / clipboard-checklist</title>
    <desc>Created with Sketch.</desc>
    <g id="icon-/-clipboard-checklist" stroke="none" stroke-width="1" fill="none" fill-rule="evenodd">
        <polyline id="Path-6" stroke="#000000" stroke-linecap="round" stroke-linejoin="round" points="16.2490027 2.5 19 2.5 19 19.0544663 1.39965315 19.0544663 1.39965315 2.5 4.84677024 2.5"></polyline>
        <rect id="Rectangle" fill="#000000" x="5" y="0" width="11" height="4" rx="0.5"></rect>
        <path d="M8.00922203,11.5765636 C8.55641359,11.5765636 9,12.0275388 9,12.5673415 L9,16.5857856 C9,17.1329772 8.54902482,17.5765636 8.00922203,17.5765636 L3.99077797,17.5765636 C3.44358641,17.5765636 3,17.1255884 3,16.5857856 L3,12.5673415 C3,12.02015 3.45097518,11.5765636 3.99077797,11.5765636 L8.00922203,11.5765636 Z M16.0707488,13.3081401 C16.8158504,13.3081401 17.4281732,13.8698276 17.4976329,14.5982707 L17.5041948,14.7367115 C17.5041948,15.5256897 16.8581987,16.1652829 16.0707488,16.1652829 L11.9376408,16.1652829 C11.1459705,16.1652829 10.5041948,15.5311903 10.5041948,14.7367115 C10.5041948,13.9477333 11.1501909,13.3081401 11.9376408,13.3081401 L16.0707488,13.3081401 Z M7.97090161,12.9666076 C7.88190342,12.9666076 7.80128912,13.0026689 7.74292437,13.0609467 L7.74292437,13.0609467 L5.49872971,15.3017968 L4.3293924,14.1342022 C4.27102765,14.0759244 4.19052083,14.039863 4.10141516,14.039863 C3.9233113,14.039863 3.77895796,14.1840012 3.77895796,14.3618397 C3.77895796,14.4508125 3.81507316,14.5313067 3.87343792,14.5895845 L3.87343792,14.5895845 L5.27075247,15.9848166 C5.32911722,16.042987 5.40973152,16.0790484 5.49872971,16.0790484 C5.58783539,16.0790484 5.66844969,16.042987 5.72670695,15.9848166 L5.72670695,15.9848166 L8.19898634,13.516329 L8.23830932,13.4686547 C8.27304401,13.417234 8.29335882,13.3552334 8.29335882,13.2885842 C8.29335882,13.1107458 8.14900547,12.9666076 7.97090161,12.9666076 Z M8.00922203,5 C8.55641359,5 9,5.45097518 9,5.99077797 L9,10.009222 C9,10.5564136 8.54902482,11 8.00922203,11 L3.99077797,11 C3.44358641,11 3,10.5490248 3,10.009222 L3,5.99077797 C3,5.44358641 3.45097518,5 3.99077797,5 L8.00922203,5 Z M16.0707488,6.7315765 C16.8158504,6.7315765 17.4281732,7.29326406 17.4976329,8.02170711 L17.5041948,8.16014793 C17.5041948,8.94912614 16.8581987,9.58871936 16.0707488,9.58871936 L11.9376408,9.58871936 C11.1459705,9.58871936 10.5041948,8.95462675 10.5041948,8.16014793 C10.5041948,7.37116971 11.1501909,6.7315765 11.9376408,6.7315765 L16.0707488,6.7315765 Z M7.97090161,6.39004398 C7.88190342,6.39004398 7.80128912,6.42610537 7.74292437,6.48438314 L7.74292437,6.48438314 L5.49872971,8.72523324 L4.3293924,7.55763861 C4.27102765,7.49936084 4.19052083,7.46329946 4.10141516,7.46329946 C3.9233113,7.46329946 3.77895796,7.60743767 3.77895796,7.7852761 C3.77895796,7.87424898 3.81507316,7.95474314 3.87343792,8.01302091 L3.87343792,8.01302091 L5.27075247,9.40825302 C5.32911722,9.46642347 5.40973152,9.50248486 5.49872971,9.50248486 C5.58783539,9.50248486 5.66844969,9.46642347 5.72670695,9.40825302 L5.72670695,9.40825302 L8.19898634,6.93976543 L8.23830932,6.89209109 C8.27304401,6.84067042 8.29335882,6.77866979 8.29335882,6.71202062 C8.29335882,6.53418219 8.14900547,6.39004398 7.97090161,6.39004398 Z" id="Combined-Shape" fill="#000000"></path>
    </g>
</svg>