<svg id="clock-reverse" xmlns="http://www.w3.org/2000/svg" width="20" height="17.96" viewBox="0 0 20 17.96"><title>betaFEC_icons</title><path d="M11.15,0a8.85,8.85,0,0,0-8.3,5.78L2.09,4a1.09,1.09,0,1,0-2,.89L2,9.25a1.09,1.09,0,0,0,.6.58,1.11,1.11,0,0,0,.84,0l4.5-2a1.09,1.09,0,0,0,.64-1,1.06,1.06,0,0,0-.09-0.44,1.09,1.09,0,0,0-1.44-.55l-1.88.82A6.35,6.35,0,1,1,6,12.56,1.25,1.25,0,1,0,4,14,8.85,8.85,0,1,0,11.15,0Z"/><path d="M11.08,10.77l2.17,1.1a0.66,0.66,0,0,0,.66-1.14l-2-1.28L11.63,4.64a0.66,0.66,0,0,0-1.31,0L10,9.8a1,1,0,0,0,1,1h0.11Z"/></svg>