<?xml version="1.0" encoding="UTF-8" standalone="no"?>
<svg width="20px" height="20px" viewBox="0 0 20 20" version="1.1" xmlns="http://www.w3.org/2000/svg" xmlns:xlink="http://www.w3.org/1999/xlink">
    <!-- Generator: Sketch 43.2 (39069) - http://www.bohemiancoding.com/sketch -->
    <title>committee-audit</title>
    <desc>Created with Sketch.</desc>
    <defs></defs>
    <g id="Images-/-icons" stroke="none" stroke-width="1" fill="none" fill-rule="evenodd">
        <g id="committee-audit" fill="#000000">
            <path d="M8.70657423,16.3885003 L8.19480402,16.3885003 C7.37321032,16.3885003 6.64652847,15.7725045 6.4934988,15.0666672 L5.05058794,7.7999127 C5.03219094,7.69634554 5.02759168,7.59153058 5.02759168,7.4825563 C5.02759168,6.58333279 5.70625685,5.83974092 6.58296788,5.74095673 C7.21747772,6.24673498 8.02278498,6.54924926 8.89911881,6.54924926 C9.77829786,6.54924926 10.5859884,6.24476743 11.2214446,5.73602393 C12.1223446,5.81153512 12.8270872,6.56661395 12.8270872,7.4825563 C12.8270872,7.59153058 12.8153801,7.69634554 12.796983,7.7999127 L12.7036117,8.27261284 C10.0622156,8.70303637 8.04608883,10.9952089 8.04608883,13.7582731 C8.04608883,14.7097933 8.28518464,15.6054697 8.70657423,16.3885003 Z M17.306029,9.61186803 C16.4281791,8.82762989 15.2997464,8.31803297 14.0557145,8.21806086 C14.0823039,8.04611123 14.0949246,7.89223797 14.0949246,7.73352706 C14.0949246,6.95525953 13.8122881,6.24182697 13.3432859,5.69061091 C13.5333433,5.72050174 13.7282047,5.73602393 13.9267105,5.73602393 C14.8058895,5.73602393 15.6135801,5.4315421 16.2490363,4.92279861 C17.1499363,4.9983098 17.8546789,5.75338862 17.8546789,6.66933098 C17.8546789,6.77830526 17.8429717,6.88312022 17.8245747,6.98668738 L17.306029,9.61186803 Z M5.25710445,15.4551658 C5.06154855,15.5319694 4.85043179,15.575275 4.63270134,15.575275 L3.16721233,15.575275 C2.34561864,15.575275 1.61893679,14.9592792 1.46590712,14.2534419 L0.0229962612,6.98668738 C0.00459925223,6.88312022 0,6.77830526 0,6.66933098 C0,5.77010747 0.678665171,5.0265156 1.5553762,4.92773141 C2.18988603,5.43350965 2.9951933,5.73602393 3.87152713,5.73602393 C4.09295588,5.73602393 4.30984993,5.71670982 4.52059974,5.67968272 C4.04608693,6.23233823 3.75975431,6.95002694 3.75975431,7.73352706 C3.75975431,7.93262683 3.77110938,8.10634295 3.80459088,8.29482925 L5.15443382,15.0944712 C5.18110166,15.2175703 5.2155186,15.3379572 5.25710445,15.4551658 Z M13.9267105,4.09715995 C12.7893771,4.09715995 11.8673862,3.17997946 11.8673862,2.04857998 C11.8673862,0.917180497 12.7893771,0 13.9267105,0 C15.0640439,0 15.9860348,0.917180497 15.9860348,2.04857998 C15.9860348,3.17997946 15.0640439,4.09715995 13.9267105,4.09715995 Z M3.87152713,4.09715995 C2.73419373,4.09715995 1.81220285,3.17997946 1.81220285,2.04857998 C1.81220285,0.917180497 2.73419373,0 3.87152713,0 C5.00886052,0 5.9308514,0.917180497 5.9308514,2.04857998 C5.9308514,3.17997946 5.00886052,4.09715995 3.87152713,4.09715995 Z M8.89911881,4.91659194 C7.76178542,4.91659194 6.83979453,3.99941145 6.83979453,2.86801197 C6.83979453,1.73661249 7.76178542,0.819431991 8.89911881,0.819431991 C10.0364522,0.819431991 10.9584431,1.73661249 10.9584431,2.86801197 C10.9584431,3.99941145 10.0364522,4.91659194 8.89911881,4.91659194 Z M19.6763861,18.1899907 C19.8686176,18.3822221 19.987677,18.6479798 19.987677,18.9415535 C19.987677,19.528701 19.5117935,20.0045845 18.9246461,20.0045845 C18.6310724,20.0045845 18.3653146,19.8857022 18.172906,19.6932936 L15.797804,17.3180144 C15.1649463,17.691847 14.4293289,17.9101226 13.6410914,17.9101226 C11.2926789,17.9101226 9.38896764,16.0064114 9.38896764,13.6579989 C9.38896764,11.3097635 11.2926789,9.40587508 13.6410914,9.40587508 C15.989504,9.40587508 17.8932152,11.3097635 17.8932152,13.6579989 C17.8932152,14.4462363 17.6749395,15.1818537 17.301107,15.8147115 L19.6763861,18.1899907 Z M13.6410914,10.468906 C11.8798263,10.468906 10.4519986,11.8967338 10.4519986,13.6579989 C10.4519986,15.419264 11.8798263,16.8470917 13.6410914,16.8470917 C15.4023565,16.8470917 16.8301843,15.419264 16.8301843,13.6579989 C16.8301843,11.8967338 15.4023565,10.468906 13.6410914,10.468906 Z M11.6907858,13.1230836 L12.9367629,14.3690607 L15.2695564,12.0362672 C15.4817705,11.8240531 15.8258375,11.8240531 16.0380517,12.0362672 C16.2502658,12.2484813 16.2502658,12.5925483 16.0380517,12.8047624 L13.3210105,15.5218036 C13.1087964,15.7340177 12.7647293,15.7340177 12.5525152,15.5218036 L10.9222906,13.8915789 C10.7100764,13.6793648 10.7100764,13.3352977 10.9222906,13.1230836 C11.1345047,12.9108695 11.4785717,12.9108695 11.6907858,13.1230836 Z"></path>
        </g>
    </g>
</svg>