<?xml version="1.0" encoding="UTF-8" standalone="no"?>
<svg width="20px" height="18px" viewBox="0 0 20 18" version="1.1" xmlns="http://www.w3.org/2000/svg" xmlns:xlink="http://www.w3.org/1999/xlink">
    <!-- Generator: Sketch 3.7.1 (28215) - http://www.bohemiancoding.com/sketch -->
    <title>committee</title>
    <desc>Created with Sketch.</desc>
    <defs></defs>
    <g id="Page-1" stroke="none" stroke-width="1" fill="none" fill-rule="evenodd">
        <g id="committee" fill="#000000">
            <path d="M12.4932579,6.32782609 C13.4785442,6.41041032 14.2492993,7.23621656 14.2492993,8.23795423 C14.2492993,8.35713602 14.2364955,8.47176888 14.2163753,8.58503706 L12.6465396,16.5324606 C12.4791758,17.3044128 11.6839691,17.9781083 10.7858749,17.9781083 L9.18311518,17.9781083 C8.2845637,17.9781083 7.48981435,17.3044128 7.32245056,16.5324606 L5.74438381,8.58503706 C5.72426358,8.47176888 5.71923352,8.35713602 5.71923352,8.23795423 C5.71923352,7.25450144 6.46146852,6.44125813 7.42030011,6.33322093 C8.11424379,6.88637488 8.9949833,7.21722534 9.95340237,7.21722534 C10.9149332,7.21722534 11.7982792,6.88422302 12.4932579,6.32782609 Z M5.9702445,16.9573494 C5.75637108,17.0413471 5.52547925,17.0887091 5.28735423,17.0887091 L3.68459447,17.0887091 C2.78604299,17.0887091 1.99129364,16.4150136 1.82392985,15.6430613 L0.245863104,7.69563781 C0.225742868,7.58236963 0.220712808,7.46773676 0.220712808,7.34855498 C0.220712808,6.36510218 0.962947805,5.55185888 1.9217794,5.44382168 C2.61572308,5.99697562 3.49646259,6.32782609 4.45488166,6.32782609 C4.6970514,6.32782609 4.93426167,6.30670284 5.16475219,6.26620745 C4.64579229,6.8706296 4.3326392,7.65554343 4.3326392,8.51243315 C4.3326392,8.73018238 4.34505789,8.92017029 4.38167556,9.1263119 L5.85795682,16.5628688 C5.88712261,16.6974986 5.92476334,16.8291619 5.9702445,16.9573494 Z M14.0014543,16.9584876 C14.2145314,17.0417748 14.4444679,17.0887091 14.6816359,17.0887091 L16.2843956,17.0887091 C17.1824898,17.0887091 17.9776965,16.4150136 18.1450603,15.6430613 L19.714896,7.69563781 C19.7350162,7.58236963 19.74782,7.46773676 19.74782,7.34855498 C19.74782,6.34681731 18.977065,5.52101107 17.9917786,5.43842683 C17.2967999,5.99482377 16.4134539,6.32782609 15.4519231,6.32782609 C15.2348234,6.32782609 15.0217096,6.31084994 14.8138498,6.27815928 C15.3267829,6.88100714 15.6358936,7.66126615 15.6358936,8.51243315 C15.6358936,8.72070869 15.6160207,8.92136675 15.5737281,9.15770096 L14.1050921,16.5913274 C14.0779925,16.7163221 14.0432662,16.838858 14.0014543,16.9584876 Z M15.4519231,4.5354515 C16.6957892,4.5354515 17.704142,3.53235971 17.704142,2.29498328 C17.704142,1.05760684 16.6957892,0.0545150487 15.4519231,0.0545150487 C14.2080569,0.0545150487 13.1997041,1.05760684 13.1997041,2.29498328 C13.1997041,3.53235971 14.2080569,4.5354515 15.4519231,4.5354515 Z M4.45488166,4.5354515 C5.69874783,4.5354515 6.70710059,3.53235971 6.70710059,2.29498328 C6.70710059,1.05760684 5.69874783,0.0545150487 4.45488166,0.0545150487 C3.21101549,0.0545150487 2.20266272,1.05760684 2.20266272,2.29498328 C2.20266272,3.53235971 3.21101549,4.5354515 4.45488166,4.5354515 Z M9.95340237,5.43163879 C11.1972685,5.43163879 12.2056213,4.428547 12.2056213,3.19117057 C12.2056213,1.95379413 11.1972685,0.95070234 9.95340237,0.95070234 C8.7095362,0.95070234 7.70118343,1.95379413 7.70118343,3.19117057 C7.70118343,4.428547 8.7095362,5.43163879 9.95340237,5.43163879 Z"></path>
        </g>
    </g>
</svg>