<?xml version="1.0" encoding="UTF-8" standalone="no"?>
<svg width="20px" height="20px" viewBox="0 0 20 20" version="1.1" xmlns="http://www.w3.org/2000/svg" xmlns:xlink="http://www.w3.org/1999/xlink">
    <!-- Generator: Sketch 43.2 (39069) - http://www.bohemiancoding.com/sketch -->
    <title>compass</title>
    <desc>Created with Sketch.</desc>
    <defs></defs>
    <g id="Images-/-icons" stroke="none" stroke-width="1" fill="none" fill-rule="evenodd">
        <g id="compass" fill="#000000" fill-rule="nonzero">
            <path d="M17.984629,10.5 L17.9423381,10.5 C17.6661958,10.5 17.4423381,10.2761424 17.4423381,10 C17.4423381,9.72385763 17.6661958,9.5 17.9423381,9.5 L17.984629,9.5 C17.7367279,5.4799929 14.5200071,2.2632721 10.5,2.01537099 L10.5,2.09474106 C10.5,2.37088343 10.2761424,2.59474106 10,2.59474106 C9.72385763,2.59474106 9.5,2.37088343 9.5,2.09474106 L9.5,2.01537099 C5.4799929,2.2632721 2.2632721,5.4799929 2.01537099,9.5 L2.02727979,9.5 C2.30342217,9.5 2.52727979,9.72385763 2.52727979,10 C2.52727979,10.2761424 2.30342217,10.5 2.02727979,10.5 L2.01537099,10.5 C2.26327538,14.5200602 5.48007788,17.7368129 9.50015929,17.9846388 C9.50692132,17.7143867 9.72811889,17.4973846 10,17.4973846 C10.2718811,17.4973846 10.4930787,17.7143867 10.4998407,17.9846388 C14.5199221,17.7368129 17.7367246,14.5200602 17.984629,10.5 Z M10,20 C4.4771525,20 0,15.5228475 0,10 C0,4.4771525 4.4771525,0 10,0 C15.5228475,0 20,4.4771525 20,10 C20,15.5228475 15.5228475,20 10,20 Z M10.0535764,10.3664398 C10.2981944,10.3664398 10.4960329,10.1686013 10.4960329,9.92398324 C10.4960329,9.68033979 10.2981944,9.48152674 10.0535764,9.48152674 C9.80993294,9.48152674 9.61111989,9.68033979 9.61111989,9.92398324 C9.61111989,10.1686013 9.80993294,10.3664398 10.0535764,10.3664398 Z M14.181871,6.80827079 C14.4099213,6.70106767 14.6818274,6.78293187 14.8104711,6.99928726 C14.9391149,7.21466807 14.8825896,7.49339618 14.6789037,7.64153139 L12.2249268,9.43669634 L13.4246272,9.43669634 C13.6936096,9.43669634 13.9119141,9.65500087 13.9119141,9.92398324 C13.9119141,10.1939402 13.6936096,10.4112701 13.4246272,10.4112701 L11.3789968,10.4112701 C11.2357344,10.8001251 10.9287437,11.1061413 10.5408633,11.2503782 L10.5408633,13.215119 C10.5408633,13.4850759 10.3235333,13.7024059 10.0535764,13.7024059 C9.78459403,13.7024059 9.56628949,13.4850759 9.56628949,13.215119 L9.56628949,11.367327 L5.80248546,13.0007127 C5.73913816,13.0270262 5.67286715,13.0406703 5.60854527,13.0406703 C5.43507114,13.0406703 5.26939359,12.9480858 5.18168195,12.7882557 C5.05986022,12.568002 5.12613124,12.291223 5.33371546,12.1508844 L7.89002255,10.4112701 L6.72345771,10.4112701 C6.45350076,10.4112701 6.2361708,10.1939402 6.2361708,9.92398324 C6.2361708,9.65500087 6.45350076,9.43669634 6.72345771,9.43669634 L8.72815602,9.43669634 C8.87141837,9.04881597 9.17840912,8.74279979 9.56628949,8.59953744 L9.56628949,6.78488102 C9.56628949,6.51589865 9.78459403,6.29759412 10.0535764,6.29759412 C10.3235333,6.29759412 10.5408633,6.51589865 10.5408633,6.78488102 L10.5408633,8.54203759 C10.5457362,8.54008844 10.5486599,8.53619015 10.5535328,8.53326642 L14.181871,6.80827079 Z"></path>
        </g>
    </g>
</svg>