<svg id="data-flag" xmlns="http://www.w3.org/2000/svg" width="20" height="20" viewBox="0 0 20 20"><defs><style>.cls-1{fill-rule:evenodd;}</style></defs><title>betaFEC_icons</title><path class="cls-1" d="M18.85,0V1.9H10.75V5.37h8.11V7.1H10.75v3.46h8.11v1.73H5.71a3.22,3.22,0,1,0-.88,4.78l2,2.06a0.8,0.8,0,0,0,.93.15A0.81,0.81,0,0,0,8,18L6,15.93l0.1-.18H18.85v1.73H20V0H18.85ZM0.9,15a2.44,2.44,0,0,1-.06-1.14l0.33,0.63Zm0.43,0.82,0.72-.12,1,1,0,0A2.4,2.4,0,0,1,1.34,15.82Zm1.9,0.89h0a0.23,0.23,0,0,0,0-.11l0.2-1.37,1.24-.62a0.22,0.22,0,0,0,.09-0.07,0.1,0.1,0,0,0,0-.09,0.16,0.16,0,0,0-.06-0.08l0,0-1.24-.61-0.2-1.37a0.2,0.2,0,0,0-.06-0.13,0.14,0.14,0,0,0-.19.05l-1,1-0.94-.16A2.41,2.41,0,1,1,3.24,16.71Z"/><path class="cls-1" d="M5.42,4.54a0.17,0.17,0,0,0,.11,0L6.6,4.38,7.35,5.15l0,0,0.07,0a0.08,0.08,0,0,0,.06,0,0.18,0.18,0,0,0,0-.08L7.71,4l1-.48,0.07-.05a0.07,0.07,0,0,0,0-.07,0.13,0.13,0,0,0,0-.06l0,0-1-.48L7.55,1.78a0.16,0.16,0,0,0-.05-0.1,0.11,0.11,0,0,0-.15,0L6.6,2.49,5.53,2.31a0.12,0.12,0,0,0-.13,0,0.12,0.12,0,0,0,0,.14l0.5,1-0.5,1A0.11,0.11,0,0,0,5.42,4.54Z"/><path class="cls-1" d="M5.53,10.06L6.6,9.88l0.75,0.77,0,0,0.07,0a0.08,0.08,0,0,0,.06,0,0.18,0.18,0,0,0,0-.08L7.71,9.51l1-.48L8.75,9a0.07,0.07,0,0,0,0-.07,0.13,0.13,0,0,0,0-.06l0,0-1-.48L7.55,7.28a0.16,0.16,0,0,0-.05-0.1,0.11,0.11,0,0,0-.15,0L6.6,8,5.53,7.81a0.12,0.12,0,0,0-.13,0,0.12,0.12,0,0,0,0,.14l0.5,1-0.5,1a0.11,0.11,0,0,0,0,.15A0.17,0.17,0,0,0,5.53,10.06Z"/><path class="cls-1" d="M0.42,4.54a0.17,0.17,0,0,0,.11,0L1.6,4.38,2.35,5.15l0,0,0.07,0a0.08,0.08,0,0,0,.06,0,0.18,0.18,0,0,0,0-.08L2.71,4l1-.48,0.07-.05a0.07,0.07,0,0,0,0-.07,0.13,0.13,0,0,0,0-.06l0,0-1-.48L2.55,1.78a0.16,0.16,0,0,0-.05-0.1,0.11,0.11,0,0,0-.15,0L1.6,2.49,0.53,2.31a0.12,0.12,0,0,0-.13,0,0.12,0.12,0,0,0,0,.14l0.5,1-0.5,1A0.11,0.11,0,0,0,.42,4.54Z"/><path class="cls-1" d="M0.53,10.06L1.6,9.88l0.75,0.77,0,0,0.07,0a0.08,0.08,0,0,0,.06,0,0.18,0.18,0,0,0,0-.08L2.71,9.51l1-.48L3.75,9a0.07,0.07,0,0,0,0-.07,0.13,0.13,0,0,0,0-.06l0,0-1-.48L2.55,7.28a0.16,0.16,0,0,0-.05-0.1,0.11,0.11,0,0,0-.15,0L1.6,8,0.53,7.81a0.12,0.12,0,0,0-.13,0A0.12,0.12,0,0,0,.41,8l0.5,1-0.5,1a0.11,0.11,0,0,0,0,.15A0.17,0.17,0,0,0,.53,10.06Z"/></svg>