<?xml version="1.0" encoding="UTF-8"?>
<svg width="20px" height="20px" viewBox="0 0 20 20" version="1.1" xmlns="http://www.w3.org/2000/svg" xmlns:xlink="http://www.w3.org/1999/xlink">
    <title>decree</title>
    <g stroke="none" stroke-width="1" fill="none" fill-rule="evenodd">
        <g id="decree" transform="translate(3, 1)" fill="#000000" fill-rule="nonzero">
            <path d="M1.29195213,-0.5 L14.0289613,-0.5 L14.1539003,-0.488760033 C14.2982177,-0.479941315 14.450539,-0.454032533 14.6097155,-0.410792715 L14.7711347,-0.361766961 C15.7811847,-0.0233496768 16.3142293,1.04179099 16.4416408,2.7339477 C16.4634849,3.02406034 16.233986,3.27148908 15.9430521,3.27148908 L13.72,3.271 L13.720484,17.9005827 C13.720484,18.1460426 13.5436088,18.3501911 13.3103596,18.392527 L13.220484,18.4005827 L0,18.4005827 C-0.276142375,18.4005827 -0.5,18.1767251 -0.5,17.9005827 L-0.5,1.26068568 L-0.481686399,1.12660282 C-0.192955839,0.0893517991 0.41101256,-0.5 1.29195213,-0.5 Z M12.767,0.5 L1.29195213,0.5 C0.949337174,0.5 0.704554709,0.710998221 0.528129656,1.24194917 L0.499,1.335 L0.5,17.4 L12.72,17.4 L12.720484,0.7416986 L12.7329849,0.630592261 L12.767,0.5 Z M14.075979,0.49840398 L13.995,0.5 L13.9477661,0.508713787 C13.8587845,0.53198228 13.8003757,0.591728313 13.7578535,0.691033369 L13.72,0.802 L13.72,2.271 L15.384,2.271 L15.367937,2.16021351 C15.2243102,1.30614867 14.9397546,0.80881992 14.5461863,0.623639915 L14.4534423,0.586426875 C14.2964744,0.533834763 14.1734863,0.503899376 14.075979,0.49840398 Z" id="Shape"></path>
            <rect id="Rectangle" x="2" y="3.90058265" width="9" height="2" rx="1"></rect>
            <rect id="Rectangle" x="2" y="6.90058265" width="9" height="2" rx="1"></rect>
            <rect id="Rectangle" x="2" y="9.90058265" width="6" height="2" rx="1"></rect>
            <rect id="Rectangle" x="8" y="13.9005827" width="4" height="2" rx="1"></rect>
        </g>
    </g>
</svg>
