<?xml version="1.0" encoding="UTF-8" standalone="no"?>
<svg width="16px" height="20px" viewBox="0 0 16 20" version="1.1" xmlns="http://www.w3.org/2000/svg" xmlns:xlink="http://www.w3.org/1999/xlink">
    <!-- Generator: Sketch 39.1 (31720) - http://www.bohemiancoding.com/sketch -->
    <title>document</title>
    <desc>Created with Sketch.</desc>
    <defs></defs>
    <g id="Page-1" stroke="none" stroke-width="1" fill="none" fill-rule="evenodd">
        <g id="document" fill="#000000">
            <path d="M5.75095527e-14,0.494384766 C5.7509478e-14,0.221343599 0.229724944,6.77700402e-18 0.502175332,1.44956626e-17 C0.502175332,1.44956626e-17 10.02642,3.07485607e-16 12.0543823,0 C13,1 14.9999998,2.50592041 15.9999998,3.5 C15.9999998,6.50405979 16.0000002,19.4990698 16.0000002,19.4990698 C16.0000002,19.7757259 15.7738192,20 15.503607,20 L0.496393211,20 C0.222242811,20 5.7514826e-14,19.7753906 5.75147523e-14,19.5056152 L5.75095527e-14,0.494384766 Z M2,2 L2,18 L14,18 L14,4.5 L11.5,4.5 L11.5,2 L2,2 Z M4.0941763,10.2058543 L11.7558241,10.2058543 C12.0839786,10.2058543 12.3500004,9.93591461 12.3500004,9.60292714 C12.3500004,9.26993968 12.0839786,9 11.7558241,9 L4.0941763,9 C3.76602179,9 3.5,9.26993968 3.5,9.60292714 C3.5,9.93591461 3.76602179,10.2058543 4.0941763,10.2058543 Z M4.0941763,13.2058543 L11.7558241,13.2058543 C12.0839786,13.2058543 12.3500004,12.9359146 12.3500004,12.6029271 C12.3500004,12.2699397 12.0839786,12 11.7558241,12 L4.0941763,12 C3.76602179,12 3.5,12.2699397 3.5,12.6029271 C3.5,12.9359146 3.76602179,13.2058543 4.0941763,13.2058543 Z M11.7558241,16.2058543 C12.0839786,16.2058543 12.3500004,15.9359146 12.3500004,15.6029271 C12.3500004,15.2699397 12.0839786,15 11.7558241,15 L4.0941763,15 C3.76602179,15 3.5,15.2699397 3.5,15.6029271 C3.5,15.9359146 3.76602179,16.2058543 4.0941763,16.2058543 L11.7558241,16.2058543 Z"></path>
        </g>
    </g>
</svg>