<?xml version="1.0" encoding="UTF-8" standalone="no"?>
<svg width="20px" height="18px" viewBox="0 0 20 18" version="1.1" xmlns="http://www.w3.org/2000/svg" xmlns:xlink="http://www.w3.org/1999/xlink">
    <!-- Generator: Sketch 3.7.1 (28215) - http://www.bohemiancoding.com/sketch -->
    <title>download</title>
    <desc>Created with Sketch.</desc>
    <defs></defs>
    <g id="Page-1" stroke="none" stroke-width="1" fill="none" fill-rule="evenodd">
        <g id="download" fill="#000000">
            <path d="M18,11 L18,17 L19,16 L1,16 L2,17 L2,11 L0,11 L0,12 C0,12.5522847 0.44771525,13 1,13 C1.55228475,13 2,12.5522847 2,12 L2,11 C2,9.66666667 0,9.66666667 0,11 L0,17 C0,17.5522847 0.44771525,18 1,18 L19,18 C19.5522847,18 20,17.5522847 20,17 L20,11 C20,10.4477153 19.5522847,10 19,10 C18.4477153,10 18,10.4477153 18,11 Z M10.7602273,12.1614773 C10.5703409,12.3670455 10.3017045,12.5 10,12.5 C9.69829545,12.5 9.42965909,12.3670455 9.2425,12.1590909 L6.17159091,8.75238636 C6.01136364,8.56863636 5.90909091,8.33136364 5.90909091,8.06818182 C5.90909091,7.50363636 6.36693182,7.04545455 6.93181818,7.04545455 C7.23352273,7.04545455 7.50215909,7.17875 7.68931818,7.38670455 L8.97727273,8.81204545 L8.97727273,1.52272727 C8.97727273,0.957840909 9.43511364,0.5 10,0.5 C10.5648864,0.5 11.0227273,0.957840909 11.0227273,1.52272727 L11.0227273,8.81204545 L12.3079545,7.38397727 C12.4978409,7.17875 12.7664773,7.04545455 13.0681818,7.04545455 C13.6330682,7.04545455 14.0909091,7.50363636 14.0909091,8.06818182 C14.0909091,8.33136364 13.9886364,8.56863636 13.8256818,8.75 L10.7602273,12.1614773 Z"></path>
        </g>
    </g>
</svg>