<?xml version="1.0" encoding="UTF-8"?>
<svg width="20px" height="18px" viewBox="0 0 20 18" version="1.1" xmlns="http://www.w3.org/2000/svg" xmlns:xlink="http://www.w3.org/1999/xlink">
    <title>Slice 1</title>
    <g id="Page-1" stroke="none" stroke-width="1" fill="none" fill-rule="evenodd">
        <g id="download" transform="translate(0, 0.5)" fill="#000000" fill-rule="nonzero">
            <path d="M18,10.5 L18,15.5 L2,15.5 L2,10.5 C2,9.16666667 0,9.16666667 0,10.5 L0,16.5 C0,17.0522847 0.44771525,17.5 1,17.5 L19,17.5 C19.5522847,17.5 20,17.0522847 20,16.5 L20,10.5 C20,9.9477153 19.5522847,9.5 19,9.5 C18.4477153,9.5 18,9.9477153 18,10.5 Z M10.7602273,11.6614773 C10.5703409,11.8670455 10.3017045,12 10,12 C9.69829545,12 9.42965909,11.8670455 9.2425,11.6590909 L6.17159091,8.25238636 C6.01136364,8.06863636 5.90909091,7.83136364 5.90909091,7.56818182 C5.90909091,7.00363636 6.36693182,6.54545455 6.93181818,6.54545455 C7.23352273,6.54545455 7.50215909,6.67875 7.68931818,6.88670455 L8.97727273,8.31204545 L8.97727273,1.02272727 C8.97727273,0.457840909 9.43511364,0 10,0 C10.5648864,0 11.0227273,0.457840909 11.0227273,1.02272727 L11.0227273,8.31204545 L12.3079545,6.88397727 C12.4978409,6.67875 12.7664773,6.54545455 13.0681818,6.54545455 C13.6330682,6.54545455 14.0909091,7.00363636 14.0909091,7.56818182 C14.0909091,7.83136364 13.9886364,8.06863636 13.8256818,8.25 L10.7602273,11.6614773 Z" id="Shape"></path>
        </g>
    </g>
</svg>
