<?xml version="1.0" encoding="UTF-8" standalone="no"?>
<svg width="20px" height="20px" viewBox="0 0 20 20" version="1.1" xmlns="http://www.w3.org/2000/svg" xmlns:xlink="http://www.w3.org/1999/xlink">
    <!-- Generator: Sketch 43.2 (39069) - http://www.bohemiancoding.com/sketch -->
    <title>election</title>
    <desc>Created with Sketch.</desc>
    <defs></defs>
    <g id="Images-/-icons" stroke="none" stroke-width="1" fill="none" fill-rule="evenodd">
        <g id="election" fill="#000000">
            <path d="M12.6645892,2.20183665 C12.6645892,2.20183665 12.6645892,2.20183665 12.6645892,2.20183665 L12.7392888,2.27653629 C12.8362777,2.17954743 12.8919073,2.04800517 12.8919073,1.9080957 C12.8919073,1.620379 12.6587033,1.38717507 12.3709866,1.38717507 C12.2310983,1.38717507 12.0996922,1.44278577 12.0026845,1.53979353 L9.1124784,4.42999961 L9.26187768,4.42999961 L7.75593621,2.92405814 C7.65889357,2.8270155 7.5276157,2.77143968 7.38763404,2.77143968 C7.09991735,2.77143968 6.86671342,3.00464361 6.86671342,3.29236031 C6.86671342,3.43236305 6.9223082,3.56377722 7.01933188,3.6608009 L8.81887587,5.46034489 C8.91597969,5.55726994 9.0473622,5.61282493 9.18717804,5.61282493 C9.32699388,5.61282493 9.45837639,5.55726994 9.55541133,5.46041371 L12.7392888,2.27653629 L12.6645892,2.20183665 Z M0,9.9955775 C0,9.44573523 0.455305576,9 0.99180311,9 L19.0081969,9 C19.5559546,9 20,9.44483697 20,9.9955775 L20,19.0044225 C20,19.5542648 19.5446944,20 19.0081969,20 L0.99180311,20 C0.444045377,20 0,19.555163 0,19.0044225 L0,9.9955775 Z M2.53738038,0.995942093 C2.53738038,0.445898464 2.99484174,0 3.52774578,0 L16.2921438,0 C16.8391075,0 17.2825092,0.446698666 17.2825092,0.995942093 L17.2825092,7.5 L2.53738038,7.5 L2.53738038,0.995942093 Z M4.20151694,11.6812121 C4.18059887,11.6401581 4.15653429,11.6154822 4.13062648,11.6065205 C4.08636071,11.5921377 4.04795055,11.6166336 4.01572802,11.68066 L3.59309906,12.5378893 L2.64626217,12.6772198 C2.59037841,12.6835316 2.55619777,12.7050517 2.5443719,12.741448 C2.53286564,12.7768606 2.54786919,12.8143616 2.58970216,12.8529672 L3.27478415,13.520909 L3.11381506,14.4631568 C3.10290155,14.5335631 3.11957767,14.5759576 3.16384344,14.5903405 C3.18908718,14.5979989 3.22240829,14.5925126 3.26445839,14.5735494 L4.11082886,14.1258855 L4.9571043,14.5705124 C4.97286807,14.578897 4.98500431,14.583384 4.99189009,14.5856214 C5.01746587,14.5939314 5.04004094,14.5947413 5.06190228,14.5877066 C5.08311197,14.5810038 5.09770584,14.5645388 5.1056963,14.5399467 C5.1127279,14.5183056 5.11318091,14.4918082 5.10738738,14.4611061 L4.94519943,13.5193491 L5.62896707,12.8508283 C5.65138075,12.8303788 5.66658903,12.8086757 5.67394024,12.786051 C5.68161108,12.7624426 5.67916271,12.7415277 5.66561144,12.7229867 C5.6523922,12.7050973 5.63332052,12.6918316 5.60872842,12.6838411 C5.59298948,12.6787272 5.58053363,12.6752238 5.57169289,12.6739826 L4.62537695,12.5372487 L4.20151694,11.6812121 Z M9.9897441,11.6812121 C9.96882603,11.6401581 9.94476145,11.6154822 9.91885364,11.6065205 C9.87458787,11.5921377 9.8361777,11.6166336 9.80395518,11.68066 L9.38132622,12.5378893 L8.43448932,12.6772198 C8.37860557,12.6835316 8.34442493,12.7050517 8.33259905,12.741448 C8.3210928,12.7768606 8.33609635,12.8143616 8.37792931,12.8529672 L9.06301131,13.520909 L8.90204222,14.4631568 C8.89112871,14.5335631 8.90780483,14.5759576 8.9520706,14.5903405 C8.97731434,14.5979989 9.01063544,14.5925126 9.05268555,14.5735494 L9.89905602,14.1258855 L10.7453315,14.5705124 C10.7610952,14.578897 10.7732315,14.583384 10.7801172,14.5856214 C10.805693,14.5939314 10.8282681,14.5947413 10.8501294,14.5877066 C10.8713391,14.5810038 10.885933,14.5645388 10.8939235,14.5399467 C10.9009551,14.5183056 10.9014081,14.4918082 10.8956145,14.4611061 L10.7334266,13.5193491 L11.4171942,12.8508283 C11.4396079,12.8303788 11.4548162,12.8086757 11.4621674,12.786051 C11.4698382,12.7624426 11.4673899,12.7415277 11.4538386,12.7229867 C11.4406194,12.7050973 11.4215477,12.6918316 11.3969556,12.6838411 C11.3812166,12.6787272 11.3687608,12.6752238 11.35992,12.6739826 L10.4136041,12.5372487 L9.9897441,11.6812121 Z M15.7779713,11.6812121 C15.7570532,11.6401581 15.7329886,11.6154822 15.7070808,11.6065205 C15.662815,11.5921377 15.6244049,11.6166336 15.5921823,11.68066 L15.1695534,12.5378893 L14.2227165,12.6772198 C14.1668327,12.6835316 14.1326521,12.7050517 14.1208262,12.741448 C14.10932,12.7768606 14.1243235,12.8143616 14.1661565,12.8529672 L14.8512385,13.520909 L14.6902694,14.4631568 C14.6793559,14.5335631 14.696032,14.5759576 14.7402978,14.5903405 C14.7655415,14.5979989 14.7988626,14.5925126 14.8409127,14.5735494 L15.6872832,14.1258855 L16.5335586,14.5705124 C16.5493224,14.578897 16.5614586,14.583384 16.5683444,14.5856214 C16.5939202,14.5939314 16.6164953,14.5947413 16.6383566,14.5877066 C16.6595663,14.5810038 16.6741602,14.5645388 16.6821506,14.5399467 C16.6891822,14.5183056 16.6896352,14.4918082 16.6838417,14.4611061 L16.5216537,13.5193491 L17.2054214,12.8508283 C17.2278351,12.8303788 17.2430433,12.8086757 17.2503946,12.786051 C17.2580654,12.7624426 17.255617,12.7415277 17.2420658,12.7229867 C17.2288465,12.7050973 17.2097748,12.6918316 17.1851827,12.6838411 C17.1694438,12.6787272 17.1569879,12.6752238 17.1481472,12.6739826 L16.2018313,12.5372487 L15.7779713,11.6812121 Z"></path>
        </g>
    </g>
</svg>