<svg width="20px" height="20px" viewBox="0 0 20 20" version="1.1" xmlns="http://www.w3.org/2000/svg" xmlns:xlink="http://www.w3.org/1999/xlink">
    <path d="M19.7721006,6.00135281 L19.7721006,19.4796816 C19.7721006,19.7668973 19.5379572,20 19.2580259,20 L0.514074614,20 C0.229980759,20 0,19.7658567 0,19.4848847 L0,0.514074614 C0,0.229980759 0.223736898,0 0.511993373,0 L14.122483,0 C13.8082106,0.60356936 13.6146522,1.27894267 13.6146522,2.00530726 C13.6146522,2.03132315 13.6219366,2.0552578 13.6219366,2.0812737 L2.08127376,2.0812737 L2.08127376,17.9187263 L17.6908268,17.9187263 L17.6908268,6.35516938 C17.7928093,6.36141317 17.8906291,6.38534782 17.9936522,6.38534782 C18.6284406,6.38534782 19.2278475,6.24382122 19.7721006,6.00135281 L19.7721006,6.00135281 Z"></path>
    <path d="M15.973776,5.87855766 L15.973776,6.08148187 C15.973776,6.65175089 15.4982049,7.11275299 14.924814,7.11275299 L4.69119104,7.11275299 C4.11155626,7.11275299 3.64222905,6.64342578 3.64222905,6.08148187 L3.64222905,4.90139963 C3.64222905,4.33113068 4.11780012,3.8701285 4.69119104,3.8701285 L14.0361101,3.8701285 C14.4450804,4.73593838 15.1277382,5.436287 15.973776,5.87855766 L15.973776,5.87855766 Z"></path>
    <path d="M15.738592,9.81528698 C15.9118581,9.81528698 16.0518238,9.53119312 16.0518238,9.18049845 C16.0518238,8.82980384 15.9118581,8.54466933 15.738592,8.54466933 L10.1212342,8.54466933 C9.94796818,8.54466933 9.80800253,8.82980384 9.80800253,9.18049845 C9.80800253,9.53119312 9.94796818,9.81528698 10.1212342,9.81528698 L15.738592,9.81528698 Z"></path>
    <path d="M15.7388423,12.7020137 C15.9116671,12.7020137 16.0518238,12.4210417 16.0518238,12.0745096 C16.0518238,11.7279775 15.9116671,11.4470056 15.7388423,11.4470056 L10.1209839,11.4470056 C9.94815919,11.4470056 9.80800253,11.7279775 9.80800253,12.0745096 C9.80800253,12.4210417 9.94815919,12.7020137 10.1209839,12.7020137 L15.7388423,12.7020137 Z"></path>
    <path d="M13.655575,15.6938446 C13.8295006,15.6938446 13.97055,15.4128727 13.97055,15.0663406 C13.97055,14.7198085 13.8295006,14.4388366 13.655575,14.4388366 L10.1229774,14.4388366 C9.94905191,14.4388366 9.80800253,14.7198085 9.80800253,15.0663406 C9.80800253,15.4128727 9.94905191,15.6938446 10.1229774,15.6938446 L13.655575,15.6938446 Z"></path>
    <path d="M17.5650106,3.66972131 C17.4631341,3.77412287 17.3221611,3.8388442 17.166339,3.8388442 C17.0107048,3.8388442 16.8697319,3.77412287 16.7676674,3.66972131 L15.5146142,2.65383017 C15.4125498,2.54923589 15.3493938,2.40476875 15.3493938,2.24508435 C15.3493938,1.92590827 15.6018294,1.66721571 15.9132857,1.66721571 C16.0691079,1.66721571 16.209893,1.73193698 16.3119573,1.83653125 L17.166339,2.44386923 L18.7439889,0.660392062 C18.8460533,0.555797787 18.9870263,0.491076518 19.1426605,0.491076518 C19.4541168,0.491076518 19.7065524,0.749769079 19.7065524,1.06894523 C19.7065524,1.22843698 19.6433964,1.37309671 19.54152,1.47769098 L17.5650106,3.66972131 Z"></path>
    <rect x="3.64222905" y="8.39991674" width="4.94302514" height="7.2844581" rx="1"></rect>
</svg>
