<?xml version="1.0" encoding="UTF-8"?>
<svg width="20px" height="20px" viewBox="0 0 20 20" version="1.1" xmlns="http://www.w3.org/2000/svg" xmlns:xlink="http://www.w3.org/1999/xlink">
    <!-- Generator: Sketch 63.1 (92452) - https://sketch.com -->
    <title>exclamation-bubble</title>
    <desc>Created with Sketch.</desc>
    <defs>
        <path d="M10,12 C10.56,12 11,12.4217687 11,13.0068027 C11,13.537415 10.56,14 10,14 C9.44,14 9,13.5782313 9,12.9931973 C9,12.462585 9.44,12 10,12 Z M9.98684211,3 C10.5526316,3 11,3.36438923 11,4.0931677 C11,4.82194617 10.4605263,9.3436853 10.25,11 L10.25,11 L9.75,11 C9.53947368,9.3436853 9,4.82194617 9,4.0931677 C9,3.36438923 9.42105263,3 9.98684211,3 Z" id="path-1"></path>
    </defs>
    <g id="exclamation-bubble" stroke="none" stroke-width="1" fill="none" fill-rule="evenodd">
        <path d="M0.984423526,1.2146162 C0.453444789,1.2146162 0.0552107362,1.63773988 0.0552107362,2.14994223 L0.0552107362,15.2445067 C0.0552107362,15.7789787 0.453444789,16.157563 0.984423526,16.157563 L4.35194657,16.157563 L4.4392786,18.6072265 C4.48352683,18.7185748 4.61627151,18.7853838 4.7490162,18.7853838 C4.88176088,18.7853838 4.99238145,18.6963051 5.05875379,18.6072265 L8.35641121,16.157563 L19.0377006,16.157563 C19.5465552,16.157563 19.9447893,15.7789787 19.9447893,15.2445067 L19.9447893,2.14994223 C19.9447893,1.63773988 19.5465552,1.2146162 19.0377006,1.2146162 L0.984423526,1.2146162 Z" id="Combined-Shape-Copy-2" fill="#000000"></path>
        <mask id="mask-2" fill="white">
            <use xlink:href="#path-1"></use>
        </mask>
        <use id="Combined-Shape" fill="#FFFFFF" xlink:href="#path-1"></use>
    </g>
</svg>