<?xml version="1.0" encoding="UTF-8" standalone="no"?>
<svg width="20px" height="20px" viewBox="0 0 20 20" version="1.1" xmlns="http://www.w3.org/2000/svg" xmlns:xlink="http://www.w3.org/1999/xlink">
    <!-- Generator: Sketch 40.1 (33804) - http://www.bohemiancoding.com/sketch -->
    <title>facebook-circle</title>
    <desc>Created with Sketch.</desc>
    <defs></defs>
    <g id="Page-1" stroke="none" stroke-width="1" fill="none" fill-rule="evenodd">
        <g id="facebook-circle" fill="#212121">
            <path d="M8.58833333,15.44 L10.8363333,15.44 L10.8363333,9.99933333 L12.336,9.99933333 L12.5346667,8.12466667 L10.8363333,8.12466667 L10.8386667,7.186 C10.8386667,6.69733333 10.8853333,6.435 11.5866667,6.435 L12.524,6.435 L12.524,4.56 L11.024,4.56 C9.22233333,4.56 8.58833333,5.46966667 8.58833333,6.999 L8.58833333,8.12466667 L7.46533333,8.12466667 L7.46533333,9.99966667 L8.58833333,9.99966667 L8.58833333,15.44 L8.58833333,15.44 Z M10,20 C4.47733333,20 0,15.5226667 0,10 C0,4.477 4.47733333,0 10,0 C15.5226667,0 20,4.477 20,10 C20,15.5226667 15.5226667,20 10,20 L10,20 Z"></path>
        </g>
    </g>
</svg>