<svg id="fax" xmlns="http://www.w3.org/2000/svg" width="20" height="20" viewBox="0 0 20 20"><defs><style>.cls-1{fill-rule:evenodd;}</style></defs><path class="cls-1" d="M5.27,6.64a1.28,1.28,0,0,0-1.4,1V14a1.28,1.28,0,0,0,1.4,1,1.27,1.27,0,0,0,1.42-1V7.67A1.29,1.29,0,0,0,5.27,6.64Z"/><polygon class="cls-1" points="12.42 3.8 12.42 5.67 14.29 5.67 12.42 3.8"/><path class="cls-1" d="M14.62,7.91V6.73H11.89a0.54,0.54,0,0,1-.53-0.53V3.47H6.62a0.25,0.25,0,0,0-.24.24h0V5.89a2,2,0,0,1,1.29,2h6.93Z"/><path class="cls-1" d="M15.73,14.51V9.42a0.52,0.52,0,0,0-.51-0.53H7.67V14a1.69,1.69,0,0,1-.33,1h7.91a0.52,0.52,0,0,0,.51-0.53h0Zm-5.31-.71a0.51,0.51,0,0,1,0-1,0.53,0.53,0,0,1,.51.51A0.5,0.5,0,0,1,10.42,13.8Zm0-1.31A0.5,0.5,0,0,1,9.91,12a0.52,0.52,0,0,1,.51-0.51,0.53,0.53,0,0,1,.51.51A0.5,0.5,0,0,1,10.42,12.49Zm0-1.33a0.5,0.5,0,1,1,0-1,0.53,0.53,0,0,1,.51.51A0.5,0.5,0,0,1,10.42,11.16ZM12,13.8a0.51,0.51,0,0,1,0-1,0.53,0.53,0,0,1,.51.51A0.5,0.5,0,0,1,12,13.8Zm0-1.31A0.5,0.5,0,0,1,11.47,12,0.51,0.51,0,0,1,12,11.47a0.53,0.53,0,0,1,.51.51A0.5,0.5,0,0,1,12,12.49Zm0-1.33a0.49,0.49,0,0,1-.49-0.49A0.5,0.5,0,0,1,12,10.16a0.53,0.53,0,0,1,.51.51A0.5,0.5,0,0,1,12,11.16Zm1.56,2.64a0.51,0.51,0,1,1,0-1,0.53,0.53,0,0,1,.51.51A0.5,0.5,0,0,1,13.51,13.8Zm0-1.31A0.5,0.5,0,0,1,13,12a0.52,0.52,0,0,1,.51-0.51A0.53,0.53,0,0,1,14,12,0.5,0.5,0,0,1,13.51,12.49Zm0-1.33a0.5,0.5,0,1,1,0-1,0.53,0.53,0,0,1,.51.51A0.5,0.5,0,0,1,13.51,11.16Z"/></svg>