<svg id="file-box" xmlns="http://www.w3.org/2000/svg" width="20" height="18" viewBox="0 0 20 18"><defs><style>.cls-1{fill-rule:evenodd;}</style></defs><title>file-box</title><g id="file-box-2" data-name="file-box"><rect width="20" height="5.52" rx="1.99" ry="1.99"/><path class="cls-1" d="M1.67,6.54V17.15A0.84,0.84,0,0,0,2.5,18h15a0.84,0.84,0,0,0,.83-0.85V6.54H1.67Zm12.08,4.84a0.67,0.67,0,0,1-.67.68H6.92a0.67,0.67,0,0,1-.67-0.68V10.19a0.67,0.67,0,0,1,.67-0.68h6.17a0.67,0.67,0,0,1,.67.68v1.19Z"/></g></svg>