<?xml version="1.0" encoding="UTF-8" standalone="no"?>
<svg width="20px" height="15px" viewBox="0 0 20 15" version="1.1" xmlns="http://www.w3.org/2000/svg" xmlns:xlink="http://www.w3.org/1999/xlink">
    <!-- Generator: Sketch 39.1 (31720) - http://www.bohemiancoding.com/sketch -->
    <title>filter</title>
    <desc>Created with Sketch.</desc>
    <defs></defs>
    <g id="Page-1" stroke="none" stroke-width="1" fill="none" fill-rule="evenodd">
        <g id="filter" transform="translate(0.000000, -1.000000)" fill="#000000">
            <path d="M14.2324356,10 C13.8866262,10.5978014 13.2402824,11 12.5,11 C11.7597176,11 11.1133738,10.5978014 10.7675644,10 L0.99180311,10 C0.444045377,10 0,9.55613518 0,9 C0,8.44771525 0.455305576,8 0.99180311,8 L10.7675644,8 C11.1133738,7.40219863 11.7597176,7 12.5,7 C13.2402824,7 13.8866262,7.40219863 14.2324356,8 L19.0081969,8 C19.5559546,8 20,8.44386482 20,9 C20,9.55228475 19.5446944,10 19.0081969,10 L14.2324356,10 Z M6.6705954,5 C6.3128488,5.54222243 5.69820611,5.89999998 5,5.89999998 C4.30179389,5.89999998 3.6871512,5.54222243 3.3294046,5 L0.99180311,5 C0.444045377,5 0,4.55613518 0,4 C0,3.44771525 0.455305576,3 0.99180311,3 L3.21345827,3 C3.54282128,2.34748432 4.21915286,1.89999998 5,1.89999998 C5.78084714,1.89999998 6.45717872,2.34748432 6.78654173,3 L19.0081969,3 C19.5559546,3 20,3.44386482 20,4 C20,4.55228475 19.5446944,5 19.0081969,5 L6.6705954,5 Z M11.4525311,15 C11.1001733,15.5701198 10.4694495,15.9499998 9.75,15.9499998 C9.03055048,15.9499998 8.39982669,15.5701198 8.04746886,15 L0.99180311,15 C0.444045377,15 0,14.5561352 0,14 C0,13.4477153 0.455305576,13 0.99180311,13 L7.9895903,13 C8.32772517,12.3747332 8.98926169,11.9499998 9.75,11.9499998 C10.5107383,11.9499998 11.1722748,12.3747332 11.5104097,13 L19.0081969,13 C19.5559546,13 20,13.4438648 20,14 C20,14.5522847 19.5446944,15 19.0081969,15 L11.4525311,15 Z"></path>
        </g>
    </g>
</svg>