<?xml version="1.0" encoding="UTF-8" standalone="no"?>
<svg width="16px" height="20px" viewBox="0 0 16 20" version="1.1" xmlns="http://www.w3.org/2000/svg" xmlns:xlink="http://www.w3.org/1999/xlink">
    <!-- Generator: Sketch 43.2 (39069) - http://www.bohemiancoding.com/sketch -->
    <title>financial-document</title>
    <desc>Created with Sketch.</desc>
    <defs></defs>
    <g id="Images-/-icons" stroke="none" stroke-width="1" fill="none" fill-rule="evenodd">
        <g id="financial-document" fill="#000000">
            <path d="M5.68434189e-14,0.494384766 C5.68433442e-14,0.221343599 0.229724944,6.77700402e-18 0.502175332,1.44956626e-17 C0.502175332,1.44956626e-17 10.02642,3.07485607e-16 12.0543823,0 C13,1 14.9999998,2.50592041 15.9999998,3.5 C15.9999998,6.50405979 16.0000002,19.4990698 16.0000002,19.4990698 C16.0000002,19.7757259 15.7738192,20 15.503607,20 L0.496393211,20 C0.222242811,20 5.68486922e-14,19.7753906 5.68486184e-14,19.5056152 L5.68434189e-14,0.494384766 Z M2,2 L2,18 L14,18 L14,4.5 L11.5,4.5 L11.5,2 L2,2 Z M4.0941763,13.2058543 C3.76602179,13.2058543 3.5,12.9359146 3.5,12.6029271 C3.5,12.2699397 3.76602179,12 4.0941763,12 L11.7558241,12 C12.0839786,12 12.3500004,12.2699397 12.3500004,12.6029271 C12.3500004,12.9359146 12.0839786,13.2058543 11.7558241,13.2058543 L4.0941763,13.2058543 Z M11.7558241,16.2058543 L4.0941763,16.2058543 C3.76602179,16.2058543 3.5,15.9359146 3.5,15.6029271 C3.5,15.2699397 3.76602179,15 4.0941763,15 L11.7558241,15 C12.0839786,15 12.3500004,15.2699397 12.3500004,15.6029271 C12.3500004,15.9359146 12.0839786,16.2058543 11.7558241,16.2058543 Z M6.42332389,6.62690179 C6.77332564,6.74823573 7.03465636,6.90106753 7.20732389,7.08540179 C7.37999142,7.26973604 7.46632389,7.51356694 7.46632389,7.81690179 C7.46632389,8.14823678 7.33099191,8.43523391 7.06032389,8.67790179 C6.76165573,8.93456974 6.34399324,9.08156827 5.80732389,9.11890179 L5.80732389,9.73490179 L5.21932389,9.73490179 L5.21932389,9.10490179 C4.73398813,9.05823489 4.33965874,8.91356967 4.03632389,8.67090179 C3.71432228,8.40956715 3.55332389,8.05490403 3.55332389,7.60690179 L4.37232389,7.60690179 C4.37232389,7.83090291 4.4446565,8.00123454 4.58932389,8.11790179 C4.73399128,8.23456904 4.94398918,8.30923496 5.21932389,8.34190179 L5.21932389,6.98390179 L4.86932389,6.86490179 C4.47732193,6.73423447 4.17399163,6.57673604 3.95932389,6.39240179 C3.74465615,6.20806753 3.63732389,5.95023678 3.63732389,5.61890179 C3.63732389,5.2875668 3.77148922,5.01106956 4.03982389,4.78940179 C4.30815857,4.56773401 4.7013213,4.43823531 5.21932389,4.40090179 L5.21932389,3.86890179 L5.80732389,3.86890179 L5.80732389,4.40790179 C6.25999282,4.45456869 6.6053227,4.59456729 6.84332389,4.82790179 C7.08132508,5.06123629 7.23299023,5.36456659 7.29832389,5.73790179 L6.47932389,5.73790179 C6.45599044,5.59790109 6.3871578,5.473069 6.27282389,5.36340179 C6.15848999,5.25373457 6.00332487,5.177902 5.80732389,5.13590179 L5.80732389,6.40990179 L6.42332389,6.62690179 Z M6.36032389,8.16690179 C6.47699114,8.06423461 6.53532389,7.94290249 6.53532389,7.80290179 C6.53532389,7.53690046 6.36732557,7.34090242 6.03132389,7.21490179 L5.80732389,7.13090179 L5.80732389,8.35590179 C6.05932515,8.33256834 6.24365664,8.26956897 6.36032389,8.16690179 Z M4.71182389,5.30390179 C4.59748999,5.40190228 4.54032389,5.51623447 4.54032389,5.64690179 C4.54032389,5.77756911 4.57765685,5.8814014 4.65232389,5.95840179 C4.72699093,6.03540217 4.84598974,6.10190151 5.00932389,6.15790179 L5.21932389,6.24190179 L5.21932389,5.11490179 C4.99532277,5.14290193 4.8261578,5.2059013 4.71182389,5.30390179 Z" id="document"></path>
        </g>
    </g>
</svg>