<svg id="folder-with-person" xmlns="http://www.w3.org/2000/svg" width="25.26" height="20" viewBox="0 0 25.26 20"><title>betaFEC_icons</title><polygon points="24.9 3.6 25.4 3.6 25.4 3.6 25.4 3.6 25.4 2.1 8.7 2.1 6.8 0 0.1 0 0.1 3.6 0.7 3.6 24.9 3.6"/><path d="M25.4,5.5H0V20H4.2L2.9,13.3V13a1.73,1.73,0,0,1,1.5-1.7,3.57,3.57,0,0,0,2.3.8A3.57,3.57,0,0,0,9,11.3,1.73,1.73,0,0,1,10.6,13v0.3L9.3,20H25.4V5.5h0ZM6.8,10.8a2,2,0,1,1,2-2A2,2,0,0,1,6.8,10.8Zm14.5,5.4H13.6a0.6,0.6,0,0,1,0-1.2h7.7a0.65,0.65,0,0,1,.6.6A0.58,0.58,0,0,1,21.3,16.2Zm0-3H13.6a0.6,0.6,0,0,1,0-1.2h7.7a0.65,0.65,0,0,1,.6.6A0.58,0.58,0,0,1,21.3,13.2Zm0-3H13.6a0.6,0.6,0,0,1,0-1.2h7.7a0.65,0.65,0,0,1,.6.6A0.58,0.58,0,0,1,21.3,10.2Z"/></svg>