<?xml version="1.0" encoding="UTF-8" standalone="no"?>
<svg width="24px" height="19px" viewBox="0 0 24 19" version="1.1" xmlns="http://www.w3.org/2000/svg" xmlns:xlink="http://www.w3.org/1999/xlink">
    <!-- Generator: Sketch 42 (36781) - http://www.bohemiancoding.com/sketch -->
    <title>folder</title>
    <desc>Created with Sketch.</desc>
    <defs></defs>
    <g id="Flat-SVG-icons" stroke="none" stroke-width="1" fill="none" fill-rule="evenodd">
        <g id="folder" fill="#000000">
            <path d="M10.024976,2.5 L8.33979617,0.726216316 C7.95875259,0.32513812 7.1942317,0.000841646092 6.6497707,0.00184739518 L1.75503144,0.010889144 C0.785754338,0.0126796295 2.79494779e-14,0.787758394 2.79494779e-14,1.75706555 L2.79494779e-14,3.5 C8.60370941e-06,3.50243412 -4.73763678e-16,3.50487152 -4.72231553e-16,3.50731095 L8.62556564e-15,17.9926891 C8.98103673e-15,18.5586649 0.448026248,19 1.00069463,19 L22.9993054,19 C23.5525308,19 24,18.5490115 24,17.9926891 L24,3.50731095 C24,2.94133514 23.5519738,2.5 22.9993054,2.5 L10.024976,2.5 Z" id="Combined-Shape"></path>
        </g>
    </g>
</svg>