<?xml version="1.0" encoding="UTF-8" standalone="no"?>
<svg width="20px" height="20px" viewBox="0 0 20 20" version="1.1" xmlns="http://www.w3.org/2000/svg" xmlns:xlink="http://www.w3.org/1999/xlink">
    <!-- Generator: Sketch 42 (36781) - http://www.bohemiancoding.com/sketch -->
    <title>graph-horizontal-ordered</title>
    <desc>Created with Sketch.</desc>
    <defs></defs>
    <g id="Flat-SVG-icons" stroke="none" stroke-width="1" fill="none" fill-rule="evenodd">
        <g id="graph-horizontal-ordered" fill-rule="nonzero" fill="#000000">
            <path d="M-7.46069873e-14,1.01597145 C-7.46069873e-14,0.454865913 0.454865913,0 1.01597145,0 C1.57707699,0 2.0319429,0.454865913 2.0319429,1.01597145 L2.0319429,18.3232073 L1.01597145,17.3072359 L18.379757,17.3072359 C18.9408625,17.3072359 19.3957284,17.7621018 19.3957284,18.3232073 C19.3957284,18.8843129 18.9408625,19.3391788 18.379757,19.3391788 L1.01597145,19.3391788 L-7.33662369e-14,19.3391788 L-7.34790324e-14,18.3232073 L-7.46069873e-14,1.01597145 Z M7.42585662,12.1476161 C7.9795847,12.1476161 8.42847,12.5973464 8.42847,13.1456172 L8.42847,14.1975293 C8.42847,14.7487101 7.98522523,15.1955304 7.42585662,15.1955304 L5.28928696,15.1955304 C4.73555888,15.1955304 4.28667358,14.7458002 4.28667358,14.1975293 L4.28667358,13.1456172 C4.28667358,12.5944364 4.72991835,12.1476161 5.28928696,12.1476161 L7.42585662,12.1476161 Z M15.3551772,2.67738099 C15.9097099,2.67738099 16.3592475,3.12711125 16.3592475,3.67538215 L16.3592475,4.72729419 C16.3592475,5.27847501 15.9080157,5.72529535 15.3551772,5.72529535 L5.09374971,5.72529535 C4.53921702,5.72529535 4.08967946,5.27556509 4.08967946,4.72729419 L4.08967946,3.67538215 C4.08967946,3.12420133 4.5409112,2.67738099 5.09374971,2.67738099 L15.3551772,2.67738099 Z M11.387681,7.41249854 C11.9433776,7.41249854 12.3938587,7.8622288 12.3938587,8.4104997 L12.3938587,9.46241174 C12.3938587,10.0135926 11.9526856,10.4604129 11.387681,10.4604129 L5.19435423,10.4604129 C4.63865762,10.4604129 4.18817652,10.0106826 4.18817652,9.46241174 L4.18817652,8.4104997 C4.18817652,7.85931888 4.62934963,7.41249854 5.19435423,7.41249854 L11.387681,7.41249854 Z" id="graph-copy"></path>
        </g>
    </g>
</svg>