<?xml version="1.0" encoding="UTF-8" standalone="no"?>
<svg width="21px" height="20px" viewBox="0 0 21 20" version="1.1" xmlns="http://www.w3.org/2000/svg" xmlns:xlink="http://www.w3.org/1999/xlink">
    <!-- Generator: Sketch 3.7.1 (28215) - http://www.bohemiancoding.com/sketch -->
    <title>graph</title>
    <desc>Created with Sketch.</desc>
    <defs></defs>
    <g id="Page-1" stroke="none" stroke-width="1" fill="none" fill-rule="evenodd">
        <g id="graph" fill="#000000">
            <path d="M0,1.05094379 L1.16678199e-15,18.953939 L1.28346019e-15,20.0048828 L1.05094379,20.0048828 L19.0124353,20.0048828 C19.5928555,20.0048828 20.0633791,19.5343593 20.0633791,18.953939 C20.0633791,18.3735188 19.5928555,17.9029952 19.0124353,17.9029952 L1.05094379,17.9029952 L2.10188758,18.953939 L2.10188758,1.05094379 C2.10188758,0.470523562 1.63136402,0 1.05094379,0 C0.470523562,0 0,0.470523562 0,1.05094379 Z M3.67830327,13.0795424 C3.67830327,12.5307432 4.11669096,12.0858536 4.67587882,12.0858536 L5.83355908,12.0858536 C6.38450485,12.0858536 6.83113464,12.5282193 6.83113464,13.0795424 L6.83113464,15.3765325 C6.83113464,15.9253316 6.39274694,16.3702212 5.83355908,16.3702212 L4.67587882,16.3702212 C4.12493305,16.3702212 3.67830327,15.9278556 3.67830327,15.3765325 L3.67830327,13.0795424 Z M8.40755032,4.67421678 C8.40755032,4.12418893 8.84593801,3.67830327 9.40512587,3.67830327 L10.5628061,3.67830327 C11.1137519,3.67830327 11.5603817,4.13001535 11.5603817,4.67421678 L11.5603817,15.3743077 C11.5603817,15.9243356 11.121994,16.3702212 10.5628061,16.3702212 L9.40512587,16.3702212 C8.85418011,16.3702212 8.40755032,15.9185092 8.40755032,15.3743077 L8.40755032,4.67421678 Z M13.1367974,8.88911224 C13.1367974,8.33294282 13.5751851,7.88207843 14.1343729,7.88207843 L15.2920532,7.88207843 C15.842999,7.88207843 16.2896287,8.33843785 16.2896287,8.88911224 L16.2896287,15.3631874 C16.2896287,15.9193568 15.8512411,16.3702212 15.2920532,16.3702212 L14.1343729,16.3702212 C13.5834272,16.3702212 13.1367974,15.9138618 13.1367974,15.3631874 L13.1367974,8.88911224 Z"></path>
        </g>
    </g>
</svg>