<?xml version="1.0" encoding="UTF-8" standalone="no"?>
<svg width="20px" height="20px" viewBox="0 0 20 20" version="1.1" xmlns="http://www.w3.org/2000/svg" xmlns:xlink="http://www.w3.org/1999/xlink">
    <!-- Generator: Sketch 42 (36781) - http://www.bohemiancoding.com/sketch -->
    <title>graph-horizontal-unordered</title>
    <desc>Created with Sketch.</desc>
    <defs></defs>
    <g id="Flat-SVG-icons" stroke="none" stroke-width="1" fill="none" fill-rule="evenodd">
        <g id="graph-horizontal-unordered" fill-rule="nonzero" fill="#000000">
            <path d="M0,1.01597145 C0,0.454865913 0.454865913,0 1.01597145,0 C1.57707699,0 2.0319429,0.454865913 2.0319429,1.01597145 L2.0319429,18.3232073 L1.01597145,17.3072359 L18.379757,17.3072359 C18.9408625,17.3072359 19.3957284,17.7621018 19.3957284,18.3232073 C19.3957284,18.8843129 18.9408625,19.3391788 18.379757,19.3391788 L1.01597145,19.3391788 L1.24075039e-15,19.3391788 L1.1279549e-15,18.3232073 L0,1.01597145 Z M12.9781434,12.2580645 C13.5341485,12.2580645 13.9848797,12.7077948 13.9848797,13.2560657 L13.9848797,14.3079777 C13.9848797,14.8591585 13.5372475,15.3059789 12.9781434,15.3059789 L4.87770408,15.3059789 C4.32169895,15.3059789 3.87096774,14.8562486 3.87096774,14.3079777 L3.87096774,13.2560657 C3.87096774,12.7048849 4.31859994,12.2580645 4.87770408,12.2580645 L12.9781434,12.2580645 Z M15.1364655,7.5 C15.6909982,7.5 16.1405358,7.94973026 16.1405358,8.49800115 L16.1405358,9.5499132 C16.1405358,10.101094 15.689304,10.5479144 15.1364655,10.5479144 L4.87503799,10.5479144 C4.3205053,10.5479144 3.87096774,10.0981841 3.87096774,9.5499132 L3.87096774,8.49800115 C3.87096774,7.94682034 4.32219949,7.5 4.87503799,7.5 L15.1364655,7.5 Z M11.0704723,2.58064516 C11.6261689,2.58064516 12.07665,3.03037542 12.07665,3.57864632 L12.07665,4.63055836 C12.07665,5.18173918 11.6354768,5.62855952 11.0704723,5.62855952 L4.87714545,5.62855952 C4.32144885,5.62855952 3.87096774,5.17882926 3.87096774,4.63055836 L3.87096774,3.57864632 C3.87096774,3.0274655 4.31214086,2.58064516 4.87714545,2.58064516 L11.0704723,2.58064516 Z" id="graph"></path>
        </g>
    </g>
</svg>