<?xml version="1.0" encoding="UTF-8" standalone="no"?>
<svg width="20px" height="20px" viewBox="0 0 20 20" version="1.1" xmlns="http://www.w3.org/2000/svg" xmlns:xlink="http://www.w3.org/1999/xlink">
    <!-- Generator: Sketch 48.1 (47250) - http://www.bohemiancoding.com/sketch -->
    <title>hand-envelope</title>
    <desc>Created with Sketch.</desc>
    <defs></defs>
    <g id="Images-/-icons" stroke="none" stroke-width="1" fill="none" fill-rule="evenodd">
        <g id="hand-envelope" fill="#000000" fill-rule="nonzero">
            <path d="M4.46301277,11.008812 C4.50687416,10.3289604 4.72618112,9.69297027 5.07707224,9.14470289 L0.91024017,9.14470289 C0.142665842,9.14470289 0.0110816712,9.51752471 0.0110816712,9.78069305 L0.0110816712,10.3947525 C0.0110816712,11.0307427 0.625141134,11.0307427 0.91024017,11.0307427 L4.46301277,11.0307427 L4.46301277,11.008812 Z M1.78746797,11.6667328 C1.01989365,11.6667328 0.888309475,12.0395546 0.888309475,12.302723 L0.888309475,12.7851983 C0.888309475,13.2018815 1.17340851,13.4211884 1.78746797,13.4211884 L5.03321085,13.4211884 C4.72618112,12.8948518 4.50687416,12.302723 4.46301277,11.6667328 L1.78746797,11.6667328 L1.78746797,11.6667328 Z M12.7747462,4.2102965 C14.7704395,4.2102965 16.4152416,6.95163338 17.0512318,7.91658397 L19.4855389,7.91658397 C19.4889183,8.14727518 19.9889183,8.64727518 19.9889183,11.1472752 C19.9889183,12.4411862 19.4855389,13.6472752 19.1346478,14.0352479 L17.0731625,14.0352479 C16.4371723,14.9782678 15.1432613,15.7897035 13.1037066,15.7897035 L3.51999289,15.7897035 C3.51999289,15.7897035 2.75241856,15.7897035 2.75241856,15.1537133 L2.75241856,14.6712381 C2.75241856,14.6712381 2.75241856,14.0352479 3.51999289,14.0352479 L5.53761683,14.0352479 C6.28326047,14.8466836 7.31400314,15.3510896 8.52019137,15.3510896 C10.7571223,15.3510896 12.57737,13.5308419 12.57737,11.293911 C12.57737,9.03504942 10.7571223,7.23673242 8.52019137,7.23673242 C7.35786453,7.23673242 6.32712186,7.71920771 5.60340892,8.46485134 L1.78746797,8.46485134 C1.61202241,8.46485134 0.86637878,8.50871273 0.888309475,7.82886119 L0.888309475,7.36831659 C0.888309475,7.21480172 1.01989365,6.73232643 1.78746797,6.75425713 L11.2395976,6.75425713 C11.5904887,6.75425713 11.5904887,6.11826697 11.3053896,6.11826697 L8.52019137,6.11826697 C7.75261704,6.11826697 7.75261704,5.48227681 7.75261704,5.48227681 L7.75261704,4.99980152 C7.75261704,4.2102965 8.52019137,4.2102965 8.52019137,4.2102965 L12.7747462,4.2102965 Z M7.63018002,11.8033277 C7.87634713,12.0228775 8.04515146,12.1717463 8.08766931,12.2052659 C8.32440365,12.3922623 8.50862421,12.4174577 8.65764788,12.4174577 C8.93373235,12.4174577 9.12175418,12.2813725 9.20904249,12.2002862 L9.6333763,11.8081586 L11.4324306,13.3453048 L11.4315858,13.4211884 L5.78001986,13.4211884 L5.77889356,13.3453048 L7.63018002,11.8033277 Z M5.76059117,12.612258 L5.76059117,9.84053433 C5.85132878,9.92221519 5.96198783,10.0218822 6.08341713,10.1311369 C6.56279888,10.5625813 7.03887213,10.9907555 7.40773563,11.321195 L5.76059117,12.612258 Z M9.86680213,11.3093777 L11.4507329,9.84648016 L11.4507329,12.6034879 L9.86680213,11.3093777 Z M11.4508033,9.14477721 L11.4508033,9.16402684 L8.98695006,11.3431741 C8.88065543,11.4296116 8.77309371,11.4715298 8.65821103,11.4715298 C8.54206127,11.4715298 8.42035039,11.4262671 8.30039936,11.3407215 C8.16109004,11.2302776 6.19914453,9.53036439 5.76059117,9.15005414 L5.76059117,9.14470289 L11.4508033,9.14470289 L11.4508033,9.14477721 Z" id="Shape"></path>
        </g>
    </g>
</svg>