<?xml version="1.0" encoding="UTF-8" standalone="no"?>
<svg width="20px" height="20px" viewBox="0 0 20 20" version="1.1" xmlns="http://www.w3.org/2000/svg" xmlns:xlink="http://www.w3.org/1999/xlink">
    <!-- Generator: Sketch 48.1 (47250) - http://www.bohemiancoding.com/sketch -->
    <title>hand-money</title>
    <desc>Created with Sketch.</desc>
    <defs></defs>
    <g id="Images-/-icons" stroke="none" stroke-width="1" fill="none" fill-rule="evenodd">
        <g id="hand-money" fill="#000000" fill-rule="nonzero">
            <path d="M4.46301277,11.008812 C4.50687416,10.3289604 4.72618112,9.69297027 5.07707224,9.14470289 L0.91024017,9.14470289 C0.142665842,9.14470289 0.0110816712,9.51752471 0.0110816712,9.78069305 L0.0110816712,10.3947525 C0.0110816712,11.0307427 0.625141134,11.0307427 0.91024017,11.0307427 L4.46301277,11.0307427 L4.46301277,11.008812 Z M1.78746797,11.6667328 C1.01989365,11.6667328 0.888309475,12.0395546 0.888309475,12.302723 L0.888309475,12.7851983 C0.888309475,13.2018815 1.17340851,13.4211884 1.78746797,13.4211884 L5.03321085,13.4211884 C4.72618112,12.8948518 4.50687416,12.302723 4.46301277,11.6667328 L1.78746797,11.6667328 L1.78746797,11.6667328 Z M12.7747462,4.2102965 L8.52019137,4.2102965 C8.52019137,4.2102965 7.75261704,4.2102965 7.75261704,4.99980152 L7.75261704,5.48227681 C7.75261704,5.48227681 7.75261704,6.11826697 8.52019137,6.11826697 L11.3053896,6.11826697 C11.5904887,6.11826697 11.5904887,6.75425713 11.2395976,6.75425713 L1.78746797,6.75425713 C1.01989365,6.73232643 0.888309475,7.21480172 0.888309475,7.36831659 L0.888309475,7.82886119 C0.86637878,8.50871273 1.61202241,8.46485134 1.78746797,8.46485134 L5.60340892,8.46485134 C6.32712186,7.71920771 7.35786453,7.23673242 8.52019137,7.23673242 C10.7571223,7.23673242 12.57737,9.03504942 12.57737,11.293911 C12.57737,13.5308419 10.7571223,15.3510896 8.52019137,15.3510896 C7.31400314,15.3510896 6.28326047,14.8466836 5.53761683,14.0352479 L3.51999289,14.0352479 C2.75241856,14.0352479 2.75241856,14.6712381 2.75241856,14.6712381 L2.75241856,15.1537133 C2.75241856,15.7897035 3.51999289,15.7897035 3.51999289,15.7897035 L13.1037066,15.7897035 C15.1432613,15.7897035 16.4371723,14.9782678 17.0731625,14.0352479 L19.1346478,14.0352479 C19.4855389,13.6472752 19.9889183,12.4411862 19.9889183,11.1472752 C19.9889183,8.64727518 19.4889183,8.14727518 19.4855389,7.91658397 L17.0512318,7.91658397 C16.4152416,6.95163338 14.7704395,4.2102965 12.7747462,4.2102965 Z M8.49826067,12.5220299 C8.23509233,12.5220299 7.81840912,12.4343072 7.81840912,12.1272774 C7.81840912,11.8860398 7.64296356,11.7105942 7.40172592,11.7105942 C7.18241897,11.7105942 7.00697341,11.8860398 7.00697341,12.1053467 C6.98504271,12.7194062 7.53331009,13.1580201 8.08157746,13.2896043 L8.08157746,13.7282182 C8.08157746,13.9694558 8.25702303,14.1449014 8.49826067,14.1449014 C8.71756762,14.1449014 8.89301318,13.9694558 8.89301318,13.7501489 L8.89301318,13.2896043 C9.52900334,13.1580201 9.98954794,12.6974755 9.98954794,12.1272774 C9.98954794,11.8421784 9.85796377,11.5570794 9.66058751,11.3377724 C9.37548848,11.0526734 8.95880527,10.8991585 8.52019137,10.8991585 C8.25702303,10.8991585 7.84033982,10.789505 7.84033982,10.4824753 C7.84033982,10.285099 8.12543885,10.0877228 8.52019137,10.0877228 C8.76142901,10.0877228 9.20004291,10.1973763 9.20004291,10.4824753 C9.20004291,10.7017822 9.37548848,10.8991585 9.59479543,10.8991585 C9.83603307,10.8991585 10.0114786,10.7237129 10.0114786,10.4824753 C10.0114786,9.84648513 9.46321126,9.47366332 8.93687457,9.32014845 L8.93687457,8.85960386 C8.93687457,8.6402969 8.76142901,8.44292065 8.52019137,8.44292065 C8.30088442,8.44292065 8.10350816,8.61836621 8.10350816,8.83767316 L8.10350816,9.29821776 C7.467518,9.42980193 7.00697341,9.91227722 7.00697341,10.4386139 C7.00697341,10.7456436 7.11662688,11.008812 7.35786453,11.2281189 C7.62103287,11.513218 8.05964677,11.6667328 8.49826067,11.6667328 C8.73949832,11.6667328 9.15618152,11.798317 9.15618152,12.083416 C9.17811222,12.302723 8.89301318,12.5220299 8.49826067,12.5220299 Z" id="Shape"></path>
        </g>
    </g>
</svg>