<svg id="hand-envelope" xmlns="http://www.w3.org/2000/svg" width="20" height="20" viewBox="0 0 20 20"><defs><style>.cls-1{fill-rule:evenodd;}</style></defs><title>betaFEC_icons</title><path class="cls-1" d="M17.8,7.78c-0.56-.89-2.07-3.36-3.89-3.36H10a0.68,0.68,0,0,0-.7.69V5.56a0.61,0.61,0,0,0,.7.58H12.6c0.27,0,.25.58-0.07,0.58H3.91a0.7,0.7,0,0,0-.83.58V7.71a0.67,0.67,0,0,0,.83.58H7.38a3.7,3.7,0,0,1,6.34,2.56A3.67,3.67,0,0,1,10,14.49a3.76,3.76,0,0,1-2.72-1.18H5.49a0.61,0.61,0,0,0-.7.58v0.42a0.67,0.67,0,0,0,.7.58h8.73a4.09,4.09,0,0,0,3.6-1.58v0H20V7.78H17.8Z"/><path class="cls-1" d="M10.67,11.57a0.67,0.67,0,0,1-.45.17,0.7,0.7,0,0,1-.46-0.17l-0.37-.32-1.5,1.22v0.06h4.58V12.48L11,11.26Z"/><polygon class="cls-1" points="12.85 9.71 11.57 10.85 12.85 11.89 12.85 9.71"/><path class="cls-1" d="M10,10.88a0.51,0.51,0,0,0,.29.1,0.42,0.42,0,0,0,.27-0.1l2-1.72v0H7.9Z"/><polygon class="cls-1" points="7.67 11.89 8.95 10.85 7.67 9.71 7.67 11.89"/><path class="cls-1" d="M6.34,10.58a3.68,3.68,0,0,1,.56-1.69H3.1c-0.67,0-.81.33-0.81,0.58V10a0.64,0.64,0,0,0,.81.58H6.34Z"/><path class="cls-1" d="M6.34,11.16H3.91c-0.7,0-.83.33-0.83,0.58v0.42a0.67,0.67,0,0,0,.83.58H6.86A3.75,3.75,0,0,1,6.34,11.16Z"/></svg>