<?xml version="1.0" encoding="UTF-8" standalone="no"?>
<svg width="20px" height="12px" viewBox="0 0 20 12" version="1.1" xmlns="http://www.w3.org/2000/svg" xmlns:xlink="http://www.w3.org/1999/xlink">
    <!-- Generator: Sketch 43.2 (39069) - http://www.bohemiancoding.com/sketch -->
    <title>hand-money</title>
    <desc>Created with Sketch.</desc>
    <defs></defs>
    <g id="Images-/-icons" stroke="none" stroke-width="1" fill="none" fill-rule="evenodd">
        <g id="hand-money" fill-rule="nonzero" fill="#000000">
            <path d="M4.47409445,6.86153679 C4.51795584,6.18168525 4.73726279,5.54569509 5.08815391,4.99742771 L0.921321841,4.99742771 C0.153747513,4.99742771 0.0221633425,5.37024953 0.0221633425,5.63341787 L0.0221633425,6.24747733 C0.0221633425,6.88346749 0.636222805,6.88346749 0.921321841,6.88346749 L4.47409445,6.88346749 L4.47409445,6.86153679 Z M1.79854964,7.51945765 C1.03097532,7.51945765 0.899391146,7.89227946 0.899391146,8.1554478 L0.899391146,8.6379231 C0.899391146,9.0546063 1.18449018,9.27391325 1.79854964,9.27391325 L5.04429252,9.27391325 C4.73726279,8.74757657 4.51795584,8.1554478 4.47409445,7.51945765 L1.79854964,7.51945765 L1.79854964,7.51945765 Z M12.7858279,0.0630213146 L8.53127304,0.0630213146 C8.53127304,0.0630213146 7.76369871,0.0630213146 7.76369871,0.852526338 L7.76369871,1.33500163 C7.76369871,1.33500163 7.76369871,1.97099179 8.53127304,1.97099179 L11.3164713,1.97099179 C11.6015704,1.97099179 11.6015704,2.60698195 11.2506792,2.60698195 L1.79854964,2.60698195 C1.03097532,2.58505125 0.899391146,3.06752654 0.899391146,3.22104141 L0.899391146,3.681586 C0.877460451,4.36143755 1.62310408,4.31757616 1.79854964,4.31757616 L5.61449059,4.31757616 C6.33820353,3.57193253 7.3689462,3.08945724 8.53127304,3.08945724 C10.7682039,3.08945724 12.5884516,4.88777423 12.5884516,7.14663583 C12.5884516,9.38356673 10.7682039,11.2038144 8.53127304,11.2038144 C7.32508481,11.2038144 6.29434214,10.6994084 5.54869851,9.88797272 L3.53107456,9.88797272 C2.76350023,9.88797272 2.76350023,10.5239629 2.76350023,10.5239629 L2.76350023,11.0064382 C2.76350023,11.6424283 3.53107456,11.6424283 3.53107456,11.6424283 L13.1147883,11.6424283 C15.154343,11.6424283 16.448254,10.8309926 17.0842441,9.88797272 L19.1457295,9.88797272 C19.4966206,9.5 19.7817196,7.51945765 19.7817196,6.22554664 C19.7817196,5.37024953 19.6720661,4.55881381 19.4966206,3.76930878 L17.0623134,3.76930878 C16.4263233,2.8043582 14.7815211,0.0630213146 12.7858279,0.0630213146 Z M8.50934234,8.37475475 C8.246174,8.37475475 7.82949079,8.28703197 7.82949079,7.98000224 C7.82949079,7.7387646 7.65404523,7.56331904 7.41280759,7.56331904 C7.19350064,7.56331904 7.01805508,7.7387646 7.01805508,7.95807155 C6.99612438,8.57213101 7.54439176,9.01074491 8.09265914,9.14232908 L8.09265914,9.58094298 C8.09265914,9.82218063 8.2681047,9.99762619 8.50934234,9.99762619 C8.72864929,9.99762619 8.90409485,9.82218063 8.90409485,9.60287368 L8.90409485,9.14232908 C9.54008501,9.01074491 10.0006296,8.55020031 10.0006296,7.98000224 C10.0006296,7.69490321 9.86904544,7.40980417 9.67166918,7.19049722 C9.38657015,6.90539818 8.96988694,6.75188332 8.53127304,6.75188332 C8.2681047,6.75188332 7.85142149,6.64222984 7.85142149,6.33520011 C7.85142149,6.13782385 8.13652053,5.9404476 8.53127304,5.9404476 C8.77251068,5.9404476 9.21112459,6.05010107 9.21112459,6.33520011 C9.21112459,6.55450706 9.38657015,6.75188332 9.6058771,6.75188332 C9.84711474,6.75188332 10.0225603,6.57643776 10.0225603,6.33520011 C10.0225603,5.69920995 9.47429293,5.32638814 8.94795624,5.17287327 L8.94795624,4.71232867 C8.94795624,4.49302172 8.77251068,4.29564547 8.53127304,4.29564547 C8.31196609,4.29564547 8.11458983,4.47109103 8.11458983,4.69039798 L8.11458983,5.15094258 C7.47859967,5.28252675 7.01805508,5.76500204 7.01805508,6.29133872 C7.01805508,6.59836845 7.12770855,6.86153679 7.3689462,7.08084374 C7.63211454,7.36594278 8.07072844,7.51945765 8.50934234,7.51945765 C8.75057999,7.51945765 9.1672632,7.65104182 9.1672632,7.93614085 C9.18919389,8.1554478 8.90409485,8.37475475 8.50934234,8.37475475 Z" id="Shape"></path>
        </g>
    </g>
</svg>