<svg id="info-person" xmlns="http://www.w3.org/2000/svg" width="20" height="17.67" viewBox="0 0 20 17.67"><defs><style>.cls-1{fill-rule:evenodd;}</style></defs><title>betaFEC_icons</title><path class="cls-1" d="M17,17.67v-3c0-.62-1-2.26-1-2.8a1.13,1.13,0,0,0-.73-1,25.77,25.77,0,0,0-2.61-.69l-0.1-.06c-0.22.42-1.2,2.58-1.2,2.58l-1.16-1.06s1.53-1.94,1.49-2.45a0.08,0.08,0,0,1,0-.09L11.64,9h0a1.87,1.87,0,0,0,.7-1.28s0-.1,0-0.18a4.43,4.43,0,0,1-1.18.62,0.42,0.42,0,1,1-.11-0.31A3.78,3.78,0,0,0,12.49,7,0.36,0.36,0,0,0,13.19,7,1.09,1.09,0,0,0,13.66,5s0,0,0,0a0.56,0.56,0,0,0,0-.09,3.71,3.71,0,0,0,.07-0.72,3.79,3.79,0,0,0-7.57,0,3.71,3.71,0,0,0,0,.53A0.55,0.55,0,0,0,6.12,5s0,0,0,0A1.09,1.09,0,0,0,6.6,7a0.37,0.37,0,0,0,.36.3,0.36,0.36,0,0,0,.24-0.09h0.2a5.18,5.18,0,0,1,.06.57A1.87,1.87,0,0,0,8.17,9l0,0,0,0.08s0.05,0,0,.09c0,0.51,1.49,2.45,1.49,2.45L8.54,12.72s-1-2.16-1.2-2.58l-0.1.06S5,10.77,4.63,11a1.13,1.13,0,0,0-.73,1c0,0.54-1,2.18-1,2.8v2.91M13.41,4.19q0,0.16,0,.32a0.55,0.55,0,0,0-.28-0.08,0.55,0.55,0,0,0-.28.08,7.57,7.57,0,0,0,.1-1.12,0.08,0.08,0,0,0,0-.06A4.08,4.08,0,0,0,12.63,2,3.44,3.44,0,0,1,13.41,4.19Zm-6.5,0A0.11,0.11,0,0,0,7,4.32L7,4.54a0.55,0.55,0,0,0-.32-0.1,0.56,0.56,0,0,0-.18,0q0-.14,0-0.28a3.44,3.44,0,0,1,.67-2,4.43,4.43,0,0,0-.26,1.19,1.19,1.19,0,0,0,0,.19A4.23,4.23,0,0,0,6.9,4.2Z"/></svg>