<svg id="info-circle-outline" xmlns="http://www.w3.org/2000/svg" width="20" height="20" viewBox="0 0 20 20"><title>betaFEC_icons</title><path d="M10,0A10,10,0,1,0,20,10,10,10,0,0,0,10,0Zm0,18.1a8,8,0,1,1,8-8A8,8,0,0,1,10,18.1Z"/><path d="M10.6,3.8A1.15,1.15,0,0,0,9.4,5a1,1,0,0,0,1.1,1.1,1.22,1.22,0,0,0,1.2-1.2A1,1,0,0,0,10.6,3.8Z"/><path d="M10,14.1a2.25,2.25,0,0,1,.1-0.7l0.7-4.2A7.38,7.38,0,0,0,11,8a0.53,0.53,0,0,0-.6-0.6,10.58,10.58,0,0,0-2.2.3l-0.1.5c0.7,0,1,.1,1,0.4S9,9.1,9,9.4L8.3,13.6a6,6,0,0,0-.2,1.2,0.65,0.65,0,0,0,.8.6,13,13,0,0,0,2.2-.3V14.6C10.1,14.6,10,14.5,10,14.1Z"/></svg>