<svg id="info-circle" xmlns="http://www.w3.org/2000/svg" width="20" height="20" viewBox="0 0 20 20"><title>betaFEC_icons</title><path d="M10,0A10,10,0,1,0,20,10,10,10,0,0,0,10,0Zm1.2,16.1a15.69,15.69,0,0,1-2.4.3q-0.9,0-.9-0.6a9.32,9.32,0,0,1,.2-1.4L8.9,9.7A3.08,3.08,0,0,0,9,8.8c0-.3-0.4-0.4-1.2-0.4l0.1-.5a14.22,14.22,0,0,1,2.5-.3,0.61,0.61,0,0,1,.7.6,11.48,11.48,0,0,1-.2,1.4l-0.8,4.8a2.25,2.25,0,0,0-.1.7c0,0.4.2,0.5,1.2,0.5v0.5h0Zm-0.5-10A1.15,1.15,0,0,1,9.5,4.9a1.35,1.35,0,0,1,1.3-1.4A1.22,1.22,0,0,1,12,4.7,1.42,1.42,0,0,1,10.7,6.1Z"/></svg>