<?xml version="1.0" encoding="UTF-8" standalone="no"?>
<svg width="20px" height="15px" viewBox="0 0 20 15" version="1.1" xmlns="http://www.w3.org/2000/svg" xmlns:xlink="http://www.w3.org/1999/xlink">
    <!-- Generator: Sketch 3.7.1 (28215) - http://www.bohemiancoding.com/sketch -->
    <title>list</title>
    <desc>Created with Sketch.</desc>
    <defs></defs>
    <g id="Page-1" stroke="none" stroke-width="1" fill="none" fill-rule="evenodd">
        <g id="list" fill="#000000">
            <path d="M4.28571429,1.42857143 C4.28571429,0.639593215 4.92119568,0 5.70796786,0 L18.5777464,0 C19.3632354,0 20,0.634092603 20,1.42857143 C20,2.21754964 19.3645186,2.85714286 18.5777464,2.85714286 L5.70796786,2.85714286 C4.9224789,2.85714286 4.28571429,2.22305025 4.28571429,1.42857143 Z M4.28571429,7.14285714 C4.28571429,6.35387893 4.92119568,5.71428571 5.70796786,5.71428571 L18.5777464,5.71428571 C19.3632354,5.71428571 20,6.34837832 20,7.14285714 C20,7.93183536 19.3645186,8.57142857 18.5777464,8.57142857 L5.70796786,8.57142857 C4.9224789,8.57142857 4.28571429,7.93733597 4.28571429,7.14285714 Z M4.28571429,12.8571429 C4.28571429,12.0681646 4.92119568,11.4285714 5.70796786,11.4285714 L18.5777464,11.4285714 C19.3632354,11.4285714 20,12.062664 20,12.8571429 C20,13.6461211 19.3645186,14.2857143 18.5777464,14.2857143 L5.70796786,14.2857143 C4.9224789,14.2857143 4.28571429,13.6516217 4.28571429,12.8571429 Z M1.42857143,2.85714286 C2.21754964,2.85714286 2.85714286,2.21754964 2.85714286,1.42857143 C2.85714286,0.639593215 2.21754964,0 1.42857143,0 C0.639593215,0 0,0.639593215 0,1.42857143 C0,2.21754964 0.639593215,2.85714286 1.42857143,2.85714286 Z M1.42857143,8.57142857 C2.21754964,8.57142857 2.85714286,7.93183536 2.85714286,7.14285714 C2.85714286,6.35387893 2.21754964,5.71428571 1.42857143,5.71428571 C0.639593215,5.71428571 0,6.35387893 0,7.14285714 C0,7.93183536 0.639593215,8.57142857 1.42857143,8.57142857 Z M1.42857143,14.2857143 C2.21754964,14.2857143 2.85714286,13.6461211 2.85714286,12.8571429 C2.85714286,12.0681646 2.21754964,11.4285714 1.42857143,11.4285714 C0.639593215,11.4285714 0,12.0681646 0,12.8571429 C0,13.6461211 0.639593215,14.2857143 1.42857143,14.2857143 Z"></path>
        </g>
    </g>
</svg>