<?xml version="1.0" encoding="UTF-8" standalone="no"?>
<svg width="21px" height="21px" viewBox="0 0 21 21" version="1.1" xmlns="http://www.w3.org/2000/svg" xmlns:xlink="http://www.w3.org/1999/xlink">
    <!-- Generator: Sketch 3.7.2 (28276) - http://www.bohemiancoding.com/sketch -->
    <title>magnifying-glass</title>
    <desc>Created with Sketch.</desc>
    <defs></defs>
    <g id="Page-1" stroke="none" stroke-width="1" fill="none" fill-rule="evenodd">
        <g id="magnifying-glass" fill="#000000">
            <path d="M19.652648,16.7808018 C20.0198787,17.1480326 20.2473249,17.6557249 20.2473249,18.2165557 C20.2473249,19.3382172 19.3382172,20.2473249 18.2165557,20.2473249 C17.6557249,20.2473249 17.1480326,20.0202172 16.7804634,19.652648 L12.2431692,15.1150154 C11.0341846,15.8291692 9.62889231,16.2461538 8.12307692,16.2461538 C3.63676923,16.2461538 0,12.6093846 0,8.12307692 C0,3.63710769 3.63676923,0 8.12307692,0 C12.6093846,0 16.2461538,3.63710769 16.2461538,8.12307692 C16.2461538,9.62889231 15.8291692,11.0341846 15.1150154,12.2431692 L19.652648,16.7808018 Z M8.12307692,2.03076923 C4.75843077,2.03076923 2.03076923,4.75843077 2.03076923,8.12307692 C2.03076923,11.4877231 4.75843077,14.2153846 8.12307692,14.2153846 C11.4877231,14.2153846 14.2153846,11.4877231 14.2153846,8.12307692 C14.2153846,4.75843077 11.4877231,2.03076923 8.12307692,2.03076923 L8.12307692,2.03076923 Z"></path>
        </g>
    </g>
</svg>