<svg id="mallet" xmlns="http://www.w3.org/2000/svg" width="20" height="20" viewBox="0 0 20 20"><defs><style>.cls-1{fill-rule:evenodd;}</style></defs><path class="cls-1" d="M11.64,12.88a0.62,0.62,0,0,0,.82.32l3.39-2A0.64,0.64,0,0,0,16,10.33,0.63,0.63,0,0,0,15.16,10l-3.39,2A0.64,0.64,0,0,0,11.64,12.88Z"/><path class="cls-1" d="M8.64,6.52l3.39-2a0.64,0.64,0,0,0,.14-0.88,0.62,0.62,0,0,0-.82-0.32L8,5.32a0.64,0.64,0,0,0-.14.88A0.62,0.62,0,0,0,8.64,6.52Z"/><path class="cls-1" d="M11.46,11.53l3.42-2L12.31,5,8.89,7,9.79,8.6,3.09,12.52A0.71,0.71,0,0,0,3,13.7a0.68,0.68,0,0,0,.72,0l6.72-3.94Z"/><path class="cls-1" d="M15.5,15.25H9.13a0.72,0.72,0,1,0,0,1.44H15.5A0.72,0.72,0,1,0,15.5,15.25Z"/></svg>