<?xml version="1.0" encoding="UTF-8"?>
<svg width="20px" height="20px" viewBox="0 0 20 20" version="1.1" xmlns="http://www.w3.org/2000/svg" xmlns:xlink="http://www.w3.org/1999/xlink">
    <title>map-pin</title>
    <g id="map-pin" stroke="none" stroke-width="1" fill="none" fill-rule="evenodd">
        <g transform="translate(3, 0)" fill="#000000" fill-rule="nonzero" id="Shape">
            <path d="M7.2356215,20 C7.2356215,20 0,11.641875 0,7.5 C0,3.35843749 3.23974953,0 7.2356215,0 C11.2314935,0 14.471243,3.35843749 14.471243,7.5 C14.471243,11.641875 7.2356215,20 7.2356215,20 L7.2356215,20 Z M7.2356215,3.48635894 C5.09720565,3.48635894 3.36343343,5.28348052 3.36343343,7.50003081 C3.36343343,9.71658112 5.09720565,11.5139535 7.2356215,11.5139535 C9.3740374,11.5139535 11.1078095,9.71658112 11.1078095,7.50003081 C11.1078095,5.28348052 9.3740374,3.48635894 7.2356215,3.48635894 L7.2356215,3.48635894 Z"></path>
        </g>
    </g>
</svg>
