<?xml version="1.0" encoding="UTF-8" standalone="no"?>
<svg width="20px" height="13px" viewBox="0 0 20 13" version="1.1" xmlns="http://www.w3.org/2000/svg" xmlns:xlink="http://www.w3.org/1999/xlink">
    <!-- Generator: Sketch 42 (36781) - http://www.bohemiancoding.com/sketch -->
    <title>map-us-states</title>
    <desc>Created with Sketch.</desc>
    <defs></defs>
    <g id="Flat-SVG-icons" stroke="none" stroke-width="1" fill="none" fill-rule="evenodd">
        <g id="map-us-states" fill="#000000">
            <g id="Group-2">
                <path d="M13.8587072,2.3803285 C13.9388916,2.40805194 13.840373,2.34780257 13.8587072,2.3803285 C13.8662176,2.38294804 13.859149,2.38120168 13.8587072,2.3803285" id="Fill-1"></path>
                <path d="M17.6558675,5.40305679 C17.6125724,5.40414826 17.5683937,5.39519818 17.5683937,5.39519818 C17.5683937,5.39519818 17.5334925,5.72067574 17.5542565,5.81650717 C17.6240588,5.71871109 17.6514496,5.52682995 17.6558675,5.40305679" id="Fill-2"></path>
                <path d="M18.1709913,4.00335044 C18.1371946,4.03849591 18.1292424,4.07778897 18.094783,4.11511739 C18.3019812,4.14174935 18.5401044,3.9588183 18.6384021,3.76540909 C18.5739012,3.79094959 18.4842184,3.87717604 18.4241353,3.88503465 C18.4444575,3.86582471 18.460141,3.84312205 18.4711857,3.81714496 C18.3614016,3.84595988 18.2485249,3.92236307 18.1709913,4.00335044" id="Fill-3"></path>
                <path d="M4.97061294,3.97606359 C4.95360414,4.09372449 4.93526997,4.2113854 4.91759848,4.3290463 C5.66598587,4.42989851 6.41437326,4.51394201 7.16739941,4.57266332 C7.19567379,4.15921294 7.22372727,3.74598086 7.25288522,3.33274877 C7.26150007,3.20919391 7.27033581,3.08563904 7.27895066,2.96208418 C7.28513568,2.87542114 7.105991,2.90707389 7.03508417,2.90183481 C6.80137878,2.88437122 6.56811518,2.85861244 6.33485158,2.83612807 C6.12743252,2.81604495 5.92045526,2.7887581 5.71347799,2.76452737 C5.59044027,2.75011991 5.17162608,2.62634675 5.15285013,2.74815526 C5.09011636,3.15723974 5.03113778,3.56676081 4.97061294,3.97606359" id="Fill-4"></path>
                <path d="M15.2149937,5.71543667 C15.2722051,5.80886685 15.3618879,5.874137 15.4559885,5.92740093 C15.6117185,6.01384568 15.7442546,5.8909457 15.8843011,5.84619526 C15.8785579,5.67963632 15.9731004,5.51329567 16.0243477,5.35743317 C16.0435654,5.29980334 16.096359,5.26007369 16.1582092,5.26007369 C16.2558441,5.26007369 16.3726968,5.10246483 16.3914728,4.98829664 C16.3271927,5.03566662 16.2911871,5.08936714 16.233313,5.14830674 C16.0974634,5.28757883 16.0155119,5.06208029 16.0102105,4.95970002 C15.9209695,4.97563554 15.8211256,5.01012612 15.7301174,5.0068517 C15.6724642,5.00466875 15.4721138,5.25265166 15.4290395,5.31530227 C15.3627715,5.41135199 15.3402403,5.44737064 15.311745,5.55782781 C15.2962825,5.617204 15.2240503,5.66806669 15.2149937,5.71543667 C15.2178653,5.72002086 15.2156563,5.71172566 15.2149937,5.71543667" id="Fill-5"></path>
                <path d="M11.8839187,3.51917254 C11.9382586,3.60714535 11.8808262,3.79575207 11.9773567,3.82740482 C12.0025386,3.83482684 12.0281622,3.84617818 12.0484844,3.86298688 C12.1587103,3.95423411 12.6972488,3.83788297 12.8560713,3.8241304 C12.8399461,3.69293522 12.7818511,3.58618905 12.825588,3.45019138 C12.8487818,3.37815409 12.8768353,3.14719818 12.8702085,3.07799872 C12.5636082,3.14392376 12.8057076,2.75535899 12.7833973,2.69991211 C12.7560065,2.63136753 12.7142576,2.58508903 12.7235352,2.50279189 C12.6769266,2.49296862 12.6382703,2.46218905 12.622145,2.41678373 C12.5638291,2.40586899 12.5112565,2.42398746 12.4494063,2.41198125 C12.2472887,2.37246989 12.0851528,2.31156563 11.9243423,2.20503776 C11.8468086,2.15373848 11.7686123,2.22402941 11.6952756,2.16508981 C11.6192883,2.10396726 11.7107382,2.09938307 11.5890258,2.14718964 C11.5459516,2.16421663 11.445445,2.15482996 11.4498629,2.20416458 C11.4589195,2.3045802 11.4567106,2.41350931 11.3654816,2.47812458 C11.3058403,2.52025547 11.2651959,2.51414322 11.3193148,2.58421586 C11.3950813,2.68201193 11.3195357,2.82695969 11.3336729,2.93981811 C11.3352191,2.95247921 11.5037609,3.02975557 11.5287219,3.05093017 C11.6069182,3.1170735 11.7085293,3.18518148 11.7800988,3.255909 C11.8554235,3.33012923 11.8346595,3.43949494 11.8839187,3.51917254" id="Fill-6"></path>
                <path d="M16.9121189,5.10180995 C16.8617552,5.10704902 16.6801807,5.07932558 16.6216439,5.0446167 C16.5946948,5.20091579 16.4634841,5.25352484 16.4259322,5.38908592 C16.4162128,5.4235765 16.3994249,5.45697561 16.3724759,5.48186122 C16.3605477,5.49277596 16.3466314,5.50216263 16.3318315,5.50892977 C16.2235937,5.56022906 16.2503218,5.46920012 16.1995163,5.59275498 C16.1688121,5.66741181 16.1169021,5.74556135 16.1202155,5.8278585 C16.1301557,6.06252542 15.7864453,6.18913641 15.5805725,6.18913641 C15.4087173,6.18869982 15.3079898,6.14394939 15.2158772,6.35700513 C15.9693452,6.25615292 16.7159654,6.12081014 17.4605976,5.96975013 C17.3245272,5.80493754 17.3824013,5.60388802 17.2469935,5.48011486 C17.1575316,5.47945997 16.9295695,5.44693405 16.8926803,5.35590511 C16.8712536,5.30329606 16.9101309,5.10159165 16.9121189,5.10180995 C16.8942265,5.1037746 16.9154323,5.10268312 16.9121189,5.10180995" id="Fill-7"></path>
                <path d="M4.76716997,4.54472158 C4.60591767,4.52311039 4.68588114,4.27949338 4.70046011,4.18213389 C4.72542109,4.01513836 4.68566024,4.05246677 4.51822292,4.02758117 C4.31522174,3.99745648 4.11222056,3.96471226 3.91010295,3.92847532 C3.78706524,4.60759049 3.66424841,5.28670565 3.5412107,5.96582082 C3.51978403,6.08413661 3.65143659,6.05335704 3.75636103,6.07103892 C3.92225209,6.09898066 4.08858495,6.12430285 4.25469691,6.15071653 C4.55224053,6.1983048 4.85133042,6.23650639 5.15019941,6.27514457 C5.20365565,5.85667341 5.25711189,5.43798396 5.31078902,5.0195128 C5.31454422,4.98938812 5.36932582,4.62570896 5.35452595,4.62352601 C5.15881425,4.59754893 4.96288166,4.57113525 4.76716997,4.54472158" id="Fill-8"></path>
                <path d="M10.7246693,8.38561883 C10.6484611,8.32667923 10.5176921,8.28236539 10.4308809,8.27123235 C10.2307513,8.24481868 10.0783348,8.43036927 9.91509443,8.29087888 C9.81613411,8.20661709 9.72424239,8.43669982 9.61578365,8.2858581 C9.53493661,8.26773963 9.53913359,8.28127391 9.44790454,8.28127391 C9.39665724,8.27974585 9.35292031,8.26009932 9.31669377,8.22233431 C9.2468914,8.15226168 9.23982281,8.20356096 9.15301164,8.17387286 C8.98756236,8.11733451 8.48282057,8.00927857 8.4956324,7.78334344 C8.50733976,7.57792802 8.51219942,7.37229431 8.52015158,7.16666059 C8.4408508,7.1664423 7.59902543,7.12387481 7.59880454,7.1282407 C7.57295999,7.48471614 7.55020795,7.84140986 7.51862018,8.19723041 C7.50293673,8.37361262 7.48924133,8.54955824 7.47753397,8.72615874 C7.47289521,8.79732285 7.48924133,8.91934965 7.46030428,8.98549298 C7.45058496,9.13131392 7.25973292,9.0898379 7.16563226,9.08372565 C6.83274567,9.06211446 6.49941728,9.03657397 6.16741426,9.00492122 C6.31430848,9.16296667 6.50736945,9.3382574 6.60765513,9.52882877 C6.73003016,9.76153105 6.73842411,9.94424381 6.96241019,10.1086198 C7.02801557,10.156863 7.09472543,10.2053244 7.16563226,10.2454906 C7.23079586,10.1273932 7.32997707,10.0136616 7.45124764,9.94904629 C7.6721412,9.83138539 7.94295671,9.91542889 8.11922977,10.0699816 C8.41633161,10.3304073 8.52081427,10.7571737 8.78434028,11.0337532 C8.8490621,11.1018612 8.83823831,11.1762997 8.84243529,11.2618713 C8.84707406,11.3561747 8.95133582,11.5308105 9.01274423,11.6059039 C9.05206328,11.6541471 9.14903556,11.6294798 9.20006197,11.6469434 C9.30012675,11.6812156 9.39422741,11.7041366 9.49296683,11.7344796 C9.38252005,11.3061852 9.48678181,10.8955726 9.89057524,10.6628703 C9.90537511,10.558962 10.0191353,10.5172677 10.1123524,10.5172677 C10.2292051,10.5172677 10.3138073,10.4445755 10.4076871,10.3699187 C10.5035549,10.2937338 10.5601036,9.87329799 10.758466,10.0907196 C11.0502664,9.99663456 10.9574911,9.89512747 11.0098429,9.65696783 C11.0394427,9.52227993 11.0708095,9.47949415 11.0025534,9.34218671 C10.9689776,9.25159436 10.8753187,9.15270681 10.8514622,9.06757183 C10.8227461,8.96562815 10.8406385,8.82941219 10.837325,8.72594045 C10.8346743,8.64233353 10.8320236,8.55872662 10.8293729,8.47490141 C10.8269431,8.37950658 10.7997731,8.44521332 10.7246693,8.38561883" id="Fill-9"></path>
                <path d="M14.5611487,7.20180606 C14.6090826,7.05445706 14.7407352,6.95251338 14.8757011,6.89444696 C14.9667093,6.85537219 15.0294431,6.76390666 15.0952693,6.69732674 C15.1385645,6.65366778 15.2695544,6.60957223 15.332509,6.57726459 C14.755535,6.65475925 14.1783402,6.72723313 13.5982737,6.77722264 C13.4575645,6.78944715 13.3429207,6.77744094 13.2419724,6.85930149 C13.199119,6.89401037 13.124457,6.88964447 13.0732097,6.89401037 C13.0363205,6.8970665 12.7215471,6.90361534 12.7162457,6.92937413 C12.6828908,7.09287694 12.5784081,7.25201386 12.5565396,7.41398862 C12.8693249,7.39019448 13.1812266,7.36116127 13.4933492,7.32929023 C13.5680113,7.3218682 14.5353042,7.28082878 14.5611487,7.20180606" id="Fill-10"></path>
                <path d="M7.46803555,3.64512865 C7.84267103,3.6724155 8.21752741,3.69140715 8.59282557,3.70450484 C8.80289534,3.71192686 9.01274423,3.71651106 9.2230349,3.71978548 C9.30498641,3.72109525 9.35446657,3.76912011 9.41764213,3.81168759 C9.54067984,3.73375635 9.70082767,3.81649008 9.81768037,3.84399523 C9.83866526,3.74532597 9.75671374,3.6136942 9.82320271,3.53205194 C9.87268286,3.47114768 9.84816368,3.37553456 9.84772189,3.29629354 C9.84661742,3.14392376 9.84551296,2.99155398 9.84462938,2.8391842 C9.8439667,2.74815526 9.67476223,2.70384141 9.71275593,2.57286452 C9.15323253,2.57024499 8.59393003,2.55758389 8.03506932,2.52724091 C7.88684974,2.519164 7.73885106,2.50824926 7.59085237,2.49886258 C7.51839928,2.49427839 7.55396315,2.77500552 7.53319915,2.84573304 C7.46162964,3.09000494 7.48592793,3.3903786 7.46803555,3.64512865" id="Fill-11"></path>
                <path d="M15.2112385,7.34347939 C15.2138892,7.33955008 15.8516089,7.91301056 15.961393,8.00731392 C16.1442929,8.16448619 16.0625623,8.2649018 16.3353658,8.13981887 C16.6004381,8.01822866 16.6152379,7.76893598 16.7482159,7.55609854 C16.8162511,7.44716943 16.5562594,7.33845861 16.4592871,7.27013233 C16.3587805,7.19918652 16.1714628,7.33147318 16.0554937,7.31095346 C15.92605,7.33081829 15.9567542,7.18696201 15.8463075,7.18696201 C15.7316637,7.18696201 15.6165782,7.19765846 15.5025971,7.20944638 C15.4460483,7.21795987 15.251662,7.28541297 15.2112385,7.34347939" id="Fill-12"></path>
                <path d="M15.9229575,4.68115584 C16.1964238,4.6322578 16.4705527,4.58466953 16.7422517,4.5270397 C17.03847,4.46438909 17.356115,4.44583403 17.559337,4.23037705 C17.4760602,4.16598008 17.3640671,4.05726926 17.412001,3.93939006 C17.3640671,3.87804922 17.4579469,3.72240502 17.4480067,3.71629276 C17.391237,3.68136559 17.3779834,3.62329917 17.3322584,3.57811214 C17.2288803,3.47616847 16.6134708,3.69097056 16.4696691,3.71913059 C16.3282972,3.74663574 15.8299613,3.92716555 15.7137713,3.80492046 C15.6797537,3.76912011 15.7243742,4.15528363 15.7285712,4.17929606 C15.7588336,4.35284044 15.789096,4.52616652 15.8195793,4.6994926 C15.8509462,4.69403523 15.8946831,4.6955633 15.9229575,4.68115584" id="Fill-13"></path>
                <path d="M3.16812147,1.91645202 C3.08175209,1.80184724 2.91298941,1.81385346 2.77250111,1.78110923 C2.39919099,1.69444619 2.0417852,1.77477868 1.66913776,1.65362506 C1.50722278,1.60101601 1.32741542,1.72042328 1.21785222,1.51653592 C1.18979873,1.46436346 1.22337456,1.31897911 1.17544065,1.29212885 C1.05505366,1.24628694 1.05461188,1.23733685 1.01838533,1.37311623 C0.903520679,1.80468507 0.725480468,2.23931005 0.464384278,2.59796843 C0.478300572,2.65625314 0.411369823,2.88764565 0.441632241,2.89594085 C0.574389272,2.93217779 0.707146302,2.96863302 0.839903333,3.00486996 C1.04997311,3.0622815 1.26004289,3.11751009 1.47121713,3.17055573 C1.87788218,3.2727177 2.28587259,3.36833083 2.69629283,3.45499387 C2.74643567,3.21661593 2.7967994,2.97845629 2.84694224,2.74007835 C2.86660176,2.64642988 2.90945511,2.67699115 2.86262568,2.5905464 C2.8001128,2.47572333 2.86240479,2.36439298 2.94590255,2.28187754 C3.01305419,2.21529762 3.22533291,1.99241861 3.16812147,1.91645202" id="Fill-14"></path>
                <path d="M7.59747918,6.88178586 C7.85592464,6.91496667 8.12276407,6.89488355 8.38275579,6.91911427 C8.46426551,6.92675459 8.76247182,6.90776294 8.75915842,7.00272119 C8.75319429,7.17997658 8.74723017,7.35723196 8.74148693,7.53470565 C8.739278,7.59801114 8.73728996,7.66131664 8.73508102,7.72462214 C8.73198851,7.81521448 8.83779653,7.75518341 8.88042898,7.76151396 C8.99882793,7.77919584 8.99418917,7.90253241 9.12274922,7.9156301 C9.20138733,7.92348871 9.3635232,7.90209582 9.42603608,7.94859262 C9.52367104,8.02128479 9.40748102,8.00600415 9.52389193,8.00600415 C9.56365277,8.00600415 9.59214804,8.02041161 9.62218956,8.04267768 C9.7101052,8.06516205 9.75936447,8.02128479 9.84573385,8.02128479 C9.92503464,8.02128479 9.99461611,8.05053629 10.0535947,8.10030751 C10.1229553,8.06145103 10.2018143,8.0418045 10.2808942,8.03481907 C10.4174064,8.02281285 10.5311666,8.01146152 10.6493446,8.08480858 C10.6480193,7.88812495 10.6466939,7.69165962 10.6453685,7.49497599 C10.6438223,7.27711777 10.5667304,7.07039258 10.5612081,6.85406242 C10.5583365,6.73771128 10.3034253,6.80188996 10.2009307,6.80188996 L9.53626197,6.80188996 C9.1748801,6.80188996 8.81371913,6.77591287 8.45277905,6.75823099 C8.2932939,6.75037238 8.13380875,6.74426013 7.97454449,6.7370564 C7.87160809,6.73247221 7.76845079,6.72810631 7.66551439,6.72352212 C7.58908522,6.7200294 7.60852386,6.816734 7.59747918,6.88178586" id="Fill-15"></path>
                <path d="M14.3294314,5.28386782 C14.5015075,5.29980334 14.5249222,5.44344133 14.7129026,5.42466798 C14.8637729,5.40960563 14.9543393,5.36420031 15.0886425,5.46636229 C15.106314,5.32032305 15.2149937,5.17166429 15.3031302,5.05160214 C15.3846399,4.94049008 15.4705675,5.00183092 15.5037015,4.83549027 C15.523582,4.73616613 15.5149671,4.62832849 15.5081194,4.52813117 C15.4966329,4.35829781 15.4928778,4.20068895 15.4615109,4.02037744 C15.278611,4.13367245 15.0811322,4.36833937 14.8335105,4.31573032 C14.6294048,4.27228965 14.5193998,4.23474294 14.3139688,4.26814205 C14.2234025,4.2829861 14.2070563,4.26333956 14.2174383,4.34869284 C14.2322382,4.472466 14.2470381,4.59623916 14.2618379,4.72001232 C14.28459,4.90796415 14.3069002,5.09591599 14.3294314,5.28386782" id="Fill-16"></path>
                <path d="M17.7755918,3.64403718 C17.820875,3.50651144 17.9028265,3.61696862 17.8723432,3.4493182 C17.8637284,3.40216652 17.8557762,3.35872586 17.8407554,3.31419371 C17.8056334,3.2096305 17.8551135,3.08214633 17.8425226,2.97430869 C17.8325824,2.8896103 17.8091676,2.73003679 17.746213,2.68354 C17.6401841,2.60495386 17.5997606,2.20263652 17.5805428,2.07384258 C17.4802571,2.09894648 17.3764372,2.13649319 17.2739425,2.14959088 C17.0963441,2.17251184 17.0645355,2.39560914 16.9766198,2.51261516 C16.8979817,2.61696008 16.9883272,2.64031762 16.9808168,2.75710535 C16.9717602,2.8979055 16.8533612,3.04263496 16.7259056,3.09917332 C16.532182,3.18649125 16.3176943,3.11336248 16.1215408,3.18321682 C16.2308831,3.35763438 16.0881859,3.50913098 15.9753093,3.63181267 C16.3139391,3.57549261 16.6512436,3.50258214 16.98656,3.43010826 C17.2014895,3.38361146 17.3614164,3.2978216 17.5286328,3.48642832 C17.6072709,3.57505602 17.6518914,3.61456738 17.7755918,3.64403718" id="Fill-17"></path>
                <path d="M3.04243304,6.38189074 C3.10605038,6.35242094 3.17717811,6.35635024 3.23416865,6.3958616 C3.30905157,6.12299309 3.32937377,5.80777537 3.3799584,5.52923119 C3.45815472,5.09678916 3.53657194,4.66434714 3.61476826,4.23190511 C3.63464868,4.12166623 3.65474999,4.01142735 3.67463041,3.90118847 C3.68125722,3.86473323 3.37509874,3.83155242 3.32407233,3.82172916 C3.01658849,3.76278956 2.71020912,3.69686452 2.40405064,3.63203096 C2.26643396,3.60299775 2.12970084,3.56959865 1.99274683,3.5377276 C1.80388284,3.49385035 1.84320189,3.53641783 1.7981396,3.71956718 C1.71729256,4.04919235 1.6368873,4.37881752 1.55361043,4.70778781 C1.54190307,4.75406631 1.65941845,4.87565652 1.68437942,4.91167516 C1.80896339,5.0911135 1.93332646,5.27033354 2.05791043,5.44977188 C2.24809979,5.72373187 2.43828915,5.99769186 2.6284785,6.27165185 C2.73008954,6.41812767 2.83015433,6.56569497 2.93088179,6.71260738 C2.93375341,6.59189035 2.90503724,6.44606941 3.04243304,6.38189074 C3.07070741,6.36901134 2.91431477,6.44170351 3.04243304,6.38189074" id="Fill-18"></path>
                <path d="M5.79918469,8.80714612 C5.87053331,8.6691838 6.15062635,8.76981771 6.26659547,8.77942268 C6.58843739,8.80583635 6.91005841,8.8331232 7.23234212,8.85386121 C7.27276564,8.24503697 7.32114133,7.63730421 7.35913502,7.02826168 C7.363332,6.96102688 7.35140375,6.86694181 7.38166617,6.80298143 C7.44550441,6.66763865 7.18131571,6.71260738 7.09119113,6.70605853 C6.80182057,6.68532053 6.51245,6.65999833 6.22374212,6.63140171 C6.09407759,6.61852231 5.96419218,6.60738928 5.83496945,6.59232694 C5.75257615,6.58272196 5.41659704,6.49103814 5.35540952,6.53644346 C5.32978587,6.55543511 5.33133213,6.7243953 5.32757694,6.75408339 C5.3048249,6.93112049 5.28229376,7.10793929 5.25954172,7.28475809 C5.2054228,7.70737685 5.15130387,8.12999561 5.09718495,8.55261437 C5.08128061,8.67616923 5.06559717,8.7995058 5.04969283,8.92306067 C5.03820637,9.01299813 5.22530322,8.99859067 5.29863988,9.01256154 C5.30217418,8.62399677 5.71060637,8.97828925 5.79918469,8.80714612" id="Fill-19"></path>
                <path d="M9.43200021,4.06163516 C9.33414436,4.06163516 9.29062833,3.97715506 9.21132754,3.95357922 C9.12805067,3.92869361 9.00435027,3.9505231 8.91731821,3.94921333 C8.73994068,3.94659379 8.56234226,3.9376437 8.38518562,3.93131315 C8.07394659,3.92039841 7.76270756,3.90118847 7.45213121,3.87848581 C7.44086564,4.0428618 7.42960007,4.2072378 7.41855539,4.37161379 C7.40375552,4.58990861 7.3704006,4.58794395 7.59637471,4.60409777 C7.72626012,4.61326615 7.91777484,4.57899387 8.03683647,4.63465904 C8.16539652,4.69490841 8.09117629,4.99615526 8.08565395,5.1037746 C8.77793437,5.13870177 9.47087747,5.1500531 10.1638206,5.14328596 C10.059117,4.9856771 10.1079345,4.80230946 10.0560245,4.63444075 C9.9022826,4.56807913 9.97606105,4.23277829 9.83844436,4.13214438 C9.69839784,4.0302007 9.59524055,4.00968099 9.43200021,4.06163516" id="Fill-20"></path>
                <path d="M8.70305145,2.32269867 C9.07061834,2.33143046 9.43774344,2.33776101 9.80531033,2.33950737 C9.78984778,2.2583017 9.74522728,2.18801077 9.73175277,2.1024392 C9.72799758,1.94439376 9.73462439,1.73876004 9.67387866,1.59359399 C9.62417761,1.47462332 9.58839285,1.31483151 9.6279328,1.18756563 C9.65046394,1.11400028 9.47949232,1.14412497 9.44768365,1.14412497 C9.12230743,1.14412497 8.79604764,1.1299358 8.47089232,1.11596494 C8.31449968,1.1091978 8.15788614,1.10505019 8.0014935,1.09500863 C7.87072451,1.08671343 7.66617707,0.996557672 7.65535329,1.15198358 C7.62928785,1.52264817 7.60322241,1.89309447 7.57715697,2.26354077 C7.95223424,2.2877715 8.32731151,2.30610826 8.70305145,2.32269867" id="Fill-21"></path>
                <path d="M15.643969,6.56918769 C15.5860948,6.69754504 15.4782988,6.75844929 15.3660849,6.83485247 C15.2984914,6.88069439 15.2653574,6.86934305 15.2052743,6.93199367 C15.1215557,7.01952989 14.9088352,7.08239879 14.8659818,7.16971672 C15.0826784,7.13959203 15.2680081,6.99901017 15.4743227,6.9769624 C15.6247512,6.96168176 15.8167077,6.92151552 15.9653691,6.964083 C16.0073389,6.97587092 16.0943709,7.06777304 16.1202155,7.06362544 C16.1928895,7.05227411 16.2655634,7.04092278 16.3382374,7.02957145 C16.5273223,6.99988335 16.5732682,7.06297056 16.733416,7.17604727 C16.874567,7.2755897 16.9275814,7.3559222 17.0934725,7.31903037 C17.10275,7.21010126 17.1606241,7.1199455 17.233519,7.04201425 C17.2823365,6.98984179 17.3371181,6.94225352 17.3960967,6.90143239 C17.3592075,6.84489404 17.378867,6.77111039 17.4340904,6.73814787 C17.3198884,6.71981111 17.2306474,6.56242055 17.370473,6.50260777 C17.4592722,6.46462447 17.6854673,6.57093404 17.729646,6.44410476 C17.6315692,6.44847065 17.1639376,6.47095502 17.3450703,6.2317039 C17.0437715,6.29282645 16.7426935,6.34936481 16.4400694,6.40284704 C16.289199,6.42991559 15.69367,6.4589488 15.643969,6.56918769" id="Fill-22"></path>
                <path d="M4.81134868,2.61455883 C4.86259599,2.54666915 4.92599244,2.58770857 4.95095341,2.51872741 C4.95691754,2.502137 4.96707864,2.48707466 4.97966958,2.47485015 C5.00529323,2.44996454 5.04262424,2.43730345 5.078409,2.44210593 C5.29841899,2.47834287 5.52152148,2.5067212 5.74307773,2.53269828 C6.26460742,2.59360253 6.78591623,2.64904941 7.30987576,2.68790589 C7.34742766,2.14828111 7.38564225,1.60865633 7.42341505,1.06903155 C7.42407773,1.05964487 5.99953515,0.912950759 5.84711859,0.894832289 C5.30747562,0.830217024 4.77202963,0.737005138 4.23614185,0.64684938 C4.11663843,0.626766257 3.99779769,0.600789174 3.87873606,0.577649924 C3.8568676,0.573284028 3.79545919,0.890902982 3.81644408,0.944166917 C3.85421688,1.03956175 3.86548245,1.14958234 3.92777443,1.22816847 C3.99139178,1.30850096 4.04528981,1.38970663 4.09057299,1.48095386 C4.11288324,1.5259226 4.19593922,1.50583947 4.22333002,1.57176451 C4.2686132,1.68091191 4.13762332,1.87715895 4.10669822,1.98346853 C4.29357417,1.87737725 4.33974093,2.23363438 4.35233186,2.33405 C4.3682362,2.4604427 4.4881814,2.46590007 4.4881814,2.59447571 C4.5944312,2.57854019 4.70708692,2.59578548 4.81134868,2.61455883 C4.83542608,2.58268779 4.71503909,2.59731354 4.81134868,2.61455883" id="Fill-23"></path>
                <path d="M12.4392452,7.65760563 C12.3734189,7.79273012 12.3009658,7.93789617 12.250823,8.07760485 C12.1955996,8.23084781 12.1883101,8.35243802 12.2068651,8.52554581 C12.2128293,8.58164758 12.2287336,8.62159553 12.2576707,8.67093016 C12.4019141,8.91651182 12.1518626,9.11319545 12.0955348,9.33913058 C12.2707034,9.32734266 12.5585277,9.24722846 12.7241979,9.29699968 C12.846352,9.28979595 12.8724174,9.42753998 12.831773,9.51463961 C12.755123,9.68076197 13.0765231,9.54323623 13.1624507,9.55589733 C13.0732097,8.89861165 13.093311,8.26686645 13.1059019,7.60303193 C12.8841248,7.62398823 12.661685,7.64057863 12.4392452,7.65760563" id="Fill-24"></path>
                <path d="M10.0456425,2.46349882 C10.0458634,2.52069206 10.023995,2.57963166 9.98003713,2.61805155 C10.1890024,2.73440269 10.0845198,3.28734345 10.0858452,3.4875198 C10.5985391,3.48337219 11.1112331,3.46743667 11.6232643,3.43840346 C11.5958735,3.36920401 11.4675344,3.34540987 11.4220303,3.27468235 C11.3378699,3.14501523 11.1463551,3.17819604 11.1063734,3.00945415 C11.0875975,2.92999484 11.0820751,2.84267691 11.0937825,2.76234442 C11.1116749,2.63966274 10.9760462,2.57504747 11.0734603,2.44232423 C11.1828026,2.29104592 11.2053337,2.32488162 11.2101934,2.1402042 C11.211077,2.08737686 11.2249932,2.03454951 11.2561392,1.99110885 C11.2883897,1.94614011 11.3394161,1.90226286 11.3805023,1.86799057 C11.5205488,1.75011137 11.6084645,1.5887915 11.76309,1.48684782 C11.6672222,1.45781461 11.6000705,1.5634693 11.4814507,1.52199329 C11.4370511,1.50649436 11.4041379,1.4835734 11.3729919,1.45082918 C11.3296968,1.43161924 11.3051776,1.47025742 11.2539303,1.45584996 C11.1518775,1.42725334 11.1081406,1.29256544 11.0016699,1.29256544 C10.914196,1.29256544 10.856101,1.39407253 10.7525019,1.32989385 C10.6813742,1.28558001 10.6087002,1.28558001 10.5249816,1.26680665 C10.403711,1.2397381 10.4434718,1.13626635 10.3188879,1.13932248 C10.1666922,1.1428152 10.0147174,1.14412497 9.86252176,1.14412497 C9.88085593,1.23995639 9.83424738,1.33753417 9.86627695,1.43642172 C9.93828825,1.65886414 9.96302833,1.87672236 9.96877156,2.11248076 C9.97120139,2.22337453 10.0447589,2.33885248 10.0456425,2.46349882" id="Fill-25"></path>
                <path d="M12.5459367,6.73880276 C12.5594113,6.70955125 12.5815006,6.68401076 12.6095541,6.66763865 C12.4717165,6.59036228 12.4968984,6.40655805 12.4350482,6.28736908 C12.1993548,6.35089287 12.078526,5.97957339 12.1582685,5.81803523 C11.9576972,5.85230752 12.0146877,5.62724556 11.902032,5.55215215 C11.8070478,5.48862836 11.7290724,5.40523974 11.6806967,5.30220458 C11.5901303,5.10901367 11.7083084,5.03282878 11.4397018,5.05553144 C11.1079197,5.09264156 10.7666391,5.09504281 10.432648,5.09242327 C10.490743,5.18672663 10.4858834,5.14830674 10.5885989,5.21575984 C10.7266574,5.30635219 10.6042823,5.42510457 10.6625982,5.5287946 C10.7096486,5.61283811 10.7692898,5.62047842 10.7719406,5.73399173 C10.7801136,6.08653785 10.7885076,6.43930227 10.7966806,6.7918484 C11.1264747,6.78420808 11.4562688,6.77242016 11.7854002,6.75168215 C11.9722762,6.73989423 12.3619324,6.61262835 12.4953521,6.81302299 C12.5044088,6.78093366 12.5333458,6.76608961 12.5459367,6.73880276" id="Fill-26"></path>
                <path d="M12.0557739,8.79383014 C11.9411302,8.64779091 12.0323592,8.62617972 11.8452624,8.63622128 C11.7312813,8.64233353 11.6175211,8.64844579 11.50354,8.65455804 C11.4341795,8.65826906 11.0727976,8.65957883 11.0734603,8.6816266 C11.0763319,8.77811291 11.0794244,8.87459922 11.082296,8.97086723 C11.0847258,9.05403755 11.21925,9.23631372 11.2570228,9.32843414 C11.3206402,9.48386004 11.2241097,9.58427566 11.2404558,9.72289286 C11.2488498,9.79689481 11.2526049,9.87504435 11.2378051,9.9486097 C11.3884545,9.9276534 11.5353487,10.0258861 11.6848936,10.035491 C11.7374663,9.88857863 11.9292019,9.92154115 12.0350099,9.98069904 C12.12403,10.0304703 12.2722496,10.0937758 12.3175328,10.186551 C12.4162722,10.2271539 12.4885044,10.0027468 12.5715604,9.98419176 C12.4363735,9.97633314 12.3086971,9.84426478 12.3866725,9.71066835 C12.4533823,9.59650017 12.5629456,9.65609465 12.5799544,9.54127158 C12.4036813,9.5530595 12.128227,9.62902609 11.9599061,9.58274759 C11.5985243,9.60523196 12.1019407,8.90363243 12.0557739,8.79383014 C12.0180011,8.74558698 12.0610754,8.80670953 12.0557739,8.79383014" id="Fill-27"></path>
                <path d="M14.3429059,5.57638287 C14.3203747,5.64339938 14.2565365,5.7056134 14.1838625,5.71696473 C14.1131766,5.72787947 14.0716486,5.83593541 14.0226102,5.90098726 C13.9832912,5.95337802 14.0027298,6.01209932 13.950378,6.05859612 C13.869531,6.1306334 13.7957525,6.07540482 13.7230785,6.1391469 C13.6760282,6.18040462 13.4717017,6.22537335 13.4131649,6.21402202 C13.3263537,6.19721332 13.3038226,6.21227566 13.2207666,6.2445833 C13.2039787,6.25113214 13.116063,6.49889676 13.109878,6.52116283 C13.0778484,6.63227489 12.9561361,6.63838714 12.8684413,6.59909408 C12.8708712,6.62441627 12.8688831,6.65192142 12.8644653,6.67702532 C13.064153,6.66021662 13.1653223,6.57791948 13.3771592,6.56111078 C13.7409709,6.53207757 14.1041199,6.49649551 14.4663854,6.45370973 C14.639345,6.43319002 14.8898383,6.44083033 14.9971926,6.26619448 C15.0376161,6.15464583 15.1127199,6.114043 15.1920207,6.03720322 C15.1023379,5.96451105 14.952793,5.82261942 14.975545,5.69535354 C14.9903449,5.61152834 14.8529491,5.66915817 14.828209,5.66915817 C14.7621619,5.66915817 14.6963356,5.66282762 14.628963,5.66282762 C14.5379549,5.66282762 14.3521834,5.54844114 14.3429059,5.57638287" id="Fill-28"></path>
                <path d="M9.78167472,5.38100901 C9.21221111,5.38100901 8.64230572,5.36616497 8.0735048,5.33756834 C8.05384528,5.73399173 8.03440664,6.1306334 8.01474712,6.52705679 C8.86121124,6.56373032 9.70723359,6.57748289 10.5545813,6.56154737 C10.5495007,6.33997813 10.6332194,5.85994783 10.4883132,5.69033276 C10.4366241,5.6298651 10.3712396,5.55084238 10.357986,5.47334772 C10.3405354,5.37184063 10.387144,5.37511505 10.2873001,5.37620653 C10.1187583,5.37773459 9.9502165,5.37948095 9.78167472,5.38100901" id="Fill-29"></path>
                <path d="M13.3488848,5.95752562 C13.4273021,5.95752562 13.4904776,5.92390822 13.5669068,5.92849241 C13.6380345,5.79227644 13.7526783,5.87151746 13.8284448,5.76739083 C13.9008979,5.6678484 13.9435303,5.4574122 14.1025737,5.48710029 C14.0674516,5.37009427 14.0815888,5.20288044 14.066568,5.07823411 C14.0349802,4.81562544 14.0033925,4.55279849 13.9718047,4.29018983 C13.8012749,4.31049124 13.6311868,4.33275732 13.4602152,4.34869284 C13.186749,4.37423333 13.2658289,4.54319352 13.2850466,4.74664428 C13.304927,4.95555242 13.3245866,5.16446056 13.344467,5.37336869 C13.3636847,5.57681946 13.3886457,5.78310806 13.2519126,5.9749892 C13.2835004,5.96494764 13.3157508,5.95927198 13.3488848,5.95752562" id="Fill-30"></path>
                <path d="M12.2826316,4.13432733 C12.3442609,4.25373459 12.2967688,4.3964994 12.2145964,4.49385889 C12.1653371,4.5521436 12.0988482,4.60104164 12.0230817,4.61828693 C12.0564366,4.66827644 12.0624007,4.73267341 12.0385442,4.78768371 C11.9596852,4.97519895 11.7741346,5.15900319 11.993482,5.32970973 C12.0849319,5.40087384 12.1659998,5.45064506 12.1880892,5.57201698 C12.3720935,5.54298376 12.4551495,5.71980256 12.39595,5.86867963 C12.3416102,6.00511389 12.3838009,6.0127542 12.524731,6.06536325 C12.6504194,6.11229664 12.6786938,6.26161029 12.7007831,6.3751236 C12.7708064,6.32709874 12.8311103,6.37206747 12.8766144,6.30657902 C12.9371392,6.21991598 12.9603331,6.2570261 12.9919209,6.15813855 C13.0038491,6.14635063 12.9976641,6.00183946 13.002082,5.97346114 C13.0197534,5.85798318 13.1847609,5.72089404 13.1235734,5.60410631 C13.0659202,5.49430402 13.099496,5.29478256 13.0866842,5.15987637 C13.0603979,4.88264195 13.0966244,4.4977882 12.9651927,4.24871381 C12.9316169,4.18519002 12.929408,4.05246677 12.8520952,4.05923391 C12.7697019,4.06643764 12.6875295,4.07342308 12.6053571,4.08062681 C12.4915969,4.09045007 12.3771741,4.09503426 12.263193,4.10158311 C12.2704825,4.11206126 12.2768884,4.122976 12.2826316,4.13432733" id="Fill-31"></path>
                <path d="M3.63288153,0.888283445 C3.6509948,0.799437455 3.66910807,0.710809761 3.68722135,0.621963771 C3.70864802,0.516745671 3.66336484,0.539011742 3.56042844,0.513471249 C3.5069722,0.759707799 3.45373685,1.00572605 3.40028061,1.2519626 C3.37001819,1.39167129 3.27061609,1.66825082 3.3695764,1.79180568 C3.50122897,1.95661826 3.38172555,2.06074489 3.29800689,2.21311467 C3.26995341,2.26397736 3.09257588,2.46131587 3.11289808,2.48467342 C3.18844368,2.57133646 3.1327785,2.72676237 3.07402082,2.80862292 C3.00664828,3.0325934 2.97594408,3.27359088 2.92756839,3.50258214 C3.53370032,3.62548212 4.1415994,3.73528441 4.75347457,3.82587676 C4.80096668,3.50476509 4.84867969,3.18365341 4.89617181,2.86254174 C4.8654676,2.86690764 4.83189178,2.85621119 4.80295473,2.85053553 C4.72608377,2.83590978 4.64744566,2.8223755 4.56880755,2.8223755 C4.48000834,2.8223755 4.41639099,2.92650212 4.33267233,2.83831102 C4.29357417,2.79727159 4.26220729,2.74597231 4.24939546,2.69052543 C4.23128219,2.61150271 4.16722306,2.60167944 4.14491281,2.52091036 C4.12503238,2.44865478 4.11995183,2.37334306 4.10912805,2.29955942 C4.09211924,2.18451805 3.96355919,2.28493366 3.88867627,2.17709603 C3.79678455,2.04459107 3.9048015,1.83480976 3.95450255,1.70754388 C3.9631174,1.68549611 3.82505893,1.48204534 3.79545919,1.44187909 C3.63089349,1.21790861 3.62735919,1.14958234 3.63288153,0.888283445" id="Fill-32"></path>
                <path d="M11.4158453,3.68442172 C10.9678731,3.70275848 10.5203428,3.71782082 10.0721498,3.72153184 C10.0915884,3.81081442 10.0332725,3.87935899 10.0588961,3.96427567 C10.1518923,4.27359942 10.270954,4.53926421 10.3058551,4.85797464 C10.3425235,4.89683112 10.5989809,4.86081247 10.6709922,4.85906611 C10.8198745,4.8555734 10.9674314,4.84880626 11.1160927,4.84029276 C11.2448737,4.83287073 11.6555148,4.72699775 11.7529289,4.83570857 C11.8203014,4.70713292 11.6974846,4.5733182 11.8119074,4.45653048 C11.9451063,4.3207511 12.2035517,4.34498183 11.9543838,4.13345415 C11.8030717,4.0048785 11.6749534,3.89704087 11.6935085,3.66870449 C11.6009541,3.67394357 11.5083997,3.67918264 11.4158453,3.68442172" id="Fill-33"></path>
                <path d="M14.6826402,7.4314522 C14.5618114,7.44673284 14.4409826,7.46157689 14.3203747,7.47685752 C14.3963621,7.73073439 14.4725704,7.98461126 14.5485578,8.23848813 C14.5858888,8.36313447 14.6846282,8.46027566 14.7155533,8.58339393 C14.7374218,8.67005698 14.674688,8.74384062 14.6632015,8.82766583 C14.6855118,8.89795676 14.7014161,8.96584645 14.7122399,9.03810203 C14.7332248,9.17955707 14.7599529,9.22605387 14.9097188,9.21557572 C15.1882655,9.19571089 15.4668123,9.17584606 15.7451382,9.15619953 C15.772529,9.15423487 15.8383553,9.03308125 15.9275963,9.02915195 C15.9651482,9.02740559 16.0157328,8.72965146 16.0241268,8.694506 C16.0616787,8.53820691 16.0634458,8.59125255 15.996736,8.47926731 C15.9428379,8.38889326 15.8944623,8.27407018 15.8211256,8.19832188 C15.6534674,8.02630557 15.4438394,7.89663845 15.2759603,7.72702338 C15.1959968,7.6462543 15.1957759,7.61940404 15.0992454,7.57399871 C15.0343027,7.54343744 14.9640586,7.48908203 14.9470498,7.41595327 C14.9360051,7.36749182 14.7336666,7.42424847 14.6826402,7.4314522" id="Fill-34"></path>
                <path d="M17.0232284,11.1856864 C16.9819213,10.915874 16.9384052,10.7545542 16.7864305,10.5146482 C16.6881328,10.3596588 16.5613399,10.2105635 16.5153941,10.0295971 C16.664939,10.1147321 16.6147962,10.2419979 16.7217086,10.3620601 C16.6744374,10.2858752 16.6779717,10.2064159 16.6450586,10.1332871 C16.6218648,10.0435679 16.5039076,9.95384878 16.4497887,9.88093831 C16.3594432,9.75891151 16.2794797,9.62924439 16.2112236,9.4939016 C16.1416421,9.35615758 16.1551167,9.28106416 16.0024792,9.26207251 C16.0093269,9.34284159 15.9715541,9.44958776 15.8803251,9.46726964 C15.7791558,9.48669788 15.7270249,9.39130304 15.616799,9.39916166 C15.4646034,9.4100764 15.3121868,9.42077284 15.1599912,9.43168758 C15.0259088,9.44129255 14.8920473,9.45067923 14.7579649,9.4602842 C14.6344854,9.469016 14.6247661,9.34502454 14.5209461,9.35724905 C14.2759751,9.38628226 14.031446,9.41531547 13.7860332,9.43976449 C13.8149703,9.49324672 13.8209344,9.56244618 13.8014958,9.61942112 C14.0142163,9.55480586 14.2541067,9.54803872 14.4473885,9.67050211 C14.5262475,9.72049162 14.5810291,9.84557455 14.6755716,9.82287189 C14.7630454,9.80191559 14.8211404,9.74908824 14.9002203,9.71678061 C14.9852644,9.68207173 14.936226,9.62575167 15.0164103,9.60457708 C15.2525456,9.54236305 15.3676311,9.82636461 15.5299879,9.92699852 C15.6903566,10.0263227 15.772529,10.0385472 15.7694365,10.243526 C15.7681111,10.3365196 15.7552993,10.4292949 15.7380696,10.5205421 C15.7298965,10.5644194 15.7853408,10.6755314 15.8275315,10.606332 C15.9275963,10.4421743 15.9423962,10.5875586 15.8434358,10.6986707 C15.7822483,10.7678701 16.0221387,10.9887845 16.0972425,11.0025371 C16.0720607,10.9811442 16.0647712,10.9580049 16.075595,10.932901 C16.1462809,10.9938053 16.2428114,11.1614557 16.2790379,11.2537944 C16.3351449,11.3967775 16.5160567,11.4085654 16.6052977,11.546746 C16.6331303,11.5897501 16.6395362,11.6934402 16.677309,11.7080659 C16.7835588,11.7052281 16.8284002,11.6934402 16.8648477,11.5860391 C16.8754506,11.4963199 16.9589483,11.4585549 16.990757,11.3849896 C17.0207985,11.3155718 17.0349357,11.267547 17.0232284,11.1856864 L17.0232284,11.1856864 Z M16.8602089,11.5246983 C16.8520358,11.4799478 16.8533612,11.435634 16.8646268,11.3915384 C16.8734625,11.3546466 16.8332599,11.5716316 16.8602089,11.5246983 C16.8511523,11.4762368 16.8604298,11.52448 16.8602089,11.5246983 L16.8602089,11.5246983 Z" id="Fill-35"></path>
                <path d="M6.44110138,6.41790938 C6.88686459,6.45458291 7.33218601,6.48645395 7.778391,6.51439569 C7.80578181,5.95992686 7.83250993,5.40567633 7.86166788,4.85142579 C7.20981098,4.81977305 6.5603839,4.75930538 5.91161951,4.69097911 C5.84468876,4.68399367 5.59883423,4.63007485 5.593091,4.67657165 C5.57055985,4.85208068 5.5482496,5.02758971 5.52571846,5.20309874 C5.47888903,5.57027062 5.4318387,5.9372242 5.38500926,6.30439608 C5.73689271,6.34521721 6.08855526,6.38276391 6.44110138,6.41790938" id="Fill-36"></path>
                <path d="M2.93839217,7.25834441 C2.90592082,6.90667147 2.54542252,6.56547667 2.34639742,6.27863729 C2.01240636,5.79751552 1.67841529,5.31639375 1.34442423,4.83527198 C1.25253251,4.70276703 1.36695537,4.48534539 1.40274013,4.34017934 C1.47430964,4.04875576 1.54587916,3.75711389 1.61722778,3.46569031 C1.61833224,3.46154271 0.420868246,3.11663691 0.327872057,3.09502572 C0.280379941,3.28210438 0.245920545,3.43905835 0.156679546,3.61282102 C0.0678803343,3.78571051 0.21212383,3.9505231 0.181861412,4.13192609 C0.1445304,4.35393191 0.117802279,4.48600028 0.235317654,4.6911974 C0.322791505,4.84422206 0.273090453,4.92149843 0.410707142,5.04963748 C0.438981518,4.81125955 0.738071401,4.92892045 0.812733425,5.0699389 C0.748674292,5.01165419 0.596920415,4.9520597 0.510109245,4.9649391 C0.408277313,4.98000144 0.522700178,5.20659146 0.536837366,5.25832733 C0.468802149,5.19676819 0.43787705,5.15878489 0.442957602,5.06404494 C0.301806616,5.1793046 0.423739862,5.38974081 0.473882701,5.52355553 C0.525792688,5.66217273 0.448259048,5.70037433 0.457757471,5.83244269 C0.468360362,5.9832844 0.594711479,6.12037355 0.657224357,6.2528785 C0.680639075,6.30221313 0.774739732,6.44148522 0.764136841,6.49343939 C0.747128037,6.576828 0.694997156,6.59996725 0.750883228,6.68379246 C0.846088353,6.82633898 1.02236142,6.90841783 1.16881385,6.98831373 C1.23839532,7.02629703 1.30797679,7.06406203 1.37446575,7.1072844 C1.48380807,7.17801192 1.43167719,7.23280392 1.49352738,7.32295968 C1.5787923,7.43472662 1.71353737,7.44345842 1.77494578,7.59888432 C1.80807981,7.68249124 1.75440268,7.96081713 1.8602107,7.97173187 C2.08132515,7.99421623 2.3026605,8.0167006 2.52377495,8.03918496 C2.67906313,8.05490219 2.69629283,7.99836383 2.69231674,7.90493365 C2.69010781,7.85057824 2.69938534,7.79273012 2.71551057,7.74033936 C2.72942686,7.69602552 2.7625609,7.66000687 2.79481136,7.62769924 C2.84915117,7.57312554 2.8343513,7.50785539 2.86969427,7.44258524 C2.94170557,7.30877052 2.9271266,7.39084937 2.93839217,7.25834441 C2.93795038,7.25354193 2.93529966,7.29545453 2.93839217,7.25834441 L2.93839217,7.25834441 Z M0.639994659,5.12713214 C0.619893345,5.12669555 0.609290454,5.11774547 0.608185987,5.10006359 C0.618788878,5.10901367 0.629391768,5.11818206 0.639994659,5.12713214 C0.631379811,5.12363943 0.628287301,5.11359787 0.639994659,5.12713214 L0.639994659,5.12713214 Z M0.592723437,5.3604893 C0.581457866,5.36965768 0.568646039,5.37576994 0.554067064,5.37904436 C0.546556683,5.36289054 0.559589403,5.35677829 0.592723437,5.3604893 C0.589630927,5.36267225 0.579690717,5.36725644 0.592723437,5.3604893 L0.592723437,5.3604893 Z" id="Fill-37"></path>
                <path d="M5.00021268,6.49169303 C4.49657536,6.42642288 3.9942634,6.35067458 3.49438127,6.26204688 C3.48002318,6.40131897 3.4007224,6.8128047 3.16547075,6.65192142 C3.17342292,6.77111039 3.07667154,6.99551746 3.12990689,7.09244035 C3.17585275,7.17626556 3.28121898,7.35745026 3.21119572,7.45786587 C3.18733921,7.49126498 3.15044999,7.5154957 3.11289808,7.53164952 C3.04773448,7.55937296 3.06894027,7.63883227 3.03845695,7.69646211 C2.99472003,7.77897755 2.88758665,7.81390472 2.96710833,7.90013117 C3.04928074,7.98897716 3.00178862,8.09004766 2.91541924,8.14920555 C3.25206103,8.3408684 3.58826103,8.53340442 3.92689086,8.72157455 C4.13165919,8.83552445 4.2582312,8.86084664 4.49392463,8.89359087 C4.62866971,8.91236422 4.80185026,9.00011874 4.82128889,8.84687578 C4.88137194,8.37819681 4.9412341,7.90929955 5.00131714,7.44062058 C5.02208114,7.27820924 5.04284513,7.1157979 5.06360913,6.95338656 C5.08128061,6.81324129 5.22044356,6.47313797 5.00021268,6.49169303" id="Fill-38"></path>
                <path d="M12.2565662,7.49213816 C12.2956643,7.38910301 12.3418311,7.29545453 12.3820337,7.1915462 C12.2464051,7.22560019 12.1512,7.07715972 12.2293963,6.95753416 C11.7595557,6.98722225 11.2901569,7.01407252 10.8194327,7.02498726 C10.8759814,7.27231528 10.8821664,7.5030529 10.8837127,7.75409194 C10.8845963,7.8944555 10.8854798,8.03503736 10.8865843,8.17540093 C10.8865843,8.18129489 11.057335,8.20399755 11.0606484,8.29939238 C11.0745647,8.33737568 11.0639618,8.3954421 11.0655081,8.437573 C11.1867787,8.4332071 11.9817746,8.43146074 11.9775776,8.35964175 C11.8417281,8.10991248 12.1659998,7.73160757 12.2565662,7.49213816" id="Fill-39"></path>
                <path d="M13.6157243,9.22212456 C13.906862,9.19309135 14.1971161,9.16034713 14.4878121,9.12585655 C14.4690361,9.03722885 14.4233111,8.91869477 14.4259619,8.82832072 C14.4279499,8.75824808 14.4533527,8.68730227 14.4783136,8.622687 C14.4540153,8.57553532 14.4169052,8.53689714 14.3921651,8.48996375 C14.3033659,8.32100357 14.2655931,8.1177711 14.2112533,7.9368047 C14.2006504,7.90144094 14.0997021,7.50239802 14.0762873,7.50479926 C13.8704145,7.52597386 13.6645417,7.54693016 13.4584481,7.56810475 C13.3080195,7.58360369 13.3426998,7.60237704 13.3398282,7.7512541 C13.3351894,7.99465282 13.3305507,8.23783324 13.3259119,8.48123196 C13.3199478,8.79928751 13.3365148,9.07979634 13.3793682,9.39566894 C13.5068237,9.32625119 13.4434273,9.42448385 13.4924657,9.32013893 C13.5147759,9.27320555 13.5613845,9.22736364 13.6157243,9.22212456" id="Fill-40"></path>
                <path d="M1.35811963,1.16529956 C1.29273513,1.14434326 1.26689059,1.09020615 1.19311214,1.07252427 C1.07758481,1.04458253 1.12905301,1.01009195 1.15290951,0.913823938 C1.12087994,1.05527898 1.19995984,0.990008828 1.19576286,0.912077579 C1.19333303,0.867108848 1.15556023,0.832399972 1.17411529,0.787212946 C1.20437771,0.812316849 1.2322103,0.793106906 1.26755327,0.789832483 C1.24215051,0.764510285 1.19598375,0.704915801 1.17941674,0.758179735 C1.15379308,0.556475327 1.20990005,0.331631669 1.17941674,0.13625781 C1.34177351,0.244532038 1.51274512,0.325082824 1.66206917,0.436849769 C1.67024223,0.418513005 1.68084512,0.401922599 1.69409874,0.386860257 C1.69674946,0.458897545 1.78002633,0.54119469 1.68614657,0.566080299 C1.68128691,0.593585446 1.68327495,0.73482219 1.71464184,0.742025919 C1.78179348,0.757306556 1.80034854,0.298887447 1.81470662,0.248024755 C1.84894512,0.218554955 1.75749519,0.0369336698 1.80432462,0.0493764742 C1.89157758,0.0725157244 1.97860964,0.0956549747 2.0658626,0.118794225 C2.35125708,0.19476082 2.6388605,0.262213918 2.92690571,0.328138952 C3.06960295,0.360883174 3.21230019,0.391226153 3.355881,0.420477658 C3.4418086,0.437941243 3.35323028,0.64095542 3.33820952,0.710154876 C3.27216234,1.01511273 3.14095157,1.36678568 3.17695722,1.68374975 C2.97793212,1.64314691 2.75748034,1.56696202 2.55558363,1.54928014 C2.2821174,1.57525722 2.05680597,1.57482063 1.79593067,1.49034054 C1.68879729,1.45563167 1.5271032,1.53137997 1.45310386,1.42616187 C1.38816115,1.33338657 1.49882883,1.23799174 1.35811963,1.16529956" id="Fill-41"></path>
                <path d="M17.6439393,4.35633316 C17.6043993,4.44539744 17.58231,4.50782976 17.592692,4.60125994 C17.5979934,4.64797503 17.6775151,4.68988763 17.7124163,4.7248148 C17.8383256,4.66216419 17.7510726,4.82828654 17.8014364,4.83898299 C17.8495912,4.84924285 18.2118566,3.98741492 17.8672627,4.08062681 C17.860415,4.00182238 17.9978107,3.82915118 17.8920027,3.79531548 C17.8093885,3.76890181 17.6079336,3.64643842 17.5747996,3.77086646 C17.5463043,3.87783092 17.4780482,3.97322576 17.5392357,4.08542929 C17.6043993,4.20570973 17.8233048,4.22491968 17.6439393,4.35633316" id="Fill-42"></path>
                <path d="M18.210973,1.83415487 C18.2087641,1.87061011 18.2019164,1.94155592 18.225552,1.97146231 C18.2164954,2.04699232 18.130126,2.11684666 18.1599466,2.20176334 C18.128138,2.3130937 18.082413,2.65341531 18.1809315,2.72807214 C18.103177,2.74400766 17.9737334,2.81539006 17.9523067,2.71955864 C17.9470052,2.6959828 17.8758775,2.41416419 17.8548926,2.48205388 C17.8297107,2.32444503 17.8111557,2.10418556 17.7342847,1.96076587 C17.8933281,1.91841667 18.0521506,1.87628577 18.210973,1.83415487" id="Fill-43"></path>
                <path d="M18.7333863,2.59775013 C18.6911956,2.61783326 18.6454707,2.69358156 18.6043845,2.70296823 C18.5164688,2.72326965 18.4283323,2.74357107 18.3404167,2.76365419 C18.2114148,2.79334229 18.2615577,2.43271925 18.2653129,2.35238676 C18.292041,2.2035097 18.3223034,2.08191949 18.3329063,1.9509426 C18.3620642,1.84223178 18.3008767,1.79791793 18.4119862,1.72850018 L18.5816324,2.23538074 C18.6275783,2.37334306 18.7141686,2.47550504 18.7333863,2.59775013" id="Fill-44"></path>
                <path d="M12.0091654,1.98936249 C12.1255763,1.94155592 12.1931697,1.87475771 12.3139985,1.83983054 C12.4206901,1.80905097 12.626342,1.50125528 12.6411419,1.79442522 C12.6371658,1.78351048 12.6334106,1.77281403 12.6296554,1.76189929 C12.6360613,1.78853126 12.6389329,1.81581811 12.6382703,1.84332326 C12.7864898,1.6352883 12.9009127,1.8708284 13.0343324,1.92038133 C13.2775362,2.01075538 13.5275877,1.70819877 13.769908,1.72850018 C13.7288218,1.90684705 13.8629042,1.85620265 13.9751181,1.84288667 C13.9958821,1.84048542 14.1734805,2.01970547 14.1836416,2.05026674 C14.1160482,2.08060972 13.8768205,2.02494454 13.9079665,2.148936 C13.8518595,2.11160758 13.6974549,1.99438327 13.6333958,2.07580723 C13.5474682,2.18473635 13.4213379,2.11269906 13.3413745,2.24367595 C13.2823959,2.18822906 13.2421933,2.23123314 13.1942594,2.29759476 C13.1715073,2.27227257 13.1633343,2.241493 13.1692984,2.20525606 C13.1103198,2.33710613 13.0528875,2.46961108 13.0009775,2.60429898 C12.9473004,2.57570236 12.9364766,2.53509952 12.968727,2.48249047 C12.8688831,2.51698105 12.9152708,2.40958 12.9066559,2.35740754 C12.8987038,2.30981927 12.7341381,2.21049513 12.6811236,2.20481947 C12.5496919,2.19063031 12.4454302,2.17753262 12.3153239,2.13758467 C12.1836713,2.09676354 12.1266808,2.04742891 12.0091654,1.98936249" id="Fill-45"></path>
                <path d="M14.1425554,4.09459767 C14.2733244,4.07320478 14.4045352,4.05399484 14.5341997,4.02779946 C14.7336666,3.98741492 14.6554703,3.62744677 14.817827,3.53969226 C14.838591,3.5464594 14.8441134,3.5632681 14.8348358,3.58990006 C14.9936583,3.50061748 14.7968421,3.06380956 14.7270398,2.96645007 C14.5591607,2.73221974 14.3928278,3.31724984 14.3062375,3.07625237 C14.2673603,2.96797814 14.4864867,2.86210515 14.4750002,2.76889327 C14.467269,2.70405971 14.3740519,2.46502689 14.4087322,2.43621197 C14.5010657,2.36002708 13.5962856,1.9889259 13.8516386,2.38054679 C13.5538741,2.35587948 13.4359169,2.90270799 13.4348124,3.09393425 C13.4330453,3.4074056 13.7904511,3.8789224 13.4231051,4.14655184 C13.661891,4.12428577 13.8997934,4.09459767 14.1381375,4.06600105" id="Fill-46"></path>
                <path d="M18.7426638,3.238882 C18.7850754,3.25416264 18.8285914,3.28908981 18.829475,3.33755126 C18.8740955,3.30895464 18.916728,3.21727082 18.9637783,3.20460972 C18.966429,3.23189657 18.9734976,3.25809195 18.9849841,3.28341414 C19.0455089,3.2432479 19.1111143,3.21596105 19.1749525,3.18212535 C19.2953395,3.11838327 19.1630243,3.0033419 19.0706908,2.99657476 C19.1742899,3.03412147 19.2186895,3.19151203 19.0622968,3.16837278 C19.0187808,3.16182393 18.9032535,3.03128363 18.9485366,3.05245823 C18.9003818,2.95597192 18.796341,3.01316516 18.760998,2.9361071 C18.7742516,2.91034831 18.8827104,2.78330073 18.8716657,2.7719494 C18.8102573,2.78177266 18.7877261,2.74706379 18.7791113,2.68310341 C18.6830226,2.70471459 18.6578407,2.80076431 18.5571132,2.82106573 C18.4530724,2.84202203 18.3492524,2.86297833 18.2452115,2.88393463 C18.1670152,2.89965186 18.0879353,2.91209467 18.0095181,2.92606553 C17.9260203,2.94090958 17.9584917,3.09851844 17.9542947,3.1716472 C17.9443545,3.35086724 18.1332185,3.24717721 18.2697307,3.21945376 C18.360518,3.2008987 18.4510843,3.18037899 18.5420925,3.16400688 C18.6962762,3.13584685 18.6375185,3.14130422 18.7426638,3.238882" id="Fill-47"></path>
                <path d="M18.5412089,1.50627606 C18.634426,1.49339667 18.7066582,1.22925994 18.7073209,1.13233705 C18.7088671,0.927794806 18.7117387,0.760362684 18.7782277,0.566298594 C18.7866217,0.542067869 18.8221855,0.375727221 18.8464838,0.366777134 C18.9218085,0.339053692 18.9377129,0.507140699 19.0048645,0.440779076 C19.0614132,0.433357052 19.0914548,0.3597917 19.1404931,0.338617103 C19.1950539,0.315041263 19.3397391,0.385113898 19.3578524,0.437941243 C19.4097624,0.590092729 19.50806,0.769967655 19.5191047,0.930196049 C19.5279405,1.0585534 19.6094502,0.989790533 19.6799152,1.03235802 C19.7006792,1.05658875 19.7075269,1.17512283 19.7196761,1.18603757 C19.7561235,1.21900009 19.8906477,1.18232656 19.8720926,1.27422868 C19.8762896,1.27772139 19.8352034,1.33076703 19.8818119,1.3322951 C19.8908686,1.33273169 19.9262115,1.28863613 19.9217937,1.34320984 C19.9056684,1.54622401 19.4855289,1.54447766 19.5025377,1.73854175 C19.4758096,1.7278453 19.4477561,1.7236977 19.4185981,1.72588065 C19.4247832,1.6815668 19.4322935,1.67283501 19.3892193,1.63026752 C19.3278109,1.74792842 19.4102042,1.90990317 19.2765636,1.93195095 C19.2544742,1.93566196 19.1588273,2.21486103 19.0735624,2.077117 C18.995587,2.20067187 19.0251867,2.37508942 18.9549426,2.49536987 C18.715273,2.26157612 18.6470169,1.82324013 18.5412089,1.50627606" id="Fill-48"></path>
                <path d="M4.61011465,10.4299498 C4.7523701,10.4072471 4.70377352,10.105782 4.54473015,10.199867 C4.36072582,10.3090144 4.41683278,10.3777773 4.61011465,10.4299498 C4.632204,10.4264571 4.56681951,10.4181618 4.61011465,10.4299498" id="Fill-49"></path>
                <path d="M6.42740598,11.233493 C6.59042543,11.2206136 6.75123594,11.0584205 6.49853371,11.0127969 C6.45457589,11.0049383 6.29575342,10.9564769 6.26659547,10.9687014 C6.18420217,11.0031919 6.38521531,11.2009671 6.42740598,11.233493 C6.46716682,11.2304369 6.38587799,11.2014036 6.42740598,11.233493" id="Fill-50"></path>
                <path d="M6.85417234,12.230882 C6.91933594,12.2741044 6.98626669,12.1269737 7.03685132,12.0940111 C7.13448627,12.0304873 7.23941071,12.021319 7.33903371,11.9525561 C7.49586814,11.8440636 7.00747247,11.5343032 6.92198666,11.5048334 C6.89768837,11.4965382 6.66022779,11.37342 6.75985079,11.5253531 C6.83539639,11.6408311 6.68474698,11.6458519 6.67083068,11.7425565 C6.65956511,11.820706 6.72053174,11.9056227 6.74858522,11.9748222 C6.80668023,12.1186784 6.70573187,12.1230443 6.85417234,12.230882" id="Fill-51"></path>
                <path d="M5.57409415,10.8119657 C5.74572845,10.761103 5.51887076,10.4825588 5.38854356,10.59891 C5.35739757,10.6266334 5.28030571,10.596727 5.33928429,10.68339 C5.40223896,10.7766019 5.47535473,10.775947 5.57409415,10.8119657 C5.60877444,10.8017058 5.5345542,10.7975582 5.57409415,10.8119657" id="Fill-52"></path>
                <path d="M6.13626827,10.9457804 C6.17470375,10.9320278 6.22484658,10.9206765 6.20143187,10.8663211 C6.13604737,10.874398 6.07110466,10.8709053 6.00682464,10.8560612 C5.93105815,10.8137121 5.88732122,10.8320488 5.87517208,10.9110715 C5.97126077,10.9110715 6.04327208,10.9274436 6.13626827,10.9457804 C6.17890072,10.9307181 6.08237024,10.935084 6.13626827,10.9457804" id="Fill-53"></path>
                <path d="M6.11130729,11.1394079 C6.2517956,11.0926928 6.09319402,11.015853 6.02096183,11.0352813 C6.05188692,11.069117 6.08192845,11.1038259 6.11130729,11.1394079 C6.13140861,11.1326408 6.08170756,11.1038259 6.11130729,11.1394079" id="Fill-54"></path>
                <path d="M2.35169887,11.7818496 C2.39212239,11.7261844 2.40272528,11.7198538 2.46590084,11.7388455 C2.52068245,11.7554359 2.33424828,11.8599991 2.35169887,11.7818496 C2.37025393,11.7563091 2.34220045,11.824417 2.35169887,11.7818496" id="Fill-55"></path>
                <path d="M0.498401886,10.60786 C0.438097944,10.6609057 0.424623437,10.570095 0.448921728,10.5375691 C0.501494396,10.583411 0.581678759,10.5897416 0.644633424,10.6331822 C0.754859312,10.7093671 0.692567327,10.662652 0.613487432,10.7272673 C0.615033687,10.6836083 0.548986512,10.5962904 0.498401886,10.60786 C0.443178496,10.6563215 0.54390596,10.5973819 0.498401886,10.60786" id="Fill-56"></path>
                <path d="M0.79881713,11.395686 C0.761265225,11.3308525 0.846751033,11.3247402 0.901311743,11.3240853 C0.994970613,11.3227756 0.946815817,11.4952285 0.79881713,11.395686 C0.786667985,11.3751663 0.833939207,11.4194802 0.79881713,11.395686" id="Fill-57"></path>
                <path d="M0.952779943,12.5740414 C0.978403596,12.5615986 1.13457534,12.4050812 1.1429693,12.5360581 C1.14606181,12.5832098 0.927818971,12.6441141 0.952779943,12.5740414 C0.97928717,12.5613803 0.942618839,12.6026381 0.952779943,12.5740414" id="Fill-58"></path>
                <path d="M2.34264223,12.009531 C2.26201608,12.0693438 2.33270202,12.1082003 2.21894184,12.0566827 C2.12395761,12.0134603 2.2271149,11.9243961 2.25826089,11.9012568 C2.28719795,11.8796456 2.33049309,11.8765895 2.34264223,11.8425355 C2.36959125,11.7687519 2.46943514,11.9003836 2.47230675,11.9010385 C2.43696379,11.9549573 2.37931057,11.9597598 2.34264223,12.009531 C2.32894683,12.0195726 2.36274355,11.9822442 2.34264223,12.009531" id="Fill-59"></path>
                <path d="M0.563344593,12.7746544 C0.551637235,12.8233341 0.427715947,12.8711407 0.389722254,12.8905689 C0.419101098,12.867648 0.510992819,12.7091659 0.563344593,12.7746544 C0.55384617,12.8141657 0.526897156,12.7290307 0.563344593,12.7746544" id="Fill-60"></path>
                <path d="M0.574389272,12.8272634 C0.575051952,12.8556417 0.680639075,12.6851535 0.698752347,12.684062 C0.913460889,12.6703094 0.587863779,12.821806 0.574389272,12.8272634" id="Fill-61"></path>
                <path d="M4.2858429,11.4581183 C4.00972595,11.365343 4.48751872,11.2365491 4.41197312,11.4349791 C4.38546589,11.5048334 4.34150808,11.3424221 4.32825446,11.4823491 C4.31411727,11.4744905 4.29998009,11.4664135 4.2858429,11.4581183 C4.25359244,11.4474219 4.29865472,11.4688148 4.2858429,11.4581183" id="Fill-62"></path>
                <path d="M4.44908324,11.4177338 C4.41550742,11.3887006 4.34283344,11.3109876 4.34835578,11.2623079 C4.38701215,11.2874118 4.68013791,11.4210082 4.48199638,11.5098542 C4.48884408,11.4725258 4.4777994,11.4419645 4.44908324,11.4177338 C4.42102976,11.3932848 4.49304106,11.4310498 4.44908324,11.4177338" id="Fill-63"></path>
                <path d="M4.46565026,11.6238041 C4.42456405,11.5954258 4.33885735,11.4980663 4.35211097,11.4448024 C4.45107128,11.456372 4.54428837,11.582983 4.54053317,11.6779412 C4.51049165,11.6670265 4.48530978,11.6491263 4.46565026,11.6238041 C4.4263312,11.5965173 4.4881814,11.6458519 4.46565026,11.6238041" id="Fill-64"></path>
                <path d="M4.59332674,11.6515275 C4.59067601,11.6482531 4.49966787,11.518586 4.54495105,11.5233885 C4.62668166,11.5325569 4.59995354,11.6580764 4.59332674,11.6515275 C4.56571504,11.6183467 4.60392963,11.6620057 4.59332674,11.6515275" id="Fill-65"></path>
                <path d="M4.64678298,11.5875672 C4.64236511,11.5860391 4.56571504,11.486715 4.56969112,11.4784198 C4.57565525,11.4655404 4.6458994,11.4528793 4.6595948,11.4574635 C4.74397614,11.4862784 4.65539783,11.5591888 4.64678298,11.5875672" id="Fill-66"></path>
                <path d="M4.69803028,11.6345006 C4.6735111,11.6382116 4.65760676,11.6286066 4.65053817,11.6056856 C4.69317063,11.597827 4.80891885,11.6312261 4.83454251,11.6777229 C4.84139021,11.6901657 5.04836747,11.8602174 4.94255946,11.8604357 C4.92466708,11.8604357 4.84934237,11.788835 4.79765328,11.7940741 C4.74596419,11.7988765 4.73315236,11.654802 4.69803028,11.6345006" id="Fill-67"></path>
                <path d="M4.78572503,11.5513302 C4.79986222,11.5677023 4.83255446,11.5982636 4.84978416,11.6163821 C4.80251294,11.6748851 4.73005985,11.5587523 4.78572503,11.5513302 C4.79831596,11.565956 4.76297299,11.5543864 4.78572503,11.5513302" id="Fill-68"></path>
                <path d="M4.96199809,11.711122 C4.92930584,11.7063195 4.91251793,11.6048125 4.93394461,11.5847293 C4.9752517,11.5458729 5.02230203,11.688856 5.01523344,11.7128684 C4.99756195,11.7122135 4.97989047,11.7117769 4.96199809,11.711122 C4.92091189,11.7050098 4.97989047,11.7023902 4.96199809,11.711122" id="Fill-69"></path>
                <path d="M3.56572989,11.0638779 C3.60350269,11.1671314 3.76873107,10.9708843 3.76851018,11.0440131 C3.76851018,11.103171 3.99139178,11.1843766 4.03755853,11.2479004 C4.12017273,11.0922562 4.12746221,10.9370486 4.306386,11.0887635 C4.55224053,11.1001148 4.67505735,11.4716526 4.93129389,11.4648855 C4.97834421,11.4635757 5.09519691,11.4773283 5.08194329,11.5419435 C5.0715613,11.5930245 5.21978088,11.7240014 5.11684448,11.7713714 C5.04792569,11.8030241 5.0578659,11.6604776 5.03224224,11.6251139 C4.90478666,11.4493865 4.94764001,11.6606959 4.89727628,11.6855815 C4.86016616,11.7039183 4.85729454,11.5408521 4.80295473,11.5203324 C4.77401767,11.5094176 4.5979655,11.443056 4.5878044,11.4295217 C4.53169743,11.3539917 4.41108955,11.144647 4.32803357,11.2967985 C4.33907825,11.2764971 4.19262581,11.3400208 4.1826856,11.3472246 C4.14977246,11.3714553 4.02518849,11.2830459 3.98918284,11.2684201 C3.92247299,11.2415699 3.78242647,11.2570688 3.7572446,11.1754266 C3.73294631,11.0968404 3.64215906,11.1979109 3.58649388,11.1889608 C3.48201123,11.1723704 3.43076392,11.1642935 3.33334986,11.2103537 C3.25117745,11.2492102 3.23438954,11.1889608 3.15994841,11.172807 C3.07313724,11.1538154 2.83722292,11.1431189 2.79348599,11.0872355 C2.78244132,11.1621106 2.8480467,11.2214868 2.81491267,11.2954887 C2.79304421,11.3443867 2.72014933,11.3221207 2.68944513,11.3729834 C2.65343948,11.431923 2.55536273,11.5663926 2.47230675,11.5613718 C2.43585932,11.5591888 2.51913619,11.4419645 2.52134513,11.4290851 C2.33888704,11.5539498 2.58341622,11.0228385 2.61942187,11.1140857 C2.57745209,11.006903 2.41310728,11.2232331 2.40095813,11.2513932 C2.37423001,11.3129523 2.3746718,11.394158 2.33049309,11.4474219 C2.28653527,11.5002492 2.22689401,11.5266629 2.20524644,11.5971721 C2.22070899,11.6190016 2.32563343,11.6035027 2.31436786,11.6486897 C2.31083356,11.6626606 2.22137167,11.8069535 2.21629112,11.8093547 C2.15068573,11.8418806 2.07337298,11.8982007 2.02433461,11.953211 C1.97860964,12.0047286 1.99318862,12.1033978 1.89643724,12.1132211 C1.8635241,12.1164955 1.64439769,12.3871811 1.6163442,12.3411209 C1.62517995,12.3555283 1.36032856,12.4236363 1.35348086,12.4288754 C1.2560668,12.502659 1.06168047,12.5552681 1.24435944,12.427129 C1.30643054,12.3834701 1.30466339,12.3206012 1.3969969,12.3033559 C1.45730084,12.2922228 1.46017245,12.3627321 1.50346759,12.2987717 C1.58608178,12.1765266 1.69078533,12.1363603 1.76831897,12.0219738 C1.79438441,11.9833357 1.92007285,11.7211636 1.90748192,11.6895108 C1.88715971,11.6395213 1.7709697,11.7777019 1.72082686,11.6661533 C1.68791372,11.6964963 1.73253422,11.7543444 1.70249269,11.7763922 C1.6746601,11.7969119 1.6163442,11.6838352 1.61104276,11.6661533 C1.5582492,11.7364442 1.55383132,11.6307895 1.48182002,11.6611325 C1.45752173,11.6713924 1.40539085,11.7316417 1.38020899,11.7368808 C1.33823921,11.7453943 1.44007114,11.3782224 1.26600701,11.4382535 C1.23397745,11.4493865 1.09702344,11.5078896 1.11646207,11.422318 C1.01882712,11.27868 1.02479124,11.340894 1.0676446,11.180229 C0.948362072,11.1907072 1.01308389,11.0924745 0.937759181,11.0826513 C0.939747223,11.0090859 1.06919085,10.8091279 1.12507692,10.747787 C1.20040163,10.6650533 1.23000136,10.8263731 1.31725432,10.7119867 C1.36960609,10.6432238 1.4550919,10.7534627 1.4687873,10.6432238 C1.47386786,10.6017478 1.46768284,10.5576522 1.45707994,10.517486 C1.4380831,10.4463219 1.50302581,10.4465402 1.48402896,10.3961141 C1.46083514,10.3345549 1.31857968,10.4716441 1.31239466,10.4786295 C1.28235314,10.4375901 1.21122541,10.4380267 1.13457534,10.4511244 C1.04290452,10.4666233 0.861550902,10.3013741 1.00491082,10.2764885 C0.781145645,10.1335054 0.962941047,10.1645033 1.07957285,10.0494619 C1.11071884,10.0186823 1.24966089,9.95057436 1.23000136,10.0416033 C1.19664644,10.194628 1.39898494,10.1086198 1.47143803,10.0830793 C1.36540912,10.0363642 1.37888362,9.94729993 1.30201266,9.9064788 C1.2596011,9.88399444 1.19576286,9.75432732 1.19156588,9.75061631 C1.10696365,9.67399483 1.05682081,9.65893248 1.07405051,9.5486936 C1.08509519,9.47752949 1.15003789,9.50176022 1.20018073,9.5024151 C1.30245445,9.50372487 1.338681,9.38126148 1.3726986,9.30725954 C1.40583264,9.23587713 1.8805329,8.95340364 1.8840672,9.05338267 C1.86838376,9.06124128 1.85557193,9.07215602 1.84541083,9.0859086 C1.84320189,9.04421429 2.05702686,9.07412068 2.10518166,9.0898379 C2.29868442,9.13764447 2.54652699,9.20007678 2.74731924,9.13589811 C3.04530465,9.04050328 3.04817627,9.33039879 3.10737575,9.52861048 C3.2600132,10.0405118 3.41287154,10.5521949 3.56572989,11.0638779" id="Fill-70"></path>
                <path d="M18.5911309,3.643164 C18.6706525,3.61063807 18.7238879,3.58160486 18.7044493,3.49297717 C18.7101925,3.46940133 18.6547482,3.39365303 18.7232252,3.39365303 C18.6976016,3.37138695 18.6748495,3.29869478 18.6381812,3.2893081 C18.6176381,3.28406903 18.5186778,3.31746814 18.5239792,3.33558661 C18.5540207,3.44014982 18.5741221,3.54143861 18.5911309,3.643164" id="Fill-71"></path>
                <path d="M18.3503569,3.37859068 C18.2918201,3.39190667 17.9655603,3.44604378 17.968211,3.46088783 C17.9940556,3.60256116 18.0702638,3.78702028 18.0006824,3.90162506 C17.9573872,3.97278917 18.0925741,3.90315312 18.1025143,3.89354815 C18.2041253,3.79487889 18.2153909,3.76999328 18.3547747,3.73659418 C18.4365054,3.69686452 18.4771498,3.69970235 18.4526306,3.60474411 C18.4318666,3.52419332 18.4345173,3.37968216 18.3503569,3.37859068" id="Fill-72"></path>
                <path d="M16.9781661,5.00248581 C17.1396393,5.03741298 16.9262561,5.19982432 17.0051151,5.24610282 C17.0002554,5.23889909 17.3079602,5.31879499 17.3362345,5.33669517 C17.3176795,5.24763088 17.25848,5.18476197 17.2224743,5.10311971 C17.1935373,5.03719468 17.1785165,4.96362933 17.1866896,4.89181033 C17.1891194,4.87063574 17.2880797,4.63946153 17.3110527,4.68945104 C17.3669387,4.81082296 17.2355071,4.95664389 17.3362345,5.09831723 C17.3563358,5.13608223 17.320772,5.19371206 17.3720193,5.19131082 C17.4234875,5.18890958 17.4948361,5.20702805 17.5264239,5.25156019 C17.5814264,5.32905485 17.513833,5.35044774 17.6052829,5.35765147 C17.7303086,5.36747473 17.7716157,5.19698648 17.7744874,5.10573925 C17.7172759,5.11665399 17.5312835,5.18607174 17.4831288,5.16096784 C17.4462395,5.1415396 17.4148726,4.92040696 17.403828,4.88111389 C17.3729029,4.77196648 17.3419778,4.66260078 17.3108318,4.55345337 C17.3066348,4.53839103 17.046864,4.60628072 17.0216821,4.61195638 C16.8317136,4.65474217 16.6426287,4.69599989 16.4513349,4.73201853 C16.3296226,4.75493949 16.2079102,4.77786044 16.0861979,4.8007814 C16.0342879,4.81060466 16.0954754,4.99964797 16.1036485,5.04876431 C16.1670449,4.9607915 16.2662261,4.89442987 16.3161481,4.81256932 C16.3258674,4.7966338 16.4402902,4.93044852 16.4327799,4.86910767 C16.5003733,4.87281869 16.4983853,4.79445085 16.5836502,4.79859845 C16.6671479,4.80252776 16.7190579,4.84444036 16.785326,4.87456504 C16.8458508,4.90207019 16.8032184,4.91931548 16.8396658,4.95729878 C16.8633014,4.98196609 16.9426022,4.98698687 16.9781661,5.00248581" id="Fill-73"></path>
                <path d="M17.4179651,4.53642638 C17.4334277,4.45085481 17.4906391,4.42640579 17.4800362,4.52311039 C17.4731885,4.5859793 17.4954988,4.70036578 17.5487341,4.74555281 C17.5776712,4.77022012 17.7468757,4.94682063 17.7448876,5.01558349 C17.6529959,5.03348367 17.5717071,5.09395133 17.5418864,4.9941906 C17.5041136,4.86845279 17.4665617,4.74271498 17.4287889,4.61697716" id="Fill-74"></path>
            </g>
        </g>
    </g>
</svg>