<?xml version="1.0" encoding="UTF-8" standalone="no"?>
<svg width="20px" height="17px" viewBox="0 0 20 17" version="1.1" xmlns="http://www.w3.org/2000/svg" xmlns:xlink="http://www.w3.org/1999/xlink">
    <!-- Generator: Sketch 3.7.2 (28276) - http://www.bohemiancoding.com/sketch -->
    <title>menu</title>
    <desc>Created with Sketch.</desc>
    <defs></defs>
    <g id="Page-1" stroke="none" stroke-width="1" fill="none" fill-rule="evenodd">
        <g id="menu" fill="#000000">
            <path d="M0,1.5 C0,0.671572875 0.665435791,0 1.5032506,0 L18.4967494,0 C19.3269718,0 20,0.665797234 20,1.5 C20,2.32842712 19.3345642,3 18.4967494,3 L1.5032506,3 C0.673028218,3 0,2.33420277 0,1.5 Z M0,8.5 C0,7.67157288 0.665435791,7 1.5032506,7 L18.4967494,7 C19.3269718,7 20,7.66579723 20,8.5 C20,9.32842712 19.3345642,10 18.4967494,10 L1.5032506,10 C0.673028218,10 0,9.33420277 0,8.5 Z M0,15.5 C0,14.6715729 0.665435791,14 1.5032506,14 L18.4967494,14 C19.3269718,14 20,14.6657972 20,15.5 C20,16.3284271 19.3345642,17 18.4967494,17 L1.5032506,17 C0.673028218,17 0,16.3342028 0,15.5 Z"></path>
        </g>
    </g>
</svg>