<?xml version="1.0" encoding="UTF-8" standalone="no"?>
<svg width="20px" height="20px" viewBox="0 0 20 20" version="1.1" xmlns="http://www.w3.org/2000/svg" xmlns:xlink="http://www.w3.org/1999/xlink">
    <!-- Generator: Sketch 48.2 (47327) - http://www.bohemiancoding.com/sketch -->
    <title>moving-envelope</title>
    <desc>Created with Sketch.</desc>
    <defs></defs>
    <g id="Images-/-icons" stroke="none" stroke-width="1" fill="none" fill-rule="evenodd">
        <g id="moving-envelope" fill="#000000">
            <path d="M3.81828592,7.00368281 C4.10785471,7.00368281 4.34259659,7.23842469 4.34259659,7.52799348 C4.34259659,7.81756227 4.10785471,8.05230415 3.81828592,8.05230415 L1.9444931,8.05230415 C1.65492431,8.05230415 1.42018243,7.81756227 1.42018243,7.52799348 C1.42018243,7.23842469 1.65492431,7.00368281 1.9444931,7.00368281 L3.81828592,7.00368281 Z M3.81828592,9.10092548 C4.10785471,9.10092548 4.34259659,9.33566737 4.34259659,9.62523615 C4.34259659,9.91480494 4.10785471,10.1495468 3.81828592,10.1495468 L0.524310668,10.1495468 C0.234741882,10.1495468 3.37507799e-14,9.91480494 3.37507799e-14,9.62523615 C3.37507799e-14,9.33566737 0.234741882,9.10092548 0.524310668,9.10092548 L3.81828592,9.10092548 Z M3.81828592,11.1981682 C4.10785471,11.1981682 4.34259659,11.43291 4.34259659,11.7224788 C4.34259659,12.0120476 4.10785471,12.2467895 3.81828592,12.2467895 L1.9444931,12.2467895 C1.65492431,12.2467895 1.42018243,12.0120476 1.42018243,11.7224788 C1.42018243,11.43291 1.65492431,11.1981682 1.9444931,11.1981682 L3.81828592,11.1981682 Z M10.3560245,10.5612563 C10.9773968,11.0726539 11.4034908,11.4194141 11.5108139,11.4974913 C12.1083761,11.9330622 12.5733837,11.9917501 12.9495476,11.9917501 C13.646437,11.9917501 14.1210396,11.6747666 14.3413718,11.4858923 L15.4124706,10.5725091 L19.9536236,14.152985 L19.9514914,14.3297409 L5.68587046,14.3297409 L5.68302747,14.152985 L10.3560245,10.5612563 Z M5.63682878,13.1056066 L5.63682878,6.64942803 C5.86586765,6.83968734 6.145192,7.07184178 6.45170251,7.32632874 C7.66175269,8.33129259 8.86345157,9.32863914 9.79453276,10.0983324 L5.63682878,13.1056066 Z M16.0016815,10.0708062 L19.9998223,6.66327766 L19.9998223,13.0851784 L16.0016815,10.0708062 Z M20,5.67043224 L20,5.71527042 L13.7807685,10.7911602 C13.5124608,10.9924992 13.2409547,11.0901391 12.9509691,11.0901391 C12.6577851,11.0901391 12.3505639,10.9847088 12.0477848,10.7854472 C11.6961417,10.5281903 6.74382035,6.56858081 5.63682878,5.68272379 L5.63682878,5.67025912 L20,5.67025912 L20,5.67043224 Z" id="moving-envelope-circle"></path>
        </g>
    </g>
</svg>