<svg id="moving-envelope-circle" xmlns="http://www.w3.org/2000/svg" width="20" height="20" viewBox="0 0 20 20"><title>betaFEC_icons</title><path d="M10,0A10,10,0,1,0,20,10,10,10,0,0,0,10,0ZM3.8,11.7H2.3a0.4,0.4,0,1,1,0-.8H3.8A0.4,0.4,0,1,1,3.8,11.7Zm0-1.7H1.1a0.4,0.4,0,0,1,0-.8H3.8A0.4,0.4,0,0,1,3.8,10Zm0-1.7H2.3a0.4,0.4,0,1,1,0-.8H3.8A0.4,0.4,0,0,1,3.8,8.3ZM5.2,7.1c0.2,0.2.4,0.3,0.7,0.6A35.3,35.3,0,0,1,8.6,10L5.2,12.5V7.1h0Zm11.7,6.3H5.2V13.3L9,10.4a3.93,3.93,0,0,1,.9.8,1.69,1.69,0,0,0,1.2.4,1.65,1.65,0,0,0,1.1-.4l0.9-.7,3.7,2.9h0.1Zm0.1-1L13.7,9.9,17,7.1v5.3Zm0-6.1h0l-5.1,4.2a0.84,0.84,0,0,1-.7.2,1.85,1.85,0,0,1-.7-0.2c-0.3-.2-4.3-3.4-5.2-4.2H17Z"/></svg>