<?xml version="1.0" encoding="UTF-8"?>
<svg width="20px" height="20px" viewBox="0 0 20 20" version="1.1" xmlns="http://www.w3.org/2000/svg" xmlns:xlink="http://www.w3.org/1999/xlink">
    <title>org-chart</title>
    <g stroke="none" stroke-width="1" fill="none" fill-rule="evenodd">
        <g id="org-chart" transform="translate(0.5, 2)" fill="#000000" fill-rule="nonzero">
            <path d="M9.5,0 C10.8807119,0 12,1.11928813 12,2.5 C12,3.70932545 11.1413382,4.71809967 10.0004345,4.94990271 L10,6.9995 L16.5,7 C16.7761424,7 17,7.22385763 17,7.5 L17.0004345,10.0500973 C18.1413382,10.2819003 19,11.2906746 19,12.5 C19,13.8807119 17.8807119,15 16.5,15 C15.1192881,15 14,13.8807119 14,12.5 C14,11.2903182 14.8591679,10.2813059 16.000574,10.0498926 L16,7.9995 L10,7.9995 L10.0004345,10.0500973 C11.1413382,10.2819003 12,11.2906746 12,12.5 C12,13.8807119 10.8807119,15 9.5,15 C8.11928813,15 7,13.8807119 7,12.5 C7,11.2903182 7.85916789,10.2813059 9.00057405,10.0498926 L9,7.9995 L3,7.9995 L3.00043449,10.0500973 C4.14133817,10.2819003 5,11.2906746 5,12.5 C5,13.8807119 3.88071187,15 2.5,15 C1.11928813,15 0,13.8807119 0,12.5 C0,11.2903182 0.859167895,10.2813059 2.00057405,10.0498926 L2,7.5 C2,7.22385763 2.22385763,7 2.5,7 L9,6.9995 L9.00057405,4.9501074 C7.85916789,4.7186941 7,3.70968176 7,2.5 C7,1.11928813 8.11928813,0 9.5,0 Z" id="Path"></path>
        </g>
    </g>
</svg>
