<?xml version="1.0" encoding="UTF-8" standalone="no"?>
<svg width="19px" height="20px" viewBox="0 0 19 20" version="1.1" xmlns="http://www.w3.org/2000/svg" xmlns:xlink="http://www.w3.org/1999/xlink">
    <!-- Generator: Sketch 3.7.1 (28215) - http://www.bohemiancoding.com/sketch -->
    <title>papers</title>
    <desc>Created with Sketch.</desc>
    <defs></defs>
    <g id="Page-1" stroke="none" stroke-width="1" fill="none" fill-rule="evenodd">
        <g id="papers" fill="#000000">
            <g transform="translate(8.000000, 0.000000)">
                <path d="M5.8125,7.4 L1.01741333,7.4 C0.706965334,7.4 0.5,7.60684234 0.5,7.91710585 L0.5,19.4485664 C0.5,19.7588299 0.706965334,19.9656722 1.01741333,19.9656722 L10.279112,19.9656722 C10.58956,19.9656722 10.7965254,19.7588299 10.7965254,19.4485664 L10.7965254,12.1123916 L6.38725418,12.1123916 L5.8125,12.1123916 L5.8125,11.5443992 L5.8125,7.4 Z M7.40235901,7.42880743 C7.47078393,7.45416927 7.52967331,7.49627738 7.58856268,7.55513176 L10.6109469,10.5757199 L7.40235901,10.57572 L7.40235901,7.42880743 Z" id="Combined-Shape"></path>
                <path d="M5,2 L10,2 L9,1 L9,6 C9,6.55228475 9.44771525,7 10,7 C10.5522847,7 11,6.55228475 11,6 L11,1 C11,0.44771525 10.5522847,0 10,0 L5,0 C4.44771525,0 4,0.44771525 4,1 C4,1.55228475 4.44771525,2 5,2" id="Path-169"></path>
            </g>
            <path d="M0,0.493741035 C0,0.221055391 0.226662825,1.43708616e-17 0.501193199,3.04759529e-17 C0.501193199,3.04759529e-17 4.87173382,3.30939576e-16 7.05438232,0 C8,1 9.5,2.5 10.5,3.49407959 L10.5,12.4970675 C10.5,12.7748295 10.2806926,13 9.99356318,13 L0.506436825,13 C0.22673949,13 0,12.7743607 0,12.506259 L0,0.493741035 Z M2,2 L2,11 L8.5,11 L8.5,4.5 L6.5,4.5 L6.5,2 L2,2 Z" id="Combined-Shape"></path>
        </g>
    </g>
</svg>