<?xml version="1.0" encoding="UTF-8" standalone="no"?>
<svg width="19px" height="20px" viewBox="0 0 19 20" version="1.1" xmlns="http://www.w3.org/2000/svg" xmlns:xlink="http://www.w3.org/1999/xlink">
    <!-- Generator: Sketch 3.7.1 (28215) - http://www.bohemiancoding.com/sketch -->
    <title>person-location</title>
    <desc>Created with Sketch.</desc>
    <defs></defs>
    <g id="Page-1" stroke="none" stroke-width="1" fill="none" fill-rule="evenodd">
        <g id="person-location" fill="#000000">
            <g id="Combined-Shape">
                <path d="M12.367441,8.17160934 C12.1189521,7.79736024 11.7093004,7.53978526 11.2371116,7.5 C10.6895526,7.94067251 9.99358306,8.20441401 9.23601335,8.20441401 C8.48089529,8.20441401 7.78697931,7.9423768 7.24023581,7.50427278 C6.72139701,7.56304001 6.28305387,7.8852636 6.05937118,8.33367396 C6.68358879,9.38432972 7.84112896,10.0912227 9.16810461,10.0912227 C10.5622177,10.0912227 11.7693167,9.31099063 12.367441,8.17160934 Z M10.604243,5.51093773 C10.6039846,6.25801546 9.91598589,6.93740923 9.16078973,6.93740923 C8.40481822,6.93740923 7.71733643,6.25801546 7.71733643,5.51093773 C7.71707798,4.76360459 8.40481822,4.08267835 9.16078973,4.08267835 C9.9170197,4.08267835 10.6060522,4.76309376 10.604243,5.51093773 Z"></path>
                <path d="M5.22189735,15.7343129 L2.2366398,15.7343129 L0.0485610995,19.829765 L8.60757511,19.829765 L8.38179338,19.5811102 L8.38179338,19.5811102 C8.32054263,19.5136544 8.20913946,19.3889388 8.05470729,19.2128417 C7.79925715,18.9215549 7.51511065,18.5907295 7.20937436,18.2262109 C6.53839703,17.4262283 5.86737495,16.5886795 5.22189735,15.7343129 Z M9.72863412,19.829765 L18.6472301,19.829765 L16.4591514,15.7343129 L13.1143119,15.7343129 C12.4688343,16.5886795 11.7978122,17.4262283 11.1268349,18.2262109 C10.8210986,18.5907295 10.5369521,18.9215549 10.2815019,19.2128417 C10.1270698,19.3889388 10.0156666,19.5136544 9.95441584,19.5811102 L9.72863412,19.829765 Z M9.16810461,18.3177318 C9.16810461,18.3177318 2.26873158,10.7194117 2.26873158,6.95405856 C2.26873158,3.18898953 5.35792585,0.135854622 9.16810461,0.135854622 C12.9782834,0.135854622 16.0674776,3.18898953 16.0674776,6.95405856 C16.0674776,10.7194117 9.16810461,18.3177318 9.16810461,18.3177318 Z M4.56852259,6.54546929 C4.56852259,9.05570471 6.62798544,11.0912227 9.16810461,11.0912227 C11.7082238,11.0912227 13.7676866,9.05570471 13.7676866,6.54546929 C13.7676866,4.03523388 11.7082238,2 9.16810461,2 C6.62798544,2 4.56852259,4.03523388 4.56852259,6.54546929 Z"></path>
            </g>
        </g>
    </g>
</svg>