<svg id="piggy-bank" xmlns="http://www.w3.org/2000/svg" width="20" height="21.08" viewBox="0 0 20 21.08"><title>betaFEC_icons</title><path d="M19.63,9.64A0.5,0.5,0,0,0,19.38,9a1.38,1.38,0,0,0-1.48.41,8.8,8.8,0,0,0-3.52-2.14L13.53,9c-0.37-.77-4-1.1-5.53-0.17L7.5,7.15a10,10,0,0,0-1.75.71A3.09,3.09,0,0,0,2,6.33L3.23,9.9A5.67,5.67,0,0,0,2.16,12H0.72a0.32,0.32,0,0,0-.4.32v3.83a0.41,0.41,0,0,0,.4.42H3.2A7.47,7.47,0,0,0,5,18.2V21H8.11V19.55a11.61,11.61,0,0,0,5.6-.06V21h3.15V18a5.94,5.94,0,0,0,2.72-4.77,5.32,5.32,0,0,0-1-3.1A0.82,0.82,0,0,1,19,9.89,0.5,0.5,0,0,0,19.63,9.64ZM4,12.41a0.63,0.63,0,1,1,.61-0.65s0,0,0,0A0.62,0.62,0,0,1,4,12.41Z"/><path d="M11,7.48a3.72,3.72,0,0,0,3.74-3.7v0A3.72,3.72,0,1,0,11,7.48ZM10.19,3.55a1,1,0,0,1-.4-0.36,1.09,1.09,0,0,1-.15-0.6,1.09,1.09,0,0,1,.3-0.79,1.31,1.31,0,0,1,.86-0.36V1.15q0-.23.17-0.23a0.18,0.18,0,0,1,.17.22v0.3a1.66,1.66,0,0,1,.5.12,1,1,0,0,1,.36.28,1.19,1.19,0,0,1,.19.29,0.69,0.69,0,0,1,.07.28,0.33,0.33,0,0,1-.1.24,0.32,0.32,0,0,1-.24.1,0.34,0.34,0,0,1-.34-0.3A0.62,0.62,0,0,0,11.14,2V3.16l0.54,0.17a1.1,1.1,0,0,1,.36.23,1,1,0,0,1,.26.37,1.18,1.18,0,0,1,.09.47,1.27,1.27,0,0,1-.15.64h0a1.17,1.17,0,0,1-.43.45,1.49,1.49,0,0,1-.67.21V6a0.68,0.68,0,0,1,0,.24,0.13,0.13,0,0,1-.14.08,0.15,0.15,0,0,1-.14-0.06,0.36,0.36,0,0,1,0-.19V5.66a1.68,1.68,0,0,1-.55-0.15,1.32,1.32,0,0,1-.4-0.29,1.22,1.22,0,0,1-.23-0.36,1,1,0,0,1-.08-0.37,0.34,0.34,0,0,1,.1-0.24A0.33,0.33,0,0,1,10,4.14a0.35,0.35,0,0,1,.21.06,0.3,0.3,0,0,1,.12.16,3.59,3.59,0,0,0,.13.35,0.67,0.67,0,0,0,.16.22,0.73,0.73,0,0,0,.2.11V3.78A3.26,3.26,0,0,1,10.19,3.55Z"/><path d="M10.8,2a0.94,0.94,0,0,0-.36.18,0.44,0.44,0,0,0-.12.35,0.44,0.44,0,0,0,.12.33A1.09,1.09,0,0,0,10.8,3V2Z"/><path d="M11.71,4.48a0.48,0.48,0,0,0-.15-0.38,1.17,1.17,0,0,0-.42-0.21V5.11a0.74,0.74,0,0,0,.42-0.23A0.58,0.58,0,0,0,11.71,4.48Z"/></svg>