<?xml version="1.0" encoding="UTF-8" standalone="no"?>
<svg width="20px" height="20px" viewBox="0 0 20 20" version="1.1" xmlns="http://www.w3.org/2000/svg" xmlns:xlink="http://www.w3.org/1999/xlink">
    <!-- Generator: Sketch 3.7.1 (28215) - http://www.bohemiancoding.com/sketch -->
    <title>plus</title>
    <desc>Created with Sketch.</desc>
    <defs></defs>
    <g id="Page-1" stroke="none" stroke-width="1" fill="none" fill-rule="evenodd">
        <g id="plus" fill="#000000">
            <path d="M16.1455744,11.4769231 L11.6126177,11.4769231 L11.6126177,15.9384615 C11.6126177,16.6777385 11.0038416,17.2769231 10.2527307,17.2769231 C9.50161977,17.2769231 8.89284369,16.6777385 8.89284369,15.9384615 L8.89284369,11.4769231 L4.35988701,11.4769231 C3.60877608,11.4769231 3,10.8777385 3,10.1384615 C3,9.39918462 3.60877608,8.8 4.35988701,8.8 L8.89284369,8.8 L8.89284369,4.33846154 C8.89284369,3.59918462 9.50161977,3 10.2527307,3 C11.0038416,3 11.6126177,3.59918462 11.6126177,4.33846154 L11.6126177,8.8 L16.1455744,8.8 C16.8966853,8.8 17.5054614,9.39918462 17.5054614,10.1384615 C17.5054614,10.8777385 16.8966853,11.4769231 16.1455744,11.4769231 L16.1455744,11.4769231 Z" id="Path"></path>
        </g>
    </g>
</svg>