<?xml version="1.0" encoding="UTF-8" standalone="no"?>
<svg width="20px" height="20px" viewBox="0 0 20 20" version="1.1" xmlns="http://www.w3.org/2000/svg" xmlns:xlink="http://www.w3.org/1999/xlink">
    <!-- Generator: Sketch 43.2 (39069) - http://www.bohemiancoding.com/sketch -->
    <title>pop-up</title>
    <desc>Created with Sketch.</desc>
    <defs></defs>
    <g id="Images-/-icons" stroke="none" stroke-width="1" fill="none" fill-rule="evenodd">
        <g id="pop-up" fill-rule="nonzero" fill="#000000">
            <g id="Group">
                <path d="M6.55869924,13.4413008 L18,13.4413008 L18,2 L6.55869924,2 L6.55869924,13.4413008 Z M4.55869924,1.00124923 C4.55869924,0.448274551 5.00417461,0 5.55994847,0 L18.9987508,0 C19.5517254,0 20,0.445475377 20,1.00124923 L20,14.4400515 C20,14.9930262 19.5545246,15.4413008 18.9987508,15.4413008 L5.55994847,15.4413008 C5.00697379,15.4413008 4.55869924,14.9958254 4.55869924,14.4400515 L4.55869924,1.00124923 Z M2,7 L2,18 L13,18 C13.5522847,18 14,18.4477153 14,19 C14,19.5522847 13.5522847,20 13,20 L8.8817842e-16,20 L8.8817842e-16,7 C8.8817842e-16,6.44771525 0.44771525,6 1,6 C1.55228475,6 2,6.44771525 2,7 Z" id="Combined-Shape"></path>
            </g>
        </g>
    </g>
</svg>
