<svg id="question-bubble" xmlns="http://www.w3.org/2000/svg" width="20" height="20" viewBox="0 0 20 20"><defs><style>.cls-1{fill-rule:evenodd;}</style></defs><path class="cls-1" d="M16.35,4.49H3.67A0.65,0.65,0,0,0,3,5.15v9.2a0.63,0.63,0,0,0,.65.64H6l0.06,1.72a0.23,0.23,0,0,0,.22.13,0.29,0.29,0,0,0,.22-0.13L8.85,15h7.5A0.62,0.62,0,0,0,17,14.35V5.15A0.65,0.65,0,0,0,16.35,4.49ZM9.86,13.55a0.79,0.79,0,0,1-.8-0.8A0.81,0.81,0,0,1,9.88,12a0.78,0.78,0,0,1,.8.8A0.81,0.81,0,0,1,9.86,13.55ZM9.81,10.47a0.4,0.4,0,0,0,.45.36,1.24,1.24,0,0,0,.61-0.17L11,11a2.24,2.24,0,0,1-1.06.29,1.08,1.08,0,0,1-1.26-1c0-1.27,2.12-1.88,2.12-3.08A0.74,0.74,0,0,0,10,6.29c-0.72,0-.81.72-0.83,1.44H8.89a0.61,0.61,0,0,1-.75-0.55C8.14,6.54,8.9,6,10,6a1.62,1.62,0,0,1,1.87,1.54C11.85,9.16,9.81,9.68,9.81,10.47Z"/></svg>