<svg id="question-circle" xmlns="http://www.w3.org/2000/svg" width="20" height="20" viewBox="0 0 20 20"><defs><style>.cls-1{fill-rule:evenodd;}</style></defs><title>betaFEC_icons</title><path class="cls-1" d="M10,0A10,10,0,1,0,20,10,10,10,0,0,0,10,0ZM9.88,17.28A1.45,1.45,0,0,1,8.4,15.8a1.49,1.49,0,0,1,1.5-1.46,1.44,1.44,0,0,1,1.48,1.48A1.49,1.49,0,0,1,9.88,17.28Zm-0.1-5.66a0.74,0.74,0,0,0,.82.66A2.29,2.29,0,0,0,11.72,12l0.2,0.6a4.14,4.14,0,0,1-2,.54c-1.38,0-2.32-.7-2.32-1.92,0-2.34,3.9-3.46,3.9-5.68a1.37,1.37,0,0,0-1.36-1.58c-1.32,0-1.5,1.32-1.52,2.66H8.08a1.13,1.13,0,0,1-1.38-1c0-1.18,1.4-2.24,3.4-2.24s3.44,1,3.44,2.84C13.54,9.2,9.78,10.16,9.78,11.62Z"/></svg>