<?xml version="1.0" encoding="UTF-8" standalone="no"?>
<svg width="20px" height="20px" viewBox="0 0 20 20" version="1.1" xmlns="http://www.w3.org/2000/svg" xmlns:xlink="http://www.w3.org/1999/xlink">
    <!-- Generator: Sketch 43.2 (39069) - http://www.bohemiancoding.com/sketch -->
    <title>scale</title>
    <desc>Created with Sketch.</desc>
    <defs></defs>
    <g id="Images-/-icons" stroke="none" stroke-width="1" fill="none" fill-rule="evenodd">
        <g id="scale" fill="#000000">
            <path d="M11.7324356,3 L18,3 C18.2761424,3 18.5,3.22385763 18.5,3.5 C18.5,3.77614237 18.2761424,4 18,4 L11,4 L11,16.1426909 C11.9570725,16.4275296 12.742581,17.1107239 13.1642516,18 L14.9975267,18 C15.5511774,18 16,18.4438648 16,19 C16,19.5522847 15.544239,20 14.9975267,20 L5.00247329,20 C4.44882258,20 4,19.5561352 4,19 C4,18.4477153 4.45576096,18 5.00247329,18 L6.83574843,18 C7.25741902,17.1107239 8.04292753,16.4275296 9,16.1426909 L9,4 L2,4 C1.72385763,4 1.5,3.77614237 1.5,3.5 C1.5,3.22385763 1.72385763,3 2,3 L8.26756439,3 C8.09739429,2.70582663 8,2.36428714 8,2 C8,0.8954305 8.8954305,5.91645679e-31 10,5.91645679e-31 C11.1045695,5.91645679e-31 12,0.8954305 12,2 C12,2.36428714 11.9026057,2.70582663 11.7324356,3 Z M13.5643034,9.77310481 L16.0626592,4.7763932 C16.2469214,4.40786893 16.7728243,4.40786893 16.9570864,4.7763932 L19.4545721,9.77136449 C19.7982757,9.771699 20.0063498,9.77229531 20.0098728,9.773258 C20.0098728,11.7062546 18.4428694,13.273258 16.5098728,13.273258 C14.5768762,13.273258 13.0098728,11.7062546 13.0098728,9.773258 C13.1495184,9.773258 13.3383302,9.77320087 13.5643034,9.77310481 Z M14.682624,9.77253153 C15.8219907,9.77190237 17.2469431,9.77108241 18.3363629,9.7710141 L16.5098728,6.11803399 L14.682624,9.77253153 Z M0.5544306,9.77310481 L3.0527864,4.7763932 C3.23704854,4.40786893 3.76295146,4.40786893 3.9472136,4.7763932 L6.44469924,9.77136449 C6.7884029,9.771699 6.99647698,9.77229531 7,9.773258 C7,11.7062546 5.43299662,13.273258 3.5,13.273258 C1.56700338,13.273258 0,11.7062546 0,9.773258 C0.139645595,9.773258 0.328457424,9.77320087 0.5544306,9.77310481 Z M1.67275123,9.77253153 C2.81211785,9.77190237 4.23707027,9.77108241 5.32649005,9.7710141 L3.5,6.11803399 L1.67275123,9.77253153 Z"></path>
        </g>
    </g>
</svg>