<?xml version="1.0" encoding="UTF-8" standalone="no"?>
<svg width="20px" height="20px" viewBox="0 0 20 20" version="1.1" xmlns="http://www.w3.org/2000/svg" xmlns:xlink="http://www.w3.org/1999/xlink">
    <!-- Generator: Sketch 3.8.3 (29802) - http://www.bohemiancoding.com/sketch -->
    <title>share</title>
    <desc>Created with Sketch.</desc>
    <defs></defs>
    <g id="Page-1" stroke="none" stroke-width="1" fill="none" fill-rule="evenodd">
        <g id="share" fill="#000000">
            <path d="M2,7.5 L2,18 L18,18 L18,10 C18,9.44771525 18.4477153,9 19,9 C19.5522847,9 20,9.44771525 20,10 L20,19 C20,19.5522847 19.5522847,20 19,20 L1,20 C0.44771525,20 0,19.5522847 0,19 L0,7.5 L8.8817842e-15,1 C7.10542736e-15,0.44771525 0.44771525,8.70414851e-14 1,8.70414851e-14 L10,0 C10.5522847,0 11,0.44771525 11,1 C11,1.55228475 10.5522847,2 10,2 L2,2 L2,7.5 Z M18.6010574,0.344519416 C18.8806859,0.333430696 19.1646536,0.429372229 19.3779909,0.642709559 C19.5913283,0.856046889 19.6872698,1.14001454 19.6725652,1.41940208 L19.4351219,5.9997666 C19.4184889,6.24299527 19.3230295,6.48309016 19.1369318,6.66918781 C18.7377379,7.06838173 18.090012,7.06862279 17.690577,6.66918781 C17.4772397,6.45585048 17.3815392,6.17164176 17.3962438,5.89225423 L17.4933907,3.97366462 L12.3390643,9.12799093 C11.9396294,9.52742591 11.2921445,9.52742591 10.8927096,9.12799093 C10.4932746,8.72855596 10.4932746,8.08107113 10.8927096,7.68163615 L16.0470359,2.52730984 L14.1284463,2.62831361 C13.8490587,2.63916127 13.56485,2.5434608 13.3515127,2.33012347 C12.9520777,1.93068849 12.9523188,1.28296261 13.3515127,0.883768689 C13.5376103,0.697671041 13.7777052,0.602211626 14.0211749,0.589194433 L18.6010574,0.344519416 Z"></path>
        </g>
    </g>
</svg>