<?xml version="1.0" encoding="UTF-8"?>
<svg width="20px" height="20px" viewBox="0 0 20 20" version="1.1" xmlns="http://www.w3.org/2000/svg" xmlns:xlink="http://www.w3.org/1999/xlink">
    <!-- Generator: Sketch 63.1 (92452) - https://sketch.com -->
    <title>whistleblower-shield-scales</title>
    <desc>Created with Sketch.</desc>
    <g id="whistleblower-shield-scales" stroke="none" stroke-width="1" fill="none" fill-rule="evenodd">
        <path d="M2,4.18580198 L2,4.66388959 C2,18.2035479 9.99944698,18.9999983 9.99944698,18.9999983 C9.99944698,19.0010851 18,18.4697557 18,4.66388959 L18,4.18580198 C11.9993087,4.23904348 9.99944698,1 9.99944698,1 C9.99944698,1 7.99958523,4.23904348 2,4.18580198 Z" id="Shape-Copy" stroke="#000000" stroke-linejoin="round"></path>
        <path d="M9.99753301,5 C10.5495453,5 10.9970396,5.44771525 10.9970396,6 C10.9970396,6.18219703 10.9483379,6.35301356 10.8632485,6.5001295 L13.9955594,6.5 C14.1335625,6.5 14.2454361,6.61192881 14.2454361,6.75 C14.2454361,6.88807119 14.1335625,7 13.9955594,7 L13.9955594,7 L10.497,6.999 L10.4981043,13.0715892 C10.9760422,13.2141568 11.3682806,13.5556272 11.5788891,14.0000229 L12.5052899,14 C12.7462151,14 12.9465921,14.1675649 12.988146,14.4070209 L12.9960528,14.5 C12.9960528,14.7761424 12.7682848,15 12.5052899,15 L7.48977613,15 C7.21873525,15 6.99901321,14.7879257 6.99901321,14.5 C6.99901321,14.2238576 7.22678125,14 7.48977613,14 L8.41617698,14.0000229 C8.62678547,13.5556272 9.01902379,13.2141568 9.49696169,13.0715892 L9.497,6.999 L5.9995066,7 C5.88121826,7 5.78212709,6.91776659 5.75622937,6.80732271 L5.74962995,6.75 C5.74962995,6.61192881 5.86150354,6.5 5.9995066,6.5 L5.9995066,6.5 L9.13181749,6.5001295 C9.0467281,6.35301356 8.99802641,6.18219703 8.99802641,6 C8.99802641,5.44771525 9.44552076,5 9.99753301,5 Z M6.52564008,7.3881966 C6.61772569,7.20393447 6.88054742,7.20393447 6.97263303,7.3881966 L6.97263303,7.3881966 L8.29598378,9.88577016 C8.35946902,9.88585886 8.40981783,9.88597254 8.44440888,9.88611516 L8.49827311,9.886629 C8.49827311,10.8531273 7.715158,11.636629 6.74913655,11.636629 C5.78311511,11.636629 5,10.8531273 5,9.886629 C5.05133112,9.886629 5.11595511,9.88661355 5.19148464,9.88658626 Z M13.027367,7.3881966 C13.1194526,7.20393447 13.3822743,7.20393447 13.4743599,7.3881966 L13.4743599,7.3881966 L14.7977107,9.88577016 C14.8611959,9.88585886 14.9115447,9.88597254 14.9461358,9.88611516 L15,9.886629 C15,10.8531273 14.2168849,11.636629 13.2508634,11.636629 C12.284842,11.636629 11.5017269,10.8531273 11.5017269,9.886629 C11.5530128,9.886629 11.6175681,9.88661357 11.6930119,9.88658633 Z M13.2508634,8.05901699 L12.2632222,9.88630679 C12.9129171,9.88595023 13.7760172,9.88543516 14.3578258,9.88551257 L13.2508634,8.05901699 Z M6.74913655,8.05901699 L5.76237125,9.8863063 C6.41232048,9.88594957 7.27549369,9.88543463 7.85705122,9.8855127 L6.74913655,8.05901699 Z" id="scale" fill="#000000"></path>
    </g>
</svg>