<?xml version="1.0" encoding="UTF-8"?>
<svg width="20px" height="20px" viewBox="0 0 20 20" version="1.1" xmlns="http://www.w3.org/2000/svg" xmlns:xlink="http://www.w3.org/1999/xlink">
    <title>shield-scales</title>
    <g stroke="none" stroke-width="1" fill="none" fill-rule="evenodd">
        <g id="shield-scales" transform="translate(1.5, 0.5)" fill="#000000" fill-rule="nonzero">
            <path d="M8.92488849,0.237322395 C8.96996365,0.310327655 9.08124503,0.458822953 9.2658245,0.65829222 C9.58390237,1.00202903 9.98984056,1.34848241 10.4911955,1.67378164 C11.9737528,2.63572429 13.949825,3.20840888 16.4955639,3.18582166 C16.7734294,3.18335628 17,3.40792558 17,3.68580198 L17,4.16388959 C17,10.3349699 15.449483,14.4512978 12.840063,16.8758424 C11.9127917,17.7374172 10.9158744,18.3195997 9.91630777,18.6732569 C9.5633243,18.7981461 9.23389845,18.8855188 8.93616935,18.9418476 L8.7379084,18.9752917 L8.53313361,18.9988821 L8.49860846,19 L8.453,18.954 L8.4499102,18.9975401 C8.19046711,18.971709 7.78209064,18.8851628 7.26863378,18.703697 L7.07124746,18.6311311 C6.07464834,18.25077 5.08084099,17.6471953 4.15614185,16.7725682 C1.55009316,14.3076356 0,10.2178313 0,4.16388959 L0,3.68580198 C0,3.40792526 0.226571144,3.18335583 0.504436924,3.18582167 C3.04967701,3.20840863 5.02542931,2.63573053 6.50781226,1.6737953 C7.00911178,1.34849631 7.4150158,1.00204205 7.73307599,0.658303379 L7.89347936,0.476730179 C7.93897878,0.422474804 7.97659734,0.374791124 8.00659752,0.334587155 L8.07400547,0.237322392 C8.26937672,-0.0791074653 8.72951724,-0.0791074638 8.92488849,0.237322395 Z M8.499,1.314 L8.45297328,1.36526697 C8.12160198,1.72008537 7.65963224,2.11845928 7.05215851,2.51265593 C5.57820974,3.46911813 3.68728513,4.07291743 1.34217035,4.17201194 L1,4.182 L1.00334494,4.6421136 C1.07904083,10.0105451 2.43530076,13.6333637 4.6460338,15.8537771 L4.84330513,16.0460652 C5.66848502,16.826562 6.54954805,17.361663 7.42781932,17.6968632 C7.81669451,17.845281 8.13586018,17.9313162 8.35892712,17.9737982 L8.507,17.997 L8.75027214,17.9592784 C8.99915851,17.9121904 9.27931952,17.8378841 9.58275901,17.730524 C10.4581255,17.4208102 11.3364688,16.9078728 12.159384,16.1432606 C14.485639,13.981819 15.9209481,10.2798414 15.9968331,4.63849926 L16,4.182 L15.6576843,4.17201208 C13.4501469,4.07874758 11.6450562,3.5384133 10.2113639,2.67776406 L9.94689138,2.51266958 C9.33935027,2.11847253 8.87733882,1.72009643 8.54594429,1.36527464 L8.499,1.314 Z" id="Shape"></path>
            <path d="M8.49753301,4.5 C9.0495453,4.5 9.4970396,4.94771525 9.4970396,5.5 C9.4970396,5.68219703 9.4483379,5.85301356 9.3632485,6.0001295 L12.4955594,6 C12.6335625,6 12.7454361,6.11192881 12.7454361,6.25 C12.7454361,6.38807119 12.6335625,6.5 12.4955594,6.5 L12.4955594,6.5 L8.997,6.499 L8.9981043,12.5715892 C9.4760422,12.7141568 9.8682806,13.0556272 10.0788891,13.5000229 L11.0052899,13.5 C11.2462151,13.5 11.4465921,13.6675649 11.488146,13.9070209 L11.4960528,14 C11.4960528,14.2761424 11.2682848,14.5 11.0052899,14.5 L5.98977613,14.5 C5.71873525,14.5 5.49901321,14.2879257 5.49901321,14 C5.49901321,13.7238576 5.72678125,13.5 5.98977613,13.5 L6.91617698,13.5000229 C7.12678547,13.0556272 7.51902379,12.7141568 7.99696169,12.5715892 L7.997,6.499 L4.4995066,6.5 C4.38121826,6.5 4.28212709,6.41776659 4.25622937,6.30732271 L4.24962995,6.25 C4.24962995,6.11192881 4.36150354,6 4.4995066,6 L4.4995066,6 L7.63181749,6.0001295 C7.5467281,5.85301356 7.49802641,5.68219703 7.49802641,5.5 C7.49802641,4.94771525 7.94552076,4.5 8.49753301,4.5 Z" id="scale-path"></path>
            <path d="M5.38414521,6.78900275 L5.43076461,6.82773559 L5.47263303,6.8881966 L6.79598378,9.38577016 L6.99827311,9.386629 C6.99827311,10.3531273 6.215158,11.136629 5.24913655,11.136629 C4.28311511,11.136629 3.5,10.3531273 3.5,9.386629 L3.69148464,9.38658626 L5.02564008,6.8881966 C5.09614313,6.74712091 5.26672855,6.71405629 5.38414521,6.78900275 Z M5.24913655,7.55901699 L4.26237125,9.3863063 L6.35705122,9.3855127 L5.24913655,7.55901699 Z M11.9324915,6.82773559 L11.9743599,6.8881966 L13.2977107,9.38577016 L13.5,9.386629 C13.5,10.3531273 12.7168849,11.136629 11.7508634,11.136629 C10.784842,11.136629 10.0017269,10.3531273 10.0017269,9.386629 L10.1930119,9.38658633 L11.527367,6.8881966 C11.6079419,6.72696724 11.8192366,6.70681357 11.9324915,6.82773559 Z M11.7508634,7.55901699 L10.7632222,9.38630679 L12.8578258,9.38551257 L11.7508634,7.55901699 Z" id="Shape"></path>
        </g>
    </g>
</svg>
