<svg id="shield" xmlns="http://www.w3.org/2000/svg" width="20" height="20" viewBox="0 0 20 20"><defs><style>.cls-1{fill-rule:evenodd;}</style></defs><path class="cls-1" d="M10,2.88S8.44,5.45,3.77,5.4V5.78C3.77,16.52,10,17.37,10,17.37s6.23-.65,6.23-11.59V5.4C11.56,5.45,10,2.88,10,2.88Zm2.94,5.64L11.62,9.81l0.31,1.82a0.31,0.31,0,0,1,0,.15,0.13,0.13,0,0,1-.08.09,0.21,0.21,0,0,1-.14,0l-0.07,0L10,11l-1.64.87a0.29,0.29,0,0,1-.19,0,0.19,0.19,0,0,1-.1-0.25L8.39,9.82,7.06,8.53a0.18,0.18,0,0,1,.11-0.34L9,7.92,9.82,6.26A0.19,0.19,0,0,1,10,6.12a0.27,0.27,0,0,1,.14.14L11,7.92l1.83,0.26,0.07,0a0.22,0.22,0,0,1,.11.08,0.13,0.13,0,0,1,0,.12A0.3,0.3,0,0,1,12.94,8.52Z"/></svg>