<?xml version="1.0" encoding="UTF-8" standalone="no"?>
<svg width="19px" height="19px" viewBox="0 0 19 19" version="1.1" xmlns="http://www.w3.org/2000/svg" xmlns:xlink="http://www.w3.org/1999/xlink">
    <!-- Generator: Sketch 3.7.2 (28276) - http://www.bohemiancoding.com/sketch -->
    <title>signal</title>
    <desc>Created with Sketch.</desc>
    <defs></defs>
    <g id="Page-1" stroke="none" stroke-width="1" fill="none" fill-rule="evenodd">
        <g id="signal" fill="#000000">
            <path d="M9,18 C9,13.581722 5.418278,10 1,10 C0.44771525,10 0,10.4477153 0,11 C0,11.5522847 0.44771525,12 1,12 C4.3137085,12 7,14.6862915 7,18 C7,18.5522847 7.44771525,19 8,19 C8.55228475,19 9,18.5522847 9,18 Z M19,18 C19,8.0588745 10.9411255,0 1,0 C0.44771525,0 0,0.44771525 0,1 C0,1.55228475 0.44771525,2 1,2 C9.836556,2 17,9.163444 17,18 C17,18.5522847 17.4477153,19 18,19 C18.5522847,19 19,18.5522847 19,18 Z M14.2989292,17.9436823 C13.9841016,10.7792136 8.23761694,5.02581371 1.07422282,4.70186904 C0.522501932,4.676919 0.0550177697,5.10395113 0.0300677201,5.65567202 C0.00511767056,6.20739291 0.43214981,6.67487708 0.9838707,6.69982713 C7.11275593,6.97698899 12.0314945,11.9016467 12.3008574,18.0314834 C12.325103,18.5832357 12.7920416,19.0108644 13.3437938,18.9866187 C13.8955461,18.9623731 14.3231748,18.4954346 14.2989292,17.9436823 Z M1.92857143,18.8571429 C2.99369202,18.8571429 3.85714286,17.993692 3.85714286,16.9285714 C3.85714286,15.8634508 2.99369202,15 1.92857143,15 C0.86345084,15 0,15.8634508 0,16.9285714 C0,17.993692 0.86345084,18.8571429 1.92857143,18.8571429 Z"></path>
        </g>
    </g>
</svg>