<?xml version="1.0" encoding="UTF-8" standalone="no"?>
<svg width="20px" height="20px" viewBox="0 0 20 20" version="1.1" xmlns="http://www.w3.org/2000/svg" xmlns:xlink="http://www.w3.org/1999/xlink">
    <!-- Generator: Sketch 3.7.1 (28215) - http://www.bohemiancoding.com/sketch -->
    <title>sort</title>
    <desc>Created with Sketch.</desc>
    <defs></defs>
    <g id="Page-1" stroke="none" stroke-width="1" fill="none" fill-rule="evenodd">
        <g id="sort" fill="#000000">
            <path d="M9.239864,18.5969426 L5.55535003,12.3633806 C5.47415957,12.2265913 5.4310094,12.0784502 5.4310094,11.9203763 C5.4310094,11.4501276 5.8122639,11.0689906 6.28265759,11.0689906 L13.6636086,11.0689906 C14.1337184,11.0689906 14.5152568,11.4501276 14.5152568,11.9203763 C14.5152568,12.0784502 14.4718227,12.2265913 14.3965938,12.3534478 C14.3934711,12.3591237 10.7064022,18.5969426 10.7064022,18.5969426 C10.5579315,18.84725 10.2851202,19.0152568 9.97313309,19.0152568 C9.66086209,19.0152568 9.38805078,18.84725 9.239864,18.5969426 Z M10.7064022,1.48730476 L14.3909162,7.72086678 C14.4721066,7.85765608 14.5152568,8.00579719 14.5152568,8.16387112 C14.5152568,8.63411981 14.1340023,9.01525679 13.6636086,9.01525679 L6.28265759,9.01525679 C5.81254779,9.01525679 5.4310094,8.63411981 5.4310094,8.16387112 C5.4310094,8.00579719 5.47444345,7.85765608 5.54967238,7.73079962 C5.55279509,7.72512371 9.239864,1.48730476 9.239864,1.48730476 C9.38833467,1.23699737 9.66114597,1.0689906 9.97313309,1.0689906 C10.2854041,1.0689906 10.5582154,1.23699737 10.7064022,1.48730476 Z" id="Combined-Shape"></path>
        </g>
    </g>
</svg>