<?xml version="1.0" encoding="UTF-8" standalone="no"?>
<svg width="20px" height="20px" viewBox="0 0 20 20" version="1.1" xmlns="http://www.w3.org/2000/svg" xmlns:xlink="http://www.w3.org/1999/xlink">
    <!-- Generator: Sketch 3.7.1 (28215) - http://www.bohemiancoding.com/sketch -->
    <title>sort-down</title>
    <desc>Created with Sketch.</desc>
    <defs></defs>
    <g id="Page-1" stroke="none" stroke-width="1" fill="none" fill-rule="evenodd">
        <g id="sort-down">
            <path d="M6.41831416,14.3088546 L12.6518762,10.6243406 C12.7886655,10.5431502 12.9368066,10.5 13.0948805,10.5 C13.5651292,10.5 13.9462662,10.8812545 13.9462662,11.3516482 L13.9462662,18.7325992 C13.9462662,19.202709 13.5651292,19.5842474 13.0948805,19.5842474 C12.9368066,19.5842474 12.7886655,19.5408133 12.661809,19.4655844 C12.6561331,19.4624617 6.41831416,15.7753928 6.41831416,15.7753928 C6.16800677,15.6269221 6,15.3541108 6,15.0421237 C6,14.7298527 6.16800677,14.4570414 6.41831416,14.3088546 Z" id="arrow-right" fill="#000000" transform="translate(9.973133, 15.042124) rotate(-90.000000) translate(-9.973133, -15.042124) "></path>
            <path d="M6.41831416,4.3088546 L12.6518762,0.624340636 C12.7886655,0.543150175 12.9368066,0.5 13.0948805,0.5 C13.5651292,0.5 13.9462662,0.881254508 13.9462662,1.35164819 L13.9462662,8.7325992 C13.9462662,9.202709 13.5651292,9.58424739 13.0948805,9.58424739 C12.9368066,9.58424739 12.7886655,9.54081333 12.661809,9.46558441 C12.6561331,9.4624617 6.41831416,5.77539279 6.41831416,5.77539279 C6.16800677,5.62692212 6,5.35411082 6,5.04212369 C6,4.72985269 6.16800677,4.45704139 6.41831416,4.3088546 Z" id="arrow-right-copy" fill="#D6D7D9" transform="translate(9.973133, 5.042124) rotate(-270.000000) translate(-9.973133, -5.042124) "></path>
        </g>
    </g>
</svg>