<?xml version="1.0" encoding="UTF-8" standalone="no"?>
<svg width="20px" height="18px" viewBox="0 0 20 18" version="1.1" xmlns="http://www.w3.org/2000/svg" xmlns:xlink="http://www.w3.org/1999/xlink">
    <!-- Generator: Sketch 42 (36781) - http://www.bohemiancoding.com/sketch -->
    <title>speaker</title>
    <desc>Created with Sketch.</desc>
    <defs></defs>
    <g id="Flat-SVG-icons" stroke="none" stroke-width="1" fill="none" fill-rule="evenodd">
        <g id="speaker" fill-rule="nonzero" fill="#000000">
            <path d="M10.4594595,0.297297297 C10.2702703,0.216216216 10.0540541,0.243243243 9.89189189,0.432432432 L5,5.32432432 L4.94594595,5.32432432 L1.2972973,5.32432432 C0.567567568,5.32432432 0,5.89189189 0,6.59459459 L0,11.2162162 C0,11.8918919 0.567567568,12.5135135 1.2972973,12.5135135 L4.97297297,12.5135135 L5.02702703,12.5135135 L9.91891892,17.3513514 C10.027027,17.4594595 10.1351351,17.5405405 10.2702703,17.5405405 C10.5675676,17.5405405 10.7837838,17.2432432 10.7837838,16.972973 L10.7837838,0.810810811 C10.7567568,0.567567568 10.6486486,0.378378378 10.4594595,0.297297297 L10.4594595,0.297297297 Z M12.1081081,6.51351351 C13.6338121,7.83783784 13.6338121,9.91891892 12.1081081,11.2702703 L14.0318218,12.8378378 C16.7515549,10.6216216 16.7515549,7.08108108 14.0318218,4.94594595 L12.1081081,6.51351351 Z M15.2432432,3.32432432 C18.2972973,6.37837838 18.2972973,11.3783784 15.2432432,14.4594595 L16.8378378,16.0540541 C20.8108108,12.0810811 20.8108108,5.72972973 16.8378378,1.75675676 L15.2432432,3.32432432 Z" id="Shape"></path>
        </g>
    </g>
</svg>