<svg id="stamp-circle" xmlns="http://www.w3.org/2000/svg" width="20" height="20" viewBox="0 0 20 20"><title>betaFEC_icons</title><path d="M10,0A10,10,0,1,0,20,10,10,10,0,0,0,10,0Zm6.5,4.8a1,1,0,0,0-.8,1.1A1.08,1.08,0,0,0,16.5,7V7.6a1,1,0,0,0-.8,1.1,1.08,1.08,0,0,0,.8,1.1v0.6a1,1,0,0,0-.8,1.1,1.08,1.08,0,0,0,.8,1.1v0.6a1,1,0,0,0-.8,1.1,1.08,1.08,0,0,0,.8,1.1v1.1H15.4a1.12,1.12,0,0,0-2.2,0H12.6a1.12,1.12,0,0,0-2.2,0H9.8a1.09,1.09,0,0,0-1.1-.9,1.17,1.17,0,0,0-1.1.9H7a1.09,1.09,0,0,0-1.1-.9,1.17,1.17,0,0,0-1.1.9H3.7V15.4a1,1,0,0,0,.8-1.1,1.08,1.08,0,0,0-.8-1.1V12.6a1,1,0,0,0,.8-1.1,1.08,1.08,0,0,0-.8-1.1V9.8a1,1,0,0,0,.8-1.1,1.08,1.08,0,0,0-.8-1.1V7a1,1,0,0,0,.8-1.1,1.08,1.08,0,0,0-.8-1.1V3.7H4.9a1.08,1.08,0,0,0,1,.8,1,1,0,0,0,1-.8H7.6a1.08,1.08,0,0,0,1,.8,1,1,0,0,0,1-.8h0.7a1.08,1.08,0,0,0,1,.8,1,1,0,0,0,1-.8H13a1.08,1.08,0,0,0,1,.8,1,1,0,0,0,1-.8h1.48V4.8h0Z"/><rect x="5.7" y="6.5" width="3.7" height="3.7"/><rect x="10" y="8" width="4.6" height="0.9"/><rect x="5.7" y="12.3" width="8.9" height="0.9"/><rect x="5.7" y="10.8" width="8.9" height="0.9"/><rect x="10" y="9.4" width="4.6" height="0.9"/><rect x="10" y="6.6" width="4.6" height="0.9"/></svg>