<?xml version="1.0" encoding="UTF-8" standalone="no"?>
<svg width="20px" height="19px" viewBox="0 0 20 19" version="1.1" xmlns="http://www.w3.org/2000/svg" xmlns:xlink="http://www.w3.org/1999/xlink">
    <!-- Generator: Sketch 3.7.1 (28215) - http://www.bohemiancoding.com/sketch -->
    <title>star</title>
    <desc>Created with Sketch.</desc>
    <defs></defs>
    <g id="Page-1" stroke="none" stroke-width="1" fill="none" fill-rule="evenodd">
        <g id="star" fill="#000000">
            <path d="M15.231924,1.57161146 L15.1620551,7.65486453 L20.1367215,11.1669417 C20.1833008,11.1995472 20.2438538,11.2554423 20.3183807,11.3299692 C20.4348289,11.4464174 20.5046978,11.5768393 20.5279874,11.7165771 C20.551277,11.8609729 20.5046978,11.9867369 20.3929075,12.0985272 C20.2857752,12.2056595 20.1367215,12.2848443 19.9504044,12.3360815 L14.1373111,14.1526731 L12.3346933,19.9657664 C12.2787981,20.1567414 12.1996134,20.3057951 12.097139,20.4082695 C11.9806908,20.5247177 11.8502688,20.5759549 11.710531,20.5526652 C11.5661353,20.5293756 11.4403712,20.4595067 11.3192651,20.3384006 C11.2866596,20.3057951 11.2307645,20.245242 11.1655535,20.1520835 L7.64881839,15.1820751 L1.55159154,15.2752336 C1.25814212,15.2612598 1.05319332,15.1960488 0.932087209,15.0796007 C0.72248048,14.8699939 0.750428044,14.5812024 1.0159299,14.2132262 L4.65377113,9.33171836 L2.69744166,3.56054642 C2.57167762,3.22051773 2.59496726,2.96433172 2.76265264,2.79664634 C2.93499595,2.62430303 3.19118195,2.60101339 3.52655272,2.72677743 L9.30238258,4.67379105 L14.1792325,1.03129189 C14.5472087,0.761132107 14.8360002,0.733184543 15.045607,0.942791272 C15.1667131,1.06855531 15.231924,1.27816204 15.231924,1.57161146 Z" transform="translate(10.663604, 10.681319) rotate(-27.000000) translate(-10.663604, -10.681319) "></path>
        </g>
    </g>
</svg>