<svg id="subsection-doc" xmlns="http://www.w3.org/2000/svg" width="20" height="20" viewBox="0 0 20 20"><path d="M7.68,8.64a0.25,0.25,0,0,1-.29.24c-0.28,0-.31-0.26-0.31-0.49-0.2,0-.39,0-0.39.23S7,9,7.35,9A0.61,0.61,0,0,0,8,8.41,0.56,0.56,0,0,0,7.73,8a0.56,0.56,0,0,0,.48-0.54c0-.59-1.09-0.63-1.09-1.07a0.25,0.25,0,0,1,.29-0.24c0.28,0,.31.26,0.31,0.49,0.2,0,.39,0,0.39-0.23S7.83,6,7.45,6a0.61,0.61,0,0,0-.68.58,0.55,0.55,0,0,0,.3.45,0.56,0.56,0,0,0-.48.54C6.59,8.15,7.68,8.19,7.68,8.64ZM7.22,7.12a1,1,0,0,1,.63.48,0.28,0.28,0,0,1-.26.28A1,1,0,0,1,7,7.39,0.28,0.28,0,0,1,7.22,7.12Z"/><path d="M15.27,3.56H4.51A0.47,0.47,0,0,0,4,4V16.44a0.47,0.47,0,0,0,.47.47H15.27a0.47,0.47,0,0,0,.47-0.47V4A0.47,0.47,0,0,0,15.27,3.56ZM7.39,5.13A2.33,2.33,0,1,1,5.07,7.46,2.32,2.32,0,0,1,7.39,5.13Zm6.33,9.09H5.82a0.5,0.5,0,1,1,0-1h7.9A0.5,0.5,0,1,1,13.72,14.22Zm0-2H5.82a0.5,0.5,0,1,1,0-1h7.9A0.5,0.5,0,1,1,13.72,12.26Zm0-2.25H11a0.5,0.5,0,1,1,0-1h2.69A0.5,0.5,0,1,1,13.72,10Zm0-2H11a0.5,0.5,0,1,1,0-1h2.69A0.5,0.5,0,1,1,13.72,8Zm0-2H11a0.5,0.5,0,1,1,0-1h2.69A0.5,0.5,0,1,1,13.72,6.09Z"/></svg>