<svg id="telephone-circle" xmlns="http://www.w3.org/2000/svg" width="20" height="20" viewBox="0 0 20 20"><title>betaFEC_icons</title><path d="M10,0A10,10,0,1,0,20,10,10,10,0,0,0,10,0ZM9.8,3a0.45,0.45,0,0,1,.4.3l0.4,2.9a0.33,0.33,0,0,1-.3.4l-0.7.2L9,3.1Zm0.9,13.6a6.05,6.05,0,0,1-1.5-.2A15,15,0,0,1,6.4,11h0a16.4,16.4,0,0,1-.3-6.1A4.14,4.14,0,0,1,7.3,4a4.88,4.88,0,0,1,1.3-.6L9.2,7.1a1.47,1.47,0,0,0-.4.2C8.5,7.5,8.4,7.5,8.5,8c0,0.3.2,1.2,0.4,2.3h0a19.93,19.93,0,0,0,.8,2.2,0.64,0.64,0,0,0,.7.5h0.5l1.4,3.5C11.8,16.5,11.2,16.6,10.7,16.6Zm2.6-.5-0.6.2-1.3-3.5,0.7-.2a0.3,0.3,0,0,1,.4.2l1.1,2.7Z"/></svg>