<svg id="timer" xmlns="http://www.w3.org/2000/svg" width="20" height="20" viewBox="0 0 20 20"><title>timer</title><path d="M12.82,11.5c-0.88-.65-1.12-0.95-1.12-1.5s0.21-.82,1.06-1.48l0,0A5.38,5.38,0,0,0,15.5,3.39a1.53,1.53,0,0,0-1.34-1.5h0a40.14,40.14,0,0,0-8.26,0h0A1.53,1.53,0,0,0,4.5,3.39,5.38,5.38,0,0,0,7.19,8.48C8.06,9.13,8.3,9.42,8.3,10s-0.24.85-1.12,1.5A5.39,5.39,0,0,0,4.5,16.59a1.53,1.53,0,0,0,1.34,1.5l0.32,0a37.32,37.32,0,0,0,7.68,0l0.32,0a1.53,1.53,0,0,0,1.34-1.5A5.37,5.37,0,0,0,12.82,11.5Zm0.65,3.07-0.81.12a21.21,21.21,0,0,1-5.33,0l-0.81-.12a0.23,0.23,0,0,1-.19-0.31,1.55,1.55,0,0,1,.08-0.19A4.09,4.09,0,0,1,8,12.44c1.23-.91,1.71-1.5,1.67-2.64h0v0h0v0A0.29,0.29,0,0,1,10,9.51a0.29,0.29,0,0,1,.29.28v0h0c0,1.14.44,1.73,1.67,2.64a4.09,4.09,0,0,1,1.63,1.63,1.55,1.55,0,0,1,.08.19A0.23,0.23,0,0,1,13.47,14.57Z"/></svg>