<svg id="training" xmlns="http://www.w3.org/2000/svg" width="20" height="15.94" viewBox="0 0 20 15.94"><defs><style>.cls-1{fill-rule:evenodd;}</style></defs><title>betaFEC_icons</title><path class="cls-1" d="M4.81,9.26a0.53,0.53,0,0,0,.77,0l1.9-2.11a0.56,0.56,0,0,0,.16-0.39,0.55,0.55,0,0,0-.54-0.56,0.53,0.53,0,0,0-.38.16L5.19,8.08,4.37,7.5A0.53,0.53,0,0,0,4,7.34a0.55,0.55,0,0,0-.54.56,0.56,0.56,0,0,0,.16.39Z"/><path class="cls-1" d="M0.69,13.86a2,2,0,0,0,2,2H17.32a2,2,0,0,0,2-2V3.45H0.69V13.86Zm9.43-8.53h6a0.69,0.69,0,1,1,0,1.38h-6A0.69,0.69,0,1,1,10.12,5.34Zm0,2.77h6a0.69,0.69,0,1,1,0,1.38h-6A0.69,0.69,0,1,1,10.12,8.11Zm0,2.76h6a0.69,0.69,0,1,1,0,1.38h-6A0.69,0.69,0,1,1,10.12,10.87Zm-4.6-6A2.76,2.76,0,1,1,2.76,7.59,2.76,2.76,0,0,1,5.52,4.83Z"/><path class="cls-1" d="M19,0H1A1,1,0,0,0,0,1V1.76a1,1,0,0,0,.69.95v0H19.31v0A1,1,0,0,0,20,1.76V1A1,1,0,0,0,19,0Z"/></svg>