<?xml version="1.0" encoding="UTF-8" standalone="no"?>
<svg width="20px" height="20px" viewBox="0 0 20 20" version="1.1" xmlns="http://www.w3.org/2000/svg" xmlns:xlink="http://www.w3.org/1999/xlink">
    <!-- Generator: Sketch 40.1 (33804) - http://www.bohemiancoding.com/sketch -->
    <title>twitter-circle</title>
    <desc>Created with Sketch.</desc>
    <defs></defs>
    <g id="Page-1" stroke="none" stroke-width="1" fill="none" fill-rule="evenodd">
        <g id="twitter-circle" fill="#212121">
            <path d="M10,20 C15.5228475,20 20,15.5228475 20,10 C20,4.4771525 15.5228475,0 10,0 C4.4771525,0 0,4.4771525 0,10 C0,15.5228475 4.4771525,20 10,20 Z M12.2271727,5.00057895 C13.1667786,4.98400986 13.6666947,5.32514883 14.1444417,5.75907465 C14.5499538,5.72446368 15.0768425,5.49857188 15.3872118,5.34171791 C15.4877123,5.28667174 15.5883975,5.23180968 15.6888981,5.17713171 C15.511729,5.65450534 15.2713775,6.02804607 14.9018904,6.31174555 C14.8198642,6.37470806 14.7383923,6.45976268 14.6356749,6.49989667 L14.6356749,6.5057879 C15.1620093,6.50044898 15.5961568,6.26369522 16.0085045,6.13537689 L16.0085045,6.14126812 C15.791985,6.4844322 15.4987969,6.8323829 15.186026,7.08202372 C15.0596614,7.18199051 14.9334815,7.28177319 14.8073017,7.38173998 C14.8141372,7.9371724 14.7989882,8.46719889 14.6947928,8.93389467 C14.0890186,11.6473578 12.4837815,13.4892873 9.94281824,14.2783438 C9.03036966,14.5616751 7.55593109,14.6782109 6.51065187,14.4195492 C5.99226136,14.2912309 5.52393637,14.1465275 5.08443137,13.9550626 C4.84038509,13.8486523 4.61425894,13.7335892 4.3979242,13.6023253 C4.32698266,13.5590616 4.25585638,13.515982 4.18491484,13.4729024 C4.42064766,13.4798982 4.69665458,13.5447017 4.96009894,13.5023585 C5.19860291,13.4638814 5.43248829,13.474007 5.6525179,13.4259566 C6.20120636,13.3059228 6.68855994,13.1472279 7.10829737,12.9025578 C7.31170007,12.7839968 7.62059134,12.6446324 7.76524557,12.4734186 C7.49256404,12.4783893 7.24556186,12.4152427 7.04326763,12.3439956 C6.25847687,12.0680284 5.80179072,11.5602781 5.50453829,10.7977322 C5.74230329,10.8236904 6.42733251,10.8853642 6.5875052,10.7507864 C6.28822059,10.7342174 6.00039008,10.5615307 5.79458572,10.4332124 C5.16331688,10.0396047 4.64862125,9.37941885 4.65250086,8.36373418 C4.73526599,8.40294767 4.81821586,8.44197707 4.90098099,8.48119056 C5.05949099,8.54783508 5.22077214,8.58355066 5.40994957,8.62239595 C5.4897588,8.63878093 5.64956201,8.68572666 5.74137957,8.65166799 L5.72937124,8.65166799 C5.60725572,8.5100944 5.40828688,8.41565064 5.28561714,8.26376739 C4.88065919,7.76209244 4.50119586,6.99015737 4.74117778,6.07075748 C4.80214317,5.83750164 4.89857932,5.63149273 5.00166624,5.4415006 C5.00554586,5.44352571 5.00942547,5.44555082 5.01348983,5.44739183 C5.06059945,5.54588581 5.16571855,5.61805336 5.23241098,5.70034647 C5.43913906,5.95569441 5.69426995,6.18545234 5.95438893,6.38814743 C6.84023443,7.0785258 7.6377725,7.50269427 8.91915402,7.81695451 C9.24411799,7.8964861 9.61970171,7.9574235 10.0080327,7.9579758 C9.89884927,7.64150635 9.93395055,7.12952175 10.0198563,6.82317785 C10.2356368,6.05308379 10.7047008,5.49801958 11.3926859,5.20051252 C11.5572925,5.12944958 11.7396344,5.07753312 11.9312135,5.03592632 C12.0298666,5.02414386 12.1285196,5.0123614 12.2271727,5.00057895 Z" id="Combined-Shape"></path>
        </g>
    </g>
</svg>