<?xml version="1.0" encoding="UTF-8" standalone="no"?>
<svg width="20px" height="12px" viewBox="0 0 20 12" version="1.1" xmlns="http://www.w3.org/2000/svg" xmlns:xlink="http://www.w3.org/1999/xlink">
    <!-- Generator: Sketch 3.7.1 (28215) - http://www.bohemiancoding.com/sketch -->
    <title>two-people</title>
    <desc>Created with Sketch.</desc>
    <defs></defs>
    <g id="Page-1" stroke="none" stroke-width="1" fill="none" fill-rule="evenodd">
        <g id="two-people" fill="#000000">
            <path d="M11.0143346,12 L12.0805006,17.3694006 C12.2664604,18.2271254 13.1495152,18.9756759 14.1479058,18.9756759 L15.9287499,18.9756759 C16.9266324,18.9756759 17.8101953,18.2271254 17.9961551,17.3694006 L19.740417,8.53893007 C19.7627728,8.41307653 19.7769992,8.28570669 19.7769992,8.15328248 C19.7769992,7.04024063 18.9206047,6.12267814 17.8258421,6.03091787 C17.0536435,6.6491367 16.072148,7.01913927 15.0037804,7.01913927 C13.9388703,7.01913927 12.9602709,6.65152764 12.1892223,6.03691215 C11.1238539,6.15695348 10.2991484,7.06055715 10.2991484,8.15328248 C10.2991484,8.28570669 10.3047373,8.41307653 10.3270931,8.53893007 L11,11.9278082 L11,12 L11.0143346,12 Z M12.3476623,10.5 L11.8964543,8.22731252 C11.9012023,8.25217252 11.8991484,8.22075071 11.8991484,8.15328248 C11.8991484,7.88382621 13.6006409,8.61913927 15.0037804,8.61913927 C16.4114433,8.61913927 18.1769992,7.878403 18.1769992,8.15328248 C18.1769992,8.17732403 18.1737176,8.21045889 18.1650779,8.25909689 L17.7223609,10.5 L12.3476623,10.5 Z M12.6454647,12 L13.6441726,17.0303874 C13.6755999,17.1753436 13.9266047,17.3756759 14.1479058,17.3756759 L15.9287499,17.3756759 C16.1497713,17.3756759 16.4011052,17.1751155 16.4264841,17.0593473 L17.4260181,12 L12.6454647,12 Z M7.82584206,6.03091787 C8.92060472,6.12267814 9.77699924,7.04024063 9.77699924,8.15328248 C9.77699924,8.28570669 9.76277281,8.41307653 9.74041699,8.53893007 L7.99615506,17.3694006 C7.8101953,18.2271254 6.92663238,18.9756759 5.92874993,18.9756759 L4.14790575,18.9756759 C3.14951522,18.9756759 2.26646039,18.2271254 2.08050062,17.3694006 L0.327093127,8.53893007 C0.304737309,8.41307653 0.299148354,8.28570669 0.299148354,8.15328248 C0.299148354,7.06055715 1.12385391,6.15695348 2.18922235,6.03691215 C2.96027087,6.65152764 3.93887034,7.01913927 5.00378041,7.01913927 C6.07214795,7.01913927 7.05364352,6.6491367 7.82584206,6.03091787 Z M4.92499995,5.27894463 C6.37474742,5.27894463 7.54999995,4.10982385 7.54999995,2.66764028 C7.54999995,1.22545671 6.37474742,0.0563359346 4.92499995,0.0563359346 C3.47525248,0.0563359346 2.29999995,1.22545671 2.29999995,2.66764028 C2.29999995,4.10982385 3.47525248,5.27894463 4.92499995,5.27894463 Z M15.0250001,5.5773796 C13.4924099,5.5773796 12.25,4.34145188 12.25,2.81685777 C12.25,1.29226366 13.4924099,0.0563359346 15.0250001,0.0563359346 C16.5575903,0.0563359346 17.8000002,1.29226366 17.8000002,2.81685777 C17.8000002,4.34145188 16.5575903,5.5773796 15.0250001,5.5773796 Z M15.0250001,3.9773796 C15.6758029,3.9773796 16.2000002,3.45591726 16.2000002,2.81685777 C16.2000002,2.17779828 15.6758029,1.65633593 15.0250001,1.65633593 C14.3741973,1.65633593 13.85,2.17779828 13.85,2.81685777 C13.85,3.45591726 14.3741973,3.9773796 15.0250001,3.9773796 Z" id="Combined-Shape"></path>
        </g>
    </g>
</svg>