<svg id="update" xmlns="http://www.w3.org/2000/svg" width="20" height="20" viewBox="0 0 20 20"><defs><style>.cls-1{fill-rule:evenodd;}</style></defs><title>update</title><path class="cls-1" d="M10.76,15.86a0.6,0.6,0,0,0,0-1.21H4.09a0.6,0.6,0,0,0,0,1.21h6.66Zm4-2.87a0.6,0.6,0,0,0,0-1.21H4.09a0.6,0.6,0,0,0,0,1.21H14.76Zm0.07-2.77a0.61,0.61,0,0,0,0-1.22H4a0.61,0.61,0,0,0,0,1.22h10.8Zm4.82-7.5A2.36,2.36,0,1,1,17.29.35,2.36,2.36,0,0,1,19.65,2.71Zm-4.3,3.72v0.2a1,1,0,0,1-1,1H4.51a1,1,0,0,1-1-1V5.49a1,1,0,0,1,1-1h9A4.21,4.21,0,0,0,15.35,6.43ZM19,6.55v13a0.5,0.5,0,0,1-.49.5h-18A0.5,0.5,0,0,1,0,19.51V1.28A0.49,0.49,0,0,1,.49.78H13.57a4.16,4.16,0,0,0-.49,1.93s0,0,0,.07H2V18H17V6.89c0.1,0,.19,0,0.29,0A4.18,4.18,0,0,0,19,6.55Z"/></svg>