<?xml version="1.0" encoding="UTF-8" standalone="no"?>
<svg width="20px" height="7px" viewBox="0 0 20 7" version="1.1" xmlns="http://www.w3.org/2000/svg" xmlns:xlink="http://www.w3.org/1999/xlink">
    <!-- Generator: Sketch 43.2 (39069) - http://www.bohemiancoding.com/sketch -->
    <title>usc</title>
    <desc>Created with Sketch.</desc>
    <defs></defs>
    <g id="Images-/-icons" stroke="none" stroke-width="1" fill="none" fill-rule="evenodd">
        <g id="usc" fill="#000000">
            <path d="M1.25592296,0.117 L1.25592296,3.753 C1.25592296,4.2330024 1.37742174,4.57799895 1.62042296,4.788 C1.86342417,4.99800105 2.17692104,5.103 2.56092296,5.103 C2.94492488,5.103 3.25842174,4.99800105 3.50142296,4.788 C3.74442417,4.57799895 3.86592296,4.2330024 3.86592296,3.753 L3.86592296,0.117 L4.92792296,0.117 L4.92792296,3.753 C4.92792296,4.49700372 4.72092503,5.07149797 4.30692296,5.4765 C3.89292089,5.88150202 3.31092671,6.084 2.56092296,6.084 C1.81091921,6.084 1.22892503,5.88150202 0.814922958,5.4765 C0.400920888,5.07149797 0.193922958,4.49700372 0.193922958,3.753 L0.193922958,0.117 L1.25592296,0.117 Z M5.11261129,5.78570586 C4.98948512,5.66793301 4.92792296,5.51804253 4.92792296,5.33602993 C4.92792296,5.15401733 4.98948512,5.00145023 5.11261129,4.87832406 C5.23573746,4.7551979 5.39365778,4.69363573 5.58637701,4.69363573 C5.77909623,4.69363573 5.93969317,4.7551979 6.06817265,4.87832406 C6.19665213,5.00145023 6.26089091,5.15401733 6.26089091,5.33602993 C6.26089091,5.51804253 6.19665213,5.66793301 6.06817265,5.78570586 C5.93969317,5.90347872 5.77909623,5.96236427 5.58637701,5.96236427 C5.39365778,5.96236427 5.23573746,5.90347872 5.11261129,5.78570586 Z M11.9015084,5.78570586 C11.7783822,5.66793301 11.7168201,5.51804253 11.7168201,5.33602993 C11.7168201,5.15401733 11.7783822,5.00145023 11.9015084,4.87832406 C12.0246346,4.7551979 12.1825549,4.69363573 12.3752741,4.69363573 C12.5679934,4.69363573 12.7285903,4.7551979 12.8570698,4.87832406 C12.9855493,5.00145023 13.049788,5.15401733 13.049788,5.33602993 C13.049788,5.51804253 12.9855493,5.66793301 12.8570698,5.78570586 C12.7285903,5.90347872 12.5679934,5.96236427 12.3752741,5.96236427 C12.1825549,5.96236427 12.0246346,5.90347872 11.9015084,5.78570586 Z M18.6577974,5.78570586 C18.5346713,5.66793301 18.4731091,5.51804253 18.4731091,5.33602993 C18.4731091,5.15401733 18.5346713,5.00145023 18.6577974,4.87832406 C18.7809236,4.7551979 18.9388439,4.69363573 19.1315631,4.69363573 C19.3242824,4.69363573 19.4848793,4.7551979 19.6133588,4.87832406 C19.7418383,5.00145023 19.806077,5.15401733 19.806077,5.33602993 C19.806077,5.51804253 19.7418383,5.66793301 19.6133588,5.78570586 C19.4848793,5.90347872 19.3242824,5.96236427 19.1315631,5.96236427 C18.9388439,5.96236427 18.7809236,5.90347872 18.6577974,5.78570586 Z M10.3255125,1.728 C10.229512,1.21799745 9.8695156,0.963 9.24551248,0.963 C8.93951095,0.963 8.70101334,1.02449938 8.53001248,1.1475 C8.35901163,1.27050061 8.27351248,1.41899913 8.27351248,1.593 C8.27351248,1.76700087 8.32901193,1.9034995 8.44001248,2.0025 C8.55101304,2.10150049 8.72351131,2.19299958 8.95751248,2.277 L10.2265125,2.772 C10.6585146,2.94000084 10.9915113,3.15149872 11.2255125,3.4065 C11.4595137,3.66150127 11.5765125,3.98099808 11.5765125,4.365 C11.5765125,4.89300264 11.3785145,5.31149845 10.9825125,5.6205 C10.5865105,5.92950154 10.0225161,6.084 9.29051248,6.084 C8.64250924,6.084 8.11751449,5.92500159 7.71551248,5.607 C7.26551023,5.25899826 7.0285126,4.76700318 7.00451248,4.131 L8.05751248,4.131 C8.05751248,4.6110024 8.30650999,4.91399937 8.80451248,5.04 C8.95451323,5.08200021 9.15251125,5.103 9.39851248,5.103 C9.64451371,5.103 9.87251143,5.04150061 10.0825125,4.9185 C10.2925135,4.79549938 10.3975125,4.63050103 10.3975125,4.4235 C10.3975125,4.21649896 10.3405131,4.05750055 10.2265125,3.9465 C10.1125119,3.83549944 9.92651377,3.73200048 9.66851248,3.636 L8.50751248,3.177 C8.05751023,3.00299913 7.71251368,2.79900117 7.47251248,2.565 C7.23251128,2.33099883 7.11251248,2.00700207 7.11251248,1.593 C7.11251248,1.10699757 7.30151059,0.72300141 7.67951248,0.441 C8.0635144,0.14699853 8.5840092,-1.43884904e-13 9.24101248,-1.44773082e-13 C9.89801577,-1.43884904e-13 10.4050107,0.151498485 10.7620125,0.4545 C11.1190143,0.757501515 11.3245122,1.18199727 11.3785125,1.728 L10.3255125,1.728 Z M16.0551091,-1.44773082e-13 C16.4151109,-1.43884904e-13 16.7271078,0.043499565 16.9911091,0.1305 C17.2551104,0.217500435 17.4831081,0.33899922 17.6751091,0.495 C18.053111,0.80100153 18.2991085,1.22999724 18.4131091,1.782 L17.2791091,1.989 C17.1831086,1.68299847 17.0346101,1.43550094 16.8336091,1.2465 C16.6326081,1.05749905 16.3821106,0.963 16.0821091,0.963 C15.674107,0.963 15.3441103,1.13399829 15.0921091,1.476 C14.8221077,1.84800186 14.6871091,2.36249671 14.6871091,3.0195 C14.6871091,3.67650328 14.8071079,4.18949815 15.0471091,4.5585 C15.2871103,4.92750184 15.614107,5.112 16.0281091,5.112 C16.4421112,5.112 16.754108,5.011501 16.9641091,4.8105 C17.1741101,4.60949899 17.2791091,4.35000159 17.2791091,4.032 L18.4221091,4.032 C18.4221091,4.68600327 18.2136112,5.19149821 17.7966091,5.5485 C17.379607,5.90550178 16.8081127,6.084 16.0821091,6.084 C15.3081052,6.084 14.6931114,5.8140027 14.2371091,5.274 C13.7751068,4.72199724 13.5441091,3.97200474 13.5441091,3.024 C13.5441091,2.0639952 13.7811067,1.3140027 14.2551091,0.774 C14.7111114,0.25799742 15.3111054,-1.43884904e-13 16.0551091,-1.44773082e-13 Z" id="U.S.C."></path>
        </g>
    </g>
</svg>