<?xml version="1.0" encoding="UTF-8" standalone="no"?>
<svg width="20px" height="20px" viewBox="0 0 20 20" version="1.1" xmlns="http://www.w3.org/2000/svg" xmlns:xlink="http://www.w3.org/1999/xlink">
    <!-- Generator: Sketch 3.7.2 (28276) - http://www.bohemiancoding.com/sketch -->
    <title>x-circle</title>
    <desc>Created with Sketch.</desc>
    <defs></defs>
    <g id="Page-1" stroke="none" stroke-width="1" fill="none" fill-rule="evenodd">
        <g id="x-circle" fill="#000000">
            <path d="M10,20 C15.5228475,20 20,15.5228475 20,10 C20,4.4771525 15.5228475,0 10,0 C4.4771525,0 0,4.4771525 0,10 C0,15.5228475 4.4771525,20 10,20 Z M15.374,6.19802212 L11.4143333,10.1514163 L15.374,14.1051433 C15.5546667,14.2858718 15.6666667,14.5354968 15.6666667,14.8110828 C15.6666667,15.3625876 15.219,15.8095828 14.6666667,15.8095828 C14.3906667,15.8095828 14.1406667,15.6977508 13.9596667,15.5173551 L10,11.5636281 L6.04033333,15.5173551 C5.85933333,15.6977508 5.60933333,15.8095828 5.33333333,15.8095828 C4.781,15.8095828 4.33333333,15.3625876 4.33333333,14.8110828 C4.33333333,14.5354968 4.44533333,14.2858718 4.62633333,14.1051433 L8.58566667,10.1514163 L4.62633333,6.19802212 C4.44533333,6.01729363 4.33333333,5.7673358 4.33333333,5.49174981 C4.33333333,4.940245 4.781,4.49324985 5.33333333,4.49324985 C5.60933333,4.49324985 5.85933333,4.60508184 6.04033333,4.78581034 L10,8.73953737 L13.9596667,4.78581034 C14.1406667,4.60508184 14.3906667,4.49324985 14.6666667,4.49324985 C15.219,4.49324985 15.6666667,4.940245 15.6666667,5.49174981 C15.6666667,5.7673358 15.5546667,6.01729363 15.374,6.19802212 Z"></path>
        </g>
    </g>
</svg>