<?xml version="1.0" encoding="UTF-8"?>
<svg width="20px" height="20px" viewBox="0 0 20 20" version="1.1" xmlns="http://www.w3.org/2000/svg" xmlns:xlink="http://www.w3.org/1999/xlink">
    <title>x-twitter-circle</title>
    <g id="x-twitter-circle" stroke="none" stroke-width="1" fill="none" fill-rule="evenodd">
        <g fill="#000000" fill-rule="nonzero" id="Shape">
            <path d="M10,0 C15.5228475,0 20,4.4771525 20,10 C20,15.5228475 15.5228475,20 10,20 C4.4771525,20 0,15.5228475 0,10 C0,4.4771525 4.4771525,0 10,0 Z M7.86675526,4.62025317 L4.72560975,4.62025317 L8.84395914,10.6197683 L4.72560975,15.4113924 L5.65624075,15.4113924 L9.25711091,11.2216107 L12.1332447,15.4113924 L15.2743902,15.4113924 L11.0033385,9.18956417 L14.9305879,4.62025317 L14.0000097,4.62025317 L10.5901779,8.58772171 L7.86675526,4.62025317 Z M5.99156011,5.32150431 L7.42095503,5.32150431 L14.0004492,14.7420333 L12.5710543,14.7420333 L5.99156011,5.32150431 Z"></path>
        </g>
    </g>
</svg>
