<?xml version="1.0" encoding="UTF-8" standalone="no"?>
<svg width="20px" height="20px" viewBox="0 0 20 20" version="1.1" xmlns="http://www.w3.org/2000/svg" xmlns:xlink="http://www.w3.org/1999/xlink">
    <!-- Generator: Sketch 3.7.1 (28215) - http://www.bohemiancoding.com/sketch -->
    <title>x</title>
    <desc>Created with Sketch.</desc>
    <defs></defs>
    <g id="Page-1" stroke="none" stroke-width="1" fill="none" fill-rule="evenodd">
        <g id="x" fill="#000000">
            <path d="M15.0526884,5.85608985 C15.282355,5.62634237 15.4141791,5.31483816 15.4141791,4.98360656 C15.4141791,4.30217315 14.8611818,3.75 14.1791045,3.75 C13.8475162,3.75 13.5360113,3.88163163 13.3060119,4.11128825 L9.40544473,8.00604235 L9.75873437,8.00604235 L5.85816721,4.11128825 C5.62816782,3.88163163 5.31666291,3.75 4.98507463,3.75 C4.30299728,3.75 3.75,4.30217315 3.75,4.98360656 C3.75,5.31501001 3.88195611,5.62656961 4.11198204,5.85625273 L8.01222085,9.75067896 L8.0122134,9.39686946 L4.1119746,13.2916236 C3.88191127,13.521344 3.75,13.8325809 3.75,14.1639344 C3.75,14.8453678 4.30299728,15.397541 4.98507463,15.397541 C5.31649103,15.397541 5.62794032,15.2660412 5.85800409,15.0367433 L9.75873437,11.1418265 L9.40544473,11.1418265 L13.3060119,15.0365806 C13.5362388,15.2660412 13.8476881,15.397541 14.1791045,15.397541 C14.8611818,15.397541 15.4141791,14.8453678 15.4141791,14.1639344 C15.4141791,13.8327527 15.2824,13.5215714 15.0526884,13.291779 L11.1519583,9.39686202 L11.1519508,9.7506864 L15.052518,5.85626017 L15.0526884,5.85608985 Z"></path>
        </g>
    </g>
</svg>