<svg width="20px" height="20px" viewBox="0 0 20 20" version="1.1" xmlns="http://www.w3.org/2000/svg" xmlns:xlink="http://www.w3.org/1999/xlink">
  <g id="Page-1" stroke="none" stroke-width="1" fill="none" fill-rule="evenodd">
    <g id="youtube-circle" fill-rule="nonzero">
      <circle id="Oval" fill="#FFFFFF" cx="10" cy="10" r="10"></circle>
      <path d="M9.43504437,5.25084835 L10.148972,5.24740344 L11.3440864,5.26065054 C12.6645975,5.28431102 14.6025606,5.34943263 15.2670722,5.5286692 C15.8428897,5.68357414 16.2964259,6.14 16.4503422,6.71961977 C16.695076,7.63880228 16.7256678,9.4318453 16.7294917,9.86574382 L16.7267255,10.2641411 C16.7155058,10.9018798 16.6662838,12.3932325 16.4503422,13.2043346 C16.2964259,13.7839544 15.8428897,14.2403802 15.2670722,14.3953612 C14.4473153,14.6164119 11.6895865,14.6638463 10.5437927,14.6740251 L9.53225289,14.6740251 C8.38645908,14.6638463 5.62873031,14.6164119 4.80897338,14.3953612 C4.23315589,14.2403802 3.77961977,13.7839544 3.62570342,13.2043346 C3.42329197,12.4440535 3.36736249,11.0860956 3.35190829,10.393693 L3.34616946,9.91824233 C3.34794993,9.60459284 3.36931559,7.68257288 3.62570342,6.71961977 C3.77961977,6.14 4.23315589,5.68357414 4.80897338,5.5286692 C5.60638732,5.31358531 8.23757142,5.26282698 9.43504437,5.25084835 L9.43504437,5.25084835 Z" fill="#000000"></path>
      <polygon id="Path" fill="#FFFFFF" points="8.66920152 7.97193916 8.66920152 11.9520152 12.1673004 9.96205323"></polygon>
    </g>
  </g>
</svg>
