<?xml version="1.0" encoding="UTF-8"?>
<svg width="20px" height="20px" viewBox="0 0 20 20" version="1.1" xmlns="http://www.w3.org/2000/svg" xmlns:xlink="http://www.w3.org/1999/xlink">
  <circle id="Oval" fill="#FFFFFF" cx="10" cy="10" r="10"></circle>
  <path d="M8.66920152,11.9520152 L8.66920152,7.97193916 L12.1673004,9.96205323 L8.66920152,11.9520152 Z M16.4503422,6.71961977 C16.2964259,6.14 15.8428897,5.68357414 15.2670722,5.5286692 C14.223346,5.24714829 10.0380228,5.24714829 10.0380228,5.24714829 C10.0380228,5.24714829 5.85269962,5.24714829 4.80897338,5.5286692 C4.23315589,5.68357414 3.77961977,6.14 3.62570342,6.71961977 C3.3460076,7.77011407 3.3460076,9.96197719 3.3460076,9.96197719 C3.3460076,9.96197719 3.3460076,12.1537643 3.62570342,13.2043346 C3.77961977,13.7839544 4.23315589,14.2403802 4.80897338,14.3953612 C5.85269962,14.6768061 10.0380228,14.6768061 10.0380228,14.6768061 C10.0380228,14.6768061 14.223346,14.6768061 15.2670722,14.3953612 C15.8428897,14.2403802 16.2964259,13.7839544 16.4503422,13.2043346 C16.730038,12.1537643 16.730038,9.96197719 16.730038,9.96197719 C16.730038,9.96197719 16.730038,7.77011407 16.4503422,6.71961977 L16.4503422,6.71961977 Z" id="Shape" fill="#000000"></path>
</svg>
