<svg id="youtube-circle" xmlns="http://www.w3.org/2000/svg" width="20" height="20" viewBox="0 0 20 20"><defs><style>.cls-1{fill-rule:evenodd;}</style></defs><title>youtube-circle</title><path class="cls-1" d="M10,0A10,10,0,1,0,20,10,10,10,0,0,0,10,0Zm1.42,4.71h0.71V7.43a0.29,0.29,0,0,0,0,.18,0.17,0.17,0,0,0,.14.06,0.41,0.41,0,0,0,.2-0.07,0.93,0.93,0,0,0,.22-0.19V4.71h0.71V8.26H12.74V7.87a1.49,1.49,0,0,1-.41.33,0.88,0.88,0,0,1-.41.11,0.45,0.45,0,0,1-.37-0.16,0.76,0.76,0,0,1-.13-0.48v-3Zm-2.65.81a0.81,0.81,0,0,1,.29-0.66,1.16,1.16,0,0,1,.77-0.24,1,1,0,0,1,.73.26,0.86,0.86,0,0,1,.28.66V7.38a0.93,0.93,0,0,1-.28.71,1.08,1.08,0,0,1-.77.26,1,1,0,0,1-.75-0.27,1,1,0,0,1-.28-0.72V5.52ZM6.83,3.45L7.35,5.37H7.4l0.5-1.92H8.71L7.78,6.26v2H7V6.35L6,3.45H6.83Zm8.08,12.91c-0.52.52-4.91,0.53-4.91,0.53s-4.39,0-4.91-.53-0.52-3.09-.52-3.11,0-2.59.52-3.11S10,9.61,10,9.61s4.39,0,4.91.53,0.53,3.09.53,3.11S15.43,15.83,14.91,16.36ZM9.8,7.74A0.32,0.32,0,0,0,10,7.65a0.3,0.3,0,0,0,.09-0.22V5.49A0.23,0.23,0,0,0,10,5.31,0.35,0.35,0,0,0,9.8,5.23a0.31,0.31,0,0,0-.21.07,0.24,0.24,0,0,0-.08.19V7.43a0.32,0.32,0,0,0,.08.23A0.29,0.29,0,0,0,9.8,7.74ZM5.61,11.66H6.35v3.74H7.06V11.66H7.8V11H5.61v0.63Zm7.88,0.43a1,1,0,0,0-.69.26,0.92,0.92,0,0,0-.27.68v1.45a1,1,0,0,0,.25.73,0.87,0.87,0,0,0,.67.27,0.94,0.94,0,0,0,.71-0.25,1,1,0,0,0,.24-0.75V14.32H13.74v0.15a0.7,0.7,0,0,1-.06.37,0.26,0.26,0,0,1-.22.08,0.24,0.24,0,0,1-.22-0.1,0.72,0.72,0,0,1-.06-0.35V13.86h1.21V13a1,1,0,0,0-.23-0.7A0.88,0.88,0,0,0,13.49,12.09Zm0.25,1.27H13.18V13a0.49,0.49,0,0,1,.07-0.29,0.25,0.25,0,0,1,.22-0.09,0.24,0.24,0,0,1,.21.09,0.48,0.48,0,0,1,.07.29v0.33Zm-2.16-1.23a0.62,0.62,0,0,0-.29.08,1,1,0,0,0-.27.22V11H10.37v4.37H11V15.14a0.81,0.81,0,0,0,.27.22,0.74,0.74,0,0,0,.33.07A0.52,0.52,0,0,0,12,15.25a0.81,0.81,0,0,0,.15-0.52V12.94a1,1,0,0,0-.16-0.6A0.55,0.55,0,0,0,11.57,12.13Zm0,2.51a0.35,0.35,0,0,1-.06.22,0.2,0.2,0,0,1-.17.07,0.35,0.35,0,0,1-.15,0A0.54,0.54,0,0,1,11,14.78v-2a0.47,0.47,0,0,1,.13-0.1,0.3,0.3,0,0,1,.13,0,0.24,0.24,0,0,1,.2.08,0.39,0.39,0,0,1,.07.25v1.67Zm-2.28,0a0.9,0.9,0,0,1-.2.17,0.35,0.35,0,0,1-.18.07,0.16,0.16,0,0,1-.13-0.05,0.28,0.28,0,0,1,0-.17V12.17H8.08v2.7a0.71,0.71,0,0,0,.11.43,0.39,0.39,0,0,0,.33.14,0.76,0.76,0,0,0,.37-0.1A1.35,1.35,0,0,0,9.26,15v0.35H9.89V12.17H9.26v2.45Z"/></svg>