<?xml version="1.0" encoding="UTF-8"?>
<svg width="20px" height="20px" viewBox="0 0 20 20" version="1.1" xmlns="http://www.w3.org/2000/svg" xmlns:xlink="http://www.w3.org/1999/xlink">
    <title>youtube-circle</title>
    <g id="youtube-circle" stroke="none" stroke-width="1" fill="none" fill-rule="evenodd">
        <g fill="#000000" fill-rule="nonzero">
            <path d="M10,0 C15.5228475,0 20,4.4771525 20,10 C20,15.5228475 15.5228475,20 10,20 C4.4771525,20 0,15.5228475 0,10 C0,4.4771525 4.4771525,0 10,0 Z M10.148972,5.24740344 L9.43504437,5.25084835 L8.46018455,5.26595698 L7.42784157,5.29510113 C6.36328088,5.33365433 5.27413151,5.4032036 4.80897338,5.5286692 C4.23315589,5.68357414 3.77961977,6.14 3.62570342,6.71961977 C3.36931559,7.68257288 3.34794993,9.60459284 3.34616946,9.91824233 L3.35190829,10.393693 L3.3668859,10.8788953 C3.39559356,11.6053717 3.46377426,12.5961097 3.62570342,13.2043346 C3.77961977,13.7839544 4.23315589,14.2403802 4.80897338,14.3953612 C5.62873031,14.6164119 8.38645908,14.6638463 9.53225289,14.6740251 L10.5437927,14.6740251 L11.507504,14.6602235 L12.5587914,14.6320336 C13.6512404,14.5941759 14.7888807,14.5243074 15.2670722,14.3953612 C15.8428897,14.2403802 16.2964259,13.7839544 16.4503422,13.2043346 C16.6662838,12.3932325 16.7155058,10.9018798 16.7267255,10.2641411 L16.7294917,9.86574382 C16.7256678,9.4318453 16.695076,7.63880228 16.4503422,6.71961977 C16.2964259,6.14 15.8428897,5.68357414 15.2670722,5.5286692 C14.6025606,5.34943263 12.6645975,5.28431102 11.3440864,5.26065054 L10.148972,5.24740344 Z" id="Shape"></path>
            <polygon id="Path" points="8.66920152 7.97193916 8.66920152 11.9520152 12.1673004 9.96205323"></polygon>
        </g>
    </g>
</svg>
