<svg width="18" height="20" viewBox="0 0 18 20" xmlns="http://www.w3.org/2000/svg"><path d="M15.5 18H8.01a.507.507 0 0 0-.51.505v.99a.5.5 0 0 0 .51.505h8.98a.51.51 0 0 0 .51-.51v-8.98a.507.507 0 0 0-.505-.51h-.99a.5.5 0 0 0-.505.51V18zM12 14.5H4.51a.507.507 0 0 0-.51.505v.99a.5.5 0 0 0 .51.505h8.98a.51.51 0 0 0 .51-.51V7.01a.507.507 0 0 0-.505-.51h-.99a.5.5 0 0 0-.505.51v7.49zM0 .494C0 .22.227 0 .501 0h6.553C8 1 9.5 2.5 10.5 3.494v9.003a.5.5 0 0 1-.506.503H.506A.503.503 0 0 1 0 12.506V.494zM2 2v9h6.5V4.5h-2V2H2z"/></svg>