<svg width="20" height="20" viewBox="0 0 20 20" xmlns="http://www.w3.org/2000/svg"><path d="M11.866.939a1.25 1.25 0 1 1-.504 2.448 6.75 6.75 0 1 0 5.323 5.674 1.25 1.25 0 1 1 2.476-.347A9.25 9.25 0 1 1 11.866.939Z"/><path d="m7.971 6.554-.244 3.878a1.73 1.73 0 0 0 1.834 1.847l3.89-.252a4 4 0 1 1-5.48-5.473Z"/><path d="M16.532 2.47a.986.986 0 0 1 1 1c-.003.267-.11.524-.304.719l-5.155 5.154 1.904-.122a.984.984 0 0 1 1.048.998 1.03 1.03 0 0 1-.97 1.018l-4.537.293a.995.995 0 0 1-.76-.286.982.982 0 0 1-.282-.765l.286-4.538c.02-.248.123-.481.302-.66a1.03 1.03 0 0 1 .718-.304.982.982 0 0 1 .994 1.052l-.117 1.9 5.154-5.155c.195-.194.452-.3.719-.304Z"/></svg>
