<svg width="20" height="20" viewBox="0 0 20 20" xmlns="http://www.w3.org/2000/svg"><g fill="none" fill-rule="evenodd"><path d="M17.922 8.887a8 8 0 1 1-15.844 2.226 8 8 0 0 1 15.844-2.226Z" stroke="#000" stroke-width="2.5" stroke-linecap="round" stroke-linejoin="round" stroke-dasharray="40.19"/><circle fill="#000" cx="10" cy="10" r="4"/><path stroke="#FFF" stroke-width=".75" d="M17.508 2.492a1.36 1.36 0 0 0-.981-.398 1.405 1.405 0 0 0-.98.414l-4.454 4.454.057-.91a1.357 1.357 0 0 0-1.373-1.45 1.405 1.405 0 0 0-.98.413 1.425 1.425 0 0 0-.41.901L8.1 10.454c-.024.381.105.766.392 1.054.286.286.67.415 1.05.395l4.536-.293a1.405 1.405 0 0 0 1.32-1.387 1.36 1.36 0 0 0-1.446-1.377l-.912.058 4.452-4.451c.272-.272.41-.627.414-.98a1.36 1.36 0 0 0-.398-.98Z"/></g></svg>
