<svg width="20" height="20" viewBox="0 0 20 20" xmlns="http://www.w3.org/2000/svg"><g fill="none" fill-rule="evenodd"><circle fill="#FFF" cx="10" cy="10" r="10"/><path d="M10 10.386c.543-1.277 2.023-3.655 3.399-4.828C14.392 4.71 16 4.056 16 6.14c0 .417-.21 3.497-.333 3.997-.429 1.738-1.99 2.182-3.378 1.913 2.427.47 3.044 2.023 1.711 3.577-2.532 2.951-3.64-.74-3.923-1.686-.052-.174-.077-.255-.077-.186 0-.069-.025.012-.077.186-.283.946-1.39 4.637-3.923 1.686-1.333-1.554-.716-3.108 1.71-3.577-1.388.269-2.948-.175-3.377-1.913C4.21 9.637 4 6.557 4 6.14c0-2.084 1.608-1.429 2.601-.582C7.977 6.73 9.457 9.109 10 10.386Z" fill="#000"/></g></svg>
