<svg width="20" height="20" viewBox="0 0 20 20" xmlns="http://www.w3.org/2000/svg"><path d="M10 0c5.523 0 10 4.477 10 10s-4.477 10-10 10S0 15.523 0 10 4.477 0 10 0Zm6 6.14c0-2.084-1.608-1.429-2.601-.582C12.023 6.73 10.543 9.109 10 10.386 9.457 9.109 7.977 6.73 6.601 5.558L6.42 5.41C5.425 4.644 4 4.179 4 6.14l.005.175c.032.78.216 3.366.328 3.82.429 1.74 1.99 2.183 3.378 1.914-2.427.47-3.044 2.023-1.711 3.577 2.198 2.562 3.322.119 3.766-1.19l.21-.664c.016-.048.024-.057.024-.018 0-.04.008-.03.025.018l.18.58c.425 1.284 1.55 3.891 3.795 1.274 1.333-1.554.716-3.108-1.71-3.577 1.387.269 2.948-.175 3.377-1.913.123-.5.333-3.58.333-3.997Z"/></svg>
