<svg width="19" height="20" viewBox="0 0 19 20" xmlns="http://www.w3.org/2000/svg"><path d="M5.716 15.065L2.23 2.06l-1.132.303A.873.873 0 0 1 .647.677l1.975-.53a.873.873 0 0 1 1.07.618L7.5 14.982c.434.14.827.395 1.132.738l7.89-2.18a.873.873 0 0 1 1.075.616l.468 1.745a.873.873 0 0 1-1.687.452l-.24-.896-6.864 1.897a2.557 2.557 0 1 1-3.56-2.289zM7.6 10.83l6.912-1.852 1.058 3.95L8.66 14.78l-1.058-3.95zM6.278 5.892l6.171-1.653 1.059 3.95-6.172 1.653-1.058-3.95zm-1.03-3.844L9.4.935l.765 2.857-4.152 1.113-.765-2.857zm1.525 16.4a1.022 1.022 0 1 0 0-2.044 1.022 1.022 0 0 0 0 2.045z"/></svg>