<svg width="25" height="20" viewBox="0 0 25 20" xmlns="http://www.w3.org/2000/svg"><g><path d="M18.83 19.444a6.17 6.17 0 1 0 0-12.338 6.17 6.17 0 0 0 0 12.338zm.651-8.99v2.202h2.169c.36 0 .65.296.65.661a.656.656 0 0 1-.65.661H19.48v2.204a.656.656 0 0 1-.65.66.656.656 0 0 1-.65-.66v-2.204h-2.17a.656.656 0 0 1-.65-.66c0-.366.291-.662.65-.662h2.17v-2.203c0-.365.29-.66.65-.66.359 0 .65.295.65.66z"/><path d="M.694 6.25V2.082c0-.767.625-1.388 1.399-1.388H18.74c.773 0 1.399.623 1.399 1.388v6.251h-2.083V6.944H2.778v9.723h17.36v1.041a1.04 1.04 0 0 1-1.045 1.042H1.74a1.041 1.041 0 0 1-1.046-1.042V6.25z"/></g></svg>