<svg width="20" height="20" viewBox="0 0 20 20" xmlns="http://www.w3.org/2000/svg"><path d="M10.5 9.5h9.006a.5.5 0 1 1 0 1H10.5v9.006a.5.5 0 1 1-1 0V10.5H.494a.5.5 0 1 1 0-1H9.5V.494a.5.5 0 1 1 1 0V9.5zm2.913-3.986a.663.663 0 1 1 0-1.325h3.515a.663.663 0 1 1 0 1.325h-3.515zM5.36 5.416v1.636a.591.591 0 0 1-.593.587.591.591 0 0 1-.594-.587V5.416H2.646a.589.589 0 0 1-.593-.584c0-.323.265-.584.593-.584h1.527V2.65c0-.323.266-.587.594-.587.327 0 .593.264.593.587v1.597h1.565c.328 0 .594.261.594.584a.589.589 0 0 1-.594.584H5.36zm.83 12.122L4.793 16.14l-1.376 1.377a.589.589 0 0 1-.833-.007.589.589 0 0 1-.007-.832L3.953 15.3l-1.399-1.398a.589.589 0 0 1-.006-.833.589.589 0 0 1 .832.007l1.399 1.398 1.377-1.376a.589.589 0 0 1 .832.006.589.589 0 0 1 .007.833l-1.377 1.376 1.399 1.4a.589.589 0 0 1 .007.832.589.589 0 0 1-.833-.007zm7.223-2.837a.663.663 0 0 1 0-1.326h3.515a.663.663 0 0 1 0 1.326h-3.515zm0 2.11a.663.663 0 1 1 0-1.325h3.515a.663.663 0 0 1 0 1.325h-3.515z"/></svg>