<svg id="calendar" xmlns="http://www.w3.org/2000/svg" width="20" height="19.88" viewBox="0 0 20 19.88"><defs/><path class="cls-1" d="M164 224.49a.77.77 0 0 0 .77-.77v-1.57a.77.77 0 0 0-1.54 0v1.57a.77.77 0 0 0 .77.77zM175.9 224.49a.77.77 0 0 0 .77-.77v-1.57a.77.77 0 0 0-1.54 0v1.57a.77.77 0 0 0 .77.77z" transform="translate(-160.1 -221.38)"/><path class="cls-1" d="M178.1 223.12h-.44v.61a1.77 1.77 0 1 1-3.54 0v-.61h-8.3v.61a1.77 1.77 0 1 1-3.54 0v-.61h-.2a2 2 0 0 0-2 2v14.16a2 2 0 0 0 2 2h16a2 2 0 0 0 2-2v-14.17a2 2 0 0 0-1.98-1.99zM165 237.91h-2.58v-2.58H165v2.58zm0-3.76h-2.58v-2.58H165v2.58zm0-3.92h-2.58v-2.58H165v2.58zm4.22 7.68h-2.58v-2.58h2.58v2.58zm0-3.76h-2.58v-2.58h2.58v2.58zm0-3.92h-2.58v-2.58h2.58v2.58zm4.23 7.68h-2.58v-2.58h2.58v2.58zm0-3.76h-2.58v-2.58h2.58v2.58zm0-3.92h-2.58v-2.58h2.58v2.58zm4.23 7.68h-2.58v-2.58h2.58v2.58zm0-3.76h-2.58v-2.58h2.58v2.58zm0-3.92h-2.58v-2.58h2.58v2.58z" transform="translate(-160.1 -221.38)"/></svg>