<svg width="14" height="18" viewBox="0 0 14 18" xmlns="http://www.w3.org/2000/svg"><path d="M8.898 10.106l.372-1.902A2.043 2.043 0 0 0 7.444 5.79a4.27 4.27 0 0 1-2.692.95 4.27 4.27 0 0 1-2.685-.944A2.044 2.044 0 0 0 .264 7.833c0 .127.005.25.026.37l1.673 8.495c.177.825 1.02 1.545 1.972 1.545h1.7c.085 0 .17-.006.253-.017a4.338 4.338 0 0 1-2.594-3.976 4.33 4.33 0 0 1 5.604-4.144zm-.665 6.817a.69.69 0 0 1-.481.193.691.691 0 0 1-.482-.193l-2.953-2.859a.647.647 0 0 1-.2-.466.67.67 0 0 1 .682-.66.69.69 0 0 1 .482.193l2.47 2.392 4.743-4.59a.69.69 0 0 1 .481-.194.67.67 0 0 1 .682.66.648.648 0 0 1-.2.466l-5.224 5.058zM4.752 4.826A2.391 2.391 0 0 0 7.139 2.43 2.391 2.391 0 0 0 4.752.036a2.391 2.391 0 0 0-2.388 2.395 2.391 2.391 0 0 0 2.388 2.395z"/></svg>