<svg width="20" height="7" viewBox="0 0 20 7" xmlns="http://www.w3.org/2000/svg"><path d="M4.886 0a3 3 0 0 1 .936.13c.264.088.492.209.684.365.378.306.624.735.738 1.287l-1.134.207a1.69 1.69 0 0 0-.446-.743 1.055 1.055 0 0 0-.751-.283c-.408 0-.738.171-.99.513-.27.372-.405.886-.405 1.543 0 .658.12 1.17.36 1.54.24.369.567.553.98.553.415 0 .727-.1.937-.301.21-.202.315-.461.315-.779h1.143c0 .654-.209 1.16-.626 1.516-.417.358-.988.536-1.714.536-.774 0-1.39-.27-1.845-.81-.462-.552-.693-1.302-.693-2.25 0-.96.237-1.71.71-2.25C3.543.258 4.143 0 4.886 0zm3.44.117h3.681v.918H9.388v1.539h2.394v.909H9.388v2.475H8.326V.117zm9.092 1.791c0 .414-.117.768-.35 1.062-.235.294-.57.498-1.009.612l1.566 2.376H16.24l-1.287-2.277h-.81v2.277H13.08V.117h2.16c.69 0 1.227.165 1.611.495.378.318.567.75.567 1.296zM15.255 2.97c.39 0 .684-.088.882-.266a.896.896 0 0 0 .297-.702c0-.29-.09-.524-.27-.701-.18-.178-.45-.266-.81-.266h-1.098V2.97h1z"/></svg>