<svg id="checklist" xmlns="http://www.w3.org/2000/svg" width="20" height="20" viewBox="0 0 20 20"><defs><style>.cls-1{fill-rule:evenodd}</style></defs><path class="cls-1" d="M7.51 7.09 6.44 8.18l-.51-.52a.3.3 0 0 0-.21-.09.31.31 0 0 0-.21.52l.71.74a.3.3 0 0 0 .43 0l1.28-1.31A.31.31 0 0 0 8 7.3a.3.3 0 0 0-.28-.3.3.3 0 0 0-.21.09Zm0 4.91-1.07 1.1-.51-.5a.3.3 0 0 0-.21-.09.31.31 0 0 0-.22.49l.72.74a.3.3 0 0 0 .43 0l1.28-1.32a.31.31 0 0 0 .07-.18.3.3 0 0 0-.3-.3.3.3 0 0 0-.19.06Z"/><path class="cls-1" d="M15.27 3.56H4.51A.47.47 0 0 0 4 4v12.44a.47.47 0 0 0 .47.47h10.8a.47.47 0 0 0 .47-.47V4a.47.47 0 0 0-.47-.44ZM6.72 14.44a1.66 1.66 0 1 1 1.66-1.66 1.66 1.66 0 0 1-1.66 1.66Zm0-4.94a1.66 1.66 0 1 1 1.66-1.66A1.66 1.66 0 0 1 6.72 9.5ZM14 14.43H9.71a.5.5 0 0 1 0-1H14a.5.5 0 0 1 0 1Zm0-2.06H9.71a.5.5 0 0 1 0-1H14a.5.5 0 0 1 0 1Zm0-2.87H9.71a.5.5 0 0 1 0-1H14a.5.5 0 0 1 0 1Zm0-2.06H9.71a.5.5 0 0 1 0-1H14a.5.5 0 0 1 0 .99Z"/></svg>
