<svg width="20" height="15" viewBox="0 0 20 15" xmlns="http://www.w3.org/2000/svg"><path d="M5.015 2.06l.054.055a.376.376 0 1 0-.533-.533l-2.09 2.09h.107l-1.09-1.089a.376.376 0 0 0-.642.267c0 .101.04.196.11.266l1.302 1.302a.376.376 0 0 0 .533 0l2.303-2.303-.054-.054zm0 8.417l.054.054a.376.376 0 1 0-.533-.533l-2.09 2.091h.107L1.463 11a.376.376 0 0 0-.642.267c0 .101.04.197.11.267l1.302 1.302a.376.376 0 0 0 .533 0l2.303-2.304-.054-.054zM0 9.407c0-.547.451-.99.99-.99h4.02c.546 0 .99.45.99.99v4.019c0 .547-.451.99-.99.99H.99a.996.996 0 0 1-.99-.99V9.407zM0 .991C0 .444.451 0 .99 0h4.02c.546 0 .99.451.99.99v4.02c0 .546-.451.99-.99.99H.99A.996.996 0 0 1 0 5.01V.99zm7.504 10.586c0-.79.637-1.429 1.434-1.429h9.629a1.427 1.427 0 1 1 0 2.857h-9.63a1.427 1.427 0 0 1-1.433-1.428zm0-8.417c0-.789.637-1.428 1.434-1.428h9.629a1.427 1.427 0 1 1 0 2.857h-9.63A1.427 1.427 0 0 1 7.505 3.16z"/></svg>