<svg width="20" height="20" viewBox="0 0 20 20" xmlns="http://www.w3.org/2000/svg"><g fill="none" fill-rule="evenodd"><path stroke="#000" stroke-linecap="round" stroke-linejoin="round" d="M16.249 2.5H19v16.554H1.4V2.5h3.447"/><rect fill="#000" x="5" width="11" height="4" rx=".5"/><path d="M8.01 11.577c.546 0 .99.45.99.99v4.019c0 .547-.451.99-.99.99H3.99a.996.996 0 0 1-.99-.99v-4.019c0-.547.451-.99.99-.99h4.02Zm8.06 1.731c.746 0 1.358.562 1.428 1.29l.006.139c0 .789-.646 1.428-1.433 1.428h-4.133a1.428 1.428 0 1 1 0-2.857h4.133Zm-8.1-.341a.322.322 0 0 0-.227.094L5.499 15.3l-1.17-1.167a.322.322 0 1 0-.456.456l1.398 1.395a.322.322 0 0 0 .456 0l2.472-2.469.04-.047a.322.322 0 0 0-.267-.502ZM8.01 5c.546 0 .99.451.99.99v4.02c0 .546-.451.99-.99.99H3.99a.996.996 0 0 1-.99-.99V5.99c0-.546.451-.99.99-.99h4.02Zm8.06 1.732c.746 0 1.358.561 1.428 1.29l.006.138c0 .79-.646 1.429-1.433 1.429h-4.133a1.428 1.428 0 1 1 0-2.857h4.133Zm-8.1-.342a.322.322 0 0 0-.227.094L5.499 8.725l-1.17-1.167a.322.322 0 1 0-.456.455l1.398 1.395a.322.322 0 0 0 .456 0L8.199 6.94l.04-.048a.322.322 0 0 0-.267-.502Z" fill="#000"/></g></svg>
