<svg width="20" height="20" viewBox="0 0 20 20" xmlns="http://www.w3.org/2000/svg"><path d="M3.84677024,2 C4.12291261,2 4.34677024,2.22385763 4.34677024,2.5 C4.34677024,2.74545989 4.16989508,2.94960837 3.93664587,2.99194433 L3.84677024,3 L0.899,3 L0.899,18.554 L17.5,18.554 L17.5,3 L15.2490027,3 C15.0035428,3 14.7993943,2.82312484 14.7570584,2.58987563 L14.7490027,2.5 C14.7490027,2.25454011 14.9258779,2.05039163 15.1591271,2.00805567 L15.2490027,2 L18,2 C18.2454599,2 18.4496084,2.17687516 18.4919443,2.41012437 L18.5,2.5 L18.5,19.0544663 C18.5,19.2999262 18.3231248,19.5040747 18.0898756,19.5464106 L18,19.5544663 L0.39965315,19.5544663 C0.154193261,19.5544663 -0.0499552204,19.3775911 -0.0922911806,19.1443419 L-0.10034685,19.0544663 L-0.10034685,2.5 C-0.10034685,2.25454011 0.0765283106,2.05039163 0.309777518,2.00805567 L0.39965315,2 L3.84677024,2 Z"></path><rect x="4" y="0" width="11" height="4" rx="0.5"></rect><path d="M7.00922203,11.5765636 C7.55641359,11.5765636 8,12.0275388 8,12.5673415 L8,16.5857856 C8,17.1329772 7.54902482,17.5765636 7.00922203,17.5765636 L2.99077797,17.5765636 C2.44358641,17.5765636 2,17.1255884 2,16.5857856 L2,12.5673415 C2,12.02015 2.45097518,11.5765636 2.99077797,11.5765636 L7.00922203,11.5765636 Z M15.0707488,13.3081401 C15.8158504,13.3081401 16.4281732,13.8698276 16.4976329,14.5982707 L16.5041948,14.7367115 C16.5041948,15.5256897 15.8581987,16.1652829 15.0707488,16.1652829 L10.9376408,16.1652829 C10.1459705,16.1652829 9.5041948,15.5311903 9.5041948,14.7367115 C9.5041948,13.9477333 10.1501909,13.3081401 10.9376408,13.3081401 L15.0707488,13.3081401 Z M6.97090161,12.9666076 C6.88190342,12.9666076 6.80128912,13.0026689 6.74292437,13.0609467 L6.74292437,13.0609467 L4.49872971,15.3017968 L3.3293924,14.1342022 C3.27102765,14.0759244 3.19052083,14.039863 3.10141516,14.039863 C2.9233113,14.039863 2.77895796,14.1840012 2.77895796,14.3618397 C2.77895796,14.4508125 2.81507316,14.5313067 2.87343792,14.5895845 L2.87343792,14.5895845 L4.27075247,15.9848166 C4.32911722,16.042987 4.40973152,16.0790484 4.49872971,16.0790484 C4.58783539,16.0790484 4.66844969,16.042987 4.72670695,15.9848166 L4.72670695,15.9848166 L7.19898634,13.516329 L7.23830932,13.4686547 C7.27304401,13.417234 7.29335882,13.3552334 7.29335882,13.2885842 C7.29335882,13.1107458 7.14900547,12.9666076 6.97090161,12.9666076 Z M7.00922203,5 C7.55641359,5 8,5.45097518 8,5.99077797 L8,10.009222 C8,10.5564136 7.54902482,11 7.00922203,11 L2.99077797,11 C2.44358641,11 2,10.5490248 2,10.009222 L2,5.99077797 C2,5.44358641 2.45097518,5 2.99077797,5 L7.00922203,5 Z M15.0707488,6.7315765 C15.8158504,6.7315765 16.4281732,7.29326406 16.4976329,8.02170711 L16.5041948,8.16014793 C16.5041948,8.94912614 15.8581987,9.58871936 15.0707488,9.58871936 L10.9376408,9.58871936 C10.1459705,9.58871936 9.5041948,8.95462675 9.5041948,8.16014793 C9.5041948,7.37116971 10.1501909,6.7315765 10.9376408,6.7315765 L15.0707488,6.7315765 Z M6.97090161,6.39004398 C6.88190342,6.39004398 6.80128912,6.42610537 6.74292437,6.48438314 L6.74292437,6.48438314 L4.49872971,8.72523324 L3.3293924,7.55763861 C3.27102765,7.49936084 3.19052083,7.46329946 3.10141516,7.46329946 C2.9233113,7.46329946 2.77895796,7.60743767 2.77895796,7.7852761 C2.77895796,7.87424898 2.81507316,7.95474314 2.87343792,8.01302091 L2.87343792,8.01302091 L4.27075247,9.40825302 C4.32911722,9.46642347 4.40973152,9.50248486 4.49872971,9.50248486 C4.58783539,9.50248486 4.66844969,9.46642347 4.72670695,9.40825302 L4.72670695,9.40825302 L7.19898634,6.93976543 L7.23830932,6.89209109 C7.27304401,6.84067042 7.29335882,6.77866979 7.29335882,6.71202062 C7.29335882,6.53418219 7.14900547,6.39004398 6.97090161,6.39004398 Z"></path></svg>