<svg width="20" height="20" viewBox="0 0 20 20" xmlns="http://www.w3.org/2000/svg"><path d="M4.697 2a.5.5 0 0 1 0 1H1.75v15.554h16.6V3H16.1a.5.5 0 0 1-.493-.41L15.6 2.5a.5.5 0 0 1 .5-.5h2.751a.5.5 0 0 1 .5.5v16.554a.5.5 0 0 1-.5.5H1.25a.5.5 0 0 1-.5-.5V2.5a.5.5 0 0 1 .5-.5h3.447Z"/><path d="M5.35 0h10a.5.5 0 0 1 .5.5v3a.5.5 0 0 1-.5.5h-10a.5.5 0 0 1-.5-.5v-3a.5.5 0 0 1 .5-.5Zm10.571 13.308c.745 0 1.358.562 1.427 1.29l.007.139c0 .789-.646 1.428-1.434 1.428h-4.133a1.428 1.428 0 1 1 0-2.857h4.133ZM7.86 11.577c.547 0 .99.45.99.99v4.019c0 .547-.45.99-.99.99H3.84a.996.996 0 0 1-.99-.99v-4.019c0-.547.45-.99.99-.99h4.02Zm-.039 1.39a.321.321 0 0 0-.18.055l-.048.039L5.35 15.3l-1.17-1.167a.322.322 0 0 0-.495.408l.04.048 1.397 1.395a.322.322 0 0 0 .408.04l.048-.04 2.472-2.469.04-.047a.322.322 0 0 0-.267-.502Zm8.1-6.235c.745 0 1.358.561 1.427 1.29l.007.138c0 .79-.646 1.429-1.434 1.429h-4.133a1.428 1.428 0 1 1 0-2.857h4.133ZM7.86 5c.547 0 .99.451.99.99v4.02c0 .546-.45.99-.99.99H3.84a.996.996 0 0 1-.99-.99V5.99c0-.546.45-.99.99-.99h4.02Zm-.04 1.39a.321.321 0 0 0-.18.055l-.048.04-2.244 2.24-1.17-1.167a.322.322 0 0 0-.495.407l.04.048L5.12 9.408a.322.322 0 0 0 .408.04l.048-.04L8.05 6.94l.04-.048a.322.322 0 0 0-.267-.502Z"/></svg>
