<svg width="20" height="20" viewBox="0 0 20 20" xmlns="http://www.w3.org/2000/svg"><path d="M8.707 16.389h-.512c-.822 0-1.548-.616-1.702-1.322L5.051 7.8a1.804 1.804 0 0 1-.023-.317c0-.9.678-1.643 1.555-1.742.634.506 1.44.808 2.316.808.88 0 1.687-.304 2.322-.813A1.754 1.754 0 0 1 12.797 7.8l-.093.473a5.56 5.56 0 0 0-3.997 8.116zm8.599-6.777a5.536 5.536 0 0 0-3.25-1.394 3.142 3.142 0 0 0-.712-2.527 3.703 3.703 0 0 0 2.906-.768 1.754 1.754 0 0 1 1.575 2.064l-.519 2.625zM5.257 15.455c-.195.077-.407.12-.624.12H3.167c-.821 0-1.548-.616-1.701-1.322L.023 6.987A1.804 1.804 0 0 1 0 6.669c0-.899.679-1.642 1.555-1.741a3.703 3.703 0 0 0 2.966.752 3.143 3.143 0 0 0-.761 2.054c0 .199.011.372.045.56l1.35 6.8c.026.124.06.244.102.361zm8.67-11.358a2.054 2.054 0 0 1-2.06-2.048C11.867.917 12.79 0 13.927 0c1.137 0 2.059.917 2.059 2.049a2.054 2.054 0 0 1-2.06 2.048zm-10.055 0a2.054 2.054 0 0 1-2.06-2.048C1.812.917 2.734 0 3.872 0 5.009 0 5.93.917 5.93 2.049a2.054 2.054 0 0 1-2.06 2.048zm5.027.82a2.054 2.054 0 0 1-2.06-2.049c0-1.131.923-2.049 2.06-2.049s2.06.918 2.06 2.049a2.054 2.054 0 0 1-2.06 2.049zM19.676 18.19a1.063 1.063 0 1 1-1.503 1.503l-2.375-2.375a4.226 4.226 0 0 1-2.157.592 4.252 4.252 0 1 1 4.252-4.252c0 .788-.218 1.524-.592 2.157l2.375 2.375zm-6.035-7.721a3.19 3.19 0 1 0 0 6.378 3.19 3.19 0 0 0 0-6.378zm-1.95 2.654l1.246 1.246 2.333-2.333a.543.543 0 0 1 .768.769l-2.717 2.717a.543.543 0 0 1-.768 0l-1.63-1.63a.543.543 0 1 1 .768-.769z"/></svg>