<svg width="20" height="18" viewBox="0 0 20 18" xmlns="http://www.w3.org/2000/svg"><path d="M12.493 6.328a1.918 1.918 0 0 1 1.723 2.257l-1.57 7.947c-.167.772-.962 1.446-1.86 1.446H9.183c-.898 0-1.693-.674-1.86-1.446L5.743 8.585a1.973 1.973 0 0 1-.025-.347c0-.983.742-1.797 1.701-1.905a4.05 4.05 0 0 0 2.533.884 4.05 4.05 0 0 0 2.54-.89zM5.97 16.958a1.868 1.868 0 0 1-.683.13H3.685c-.899 0-1.694-.673-1.861-1.445L.246 7.696a1.973 1.973 0 0 1-.025-.347c0-.984.742-1.797 1.7-1.905a4.05 4.05 0 0 0 3.244.822 3.437 3.437 0 0 0-.832 2.246c0 .218.012.408.049.614l1.476 7.437c.03.134.067.266.112.394zm8.031 0c.214.084.443.13.68.13h1.603c.898 0 1.694-.673 1.861-1.445l1.57-7.947a1.918 1.918 0 0 0-1.723-2.257 4.05 4.05 0 0 1-3.178.84 3.437 3.437 0 0 1 .76 2.879l-1.469 7.433a3.11 3.11 0 0 1-.104.367zm1.45-12.423a2.246 2.246 0 0 0 2.253-2.24 2.246 2.246 0 0 0-2.252-2.24 2.246 2.246 0 0 0-2.252 2.24 2.246 2.246 0 0 0 2.252 2.24zm-10.996 0a2.246 2.246 0 0 0 2.252-2.24A2.246 2.246 0 0 0 4.455.055a2.246 2.246 0 0 0-2.252 2.24 2.246 2.246 0 0 0 2.252 2.24zm5.498.897a2.246 2.246 0 0 0 2.253-2.24A2.246 2.246 0 0 0 9.953.95a2.246 2.246 0 0 0-2.252 2.24 2.246 2.246 0 0 0 2.252 2.24z"/></svg>