<svg width="20" height="20" viewBox="0 0 20 20" xmlns="http://www.w3.org/2000/svg"><path d="M17.985 10.5h-.043a.5.5 0 0 1 0-1h.043A8.001 8.001 0 0 0 10.5 2.015v.08a.5.5 0 1 1-1 0v-.08A8.001 8.001 0 0 0 2.015 9.5h.012a.5.5 0 1 1 0 1h-.012A8.001 8.001 0 0 0 9.5 17.985a.5.5 0 0 1 1 0 8.001 8.001 0 0 0 7.485-7.485zM10 20C4.477 20 0 15.523 0 10S4.477 0 10 0s10 4.477 10 10-4.477 10-10 10zm.054-9.634a.442.442 0 1 0 0-.884.442.442 0 0 0 0 .884zm4.128-3.558a.489.489 0 0 1 .497.834l-2.454 1.795h1.2a.487.487 0 0 1 0 .974h-2.046a1.42 1.42 0 0 1-.838.84v1.964a.486.486 0 1 1-.975 0v-1.848l-3.764 1.634a.486.486 0 0 1-.469-.85l2.557-1.74H6.723a.486.486 0 1 1 0-.974h2.005c.143-.388.45-.694.838-.837V6.785a.487.487 0 0 1 .975 0v1.757c.005-.002.008-.006.013-.009l3.628-1.725z"/></svg>