<svg id="data-flag" xmlns="http://www.w3.org/2000/svg" width="20" height="20" viewBox="0 0 20 20"><defs/><path class="cls-1" d="M18.85 0v1.9h-8.1v3.47h8.11V7.1h-8.11v3.46h8.11v1.73H5.71a3.22 3.22 0 1 0-.88 4.78l2 2.06a.8.8 0 0 0 .93.15A.81.81 0 0 0 8 18l-2-2.07.1-.18h12.75v1.73H20V0h-1.15zM.9 15a2.44 2.44 0 0 1-.06-1.14l.33.63zm.43.82l.72-.12 1 1a2.4 2.4 0 0 1-1.71-.88zm1.9.89a.23.23 0 0 0 0-.11l.2-1.37 1.24-.62a.22.22 0 0 0 .09-.07.1.1 0 0 0 0-.09.16.16 0 0 0-.06-.08l-1.24-.61-.2-1.37a.2.2 0 0 0-.06-.13.14.14 0 0 0-.19.05l-1 1-.94-.16a2.41 2.41 0 1 1 2.17 3.56zM5.42 4.54a.17.17 0 0 0 .11 0l1.07-.16.75.77h.07a.08.08 0 0 0 .06 0 .18.18 0 0 0 0-.08L7.71 4l1-.48.07-.05a.07.07 0 0 0 0-.07.13.13 0 0 0 0-.06l-1-.48-.23-1.08a.16.16 0 0 0-.05-.1.11.11 0 0 0-.15 0l-.75.81-1.07-.18a.12.12 0 0 0-.13 0 .12.12 0 0 0 0 .14l.5 1-.5 1a.11.11 0 0 0 .02.09z"/><path class="cls-1" d="M5.53 10.06l1.07-.18.75.77h.07a.08.08 0 0 0 .06 0 .18.18 0 0 0 0-.08l.23-1.06 1-.48.04-.03a.07.07 0 0 0 0-.07.13.13 0 0 0 0-.06l-1-.48-.2-1.11a.16.16 0 0 0-.05-.1.11.11 0 0 0-.15 0L6.6 8l-1.07-.19a.12.12 0 0 0-.13 0 .12.12 0 0 0 0 .14l.5 1-.5 1a.11.11 0 0 0 0 .15.17.17 0 0 0 .13-.04zM.42 4.54a.17.17 0 0 0 .11 0l1.07-.16.75.77h.07a.08.08 0 0 0 .06 0 .18.18 0 0 0 0-.08L2.71 4l1-.48.07-.05a.07.07 0 0 0 0-.07.13.13 0 0 0 0-.06l-1-.48-.23-1.08a.16.16 0 0 0-.05-.1.11.11 0 0 0-.15 0l-.75.81-1.07-.18a.12.12 0 0 0-.13 0 .12.12 0 0 0 0 .14l.5 1-.5 1a.11.11 0 0 0 .02.09zM.53 10.06l1.07-.18.75.77h.07a.08.08 0 0 0 .06 0 .18.18 0 0 0 0-.08l.23-1.06 1-.48.04-.03a.07.07 0 0 0 0-.07.13.13 0 0 0 0-.06l-1-.48-.2-1.11a.16.16 0 0 0-.05-.1.11.11 0 0 0-.15 0L1.6 8 .53 7.81a.12.12 0 0 0-.13 0A.12.12 0 0 0 .41 8l.5 1-.5 1a.11.11 0 0 0 0 .15.17.17 0 0 0 .12-.09z"/></svg>