<svg width="20" height="20" viewBox="-2 0 18 20" xmlns="http://www.w3.org/2000/svg"><path d="M14.0289613,-0.40058265 L14.0744715,-0.398539313 L14.127,-0.39 L14.1539003,-0.389342683 C14.2982177,-0.380523965 14.450539,-0.354615183 14.6097155,-0.311375365 L14.7711347,-0.262349611 C15.7811847,0.0760676732 16.3142293,1.14120834 16.4416408,2.83336505 C16.4613005,3.09446643 16.2773723,3.32099384 16.0282993,3.36368831 L15.9430521,3.37090643 L13.72,3.37 L13.720484,18 C13.720484,18.2454599 13.5436088,18.4496084 13.3103596,18.4919443 L13.220484,18.5 L0,18.5 C-0.245459889,18.5 -0.44960837,18.3231248 -0.491944331,18.0898756 L-0.5,18 L-0.5,1.36010303 L-0.481686399,1.22602017 C-0.211001499,0.253597338 0.336747908,-0.325164069 1.13003106,-0.393710718 L1.29195213,-0.40058265 L14.0289613,-0.40058265 Z M12.768,0.599 L1.29195213,0.59941735 C0.949337174,0.59941735 0.704554709,0.810415571 0.528129656,1.34136652 L0.5,1.432 L0.5,17.5 L12.72,17.5 L12.720484,0.84111595 L12.7329849,0.730009611 L12.768,0.599 Z M14.075979,0.59782133 L14.001,0.599 L13.9477661,0.608131137 C13.8365391,0.637216754 13.7730822,0.723298525 13.728711,0.872394977 L13.72,0.901 L13.72,2.37 L15.384,2.37 L15.367937,2.25963086 C15.2243102,1.40556602 14.9397546,0.90823727 14.5461863,0.723057265 L14.4534423,0.685844225 C14.2964744,0.633252113 14.1734863,0.603316726 14.075979,0.59782133 Z"></path><rect x="2" y="4" width="9" height="2" rx="1"></rect><rect x="2" y="7" width="9" height="2" rx="1"></rect><rect x="2" y="10" width="6" height="2" rx="1"></rect><rect x="8" y="14" width="4" height="2" rx="1"></rect></svg>