<svg width="20" height="20" viewBox="0 0 20 20" xmlns="http://www.w3.org/2000/svg"><g transform="translate(3 1)"><path d="M1.292-.5h12.737l.125.011c.144.01.297.035.456.078l.161.05c1.01.338 1.543 1.403 1.67 3.095a.5.5 0 0 1-.498.537H13.72v14.63a.5.5 0 0 1-.41.492l-.09.008H0a.5.5 0 0 1-.5-.5V1.26l.018-.134C-.193.089.411-.5 1.292-.5Zm11.475 1H1.292C.949.5.705.711.528 1.242L.5 1.335V17.4h12.22V.742l.013-.111.034-.131Zm1.309-.002L13.995.5l-.047.009c-.09.023-.148.083-.19.182l-.038.111v1.469h1.664l-.016-.11c-.144-.855-.428-1.352-.822-1.537l-.093-.038a1.526 1.526 0 0 0-.377-.088Z"/><rect x="2" y="3.901" width="9" height="2" rx="1"/><rect x="2" y="6.901" width="9" height="2" rx="1"/><rect x="2" y="9.901" width="6" height="2" rx="1"/><rect x="8" y="13.901" width="4" height="2" rx="1"/></g></svg>
