<svg xmlns="http://www.w3.org/2000/svg" width="20" height="20" viewBox="0 0 20 20"><path d="M19.47 15.51a.71.71 0 0 0-1.21.54l.07 1.32-3.16-3a6.76 6.76 0 0 0 0-8.5l3.22-3.23V4a.7.7 0 0 0 1.2.54.72.72 0 0 0 .16-.54l.16-3.16a.7.7 0 0 0-.2-.54.71.71 0 0 0-.54-.17L16 .3a.7.7 0 0 0-.46 1.2.71.71 0 0 0 .54.21l1.32-.07-3.21 3.22a6.7 6.7 0 0 0-8.37-.07L2.59 1.63l1.33.07A.7.7 0 0 0 4.45.5.72.72 0 0 0 4 .29L.83.13a.7.7 0 0 0-.53.2.71.71 0 0 0-.21.54L.26 4a.7.7 0 0 0 1.2.46.71.71 0 0 0 .21-.46L1.6 2.63l3.21 3.14a6.76 6.76 0 0 0-.06 8.58l-3.08 3L1.74 16a.7.7 0 0 0-1.2-.54.72.72 0 0 0-.21.54l-.16 3.13a.7.7 0 0 0 .2.54.71.71 0 0 0 .54.21l3.16-.17a.7.7 0 0 0 .46-1.2.71.71 0 0 0-.53-.21l-1.32.07 3.08-3a6.7 6.7 0 0 0 8.43 0l3.16 3L16 18.3a.7.7 0 0 0-.54 1.2.72.72 0 0 0 .46.21l3.16.16a.7.7 0 0 0 .54-.2.71.71 0 0 0 .21-.54L19.67 16a.7.7 0 0 0-.2-.49zm-6.93-2.8a2.24 2.24 0 0 1-.83.86 3 3 0 0 1-1.31.4v.69a1.25 1.25 0 0 1-.06.46.26.26 0 0 1-.27.14.3.3 0 0 1-.27-.12.67.67 0 0 1-.08-.36V14a3.34 3.34 0 0 1-1.08-.29 2.56 2.56 0 0 1-.77-.56 2.32 2.32 0 0 1-.46-.69 1.84 1.84 0 0 1-.15-.7.65.65 0 0 1 .2-.46.66.66 0 0 1 .54-.2.7.7 0 0 1 .4.11.58.58 0 0 1 .23.31 6.7 6.7 0 0 0 .25.67 1.28 1.28 0 0 0 .32.42 1.43 1.43 0 0 0 .57.29v-2.49A6.46 6.46 0 0 1 8.53 10a1.93 1.93 0 0 1-1.07-1.84A2 2 0 0 1 8 6.63 2.59 2.59 0 0 1 9.72 6v-.61q0-.45.33-.45a.35.35 0 0 1 .34.44V6a3.31 3.31 0 0 1 1 .23 1.92 1.92 0 0 1 .71.53 2.26 2.26 0 0 1 .37.56 1.29 1.29 0 0 1 .13.53.63.63 0 0 1-.19.46.64.64 0 0 1-.47.19.66.66 0 0 1-.67-.56 1.2 1.2 0 0 0-.88-.94v2.22a7.56 7.56 0 0 1 1 .33 2.17 2.17 0 0 1 .7.43 2 2 0 0 1 .51.7 2.2 2.2 0 0 1 .18.89 2.37 2.37 0 0 1-.25 1.14z"/><path d="M10.48 10.72V13a1.45 1.45 0 0 0 .83-.43 1.09 1.09 0 0 0 .29-.75.91.91 0 0 0-.29-.75 2.3 2.3 0 0 0-.83-.35zM8.86 8.12a.82.82 0 0 0 .23.63 2.14 2.14 0 0 0 .72.37v-2a1.85 1.85 0 0 0-.72.34.83.83 0 0 0-.23.66z"/></svg>