<svg width="16" height="20" viewBox="0 0 16 20" xmlns="http://www.w3.org/2000/svg"><path d="M0 .494C0 .221.23 0 .502 0h11.552C13 1 15 2.506 16 3.5v16c0 .276-.226.5-.496.5H.496A.497.497 0 0 1 0 19.506V.494zM2 2v16h12V4.5h-2.5V2H2zm2.094 8.206h7.662c.328 0 .594-.27.594-.603A.599.599 0 0 0 11.756 9H4.094a.599.599 0 0 0-.594.603c0 .333.266.603.594.603zm0 3h7.662c.328 0 .594-.27.594-.603a.599.599 0 0 0-.594-.603H4.094a.599.599 0 0 0-.594.603c0 .333.266.603.594.603zm7.662 3c.328 0 .594-.27.594-.603a.599.599 0 0 0-.594-.603H4.094a.599.599 0 0 0-.594.603c0 .333.266.603.594.603h7.662z"/></svg>