<svg width="20" height="20" viewBox="0 0 20 20" xmlns="http://www.w3.org/2000/svg"><path d="M12.665 2.202l.074.075a.52.52 0 1 0-.736-.737l-2.89 2.89h.149L7.756 2.924a.52.52 0 0 0-.89.368c0 .14.056.272.153.369l1.8 1.8a.52.52 0 0 0 .736 0l3.184-3.184-.074-.075zM0 9.996C0 9.446.455 9 .992 9h18.016c.548 0 .992.445.992.996v9.008c0 .55-.455.996-.992.996H.992A.993.993 0 0 1 0 19.004V9.996zm2.537-9c0-.55.458-.996.99-.996h12.765c.547 0 .99.447.99.996V7.5H2.538V.996zM4.202 11.68c-.021-.04-.045-.066-.071-.074-.045-.015-.083.01-.115.074l-.423.857-.947.14c-.056.006-.09.027-.102.063-.011.036.004.073.046.112l.685.668-.161.942c-.011.07.006.113.05.127.025.008.058.003.1-.016l.847-.448.846.445a.219.219 0 0 0 .035.015.11.11 0 0 0 .07.002c.021-.007.036-.023.044-.048a.16.16 0 0 0 .001-.079l-.162-.942.684-.668a.154.154 0 0 0 .045-.065.066.066 0 0 0-.008-.063.111.111 0 0 0-.057-.04.244.244 0 0 0-.037-.009l-.947-.137-.423-.856zm5.788 0c-.021-.04-.045-.066-.071-.074-.044-.015-.083.01-.115.074l-.423.857-.947.14c-.055.006-.09.027-.101.063-.012.036.003.073.045.112l.685.668-.161.942c-.01.07.006.113.05.127.025.008.059.003.1-.016l.847-.448.846.445a.219.219 0 0 0 .035.015.11.11 0 0 0 .07.002c.021-.007.036-.023.044-.048a.16.16 0 0 0 .002-.079l-.163-.942.684-.668a.154.154 0 0 0 .045-.065.066.066 0 0 0-.008-.063.111.111 0 0 0-.057-.04.244.244 0 0 0-.037-.009l-.946-.137-.424-.856zm5.788 0c-.02-.04-.045-.066-.07-.074-.045-.015-.084.01-.116.074l-.422.857-.947.14c-.056.006-.09.027-.102.063-.012.036.003.073.045.112l.685.668-.16.942c-.012.07.005.113.05.127.025.008.058.003.1-.016l.846-.448.847.445a.219.219 0 0 0 .034.015.11.11 0 0 0 .07.002c.022-.007.036-.023.044-.048a.16.16 0 0 0 .002-.079l-.162-.942.683-.668a.154.154 0 0 0 .045-.065.066.066 0 0 0-.008-.063.111.111 0 0 0-.057-.04.244.244 0 0 0-.037-.009l-.946-.137-.424-.856z"/></svg>