<svg width="20" height="20" viewBox="0 0 20 20" xmlns="http://www.w3.org/2000/svg"><path d="M19.772 6.001V19.48a.52.52 0 0 1-.514.52H.514A.517.517 0 0 1 0 19.485V.515A.51.51 0 0 1 .512 0h13.61a4.322 4.322 0 0 0-.507 2.005c0 .026.007.05.007.076H2.082V17.92H17.69V6.355c.102.006.2.03.303.03.634 0 1.234-.141 1.778-.384Z"/><path d="M15.974 5.879v.202c0 .57-.476 1.032-1.05 1.032H4.692c-.58 0-1.049-.47-1.049-1.032v-1.18c0-.57.476-1.03 1.05-1.03h9.344a4.38 4.38 0 0 0 1.938 2.008Zm-.235 3.936c.173 0 .313-.284.313-.635 0-.35-.14-.635-.313-.635H10.12c-.173 0-.313.285-.313.635 0 .351.14.635.313.635h5.618Zm0 2.887c.173 0 .313-.281.313-.627 0-.347-.14-.628-.313-.628H10.12c-.173 0-.313.281-.313.628 0 .346.14.627.313.627h5.618Zm-2.083 2.992c.174 0 .315-.281.315-.628 0-.346-.141-.627-.315-.627h-3.533c-.174 0-.315.28-.315.627s.141.628.315.628h3.533ZM17.565 3.67a.555.555 0 0 1-.797 0l-1.253-1.016a.583.583 0 0 1-.166-.409.57.57 0 0 1 .564-.578c.156 0 .297.065.399.17l.854.607L18.744.66a.555.555 0 0 1 .399-.169c.311 0 .564.259.564.578 0 .16-.064.304-.165.409L17.565 3.67Z"/><rect x="3.642" y="8.4" width="4.943" height="7.284" rx="1"/></svg>
