<svg width="20" height="20" viewBox="0 0 20 20" xmlns="http://www.w3.org/2000/svg" xmlns:xlink="http://www.w3.org/1999/xlink"><defs><path d="M10 12c.56 0 1 .422 1 1.007 0 .53-.44.993-1 .993a.98.98 0 0 1-1-1.007c0-.53.44-.993 1-.993Zm-.013-9C10.553 3 11 3.364 11 4.093s-.54 5.25-.75 6.907h-.5C9.54 9.344 9 4.822 9 4.093 9 3.364 9.421 3 9.987 3Z" id="a"/></defs><g fill="none" fill-rule="evenodd"><path d="M.984 1.215a.924.924 0 0 0-.929.935v13.095c0 .534.398.913.93.913h3.367l.087 2.45c.045.11.177.177.31.177s.243-.089.31-.178l3.297-2.45h10.682a.887.887 0 0 0 .907-.912V2.15c0-.512-.398-.935-.907-.935H.984Z" fill="#000"/><use fill="#FFF" xlink:href="#a"/></g></svg>
