<svg width="20" height="20" viewBox="0 -1 20 19" xmlns="http://www.w3.org/2000/svg"><path d="M19.038.215c.509 0 .907.423.907.935v13.095a.887.887 0 0 1-.907.913H8.356l-3.297 2.45c-.067.088-.177.177-.31.177s-.265-.066-.31-.178l-.087-2.45H.984c-.53 0-.929-.378-.929-.912V1.15c0-.512.398-.935.93-.935ZM10 11c-.56 0-1 .463-1 .993A.98.98 0 0 0 10 13c.56 0 1-.463 1-.993A.98.98 0 0 0 10 11Zm-.013-9C9.42 2 9 2.364 9 3.093s.54 5.25.75 6.907h.5l.022-.175c.224-1.779.728-6.027.728-6.732C11 2.364 10.553 2 9.987 2Z"/></svg>
