<svg width="20" height="20" viewBox="0 -1 20 19" xmlns="http://www.w3.org/2000/svg"><path d="M19.0377006,0.2146162 C19.5465552,0.2146162 19.9447893,0.63773988 19.9447893,1.14994223 L19.9447893,1.14994223 L19.9447893,14.2445067 C19.9447893,14.7789787 19.5465552,15.157563 19.0377006,15.157563 L19.0377006,15.157563 L8.35641121,15.157563 L5.05875379,17.6072265 C4.99238145,17.6963051 4.88176088,17.7853838 4.7490162,17.7853838 C4.61627151,17.7853838 4.48352683,17.7185748 4.4392786,17.6072265 L4.4392786,17.6072265 L4.35194657,15.157563 L0.984423526,15.157563 C0.453444789,15.157563 0.0552107362,14.7789787 0.0552107362,14.2445067 L0.0552107362,14.2445067 L0.0552107362,1.14994223 C0.0552107362,0.63773988 0.453444789,0.2146162 0.984423526,0.2146162 L0.984423526,0.2146162 Z M10,11 C9.44,11 9,11.462585 9,11.9931973 C9,12.5782313 9.44,13 10,13 C10.56,13 11,12.537415 11,12.0068027 C11,11.4217687 10.56,11 10,11 Z M9.98684211,2 C9.42105263,2 9,2.36438923 9,3.0931677 C9,3.82194617 9.53947368,8.3436853 9.75,10 L9.75,10 L10.25,10 L10.272117,9.82506372 C10.4958918,8.04645043 11,3.79765355 11,3.0931677 C11,2.36438923 10.5526316,2 9.98684211,2 Z"></path></svg>