<svg id="fax" xmlns="http://www.w3.org/2000/svg" width="20" height="20" viewBox="0 0 20 20"><defs/><path class="cls-1" d="M5.27 6.64a1.28 1.28 0 0 0-1.4 1V14a1.28 1.28 0 0 0 1.4 1 1.27 1.27 0 0 0 1.42-1V7.67a1.29 1.29 0 0 0-1.42-1.03zM12.42 3.8v1.87h1.87L12.42 3.8z"/><path class="cls-1" d="M14.62 7.91V6.73h-2.73a.54.54 0 0 1-.53-.53V3.47H6.62a.25.25 0 0 0-.24.24v2.18a2 2 0 0 1 1.29 2h6.93zM15.73 14.51V9.42a.52.52 0 0 0-.51-.53H7.67V14a1.69 1.69 0 0 1-.33 1h7.91a.52.52 0 0 0 .51-.53zm-5.31-.71a.51.51 0 0 1 0-1 .53.53 0 0 1 .51.51.5.5 0 0 1-.51.49zm0-1.31a.5.5 0 0 1-.51-.49.52.52 0 0 1 .51-.51.53.53 0 0 1 .51.51.5.5 0 0 1-.51.49zm0-1.33a.5.5 0 1 1 0-1 .53.53 0 0 1 .51.51.5.5 0 0 1-.51.49zM12 13.8a.51.51 0 0 1 0-1 .53.53 0 0 1 .51.51.5.5 0 0 1-.51.49zm0-1.31a.5.5 0 0 1-.53-.49.51.51 0 0 1 .53-.53.53.53 0 0 1 .51.51.5.5 0 0 1-.51.51zm0-1.33a.49.49 0 0 1-.49-.49.5.5 0 0 1 .49-.51.53.53 0 0 1 .51.51.5.5 0 0 1-.51.49zm1.56 2.64a.51.51 0 1 1 0-1 .53.53 0 0 1 .51.51.5.5 0 0 1-.56.49zm0-1.31A.5.5 0 0 1 13 12a.52.52 0 0 1 .51-.51.53.53 0 0 1 .49.51.5.5 0 0 1-.49.49zm0-1.33a.5.5 0 1 1 0-1 .53.53 0 0 1 .51.51.5.5 0 0 1-.56.49z"/></svg>