<svg width="20" height="15" viewBox="0 0 20 15" xmlns="http://www.w3.org/2000/svg"><path d="M14.232 9a2 2 0 0 1-3.464 0H.992A.993.993 0 0 1 0 8c0-.552.455-1 .992-1h9.776a2 2 0 0 1 3.464 0h4.776c.548 0 .992.444.992 1 0 .552-.455 1-.992 1h-4.776zM6.671 4a1.998 1.998 0 0 1-3.342 0H.992A.993.993 0 0 1 0 3c0-.552.455-1 .992-1h2.221a2 2 0 0 1 3.574 0h12.221c.548 0 .992.444.992 1 0 .552-.455 1-.992 1H6.671zm4.782 10a1.999 1.999 0 0 1-3.406 0H.992A.993.993 0 0 1 0 13c0-.552.455-1 .992-1H7.99a2 2 0 0 1 3.52 0h7.498c.548 0 .992.444.992 1 0 .552-.455 1-.992 1h-7.555z"/></svg>