<svg width="16" height="20" viewBox="0 0 16 20" xmlns="http://www.w3.org/2000/svg"><path d="M0 .494C0 .221.23 0 .502 0h11.552C13 1 15 2.506 16 3.5v16c0 .276-.226.5-.496.5H.496A.497.497 0 0 1 0 19.506V.494zM2 2v16h12V4.5h-2.5V2H2zm2.094 11.206a.599.599 0 0 1-.594-.603c0-.333.266-.603.594-.603h7.662c.328 0 .594.27.594.603a.599.599 0 0 1-.594.603H4.094zm7.662 3H4.094a.599.599 0 0 1-.594-.603c0-.333.266-.603.594-.603h7.662c.328 0 .594.27.594.603a.599.599 0 0 1-.594.603zm-5.333-9.58c.35.122.612.275.784.46.173.184.26.428.26.73 0 .332-.136.62-.407.862-.298.257-.716.404-1.253.44v.617H5.22v-.63c-.485-.047-.88-.191-1.183-.434-.322-.261-.483-.616-.483-1.064h.82c0 .224.072.394.216.51.145.118.355.192.63.225V6.984l-.35-.12c-.392-.13-.695-.287-.91-.472-.214-.184-.322-.442-.322-.773s.134-.608.403-.83c.268-.221.661-.35 1.18-.388v-.532h.587v.539c.453.047.798.187 1.036.42.238.233.39.537.455.91H6.48a.663.663 0 0 0-.206-.375.94.94 0 0 0-.466-.227V6.41l.616.217zm-.063 1.54a.47.47 0 0 0 .175-.363c0-.266-.168-.462-.504-.588l-.224-.084v1.225c.252-.023.437-.086.553-.19zM4.712 5.305a.44.44 0 0 0-.172.343c0 .13.038.234.112.311a.903.903 0 0 0 .357.2l.21.084V5.115c-.224.028-.393.09-.507.189z"/></svg>