<svg xmlns="http://www.w3.org/2000/svg" width="25.26" height="20" viewBox="0 0 25.26 20"><path d="M24.9 3.6h.5V2.1H8.7L6.8 0H.1v3.6h24.8zM25.4 5.5H0V20h4.2l-1.3-6.7V13a1.73 1.73 0 0 1 1.5-1.7 3.57 3.57 0 0 0 2.3.8 3.57 3.57 0 0 0 2.3-.8 1.73 1.73 0 0 1 1.6 1.7v.3L9.3 20h16.1V5.5zM6.8 10.8a2 2 0 1 1 2-2 2 2 0 0 1-2 2zm14.5 5.4h-7.7a.6.6 0 0 1 0-1.2h7.7a.65.65 0 0 1 .6.6.58.58 0 0 1-.6.6zm0-3h-7.7a.6.6 0 0 1 0-1.2h7.7a.65.65 0 0 1 .6.6.58.58 0 0 1-.6.6zm0-3h-7.7a.6.6 0 0 1 0-1.2h7.7a.65.65 0 0 1 .6.6.58.58 0 0 1-.6.6z"/></svg>