<svg xmlns="http://www.w3.org/2000/svg" width="20" height="20" viewBox="0 0 20 20"><path d="M.15 10.19a10.24 10.24 0 0 0 6.8 9.7.51.51 0 0 0 .7-.5v-1.7c-2.8.6-3.4-1.4-3.4-1.4a2.88 2.88 0 0 0-1.1-1.5c-.9-.6.1-.6.1-.6a2.1 2.1 0 0 1 1.5 1.1 2.14 2.14 0 0 0 2.9.9 2.29 2.29 0 0 1 .6-1.4c-2.2-.3-4.6-1.1-4.6-5.1a4.55 4.55 0 0 1 1-2.8 4.06 4.06 0 0 1 .1-2.7s.8-.3 2.7 1.1a10.57 10.57 0 0 1 5 0c1.9-1.3 2.7-1.1 2.7-1.1a4 4 0 0 1 .1 2.7 4.14 4.14 0 0 1 1 2.8c0 3.9-2.3 4.8-4.6 5.1a2.26 2.26 0 0 1 .7 1.9v2.8a.51.51 0 0 0 .7.5 10.2 10.2 0 0 0 6.8-9.7A10.16 10.16 0 0 0 9.85 0C4.65-.11.15 4.49.15 10.19z" data-name="github-circle"/></svg>