<svg width="20" height="20" viewBox="0 0 20 20" xmlns="http://www.w3.org/2000/svg"><path d="M0 1.016a1.016 1.016 0 0 1 2.032 0v17.307l-1.016-1.016H18.38a1.016 1.016 0 0 1 0 2.032H0V1.016zm7.426 11.132c.554 0 1.002.45 1.002.998v1.052a.997.997 0 0 1-1.002.998H5.289c-.553 0-1.002-.45-1.002-.998v-1.052a.997.997 0 0 1 1.002-.998h2.137zm7.93-9.47c.554 0 1.003.45 1.003.997v1.052c0 .551-.451.998-1.004.998H5.094c-.555 0-1.004-.45-1.004-.998V3.675c0-.55.45-.998 1.004-.998h10.261zm-3.968 4.734c.555 0 1.006.45 1.006.998v1.052a.996.996 0 0 1-1.006.998H5.194c-.555 0-1.006-.45-1.006-.998V8.41a.996.996 0 0 1 1.006-.998h6.194z"/></svg>