<svg width="21" height="20" viewBox="0 0 21 20" xmlns="http://www.w3.org/2000/svg"><path d="M0 1.05v18.954h19.012a1.05 1.05 0 1 0 0-2.101H1.051l1.05 1.05V1.052A1.05 1.05 0 1 0 0 1.05zm3.678 12.03a.99.99 0 0 1 .998-.994h1.158c.55 0 .997.442.997.994v2.297a.99.99 0 0 1-.997.993H4.676a.994.994 0 0 1-.998-.993V13.08zm4.73-8.406c0-.55.438-.996.997-.996h1.158a1 1 0 0 1 .997.996v10.7c0 .55-.438.996-.997.996H9.405a1 1 0 0 1-.997-.996v-10.7zm4.729 4.215a.997.997 0 0 1 .997-1.007h1.158c.551 0 .998.456.998 1.007v6.474a.997.997 0 0 1-.998 1.007h-1.158c-.55 0-.997-.456-.997-1.007V8.89z"/></svg>