<svg width="20" height="20" viewBox="0 0 20 20" xmlns="http://www.w3.org/2000/svg"><path d="M0 1.016a1.016 1.016 0 0 1 2.032 0v17.307l-1.016-1.016H18.38a1.016 1.016 0 0 1 0 2.032H0V1.016zm12.978 11.242c.556 0 1.007.45 1.007.998v1.052a1 1 0 0 1-1.007.998h-8.1c-.556 0-1.007-.45-1.007-.998v-1.052a1 1 0 0 1 1.007-.998h8.1zM15.136 7.5c.555 0 1.005.45 1.005.998V9.55c0 .551-.452.998-1.005.998H4.875c-.554 0-1.004-.45-1.004-.998V8.498c0-.551.451-.998 1.004-.998h10.261zM11.07 2.58c.556 0 1.007.45 1.007.999V4.63a.996.996 0 0 1-1.007.998H4.877c-.556 0-1.006-.45-1.006-.998V3.579a.996.996 0 0 1 1.006-.998h6.193z"/></svg>