<svg id="hand-envelope" xmlns="http://www.w3.org/2000/svg" width="20" height="20" viewBox="0 0 20 20"><defs/><path class="cls-1" d="M17.8 7.78c-.56-.89-2.07-3.36-3.89-3.36H10a.68.68 0 0 0-.7.69v.45a.61.61 0 0 0 .7.58h2.6c.27 0 .25.58-.07.58H3.91a.7.7 0 0 0-.83.58v.41a.67.67 0 0 0 .83.58h3.47a3.7 3.7 0 0 1 6.34 2.56A3.67 3.67 0 0 1 10 14.49a3.76 3.76 0 0 1-2.72-1.18H5.49a.61.61 0 0 0-.7.58v.42a.67.67 0 0 0 .7.58h8.73a4.09 4.09 0 0 0 3.6-1.58H20V7.78h-2.2z"/><path class="cls-1" d="M10.67 11.57a.67.67 0 0 1-.45.17.7.7 0 0 1-.46-.17l-.37-.32-1.5 1.22v.06h4.58v-.05L11 11.26zM12.85 9.71l-1.28 1.14 1.28 1.04V9.71zM10 10.88a.51.51 0 0 0 .29.1.42.42 0 0 0 .27-.1l2-1.72H7.9zM7.67 11.89l1.28-1.04-1.28-1.14v2.18zM6.34 10.58a3.68 3.68 0 0 1 .56-1.69H3.1c-.67 0-.81.33-.81.58V10a.64.64 0 0 0 .81.58h3.24zM6.34 11.16H3.91c-.7 0-.83.33-.83.58v.42a.67.67 0 0 0 .83.58h2.95a3.75 3.75 0 0 1-.52-1.58z"/></svg>