<svg width="20" height="20" viewBox="0 0 20 20" xmlns="http://www.w3.org/2000/svg"><path d="M4.463 11.009a3.92 3.92 0 0 1 .614-1.864H.91c-.767 0-.899.373-.899.636v.614c0 .636.614.636.9.636h3.552v-.022zm-2.676.658c-.767 0-.899.373-.899.636v.482c0 .417.285.636.9.636h3.245c-.307-.526-.526-1.118-.57-1.754H1.787zM12.775 4.21H8.52s-.767 0-.767.79v.482s0 .636.767.636h2.785c.285 0 .285.636-.065.636H1.787c-.767-.022-.899.46-.899.614v.46c-.022.68.724.637.9.637h3.815A4.052 4.052 0 0 1 8.52 7.237a4.048 4.048 0 0 1 4.057 4.057A4.062 4.062 0 0 1 8.52 15.35a3.988 3.988 0 0 1-2.982-1.316H3.52c-.768 0-.768.636-.768.636v.483c0 .636.768.636.768.636h9.584c2.04 0 3.333-.812 3.97-1.755h2.06c.352-.388.855-1.594.855-2.888 0-2.5-.5-3-.503-3.23H17.05c-.636-.965-2.28-3.707-4.276-3.707zm-4.277 8.312c-.263 0-.68-.088-.68-.395a.403.403 0 0 0-.416-.416.393.393 0 0 0-.395.394c-.022.614.526 1.053 1.075 1.185v.438c0 .241.175.417.416.417.22 0 .395-.176.395-.395v-.46c.636-.132 1.097-.593 1.097-1.163 0-.285-.132-.57-.33-.79-.285-.284-.701-.438-1.14-.438-.263 0-.68-.11-.68-.417 0-.197.285-.394.68-.394.241 0 .68.11.68.394 0 .22.175.417.395.417a.403.403 0 0 0 .416-.417c0-.636-.548-1.008-1.074-1.162v-.46a.416.416 0 0 0-.417-.417c-.22 0-.416.175-.416.395v.46c-.636.132-1.097.614-1.097 1.14 0 .308.11.57.35.79.264.285.703.439 1.141.439.241 0 .658.131.658.416.022.22-.263.439-.658.439z"/></svg>