<svg width="20" height="12" viewBox="0 0 20 12" xmlns="http://www.w3.org/2000/svg"><path d="M4.474 6.862a3.92 3.92 0 0 1 .614-1.865H.921c-.767 0-.899.373-.899.636v.614c0 .636.614.636.9.636h3.552v-.021zM1.8 7.519c-.768 0-.9.373-.9.636v.483c0 .417.285.636.9.636h3.245c-.307-.526-.526-1.119-.57-1.755H1.8zM12.786.063H8.53s-.767 0-.767.79v.482s0 .636.767.636h2.785c.286 0 .286.636-.065.636H1.799c-.768-.022-.9.46-.9.614v.46c-.022.68.724.637.9.637h3.815a4.052 4.052 0 0 1 2.917-1.229 4.048 4.048 0 0 1 4.057 4.058 4.062 4.062 0 0 1-4.057 4.057A3.988 3.988 0 0 1 5.55 9.888H3.53c-.767 0-.767.636-.767.636v.482c0 .636.767.636.767.636h9.584c2.04 0 3.333-.811 3.97-1.754h2.06c.352-.388.637-2.369.637-3.662 0-.856-.11-1.667-.285-2.457h-2.435c-.636-.965-2.28-3.706-4.276-3.706zM8.509 8.375c-.263 0-.68-.088-.68-.395a.403.403 0 0 0-.416-.417.393.393 0 0 0-.395.395c-.022.614.526 1.053 1.075 1.184v.439c0 .241.175.417.416.417.22 0 .395-.176.395-.395v-.46c.636-.132 1.097-.593 1.097-1.163 0-.285-.132-.57-.33-.79-.284-.285-.701-.438-1.14-.438-.263 0-.68-.11-.68-.417 0-.197.286-.395.68-.395.242 0 .68.11.68.395 0 .22.176.417.395.417a.403.403 0 0 0 .417-.417c0-.636-.549-1.009-1.075-1.162v-.46a.416.416 0 0 0-.417-.417c-.219 0-.416.175-.416.394v.46c-.636.133-1.097.615-1.097 1.141 0 .307.11.57.35.79.264.285.703.438 1.141.438.242 0 .658.132.658.417.022.22-.263.439-.658.439z"/></svg>