<svg width="20" height="20" viewBox="0 0 20 20" xmlns="http://www.w3.org/2000/svg"><path d="M4.463 11.009a3.92 3.92 0 0 1 .614-1.864H.91c-.767 0-.899.373-.899.636v.614c0 .636.614.636.9.636h3.552v-.022zm-2.676.658c-.767 0-.899.373-.899.636v.482c0 .417.285.636.9.636h3.245c-.307-.526-.526-1.118-.57-1.754H1.787zM12.775 4.21c1.995 0 3.64 2.742 4.276 3.707h2.435c.003.23.503.73.503 3.23 0 1.294-.503 2.5-.854 2.888h-2.062c-.636.943-1.93 1.755-3.97 1.755H3.52s-.768 0-.768-.636v-.483s0-.636.768-.636h2.018a3.988 3.988 0 0 0 2.982 1.316 4.062 4.062 0 0 0 4.057-4.057A4.048 4.048 0 0 0 8.52 7.237a4.052 4.052 0 0 0-2.917 1.228H1.787c-.175 0-.92.044-.899-.636v-.46c0-.154.132-.637.9-.615h9.452c.35 0 .35-.636.065-.636H8.52c-.767 0-.767-.636-.767-.636V5c0-.79.767-.79.767-.79h4.255zM7.63 11.803c.246.22.415.369.458.402.236.187.42.212.57.212a.81.81 0 0 0 .551-.217l.424-.392 1.8 1.537-.001.076H5.78l-.001-.076 1.851-1.542zm-1.87.81V9.84a836.747 836.747 0 0 0 1.647 1.48l-1.646 1.291zm4.107-1.304l1.584-1.463v2.757L9.867 11.31zm1.584-2.164v.019l-2.464 2.18a.51.51 0 0 1-.329.128.624.624 0 0 1-.358-.131c-.139-.11-2.1-1.81-2.54-2.19v-.006h5.69z"/></svg>