<svg id="info-person" xmlns="http://www.w3.org/2000/svg" width="20" height="17.67" viewBox="0 0 20 17.67"><defs/><path class="cls-1" d="M17 17.67v-3c0-.62-1-2.26-1-2.8a1.13 1.13 0 0 0-.73-1 25.77 25.77 0 0 0-2.61-.69l-.1-.06c-.22.42-1.2 2.58-1.2 2.58l-1.16-1.06s1.53-1.94 1.49-2.45a.08.08 0 0 1 0-.09l-.05-.1a1.87 1.87 0 0 0 .7-1.28v-.18a4.43 4.43 0 0 1-1.18.62.42.42 0 1 1-.11-.31A3.78 3.78 0 0 0 12.49 7a.36.36 0 0 0 .7 0 1.09 1.09 0 0 0 .47-2 .56.56 0 0 0 0-.09 3.71 3.71 0 0 0 .07-.72 3.79 3.79 0 0 0-7.57 0 3.71 3.71 0 0 0 0 .53.55.55 0 0 0-.04.28 1.09 1.09 0 0 0 .48 2 .37.37 0 0 0 .36.3.36.36 0 0 0 .24-.09h.2a5.18 5.18 0 0 1 .06.57A1.87 1.87 0 0 0 8.17 9v.08s.05 0 0 .09c0 .51 1.49 2.45 1.49 2.45l-1.12 1.1s-1-2.16-1.2-2.58l-.1.06s-2.24.57-2.61.8a1.13 1.13 0 0 0-.73 1c0 .54-1 2.18-1 2.8v2.91M13.41 4.19v.32a.55.55 0 0 0-.28-.08.55.55 0 0 0-.28.08 7.57 7.57 0 0 0 .1-1.12.08.08 0 0 0 0-.06A4.08 4.08 0 0 0 12.63 2a3.44 3.44 0 0 1 .78 2.19zm-6.5 0a.11.11 0 0 0 .09.13v.22a.55.55 0 0 0-.32-.1.56.56 0 0 0-.18 0v-.28a3.44 3.44 0 0 1 .67-2 4.43 4.43 0 0 0-.26 1.19 1.19 1.19 0 0 0 0 .19 4.23 4.23 0 0 0-.01.66z"/></svg>