<svg xmlns="http://www.w3.org/2000/svg" width="20" height="20" viewBox="0 0 20 20"><path d="M10 0a10 10 0 1 0 10 10A10 10 0 0 0 10 0zm0 18.1a8 8 0 1 1 8-8 8 8 0 0 1-8 8z"/><path d="M10.6 3.8A1.15 1.15 0 0 0 9.4 5a1 1 0 0 0 1.1 1.1 1.22 1.22 0 0 0 1.2-1.2 1 1 0 0 0-1.1-1.1zM10 14.1a2.25 2.25 0 0 1 .1-.7l.7-4.2A7.38 7.38 0 0 0 11 8a.53.53 0 0 0-.6-.6 10.58 10.58 0 0 0-2.2.3l-.1.5c.7 0 1 .1 1 .4s-.1.5-.1.8l-.7 4.2a6 6 0 0 0-.2 1.2.65.65 0 0 0 .8.6 13 13 0 0 0 2.2-.3v-.5c-1 0-1.1-.1-1.1-.5z"/></svg>