<svg width="20" height="15" viewBox="0 0 20 15" xmlns="http://www.w3.org/2000/svg"><path d="M4.286 1.429C4.286.639 4.92 0 5.708 0h12.87C19.363 0 20 .634 20 1.429c0 .789-.635 1.428-1.422 1.428H5.708A1.422 1.422 0 0 1 4.286 1.43zm0 5.714c0-.79.635-1.429 1.422-1.429h12.87c.785 0 1.422.634 1.422 1.429 0 .789-.635 1.428-1.422 1.428H5.708a1.422 1.422 0 0 1-1.422-1.428zm0 5.714c0-.789.635-1.428 1.422-1.428h12.87c.785 0 1.422.634 1.422 1.428 0 .79-.635 1.429-1.422 1.429H5.708a1.422 1.422 0 0 1-1.422-1.429zm-2.857-10a1.429 1.429 0 1 0 0-2.857 1.429 1.429 0 0 0 0 2.857zm0 5.714a1.429 1.429 0 1 0 0-2.857 1.429 1.429 0 0 0 0 2.857zm0 5.715a1.429 1.429 0 1 0 0-2.857 1.429 1.429 0 0 0 0 2.857z"/></svg>