<svg id="mallet" xmlns="http://www.w3.org/2000/svg" width="20" height="20" viewBox="0 0 20 20"><defs/><path class="cls-1" d="M11.64 12.88a.62.62 0 0 0 .82.32l3.39-2a.64.64 0 0 0 .15-.87.63.63 0 0 0-.84-.33l-3.39 2a.64.64 0 0 0-.13.88zM8.64 6.52l3.39-2a.64.64 0 0 0 .14-.88.62.62 0 0 0-.82-.32L8 5.32a.64.64 0 0 0-.14.88.62.62 0 0 0 .78.32zM11.46 11.53l3.42-2L12.31 5 8.89 7l.9 1.6-6.7 3.92A.71.71 0 0 0 3 13.7a.68.68 0 0 0 .72 0l6.72-3.94zM15.5 15.25H9.13a.72.72 0 1 0 0 1.44h6.37a.72.72 0 1 0 0-1.44z"/></svg>