<svg width="20" height="13" viewBox="0 0 20 13" xmlns="http://www.w3.org/2000/svg"><g><path d="M13.859 2.38c.08.028-.019-.032 0 0 .007.003 0 .001 0 0M17.656 5.403c-.043.001-.088-.008-.088-.008s-.035.326-.014.422c.07-.098.097-.29.102-.414M18.171 4.003c-.034.035-.042.075-.076.112.207.027.445-.156.543-.35-.064.026-.154.112-.214.12a.2.2 0 0 0 .047-.068.69.69 0 0 0-.3.186M4.97 3.976c-.016.118-.035.235-.052.353.748.1 1.496.185 2.25.244l.085-1.24.026-.37c.006-.088-.173-.056-.244-.061-.234-.018-.467-.043-.7-.066-.208-.02-.415-.047-.622-.071-.123-.015-.541-.139-.56-.017-.063.41-.122.819-.182 1.228M15.215 5.715a.64.64 0 0 0 .241.212c.156.087.288-.036.428-.08-.005-.167.09-.334.14-.49a.14.14 0 0 1 .134-.097c.098 0 .215-.158.233-.272-.064.048-.1.101-.158.16-.136.14-.217-.086-.223-.188-.089.016-.189.05-.28.047-.058-.002-.258.246-.301.308a.608.608 0 0 0-.117.243c-.016.06-.088.11-.097.157.003.005 0-.003 0 0M11.884 3.52c.054.087-.003.276.093.307.026.008.051.02.071.036.11.091.65-.025.808-.039-.016-.131-.074-.238-.03-.374.023-.072.05-.303.044-.372-.306.066-.064-.323-.087-.378-.027-.069-.069-.115-.06-.197a.135.135 0 0 1-.1-.086c-.06-.011-.112.007-.174-.005-.202-.04-.364-.1-.525-.207-.077-.051-.155.019-.229-.04-.076-.061.016-.066-.106-.018-.043.017-.144.008-.14.057.01.1.008.21-.084.274-.06.042-.1.036-.046.106.076.098 0 .243.015.356.001.012.17.09.195.11.078.067.18.135.251.206.075.074.055.183.104.263"/><path d="M16.912 5.102a.783.783 0 0 1-.29-.057c-.027.156-.159.209-.196.344a.197.197 0 0 1-.054.093.159.159 0 0 1-.04.027c-.108.051-.082-.04-.132.084-.031.074-.083.153-.08.235.01.235-.334.361-.54.361-.171 0-.272-.045-.364.168.753-.1 1.5-.236 2.245-.387-.136-.165-.079-.366-.214-.49-.09 0-.317-.033-.354-.124-.022-.053.017-.254.02-.254-.019.002.002 0 0 0M4.767 4.545c-.161-.022-.081-.266-.067-.363.025-.167-.014-.13-.182-.154-.203-.03-.406-.063-.608-.1l-.369 2.038c-.021.118.11.087.215.105.166.028.333.053.499.08.297.047.596.086.895.124l.16-1.255c.005-.03.06-.394.045-.396l-.588-.08M10.725 8.386a.693.693 0 0 0-.294-.115c-.2-.026-.353.16-.516.02-.099-.084-.19.146-.3-.005-.08-.018-.076-.005-.167-.005a.183.183 0 0 1-.131-.059c-.07-.07-.077-.018-.164-.048-.165-.057-.67-.165-.657-.39.011-.206.016-.412.024-.617-.08 0-.921-.043-.921-.039-.026.357-.049.713-.08 1.07-.016.176-.03.352-.041.528-.005.071.011.193-.018.26-.01.145-.2.104-.294.098a33.158 33.158 0 0 1-.999-.08c.147.159.34.334.44.525.123.233.131.415.355.58.066.048.133.096.204.136a.743.743 0 0 1 .285-.296c.221-.118.492-.034.668.121.297.26.402.687.665.964.065.068.054.142.058.228.005.094.11.269.17.344.04.048.137.023.188.04.1.035.194.058.293.088-.11-.428-.006-.838.398-1.071.014-.104.128-.146.221-.146.117 0 .202-.072.296-.147.096-.076.152-.497.35-.28.292-.093.2-.195.252-.433.03-.135.06-.178-.007-.315-.034-.09-.128-.19-.152-.274-.028-.102-.01-.239-.014-.342l-.008-.251c-.002-.095-.03-.03-.104-.09M14.561 7.202c.048-.148.18-.25.315-.308.09-.039.153-.13.22-.197.043-.043.174-.087.237-.12-.577.078-1.155.15-1.735.2-.14.012-.255 0-.356.082-.043.035-.118.03-.169.035-.037.003-.351.01-.357.035-.033.164-.138.323-.16.485.313-.024.625-.053.937-.085.075-.007 1.042-.048 1.068-.127M7.468 3.645a29.775 29.775 0 0 0 1.755.075c.082.001.131.05.195.092.123-.078.283.004.4.032.02-.099-.061-.23.005-.312.05-.06.025-.156.025-.236l-.003-.457c-.001-.09-.17-.135-.132-.266a33.863 33.863 0 0 1-1.678-.046c-.148-.008-.296-.019-.444-.028-.073-.005-.037.276-.058.347-.071.244-.047.544-.065.8M15.211 7.343c.003-.003.64.57.75.664.183.157.102.258.374.133.265-.122.28-.371.413-.584.068-.109-.192-.218-.289-.286-.1-.07-.288.061-.404.041-.129.02-.098-.124-.209-.124-.114 0-.23.01-.343.022-.057.009-.251.076-.292.134M15.923 4.681c.273-.049.548-.096.82-.154.295-.063.613-.081.816-.297-.083-.064-.195-.173-.147-.29-.048-.062.046-.218.036-.224-.057-.035-.07-.093-.116-.138-.103-.102-.719.113-.862.141-.142.028-.64.208-.756.086-.034-.036.01.35.015.374l.09.52c.032-.005.076-.003.104-.018M3.168 1.916c-.086-.114-.255-.102-.395-.135-.374-.087-.731-.006-1.104-.127-.162-.053-.342.066-.451-.137-.028-.053.005-.198-.043-.225-.12-.046-.12-.055-.157.081-.114.432-.293.866-.554 1.225.014.058-.053.29-.022.298l.398.109a31.534 31.534 0 0 0 1.856.45l.15-.715c.02-.094.063-.063.017-.15-.063-.114 0-.226.083-.308.067-.067.28-.29.222-.366"/><path d="M7.597 6.882c.259.033.526.013.786.037.081.008.38-.011.376.084l-.018.532-.006.19c-.003.09.103.03.145.037.119.017.114.14.243.154.078.007.24-.014.303.033.098.072-.019.057.098.057.04 0 .068.014.098.037.088.022.137-.022.224-.022.079 0 .149.03.208.08a.566.566 0 0 1 .227-.066c.136-.012.25-.024.368.05l-.004-.59c-.001-.218-.078-.425-.084-.64-.003-.117-.258-.053-.36-.053h-.665c-.361 0-.722-.026-1.083-.044-.16-.008-.32-.014-.478-.02-.103-.006-.207-.01-.31-.014-.076-.004-.056.093-.068.158M14.33 5.284c.172.016.195.16.383.14.15-.014.241-.06.376.042.017-.146.126-.294.214-.414.082-.112.168-.05.2-.217.02-.099.012-.207.005-.307-.011-.17-.015-.327-.046-.508-.183.114-.38.348-.628.296-.205-.044-.315-.081-.52-.048-.09.015-.107-.005-.097.08l.045.372.067.564M17.776 3.644c.045-.137.127-.027.096-.195a.94.94 0 0 0-.031-.135c-.035-.104.014-.232.002-.34-.01-.084-.034-.244-.097-.29-.106-.079-.146-.481-.165-.61-.1.025-.205.062-.307.076-.178.023-.21.246-.297.363-.079.104.011.127.004.244-.01.14-.128.286-.255.342-.194.087-.408.014-.604.084.109.175-.034.326-.147.449.339-.057.676-.13 1.012-.202.214-.046.374-.132.542.056.078.09.123.129.247.158M3.042 6.382a.19.19 0 0 1 .192.014c.075-.273.095-.588.146-.867l.235-1.297.06-.33c.006-.037-.3-.07-.35-.08-.308-.06-.615-.125-.92-.19-.139-.029-.275-.062-.412-.094-.19-.044-.15-.002-.195.182-.08.33-.161.659-.244.988-.012.046.105.168.13.204l.374.538.57.822c.102.146.202.294.303.44.003-.12-.026-.266.111-.33.029-.013-.128.06 0 0M5.8 8.807c.07-.138.35-.037.467-.028.321.027.643.054.965.075.04-.609.09-1.217.127-1.826.004-.067-.008-.161.023-.225.064-.135-.2-.09-.29-.097-.29-.02-.58-.046-.868-.075-.13-.012-.26-.024-.389-.039-.082-.01-.418-.101-.48-.056-.025.02-.024.188-.027.218l-.068.53-.163 1.269-.047.37c-.012.09.175.076.249.09.003-.389.412-.035.5-.206M9.432 4.062c-.098 0-.141-.085-.22-.108-.084-.025-.208-.003-.295-.005-.177-.002-.355-.011-.532-.018a24.66 24.66 0 0 1-.933-.053l-.033.494c-.015.218-.049.216.177.232.13.01.322-.025.44.03.13.06.055.362.05.47.692.035 1.385.046 2.078.04-.105-.158-.056-.342-.108-.51-.154-.066-.08-.401-.218-.502-.14-.102-.243-.122-.406-.07M8.703 2.323c.368.008.735.015 1.102.017-.015-.082-.06-.152-.073-.238-.004-.158.003-.363-.058-.508-.05-.12-.086-.28-.046-.406.022-.074-.149-.044-.18-.044-.326 0-.652-.014-.977-.028-.157-.007-.313-.01-.47-.021-.13-.008-.335-.098-.346.057l-.078 1.112c.375.024.75.042 1.126.059M15.644 6.57c-.058.128-.166.188-.278.265-.068.046-.1.034-.16.097-.084.088-.297.15-.34.238.217-.03.402-.171.608-.193.15-.015.343-.055.491-.013.042.012.13.104.155.1l.218-.034c.19-.03.235.033.395.146.142.1.195.18.36.143.01-.109.068-.2.14-.277.05-.052.104-.1.163-.14a.116.116 0 0 1 .038-.164c-.114-.018-.203-.176-.064-.235.09-.038.315.068.36-.059-.098.004-.566.027-.385-.212-.301.06-.602.117-.905.17-.15.028-.746.057-.796.167M4.811 2.615c.052-.068.115-.027.14-.096a.12.12 0 0 1 .127-.077c.22.036.444.065.665.09.522.062 1.043.117 1.567.156l.113-1.619C7.424 1.059 6 .913 5.847.895 5.307.83 4.772.737 4.237.647c-.12-.02-.24-.046-.358-.07-.022-.004-.084.314-.063.367.038.096.05.206.112.284.063.08.117.162.163.253.022.045.105.025.132.09.046.11-.085.306-.116.412.187-.106.233.25.245.351.016.126.136.132.136.26.106-.015.22.002.323.02.024-.031-.096-.017 0 0M12.44 7.658c-.067.135-.139.28-.19.42a.91.91 0 0 0-.043.448.335.335 0 0 0 .05.145c.145.246-.105.442-.161.668.175-.012.463-.092.628-.042.122-.007.148.13.108.218-.077.166.245.028.33.04-.089-.656-.069-1.288-.056-1.952-.222.021-.444.038-.667.055M10.046 2.463a.205.205 0 0 1-.066.155c.209.116.105.67.106.87.513-.005 1.025-.02 1.537-.05-.027-.069-.155-.093-.201-.163-.084-.13-.276-.097-.316-.266a.675.675 0 0 1-.012-.247c.018-.122-.118-.187-.02-.32.109-.151.131-.117.136-.302.001-.053.015-.105.046-.149a.741.741 0 0 1 .125-.123c.14-.118.227-.28.382-.381-.096-.03-.163.076-.282.035a.263.263 0 0 1-.108-.071c-.043-.02-.068.02-.12.005-.101-.029-.145-.163-.251-.163-.088 0-.146.101-.25.037-.07-.044-.143-.044-.227-.063-.121-.027-.082-.13-.206-.128a19.88 19.88 0 0 1-.456.005c.018.096-.029.194.003.292.072.223.097.44.103.676.002.111.076.227.077.351M12.546 6.739a.16.16 0 0 1 .064-.071c-.138-.078-.113-.261-.175-.38-.236.063-.356-.308-.277-.47-.2.034-.143-.19-.256-.266a.62.62 0 0 1-.221-.25c-.09-.193.027-.27-.241-.246-.332.037-.673.039-1.007.036.058.095.053.056.156.124.138.09.015.21.074.313.047.084.106.091.109.205l.025 1.058c.33-.008.66-.02.988-.04.187-.012.577-.14.71.061.01-.032.038-.047.05-.074"/><path d="M12.056 8.794c-.115-.146-.024-.168-.21-.158l-.342.019c-.07.003-.431.005-.43.027l.008.289c.003.083.137.265.175.357.064.156-.033.256-.017.395a.737.737 0 0 1-.002.226c.15-.021.297.077.447.086.052-.146.244-.113.35-.054.089.05.237.113.283.206.098.04.17-.184.254-.203-.136-.008-.263-.14-.185-.273.066-.114.176-.055.193-.17-.176.012-.452.088-.62.042-.361.022.142-.68.096-.79-.038-.047.005.014 0 0M14.343 5.576a.215.215 0 0 1-.16.141c-.07.01-.111.119-.16.184-.04.052-.02.111-.073.158-.08.072-.154.016-.227.08a.64.64 0 0 1-.31.075c-.087-.017-.11-.002-.192.03-.017.007-.105.255-.111.277-.032.111-.154.117-.242.078a.298.298 0 0 1-.004.078c.2-.017.301-.1.513-.116a28.86 28.86 0 0 0 1.09-.107c.172-.02.423-.013.53-.188.04-.111.116-.152.195-.229-.09-.072-.24-.214-.216-.342.014-.083-.123-.026-.148-.026-.066 0-.132-.006-.199-.006-.091 0-.277-.115-.286-.087M9.782 5.381c-.57 0-1.14-.015-1.708-.043l-.06 1.19c.847.036 1.693.05 2.54.034-.004-.222.08-.702-.066-.872-.051-.06-.117-.14-.13-.217-.017-.101.03-.098-.07-.097l-.506.005M13.349 5.958c.078 0 .141-.034.218-.03.071-.136.186-.056.261-.16.073-.1.116-.31.275-.28-.036-.118-.021-.285-.036-.41l-.095-.788c-.17.02-.34.043-.512.059-.273.025-.194.194-.175.398l.06.626c.019.204.044.41-.093.602a.385.385 0 0 1 .097-.017M12.283 4.134c.061.12.014.262-.068.36a.365.365 0 0 1-.192.124c.033.05.04.115.016.17-.08.187-.265.371-.046.542.092.07.173.12.195.242.184-.029.267.148.208.297-.054.136-.012.144.129.196.125.047.154.197.176.31.07-.048.13-.003.176-.068.06-.087.083-.05.115-.149.012-.012.006-.156.01-.185.018-.115.183-.252.122-.369-.058-.11-.025-.31-.037-.444-.027-.277.01-.662-.122-.911-.033-.064-.036-.197-.113-.19l-.247.022c-.113.01-.228.014-.342.02l.02.033M3.633.888l.054-.266C3.71.517 3.663.539 3.56.513l-.16.739c-.03.14-.13.416-.03.54.131.165.012.269-.072.421-.028.051-.205.248-.185.272.075.086.02.242-.039.324-.067.224-.098.465-.146.694.606.122 1.214.232 1.825.323l.143-.963c-.03.004-.064-.007-.093-.012a1.261 1.261 0 0 0-.234-.029c-.089 0-.153.105-.236.016a.326.326 0 0 1-.084-.147c-.018-.08-.082-.09-.104-.17-.02-.072-.025-.148-.036-.221-.017-.115-.145-.015-.22-.123-.092-.132.016-.342.066-.47.008-.022-.13-.225-.16-.265-.164-.224-.168-.292-.162-.554M11.416 3.684c-.448.019-.896.034-1.344.038.02.089-.039.157-.013.242.093.31.212.575.247.894.037.039.293.003.365.001.149-.003.296-.01.445-.019.129-.007.54-.113.637-.004.067-.129-.056-.263.059-.38.133-.135.392-.111.142-.323-.15-.128-.279-.236-.26-.464l-.278.015M14.683 7.431l-.363.046.229.761c.037.125.136.222.167.345.021.087-.041.16-.053.245.023.07.038.138.05.21.02.142.047.188.197.178l.835-.06c.028-.002.093-.123.183-.127.037-.002.088-.3.096-.334.038-.157.04-.104-.027-.216-.054-.09-.103-.205-.176-.28-.168-.173-.377-.302-.545-.472-.08-.08-.08-.108-.177-.153-.065-.03-.135-.085-.152-.158-.011-.049-.213.008-.264.015M17.023 11.186c-.041-.27-.085-.431-.237-.671-.098-.155-.225-.304-.27-.485.149.085.099.212.206.332-.048-.076-.044-.156-.077-.229-.023-.09-.141-.18-.195-.252a2.676 2.676 0 0 1-.239-.387c-.07-.138-.056-.213-.209-.232.007.08-.03.188-.122.205-.1.02-.153-.076-.263-.068l-.457.033-.402.028c-.124.009-.133-.115-.237-.103-.245.03-.49.058-.735.083a.233.233 0 0 1 .015.18c.213-.065.453-.072.646.05.08.05.134.176.229.153.087-.021.145-.074.224-.106.085-.035.036-.091.116-.112.237-.063.352.221.514.322.16.1.243.112.24.317a1.622 1.622 0 0 1-.032.277c-.008.043.047.155.09.085.1-.164.114-.018.015.093-.06.069.18.29.254.304-.025-.022-.032-.045-.021-.07.07.06.167.228.203.32.056.144.237.156.326.294.028.043.035.146.072.161.107-.003.151-.015.188-.122.01-.09.094-.127.126-.201a.323.323 0 0 0 .032-.2zm-.163.339a.308.308 0 0 1 .005-.133c.008-.037-.032.18-.005.133-.009-.049 0 0 0 0zM6.441 6.418c.446.037.891.068 1.337.096l.084-1.663a34.681 34.681 0 0 1-1.95-.16c-.067-.007-.313-.06-.319-.014l-.067.526-.141 1.101c.352.041.704.079 1.056.114M2.938 7.258c-.032-.351-.393-.693-.592-.98L1.344 4.836c-.091-.132.023-.35.059-.495l.214-.874a64.92 64.92 0 0 0-1.29-.371c-.047.187-.081.344-.17.518-.09.173.055.338.025.519-.037.222-.064.354.053.56.088.152.038.23.176.358.028-.239.327-.121.402.02a.472.472 0 0 0-.303-.105c-.102.015.013.242.027.293-.068-.061-.1-.1-.094-.194-.141.115-.02.326.03.46.053.138-.025.176-.015.308.01.151.137.288.2.42.023.05.117.19.106.241-.017.084-.069.107-.013.19.095.143.271.225.418.305.07.038.139.076.205.12.11.07.058.125.12.215.085.112.22.12.28.276.034.083-.02.362.086.373l.664.067c.155.016.172-.04.168-.134a.503.503 0 0 1 .024-.165.293.293 0 0 1 .079-.112c.054-.055.04-.12.075-.185.072-.134.057-.052.068-.185 0-.004-.003.037 0 0zM.64 5.128C.62 5.126.61 5.117.608 5.1l.032.027c-.009-.003-.012-.013 0 0zm-.047.232a.092.092 0 0 1-.039.019c-.007-.016.006-.022.039-.019-.003.003-.013.007 0 0zM5 6.492a32.698 32.698 0 0 1-1.506-.23c-.014.14-.093.55-.329.39.008.12-.088.344-.035.44.046.084.151.265.081.366a.233.233 0 0 1-.098.074c-.065.027-.044.107-.075.164-.043.083-.15.118-.07.204.081.089.034.19-.053.25.337.19.673.383 1.012.572.205.114.331.139.567.172.135.018.308.106.327-.047l.18-1.406.063-.488c.017-.14.156-.48-.064-.461M12.257 7.492c.039-.103.085-.197.125-.3-.136.034-.23-.115-.153-.234-.47.03-.939.056-1.41.067.057.247.063.478.065.73l.003.42c0 .006.17.029.174.124.014.038.003.096.005.139.12-.005.916-.007.912-.078-.136-.25.188-.628.279-.868M13.616 9.222c.29-.029.581-.062.872-.096-.019-.089-.065-.207-.062-.298a.64.64 0 0 1 .052-.205c-.024-.047-.061-.086-.086-.133-.089-.169-.126-.372-.18-.553-.011-.036-.112-.435-.136-.432l-.618.063c-.15.016-.115.034-.118.183l-.014.73c-.006.318.01.599.053.915.128-.07.064.028.113-.076.023-.047.07-.093.124-.098M1.358 1.165c-.065-.02-.091-.075-.165-.092-.115-.028-.064-.063-.04-.16-.032.142.047.077.043 0-.003-.046-.04-.08-.022-.126.03.025.058.006.094.003-.026-.025-.072-.085-.089-.032-.025-.202.03-.426 0-.622.163.109.334.19.483.3a.196.196 0 0 1 .032-.05c.003.073.086.155-.008.18-.005.028-.003.169.029.176.067.015.085-.443.1-.494.034-.03-.058-.211-.01-.199l.26.07a25.21 25.21 0 0 0 1.29.301c.087.018-.002.221-.017.29-.066.305-.197.657-.161.974-.2-.04-.42-.117-.621-.135-.274.026-.5.026-.76-.059-.107-.034-.269.041-.343-.064-.065-.093.046-.188-.095-.26M17.644 4.356a.429.429 0 0 0-.051.245c.005.047.085.089.12.124.125-.063.038.103.088.114.049.01.41-.852.066-.758-.007-.08.13-.252.025-.286-.083-.026-.284-.149-.317-.024-.029.107-.097.202-.036.314.065.12.284.14.105.271M18.211 1.834c-.002.037-.01.108.015.137-.01.076-.096.146-.066.23-.032.112-.078.452.02.527-.077.016-.206.087-.228-.008-.005-.024-.076-.306-.097-.238-.025-.158-.044-.378-.12-.521l.476-.127M18.733 2.598c-.042.02-.088.096-.129.105l-.264.06c-.129.03-.078-.33-.075-.41.027-.15.057-.271.068-.402.03-.109-.032-.153.079-.222l.17.506c.046.138.132.24.151.363M12.01 1.99c.116-.048.183-.115.304-.15.107-.03.312-.339.327-.046a1.904 1.904 0 0 1-.011-.032c.006.027.009.054.008.081.148-.208.263.028.396.077.244.09.494-.212.736-.191-.041.178.093.127.205.114.02-.003.198.177.209.207-.068.03-.307-.025-.276.099-.056-.037-.21-.155-.275-.073-.086.109-.212.037-.292.168-.059-.056-.099-.013-.147.054a.105.105 0 0 1-.025-.093 8.211 8.211 0 0 0-.168.4c-.054-.03-.065-.07-.032-.123-.1.035-.054-.072-.062-.125-.008-.047-.173-.147-.226-.152a1.808 1.808 0 0 1-.366-.067c-.131-.041-.188-.09-.306-.149"/><path d="M14.143 4.095c.13-.022.262-.041.391-.067.2-.04.121-.4.284-.488.02.006.026.023.017.05.159-.09-.038-.526-.108-.624-.168-.234-.334.351-.42.11-.04-.108.18-.214.168-.307-.008-.065-.1-.304-.066-.333.092-.076-.813-.447-.557-.055-.298-.025-.416.522-.417.713-.002.313.355.785-.012 1.053.239-.023.477-.052.715-.081M18.743 3.239c.042.015.086.05.086.099.045-.029.088-.12.135-.133.002.027.01.053.021.078.06-.04.126-.067.19-.1.12-.065-.012-.18-.104-.186.103.037.148.195-.009.171-.043-.006-.159-.137-.113-.116-.049-.096-.153-.039-.188-.116.013-.026.122-.153.11-.164-.06.01-.083-.025-.092-.089-.096.022-.121.118-.222.138l-.312.063c-.078.016-.157.028-.235.042-.084.015-.052.173-.056.246-.01.179.18.075.316.047.09-.018.181-.039.272-.055.154-.028.096-.023.2.075M18.541 1.506c.093-.013.166-.277.166-.374.002-.204.005-.372.071-.566.009-.024.044-.19.068-.2.076-.027.092.141.159.075.056-.008.086-.081.135-.102.055-.024.2.046.218.099.052.152.15.332.161.492.009.129.09.06.16.102.022.025.029.143.04.154.037.033.172-.004.153.088.004.004-.037.057.01.058.009 0 .044-.043.04.011-.016.203-.436.201-.42.396a.186.186 0 0 0-.083-.013c.006-.044.013-.053-.03-.096-.061.118.021.28-.112.302-.023.004-.118.283-.203.145-.078.124-.049.298-.12.418-.239-.233-.307-.672-.413-.989M4.61 10.43c.142-.023.094-.324-.065-.23-.184.109-.128.178.065.23.022-.004-.043-.012 0 0M6.427 11.233c.163-.012.324-.175.072-.22-.044-.008-.203-.057-.232-.044-.083.034.118.232.16.264.04-.003-.041-.032 0 0M6.854 12.23c.065.044.132-.103.183-.136.097-.064.202-.073.302-.141.157-.109-.332-.419-.417-.448-.024-.008-.262-.132-.162.02.075.116-.075.12-.09.218-.01.078.05.163.079.232.058.144-.043.148.105.256M5.574 10.812c.172-.05-.055-.33-.185-.213-.032.028-.109-.002-.05.084.063.094.136.093.235.129.035-.01-.04-.014 0 0M6.136 10.946c.039-.014.089-.025.065-.08a.556.556 0 0 1-.194-.01c-.076-.042-.12-.024-.132.055.096 0 .168.016.261.035.043-.015-.054-.01 0 0M6.111 11.14c.14-.047-.018-.124-.09-.105l.09.104c.02-.006-.03-.035 0 0M2.352 11.782c.04-.056.05-.062.114-.043.055.016-.132.121-.114.043.018-.026-.01.042 0 0M.498 10.608c-.06.053-.073-.038-.05-.07.053.045.134.052.197.095.11.076.048.03-.032.094.002-.043-.064-.13-.115-.12-.055.05.046-.01 0 0M.799 11.396c-.038-.065.048-.071.102-.072.094-.001.046.171-.102.072-.012-.02.035.023 0 0M.953 12.574c.025-.012.182-.169.19-.038.003.047-.215.108-.19.038.026-.013-.01.029 0 0"/><path d="M2.343 12.01c-.081.06-.01.098-.124.047-.095-.044.008-.133.04-.156.028-.021.071-.024.084-.058.027-.074.126.057.13.058-.036.054-.094.059-.13.109-.014.01.02-.028 0 0M.563 12.775c-.011.048-.135.096-.173.116.03-.023.121-.182.173-.116-.01.04-.036-.046 0 0M.574 12.827c.001.029.107-.142.125-.143.214-.014-.111.138-.125.143M4.286 11.458c-.276-.093.202-.221.126-.023-.027.07-.07-.093-.084.047a2.098 2.098 0 0 1-.042-.024c-.032-.01.013.01 0 0"/><path d="M4.45 11.418c-.034-.03-.107-.107-.102-.156.039.025.332.159.134.248a.091.091 0 0 0-.033-.092c-.028-.025.044.013 0 0"/><path d="M4.466 11.624c-.041-.029-.127-.126-.114-.18.1.012.192.139.189.234a.164.164 0 0 1-.075-.054c-.04-.027.022.022 0 0M4.593 11.652c-.002-.004-.093-.133-.048-.129.082.01.055.135.048.129-.027-.034.01.01 0 0M4.647 11.588a.555.555 0 0 1-.077-.11c.006-.012.076-.025.09-.02.084.028-.005.101-.013.13M4.698 11.635c-.024.003-.04-.006-.047-.03.042-.007.158.026.184.073.006.012.213.182.108.182-.018 0-.094-.071-.145-.066-.052.005-.065-.14-.1-.16M4.786 11.551c.014.017.047.047.064.065-.047.059-.12-.057-.064-.065.012.015-.023.003 0 0M4.962 11.711c-.033-.005-.05-.106-.028-.126.041-.04.088.104.081.128l-.053-.002c-.041-.006.018-.009 0 0"/><path d="M3.566 11.064c.038.103.203-.093.203-.02 0 .06.222.14.269.204.082-.156.09-.311.268-.16.246.012.37.384.625.377.047-.001.164.012.15.077-.01.051.139.182.036.23-.07.031-.06-.112-.085-.147-.127-.176-.084.036-.135.06-.037.019-.04-.144-.094-.165-.029-.01-.205-.077-.215-.09-.056-.076-.177-.285-.26-.133.011-.02-.135.043-.145.05-.033.024-.158-.064-.194-.079-.067-.026-.207-.01-.232-.093-.024-.078-.115.023-.17.014-.105-.017-.156-.025-.254.021-.082.04-.099-.021-.173-.037-.087-.02-.323-.03-.367-.086-.01.075.055.134.022.208-.022.05-.095.027-.126.078-.036.059-.134.193-.217.188-.036-.002.047-.119.05-.132-.183.125.061-.406.097-.315-.042-.107-.206.11-.218.137-.027.062-.026.143-.07.196-.044.053-.104.08-.126.15.016.022.12.007.11.052a1.607 1.607 0 0 1-.099.16.692.692 0 0 0-.192.144c-.045.052-.03.15-.128.16-.032.003-.252.274-.28.228.01.015-.256.083-.263.088-.097.074-.291.126-.109-.002.062-.044.06-.106.153-.124.06-.01.063.06.106-.004.083-.122.188-.163.265-.277.026-.039.152-.3.14-.332-.02-.05-.137.088-.187-.024-.033.03.012.088-.019.11-.027.02-.086-.092-.091-.11-.053.07-.057-.035-.13-.005-.023.01-.076.07-.1.076-.043.008.06-.359-.115-.299-.032.011-.169.07-.15-.016-.097-.143-.091-.081-.048-.242-.12.01-.055-.088-.13-.097.002-.074.131-.274.187-.335.075-.083.105.078.192-.036.053-.069.138.041.152-.069a.34.34 0 0 0-.012-.126c-.019-.07.046-.07.027-.12-.023-.062-.165.075-.172.082-.03-.041-.1-.041-.177-.028-.092.016-.273-.15-.13-.175-.224-.142-.042-.111.075-.227.03-.03.17-.098.15-.007-.033.153.169.067.241.041-.106-.047-.092-.136-.169-.177-.042-.022-.106-.152-.11-.155-.085-.077-.135-.092-.118-.202.011-.071.076-.047.126-.047.102.002.139-.12.173-.195.033-.071.508-.354.511-.254a.107.107 0 0 0-.039.033c-.002-.042.212-.012.26.004.194.048.442.11.642.046.298-.095.301.194.36.393l.459 1.535M18.591 3.643c.08-.032.133-.061.113-.15.006-.024-.05-.1.02-.1-.026-.022-.05-.094-.086-.104-.02-.005-.12.028-.114.047.03.104.05.205.067.307M18.35 3.379c-.058.013-.384.067-.382.082.026.142.102.326.033.44-.044.072.092.002.102-.007.101-.1.112-.124.252-.157.082-.04.122-.037.098-.132-.021-.08-.018-.225-.103-.226M16.978 5.002c.162.035-.052.198.027.244-.005-.007.303.073.331.09-.018-.088-.078-.151-.114-.233a.415.415 0 0 1-.035-.211c.002-.021.101-.253.124-.203.056.122-.075.268.025.41.02.037-.015.095.036.092.051-.002.123.016.154.06.055.078-.012.1.08.107.124.01.166-.161.168-.252-.057.01-.243.08-.29.055-.038-.02-.07-.24-.08-.28l-.093-.328c-.004-.015-.264.053-.29.059-.19.043-.378.084-.57.12l-.365.069c-.052.01.01.199.018.248.063-.088.162-.155.212-.236.01-.016.124.117.117.056.067.004.065-.075.15-.07.084.004.136.045.202.076.06.027.018.044.055.082.023.025.103.03.138.045"/><path d="M17.418 4.536c.015-.085.073-.11.062-.013-.007.063.015.177.069.223.029.024.198.2.196.27-.092.017-.173.078-.203-.022l-.113-.377"/></g></svg>