<svg xmlns="http://www.w3.org/2000/svg" width="20" height="20" viewBox="0 0 20 20"><path d="M10 0a10 10 0 1 0 10 10A10 10 0 0 0 10 0zM3.8 11.7H2.3a.4.4 0 1 1 0-.8h1.5a.4.4 0 1 1 0 .8zm0-1.7H1.1a.4.4 0 0 1 0-.8h2.7a.4.4 0 0 1 0 .8zm0-1.7H2.3a.4.4 0 1 1 0-.8h1.5a.4.4 0 0 1 0 .8zm1.4-1.2c.2.2.4.3.7.6A35.3 35.3 0 0 1 8.6 10l-3.4 2.5V7.1zm11.7 6.3H5.2v-.1L9 10.4a3.93 3.93 0 0 1 .9.8 1.69 1.69 0 0 0 1.2.4 1.65 1.65 0 0 0 1.1-.4l.9-.7 3.7 2.9h.1zm.1-1l-3.3-2.5L17 7.1v5.3zm0-6.1l-5.1 4.2a.84.84 0 0 1-.7.2 1.85 1.85 0 0 1-.7-.2c-.3-.2-4.3-3.4-5.2-4.2H17z"/></svg>