<svg width="20" height="20" viewBox="0 0 20 20" xmlns="http://www.w3.org/2000/svg"><path d="M3.818 7.004a.524.524 0 1 1 0 1.048H1.944a.524.524 0 1 1 0-1.048h1.874zm0 2.097a.524.524 0 0 1 0 1.049H.524a.524.524 0 1 1 0-1.05h3.294zm0 2.097a.524.524 0 1 1 0 1.049H1.944a.524.524 0 0 1 0-1.049h1.874zm6.538-.637c.621.512 1.047.858 1.155.936.597.436 1.062.495 1.439.495.696 0 1.171-.317 1.391-.506l1.071-.913 4.542 3.58-.003.177H5.686l-.003-.177 4.673-3.592zm-4.72 2.545V6.649l.816.677c1.21 1.005 2.411 2.003 3.343 2.772l-4.158 3.008zm10.366-3.035L20 6.663v6.422l-3.998-3.014zM20 5.67v.044l-6.22 5.076c-.268.201-.539.3-.829.3-.293 0-.6-.106-.903-.306-.352-.257-5.304-4.216-6.411-5.102V5.67H20z"/></svg>