<svg width="19" height="18" viewBox="0 0 19 18" xmlns="http://www.w3.org/2000/svg"><circle cx="9.5" cy="2.5" r="2.5"></circle><circle cx="9.5" cy="12.5" r="2.5"></circle><circle cx="2.5" cy="12.5" r="2.5"></circle><circle cx="16.5" cy="12.5" r="2.5"></circle><polygon points="10 3.0625 10 11.9375 9 11.9375 9 3.0625"></polygon><path d="M16.5,7 C16.7454599,7 16.9496084,7.17687516 16.9919443,7.41012437 L17,7.5 L17,11.5 C17,11.7761424 16.7761424,12 16.5,12 C16.2545401,12 16.0503916,11.8231248 16.0080557,11.5898756 L16,11.5 L16,7.5 C16,7.22385763 16.2238576,7 16.5,7 Z"></path><path d="M16.5,7 C16.7761424,7 17,7.22385763 17,7.5 C17,7.74545989 16.8231248,7.94960837 16.5898756,7.99194433 L16.5,8 L2.5,8 C2.22385763,8 2,7.77614237 2,7.5 C2,7.25454011 2.17687516,7.05039163 2.41012437,7.00805567 L2.5,7 L16.5,7 Z"></path><path d="M2.5,7 C2.74545989,7 2.94960837,7.17687516 2.99194433,7.41012437 L3,7.5 L3,11.5 C3,11.7761424 2.77614237,12 2.5,12 C2.25454011,12 2.05039163,11.8231248 2.00805567,11.5898756 L2,11.5 L2,7.5 C2,7.22385763 2.22385763,7 2.5,7 Z"></path></svg>