<svg width="19" height="20" viewBox="0 0 19 20" xmlns="http://www.w3.org/2000/svg"><g><path d="M12.367 8.172a1.51 1.51 0 0 0-1.13-.672 3.18 3.18 0 0 1-2.001.704 3.18 3.18 0 0 1-1.996-.7 1.512 1.512 0 0 0-1.18.83 3.608 3.608 0 0 0 3.108 1.757c1.394 0 2.601-.78 3.2-1.92zM10.604 5.51c0 .747-.688 1.426-1.443 1.426-.756 0-1.444-.679-1.444-1.426 0-.747.688-1.428 1.444-1.428s1.445.68 1.443 1.428z"/><path d="M5.222 15.734H2.237L.049 19.83h8.559l-.226-.249a59.324 59.324 0 0 1-1.172-1.355 62.9 62.9 0 0 1-1.988-2.492zm4.507 4.096h8.918l-2.188-4.096h-3.345a62.9 62.9 0 0 1-3.16 3.847l-.225.249zm-.56-1.512s-6.9-7.599-6.9-11.364c0-3.765 3.089-6.818 6.9-6.818 3.81 0 6.898 3.053 6.898 6.818 0 3.765-6.899 11.364-6.899 11.364zm-4.6-11.773c0 2.51 2.059 4.546 4.6 4.546 2.54 0 4.599-2.035 4.599-4.546 0-2.51-2.06-4.545-4.6-4.545-2.54 0-4.6 2.035-4.6 4.545z"/></g></svg>