<svg xmlns="http://www.w3.org/2000/svg" width="20" height="21.08" viewBox="0 0 20 21.08"><path d="M19.63 9.64a.5.5 0 0 0-.25-.64 1.38 1.38 0 0 0-1.48.41 8.8 8.8 0 0 0-3.52-2.14L13.53 9c-.37-.77-4-1.1-5.53-.17l-.5-1.68a10 10 0 0 0-1.75.71A3.09 3.09 0 0 0 2 6.33L3.23 9.9A5.67 5.67 0 0 0 2.16 12H.72a.32.32 0 0 0-.4.32v3.83a.41.41 0 0 0 .4.42H3.2A7.47 7.47 0 0 0 5 18.2V21h3.11v-1.45a11.61 11.61 0 0 0 5.6-.06V21h3.15v-3a5.94 5.94 0 0 0 2.72-4.77 5.32 5.32 0 0 0-1-3.1.82.82 0 0 1 .42-.24.5.5 0 0 0 .63-.25zM4 12.41a.63.63 0 1 1 .61-.65.62.62 0 0 1-.61.65z"/><path d="M11 7.48a3.72 3.72 0 0 0 3.74-3.7A3.72 3.72 0 1 0 11 7.48zm-.81-3.93a1 1 0 0 1-.4-.36 1.09 1.09 0 0 1-.15-.6 1.09 1.09 0 0 1 .3-.79 1.31 1.31 0 0 1 .86-.36v-.29q0-.23.17-.23a.18.18 0 0 1 .17.22v.3a1.66 1.66 0 0 1 .5.12 1 1 0 0 1 .36.28 1.19 1.19 0 0 1 .19.29.69.69 0 0 1 .07.28.33.33 0 0 1-.1.24.32.32 0 0 1-.24.1.34.34 0 0 1-.34-.3.62.62 0 0 0-.44-.45v1.16l.54.17a1.1 1.1 0 0 1 .36.23 1 1 0 0 1 .26.37 1.18 1.18 0 0 1 .09.47 1.27 1.27 0 0 1-.15.64 1.17 1.17 0 0 1-.43.45 1.49 1.49 0 0 1-.67.21V6a.68.68 0 0 1 0 .24.13.13 0 0 1-.14.08.15.15 0 0 1-.14-.06.36.36 0 0 1 0-.19v-.41a1.68 1.68 0 0 1-.55-.15 1.32 1.32 0 0 1-.4-.29 1.22 1.22 0 0 1-.23-.36 1 1 0 0 1-.08-.37.34.34 0 0 1 .1-.24.33.33 0 0 1 .3-.11.35.35 0 0 1 .21.06.3.3 0 0 1 .12.16 3.59 3.59 0 0 0 .13.35.67.67 0 0 0 .16.22.73.73 0 0 0 .2.11V3.78a3.26 3.26 0 0 1-.63-.23z"/><path d="M10.8 2a.94.94 0 0 0-.36.18.44.44 0 0 0-.12.35.44.44 0 0 0 .12.33 1.09 1.09 0 0 0 .36.14V2zM11.71 4.48a.48.48 0 0 0-.15-.38 1.17 1.17 0 0 0-.42-.21v1.22a.74.74 0 0 0 .42-.23.58.58 0 0 0 .15-.4z"/></svg>