<svg xmlns="http://www.w3.org/2000/svg" width="23" height="23" viewBox="-1.125 -1.125 23 23" overflow="visible"><path d="M10.562 0C4.735 0 0 4.735 0 10.562c0 5.825 4.738 10.562 10.562 10.562 5.825 0 10.562-4.739 10.562-10.562C21.125 4.734 16.39 0 10.562 0zm0 19.646c-5.007 0-9.083-4.075-9.083-9.083 0-5.007 4.076-9.083 9.083-9.083 5.008 0 9.083 4.076 9.083 9.083.001 5.005-4.075 9.083-9.083 9.083zm5.651-9.705L8.631 5.075a.74.74 0 0 0-1.139.623v9.725c0 .271.146.518.384.647.112.06.232.092.354.092a.748.748 0 0 0 .401-.118l7.583-4.86a.741.741 0 0 0 .34-.62.747.747 0 0 0-.341-.623zm-7.246 4.131V7.051l5.475 3.509-5.475 3.512z"/></svg>