<svg id="question-bubble" xmlns="http://www.w3.org/2000/svg" width="20" height="20" viewBox="0 0 20 20"><defs/><path class="cls-1" d="M16.35 4.49H3.67a.65.65 0 0 0-.67.66v9.2a.63.63 0 0 0 .65.64H6l.06 1.72a.23.23 0 0 0 .22.13.29.29 0 0 0 .22-.13L8.85 15h7.5a.62.62 0 0 0 .65-.65v-9.2a.65.65 0 0 0-.65-.66zm-6.49 9.06a.79.79 0 0 1-.8-.8.81.81 0 0 1 .82-.75.78.78 0 0 1 .8.8.81.81 0 0 1-.82.75zm-.05-3.08a.4.4 0 0 0 .45.36 1.24 1.24 0 0 0 .61-.17L11 11a2.24 2.24 0 0 1-1.06.29 1.08 1.08 0 0 1-1.26-1c0-1.27 2.12-1.88 2.12-3.08a.74.74 0 0 0-.8-.92c-.72 0-.81.72-.83 1.44h-.28a.61.61 0 0 1-.75-.55C8.14 6.54 8.9 6 10 6a1.62 1.62 0 0 1 1.87 1.54c-.02 1.62-2.06 2.14-2.06 2.93z"/></svg>