<svg width="20" height="20" viewBox="0 0 20 20" xmlns="http://www.w3.org/2000/svg"><path d="M11.732 3H18a.5.5 0 1 1 0 1h-7v12.143A3.51 3.51 0 0 1 13.164 18h1.834a.999.999 0 1 1 0 2H5.002a.999.999 0 1 1 0-2h1.834A3.51 3.51 0 0 1 9 16.143V4H2a.5.5 0 0 1 0-1h6.268a2 2 0 1 1 3.465 0zm1.832 6.773l2.499-4.997a.5.5 0 0 1 .894 0l2.498 4.995c.343 0 .551.001.555.002a3.5 3.5 0 0 1-7 0h.554zm1.119 0l3.653-.002-1.826-3.653-1.827 3.655zm-14.129 0l2.499-4.997a.5.5 0 0 1 .894 0l2.498 4.995c.343 0 .551.001.555.002a3.5 3.5 0 0 1-7 0h.554zm1.119 0l3.653-.002L3.5 6.118 1.673 9.773z"/></svg>