<svg width="20" height="20" viewBox="0 0 20 20" xmlns="http://www.w3.org/2000/svg"><path d="M10.425.737c.045.073.156.222.34.421.319.344.725.69 1.226 1.016 1.483.962 3.459 1.534 6.005 1.512a.5.5 0 0 1 .504.5v.478c0 6.171-1.55 10.287-4.16 12.712a8.416 8.416 0 0 1-2.924 1.797 6.673 6.673 0 0 1-.98.269l-.198.033-.205.024L10 19.5l-.046-.046-.003.044c-.26-.026-.668-.113-1.181-.294l-.198-.073a8.816 8.816 0 0 1-2.915-1.858C3.05 14.808 1.5 10.718 1.5 4.663v-.477a.5.5 0 0 1 .504-.5c2.546.022 4.521-.55 6.004-1.512a6.439 6.439 0 0 0 1.225-1.016l.16-.181c.046-.055.084-.102.114-.142l.067-.098a.5.5 0 0 1 .85 0Zm-.426 1.077-.046.051a7.518 7.518 0 0 1-1.4 1.148c-1.475.956-3.366 1.56-5.71 1.659l-.343.01.003.46c.076 5.369 1.432 8.991 3.643 11.212l.197.192a7.821 7.821 0 0 0 2.585 1.65c.389.15.708.235.93.278l.149.023.243-.038c.25-.047.53-.121.833-.228a7.42 7.42 0 0 0 2.576-1.588c2.327-2.161 3.762-5.863 3.838-11.505l.003-.456-.342-.01c-2.208-.093-4.013-.634-5.447-1.494l-.264-.165a7.518 7.518 0 0 1-1.401-1.148l-.047-.051Z"/><path d="M9.998 5a1 1 0 0 1 .865 1.5h3.133a.25.25 0 0 1 0 .5l-3.499-.001.001 6.073c.478.142.87.484 1.08.928h.927c.241 0 .442.168.483.407l.008.093a.5.5 0 0 1-.49.5H7.49a.488.488 0 0 1-.491-.5.5.5 0 0 1 .49-.5h.927c.21-.444.603-.786 1.081-.928V6.999L6 7a.25.25 0 0 1-.244-.193L5.75 6.75A.25.25 0 0 1 6 6.5h3.132A1 1 0 0 1 9.998 5Z"/><path d="m6.884 7.289.047.039.042.06 1.323 2.498h.202a1.75 1.75 0 1 1-3.498 0h.191l1.335-2.498a.25.25 0 0 1 .358-.099Zm-.135.77-.987 1.827h2.095L6.75 8.059Zm6.683-.731.042.06 1.324 2.498H15a1.75 1.75 0 1 1-3.498 0h.191l1.334-2.498a.25.25 0 0 1 .405-.06Zm-.181.731-.988 1.827h2.095L13.25 8.059Z"/></svg>
