<svg id="shield" xmlns="http://www.w3.org/2000/svg" width="20" height="20" viewBox="0 0 20 20"><defs/><path class="cls-1" d="M10 2.88S8.44 5.45 3.77 5.4v.38C3.77 16.52 10 17.37 10 17.37s6.23-.65 6.23-11.59V5.4C11.56 5.45 10 2.88 10 2.88zm2.94 5.64l-1.32 1.29.31 1.82a.31.31 0 0 1 0 .15.13.13 0 0 1-.08.09.21.21 0 0 1-.14 0h-.07L10 11l-1.64.87a.29.29 0 0 1-.19 0 .19.19 0 0 1-.1-.25l.32-1.8-1.33-1.29a.18.18 0 0 1 .11-.34L9 7.92l.82-1.66a.19.19 0 0 1 .18-.14.27.27 0 0 1 .14.14L11 7.92l1.83.26h.07a.22.22 0 0 1 .11.08.13.13 0 0 1 0 .12.3.3 0 0 1-.07.14z"/></svg>