<svg width="20" height="20" viewBox="0 0 20 20" xmlns="http://www.w3.org/2000/svg"><g fill="none" fill-rule="evenodd"><path d="M2 4.186v.478C2 18.204 10 19 10 19c0 .001 8-.53 8-14.336v-.478C12 4.239 10 1 10 1S8 4.239 2 4.186Z" stroke="#000" stroke-linejoin="round"/><path d="M9.998 5a1 1 0 0 1 .865 1.5h3.133a.25.25 0 0 1 0 .5l-3.499-.001.001 6.073c.478.142.87.484 1.08.928h.927c.241 0 .442.168.483.407l.008.093a.5.5 0 0 1-.49.5H7.49a.488.488 0 0 1-.491-.5.5.5 0 0 1 .49-.5h.927c.21-.444.603-.786 1.081-.928V6.999L6 7a.25.25 0 0 1-.244-.193L5.75 6.75A.25.25 0 0 1 6 6.5h3.132A1 1 0 0 1 9.998 5ZM6.526 7.388a.25.25 0 0 1 .447 0l1.323 2.498h.202a1.75 1.75 0 1 1-3.498 0h.191Zm6.501 0a.25.25 0 0 1 .447 0l1.324 2.498H15a1.75 1.75 0 1 1-3.498 0h.191Zm.224.671-.988 1.827h2.095L13.25 8.059Zm-6.502 0-.987 1.827h2.095L6.75 8.059Z" fill="#000"/></g></svg>
