<svg width="18" height="20" viewBox="0 0 18 20" version="1.1" xmlns="http://www.w3.org/2000/svg" xmlns:xlink="http://www.w3.org/1999/xlink"><path d="M8.62805787,0.664807217 L8.50659752,0.834587155 L8.39347936,0.976730179 L8.23307599,1.15830338 C7.9150158,1.50204205 7.50911178,1.84849631 7.00781226,2.1737953 C5.52542931,3.13573053 3.54967701,3.70840863 1.00443692,3.68582167 C0.726571144,3.68335583 0.5,3.90792526 0.5,4.18580198 L0.5,4.66388959 C0.5,10.7178313 2.05009316,14.8076356 4.65614185,17.2725682 C5.58084099,18.1471953 6.57464834,18.75077 7.57124746,19.1311311 L7.76863378,19.203697 C8.28209064,19.3851628 8.69046711,19.471709 8.9499102,19.4975401 L8.953,19.454 L8.99860846,19.5 L9.06827436,19.496044 L9.2379084,19.4752917 L9.43616935,19.4418476 C9.73389845,19.3855188 10.0633243,19.2981461 10.4163078,19.1732569 C11.4158744,18.8195997 12.4127917,18.2374172 13.340063,17.3758424 C15.949483,14.9512978 17.5,10.8349699 17.5,4.66388959 L17.5,4.18580198 C17.5,3.90792558 17.2734294,3.68335628 16.9955639,3.68582166 C14.449825,3.70840888 12.4737528,3.13572429 10.9911955,2.17378164 C10.4898406,1.84848241 10.0839024,1.50202903 9.7658245,1.15829222 L9.60541507,0.976722279 L9.49229505,0.834582998 C9.46229484,0.79438035 9.43991354,0.761657482 9.42488849,0.737322395 C9.24579818,0.447261691 8.84422813,0.423089965 8.62805787,0.664807217 Z M8.999,1.814 L9.04594429,1.86527464 C9.37733882,2.22009643 9.83935027,2.61847253 10.4468914,3.01266958 L10.7113639,3.17776406 C12.1450562,4.0384133 13.9501469,4.57874758 16.1576843,4.67201208 L16.5,4.682 L16.5,4.66388959 C16.5,10.5729873 15.0502572,14.4217789 12.659384,16.6432606 C11.8364688,17.4078728 10.9581255,17.9208102 10.082759,18.230524 C9.77931952,18.3378841 9.49915851,18.4121904 9.25027214,18.4592784 L9.006,18.497 L8.85892712,18.4737982 C8.63586018,18.4313162 8.31669451,18.345281 7.92781932,18.1968632 C7.04954805,17.861663 6.16848502,17.326562 5.34330513,16.5460652 L5.1460338,16.3537771 C2.93530076,14.1333637 1.57904083,10.5105451 1.50334494,5.1421136 L1.5,4.682 L1.84217035,4.67201194 C4.18728513,4.57291743 6.07820974,3.96911813 7.55215851,3.01265593 C8.15963224,2.61845928 8.62160198,2.22008537 8.95297328,1.86526697 L8.999,1.814 Z"></path><path d="M8.99753301,5 C9.5495453,5 9.9970396,5.44771525 9.9970396,6 C9.9970396,6.18219703 9.9483379,6.35301356 9.8632485,6.5001295 L12.9955594,6.5 C13.1335625,6.5 13.2454361,6.61192881 13.2454361,6.75 C13.2454361,6.88807119 13.1335625,7 12.9955594,7 L12.9955594,7 L9.497,6.999 L9.4981043,13.0715892 C9.9760422,13.2141568 10.3682806,13.5556272 10.5788891,14.0000229 L11.5052899,14 C11.7462151,14 11.9465921,14.1675649 11.988146,14.4070209 L11.9960528,14.5 C11.9960528,14.7761424 11.7682848,15 11.5052899,15 L6.48977613,15 C6.21873525,15 5.99901321,14.7879257 5.99901321,14.5 C5.99901321,14.2238576 6.22678125,14 6.48977613,14 L7.41617698,14.0000229 C7.62678547,13.5556272 8.01902379,13.2141568 8.49696169,13.0715892 L8.497,6.999 L4.9995066,7 C4.88121826,7 4.78212709,6.91776659 4.75622937,6.80732271 L4.74962995,6.75 C4.74962995,6.61192881 4.86150354,6.5 4.9995066,6.5 L4.9995066,6.5 L8.13181749,6.5001295 C8.0467281,6.35301356 7.99802641,6.18219703 7.99802641,6 C7.99802641,5.44771525 8.44552076,5 8.99753301,5 Z"></path><path d="M5.52564008,7.3881966 C5.61772569,7.20393447 5.88054742,7.20393447 5.97263303,7.3881966 L5.97263303,7.3881966 L7.29598378,9.88577016 C7.35946902,9.88585886 7.40981783,9.88597254 7.44440888,9.88611516 L7.49827311,9.886629 C7.49827311,10.8531273 6.715158,11.636629 5.74913655,11.636629 C4.78311511,11.636629 4,10.8531273 4,9.886629 C4.05133112,9.886629 4.11595511,9.88661355 4.19148464,9.88658626 L5.52564008,7.3881966 Z"></path><path d="M12.027367,7.3881966 C12.1194526,7.20393447 12.3822743,7.20393447 12.4743599,7.3881966 L12.4743599,7.3881966 L13.7977107,9.88577016 C13.8611959,9.88585886 13.9115447,9.88597254 13.9461358,9.88611516 L14,9.886629 C14,10.8531273 13.2168849,11.636629 12.2508634,11.636629 C11.284842,11.636629 10.5017269,10.8531273 10.5017269,9.886629 C10.5530128,9.886629 10.6175681,9.88661357 10.6930119,9.88658633 L12.027367,7.3881966 Z"></path><path d="M12.2508634,8.05901699 L11.2632222,9.88630679 C11.9129171,9.88595023 12.7760172,9.88543516 13.3578258,9.88551257 L12.2508634,8.05901699 Z"></path><path d="M5.74913655,8.05901699 L4.76237125,9.8863063 C5.41232048,9.88594957 6.27549369,9.88543463 6.85705122,9.8855127 L5.74913655,8.05901699 Z"></path></svg>