<svg width="20" height="18" viewBox="0 0 20 18" xmlns="http://www.w3.org/2000/svg"><path d="M10.46.297a.471.471 0 0 0-.568.135L5 5.324H1.297C.567 5.324 0 5.892 0 6.594v4.622c0 .676.568 1.298 1.297 1.298h3.73l4.892 4.837c.108.108.216.19.351.19.298 0 .514-.298.514-.568V.811c-.027-.243-.135-.433-.325-.514zm1.648 6.217c1.526 1.324 1.526 3.405 0 4.756l1.924 1.568c2.72-2.216 2.72-5.757 0-7.892l-1.924 1.568zm3.135-3.19c3.054 3.054 3.054 8.054 0 11.135l1.595 1.595a10.065 10.065 0 0 0 0-14.297l-1.595 1.567z"/></svg>