<svg xmlns="http://www.w3.org/2000/svg" width="20" height="20" viewBox="0 0 20 20"><path d="M10 0a10 10 0 1 0 10 10A10 10 0 0 0 10 0zm6.5 4.8a1 1 0 0 0-.8 1.1 1.08 1.08 0 0 0 .8 1.1v.6a1 1 0 0 0-.8 1.1 1.08 1.08 0 0 0 .8 1.1v.6a1 1 0 0 0-.8 1.1 1.08 1.08 0 0 0 .8 1.1v.6a1 1 0 0 0-.8 1.1 1.08 1.08 0 0 0 .8 1.1v1.1h-1.1a1.12 1.12 0 0 0-2.2 0h-.6a1.12 1.12 0 0 0-2.2 0h-.6a1.09 1.09 0 0 0-1.1-.9 1.17 1.17 0 0 0-1.1.9H7a1.09 1.09 0 0 0-1.1-.9 1.17 1.17 0 0 0-1.1.9H3.7v-1.1a1 1 0 0 0 .8-1.1 1.08 1.08 0 0 0-.8-1.1v-.6a1 1 0 0 0 .8-1.1 1.08 1.08 0 0 0-.8-1.1v-.6a1 1 0 0 0 .8-1.1 1.08 1.08 0 0 0-.8-1.1V7a1 1 0 0 0 .8-1.1 1.08 1.08 0 0 0-.8-1.1V3.7h1.2a1.08 1.08 0 0 0 1 .8 1 1 0 0 0 1-.8h.7a1.08 1.08 0 0 0 1 .8 1 1 0 0 0 1-.8h.7a1.08 1.08 0 0 0 1 .8 1 1 0 0 0 1-.8h.7a1.08 1.08 0 0 0 1 .8 1 1 0 0 0 1-.8h1.48v1.1z"/><path d="M5.7 6.5h3.7v3.7H5.7zM10 8h4.6v.9H10zM5.7 12.3h8.9v.9H5.7zM5.7 10.8h8.9v.9H5.7zM10 9.4h4.6v.9H10zM10 6.6h4.6v.9H10z"/></svg>