<svg width="20" height="19" viewBox="0 0 20 19" xmlns="http://www.w3.org/2000/svg"><path d="M10.598.49l2.7 5.452 6.027.871c.056.008.135.03.236.063a.71.71 0 0 1 .362.25.421.421 0 0 1 .053.401.982.982 0 0 1-.287.413l-4.354 4.257 1.033 5.998c.037.196.034.364-.011.502-.051.157-.144.262-.28.304a.7.7 0 0 1-.445-.013 1.392 1.392 0 0 1-.222-.096l-5.39-2.832-5.39 2.851c-.267.121-.48.156-.64.107-.282-.091-.389-.361-.32-.81l1.026-6L.333 7.952c-.266-.246-.362-.484-.289-.71.076-.232.293-.369.65-.41l6.03-.886L9.414.487c.205-.408.45-.564.732-.472.165.057.318.214.451.476z"/></svg>