<svg xmlns="http://www.w3.org/2000/svg" width="20" height="20" viewBox="0 0 20 20"><path d="M7.68 8.64a.25.25 0 0 1-.29.24c-.28 0-.31-.26-.31-.49-.2 0-.39 0-.39.23S7 9 7.35 9A.61.61 0 0 0 8 8.41.56.56 0 0 0 7.73 8a.56.56 0 0 0 .48-.54c0-.59-1.09-.63-1.09-1.07a.25.25 0 0 1 .29-.24c.28 0 .31.26.31.49.2 0 .39 0 .39-.23S7.83 6 7.45 6a.61.61 0 0 0-.68.58.55.55 0 0 0 .3.45.56.56 0 0 0-.48.54c0 .58 1.09.62 1.09 1.07zm-.46-1.52a1 1 0 0 1 .63.48.28.28 0 0 1-.26.28A1 1 0 0 1 7 7.39a.28.28 0 0 1 .22-.27z"/><path d="M15.27 3.56H4.51A.47.47 0 0 0 4 4v12.44a.47.47 0 0 0 .47.47h10.8a.47.47 0 0 0 .47-.47V4a.47.47 0 0 0-.47-.44zM7.39 5.13a2.33 2.33 0 1 1-2.32 2.33 2.32 2.32 0 0 1 2.32-2.33zm6.33 9.09h-7.9a.5.5 0 1 1 0-1h7.9a.5.5 0 1 1 0 1zm0-2h-7.9a.5.5 0 1 1 0-1h7.9a.5.5 0 1 1 0 1.04zm0-2.25H11a.5.5 0 1 1 0-1h2.69a.5.5 0 1 1 .03 1.03zm0-2H11a.5.5 0 1 1 0-1h2.69A.5.5 0 1 1 13.72 8zm0-2H11a.5.5 0 1 1 0-1h2.69a.5.5 0 1 1 .03 1.12z"/></svg>