<svg xmlns="http://www.w3.org/2000/svg" width="20" height="20" viewBox="0 0 20 20"><path d="M10 0a10 10 0 1 0 10 10A10 10 0 0 0 10 0zm-.2 3a.45.45 0 0 1 .4.3l.4 2.9a.33.33 0 0 1-.3.4l-.7.2L9 3.1zm.9 13.6a6.05 6.05 0 0 1-1.5-.2A15 15 0 0 1 6.4 11a16.4 16.4 0 0 1-.3-6.1A4.14 4.14 0 0 1 7.3 4a4.88 4.88 0 0 1 1.3-.6l.6 3.7a1.47 1.47 0 0 0-.4.2c-.3.2-.4.2-.3.7 0 .3.2 1.2.4 2.3a19.93 19.93 0 0 0 .8 2.2.64.64 0 0 0 .7.5h.5l1.4 3.5c-.5 0-1.1.1-1.6.1zm2.6-.5l-.6.2-1.3-3.5.7-.2a.3.3 0 0 1 .4.2l1.1 2.7z"/></svg>