<svg xmlns="http://www.w3.org/2000/svg" width="20" height="20" viewBox="0 0 20 20"><path d="M12.82 11.5c-.88-.65-1.12-.95-1.12-1.5s.21-.82 1.06-1.48a5.38 5.38 0 0 0 2.74-5.13 1.53 1.53 0 0 0-1.34-1.5 40.14 40.14 0 0 0-8.26 0 1.53 1.53 0 0 0-1.4 1.5 5.38 5.38 0 0 0 2.69 5.09c.87.65 1.11.94 1.11 1.52s-.24.85-1.12 1.5a5.39 5.39 0 0 0-2.68 5.09 1.53 1.53 0 0 0 1.34 1.5h.32a37.32 37.32 0 0 0 7.68 0h.32a1.53 1.53 0 0 0 1.34-1.5 5.37 5.37 0 0 0-2.68-5.09zm.65 3.07l-.81.12a21.21 21.21 0 0 1-5.33 0l-.81-.12a.23.23 0 0 1-.19-.31 1.55 1.55 0 0 1 .08-.19A4.09 4.09 0 0 1 8 12.44c1.23-.91 1.71-1.5 1.67-2.64a.29.29 0 0 1 .33-.29.29.29 0 0 1 .29.28c0 1.14.44 1.73 1.67 2.64a4.09 4.09 0 0 1 1.63 1.63 1.55 1.55 0 0 1 .08.19.23.23 0 0 1-.2.32z"/></svg>