<svg id="training" xmlns="http://www.w3.org/2000/svg" width="20" height="15.94" viewBox="0 0 20 15.94"><defs/><path class="cls-1" d="M4.81 9.26a.53.53 0 0 0 .77 0l1.9-2.11a.56.56 0 0 0 .16-.39.55.55 0 0 0-.54-.56.53.53 0 0 0-.38.16L5.19 8.08l-.82-.58A.53.53 0 0 0 4 7.34a.55.55 0 0 0-.54.56.56.56 0 0 0 .16.39z"/><path class="cls-1" d="M.69 13.86a2 2 0 0 0 2 2h14.63a2 2 0 0 0 2-2V3.45H.69v10.41zm9.43-8.53h6a.69.69 0 1 1 0 1.38h-6a.69.69 0 1 1 0-1.37zm0 2.77h6a.69.69 0 1 1 0 1.38h-6a.69.69 0 1 1 0-1.37zm0 2.76h6a.69.69 0 1 1 0 1.38h-6a.69.69 0 1 1 0-1.37zm-4.6-6a2.76 2.76 0 1 1-2.76 2.73 2.76 2.76 0 0 1 2.76-2.76zM19 0H1a1 1 0 0 0-1 1v.76a1 1 0 0 0 .69.95h18.62a1 1 0 0 0 .69-.95V1a1 1 0 0 0-1-1z"/></svg>