<svg width="20" height="20" viewBox="0 0 20 20" xmlns="http://www.w3.org/2000/svg"><path d="M10 20c5.523 0 10-4.477 10-10S15.523 0 10 0 0 4.477 0 10s4.477 10 10 10zm2.227-15c.94-.016 1.44.325 1.917.76.406-.036.933-.261 1.243-.418l.302-.165c-.177.478-.418.851-.787 1.135-.082.063-.164.148-.266.188v.006c.526-.006.96-.242 1.373-.37v.005c-.217.343-.51.691-.823.941l-.379.3c.007.555-.008 1.085-.112 1.552-.606 2.713-2.211 4.555-4.752 5.344-.913.284-2.387.4-3.432.142a8.887 8.887 0 0 1-1.427-.465 5.716 5.716 0 0 1-.686-.353l-.213-.13c.236.008.512.073.775.03.239-.038.472-.028.693-.076.548-.12 1.036-.279 1.455-.523.204-.119.513-.258.657-.43a2.06 2.06 0 0 1-.722-.129c-.785-.276-1.241-.784-1.538-1.546.237.026.922.087 1.083-.047-.3-.017-.588-.19-.793-.318-.632-.393-1.146-1.054-1.142-2.07l.248.118c.158.067.32.103.509.141.08.017.24.064.331.03H5.73c-.122-.142-.32-.236-.443-.388C4.88 7.762 4.5 6.99 4.74 6.07c.061-.233.158-.44.26-.63l.012.006c.048.099.153.171.22.253.206.256.461.485.721.688.886.69 1.684 1.115 2.965 1.429.325.08.7.14 1.089.141-.11-.316-.074-.828.012-1.135.216-.77.685-1.325 1.373-1.622.164-.072.347-.123.538-.165L12.227 5z"/></svg>