<svg width="20" height="12" viewBox="0 0 20 12" xmlns="http://www.w3.org/2000/svg"><path d="M11.014 12l1.067 5.37c.185.857 1.069 1.606 2.067 1.606h1.78c.999 0 1.882-.749 2.068-1.607l1.744-8.83a2.131 2.131 0 0 0-1.915-2.508 4.5 4.5 0 0 1-2.821.988 4.5 4.5 0 0 1-2.815-.982 2.13 2.13 0 0 0-1.89 2.116c0 .133.006.26.028.386L11 11.928V12h.014zm1.334-1.5l-.452-2.273c.005.025.003-.006.003-.074 0-.27 1.702.466 3.105.466 1.407 0 3.173-.74 3.173-.466a.629.629 0 0 1-.012.106l-.443 2.241h-5.374zm.297 1.5l1 5.03c.03.145.282.346.503.346h1.78c.222 0 .473-.2.498-.317l1-5.059h-4.78zm-4.82-5.97A2.131 2.131 0 0 1 9.74 8.54l-1.744 8.83c-.186.858-1.07 1.607-2.067 1.607H4.148c-.998 0-1.882-.749-2.067-1.607L.327 8.54A2.192 2.192 0 0 1 .3 8.153a2.13 2.13 0 0 1 1.89-2.116 4.5 4.5 0 0 0 2.815.982 4.5 4.5 0 0 0 2.822-.988zm-2.9-.751c1.45 0 2.625-1.17 2.625-2.611A2.618 2.618 0 0 0 4.925.056 2.618 2.618 0 0 0 2.3 2.668a2.618 2.618 0 0 0 2.625 2.61zm10.1.298a2.768 2.768 0 0 1-2.775-2.76 2.768 2.768 0 0 1 2.775-2.76 2.768 2.768 0 0 1 2.775 2.76 2.768 2.768 0 0 1-2.775 2.76zm0-1.6c.65 0 1.175-.521 1.175-1.16 0-.64-.524-1.16-1.175-1.16-.65 0-1.175.52-1.175 1.16 0 .639.524 1.16 1.175 1.16z"/></svg>