<svg id="update" xmlns="http://www.w3.org/2000/svg" width="20" height="20" viewBox="0 0 20 20"><defs/><path class="cls-1" d="M10.76 15.86a.6.6 0 0 0 0-1.21H4.09a.6.6 0 0 0 0 1.21h6.66zm4-2.87a.6.6 0 0 0 0-1.21H4.09a.6.6 0 0 0 0 1.21h10.67zm.07-2.77a.61.61 0 0 0 0-1.22H4a.61.61 0 0 0 0 1.22h10.8zm4.82-7.5A2.36 2.36 0 1 1 17.29.35a2.36 2.36 0 0 1 2.36 2.36zm-4.3 3.72v.2a1 1 0 0 1-1 1H4.51a1 1 0 0 1-1-1V5.49a1 1 0 0 1 1-1h9a4.21 4.21 0 0 0 1.84 1.94zm3.65.11v13a.5.5 0 0 1-.49.5h-18a.5.5 0 0 1-.51-.54V1.28a.49.49 0 0 1 .49-.5h13.08a4.16 4.16 0 0 0-.49 1.93v.07H2V18h15V6.89h.29A4.18 4.18 0 0 0 19 6.55z"/></svg>