<svg width="20" height="7" viewBox="0 0 20 7" xmlns="http://www.w3.org/2000/svg"><path d="M1.256.117v3.636c0 .48.121.825.364 1.035.243.21.557.315.94.315.385 0 .698-.105.941-.315.243-.21.365-.555.365-1.035V.117h1.062v3.636c0 .744-.207 1.318-.621 1.723-.414.406-.996.608-1.746.608S1.229 5.882.815 5.477C.4 5.07.194 4.496.194 3.752V.117h1.062zm3.857 5.669a.595.595 0 0 1-.185-.45c0-.182.061-.335.185-.458a.641.641 0 0 1 .473-.184c.193 0 .354.061.482.184a.608.608 0 0 1 .193.458.583.583 0 0 1-.193.45.686.686 0 0 1-.482.176.657.657 0 0 1-.473-.176zm6.789 0a.595.595 0 0 1-.185-.45c0-.182.061-.335.185-.458a.641.641 0 0 1 .473-.184c.193 0 .354.061.482.184a.608.608 0 0 1 .193.458.583.583 0 0 1-.193.45.686.686 0 0 1-.482.176.657.657 0 0 1-.473-.176zm6.756 0a.595.595 0 0 1-.185-.45c0-.182.062-.335.185-.458a.641.641 0 0 1 .474-.184c.192 0 .353.061.481.184a.608.608 0 0 1 .193.458.583.583 0 0 1-.193.45.686.686 0 0 1-.481.176.657.657 0 0 1-.474-.176zm-8.332-4.058c-.096-.51-.456-.765-1.08-.765-.306 0-.545.061-.716.184-.171.124-.256.272-.256.446s.055.31.166.41c.111.099.284.19.518.274l1.269.495c.432.168.765.38.999.635.234.255.35.574.35.958 0 .528-.197.946-.593 1.255-.396.31-.96.464-1.692.464-.648 0-1.173-.159-1.575-.477-.45-.348-.687-.84-.711-1.476h1.053c0 .48.249.783.747.909.15.042.348.063.594.063s.474-.061.684-.184c.21-.124.315-.288.315-.495 0-.208-.057-.366-.171-.478-.114-.11-.3-.214-.558-.31l-1.161-.459c-.45-.174-.795-.378-1.035-.612-.24-.234-.36-.558-.36-.972 0-.486.189-.87.567-1.152C8.064.147 8.584 0 9.24 0c.657 0 1.164.151 1.521.455.357.303.563.727.617 1.273h-1.053zM16.056 0a3 3 0 0 1 .935.13c.264.088.492.209.684.365.378.306.624.735.738 1.287l-1.134.207a1.69 1.69 0 0 0-.445-.743 1.055 1.055 0 0 0-.752-.283c-.408 0-.738.171-.99.513-.27.372-.405.886-.405 1.543 0 .658.12 1.17.36 1.54.24.369.567.553.981.553.414 0 .726-.1.936-.301.21-.202.315-.461.315-.779h1.143c0 .654-.208 1.16-.625 1.516-.417.358-.989.536-1.715.536-.774 0-1.389-.27-1.845-.81-.462-.552-.693-1.302-.693-2.25 0-.96.237-1.71.711-2.25.456-.516 1.056-.774 1.8-.774z"/></svg>