<svg id="youtube-circle" xmlns="http://www.w3.org/2000/svg" width="20" height="20" viewBox="0 0 20 20"><defs/><path class="cls-1" d="M10 0a10 10 0 1 0 10 10A10 10 0 0 0 10 0zm1.42 4.71h.71v2.72a.29.29 0 0 0 0 .18.17.17 0 0 0 .14.06.41.41 0 0 0 .2-.07.93.93 0 0 0 .22-.19v-2.7h.71v3.55h-.66v-.39a1.49 1.49 0 0 1-.41.33.88.88 0 0 1-.41.11.45.45 0 0 1-.37-.16.76.76 0 0 1-.13-.48v-3zm-2.65.81a.81.81 0 0 1 .29-.66 1.16 1.16 0 0 1 .77-.24 1 1 0 0 1 .73.26.86.86 0 0 1 .28.66v1.84a.93.93 0 0 1-.28.71 1.08 1.08 0 0 1-.77.26 1 1 0 0 1-.75-.27 1 1 0 0 1-.28-.72V5.52zM6.83 3.45l.52 1.92h.05l.5-1.92h.81l-.93 2.81v2H7V6.35l-1-2.9h.83zm8.08 12.91c-.52.52-4.91.53-4.91.53s-4.39 0-4.91-.53-.52-3.09-.52-3.11 0-2.59.52-3.11S10 9.61 10 9.61s4.39 0 4.91.53.53 3.09.53 3.11-.01 2.58-.53 3.11zM9.8 7.74a.32.32 0 0 0 .2-.09.3.3 0 0 0 .09-.22V5.49a.23.23 0 0 0-.09-.18.35.35 0 0 0-.2-.08.31.31 0 0 0-.21.07.24.24 0 0 0-.08.19v1.94a.32.32 0 0 0 .08.23.29.29 0 0 0 .21.08zm-4.19 3.92h.74v3.74h.71v-3.74h.74V11H5.61v.63zm7.88.43a1 1 0 0 0-.69.26.92.92 0 0 0-.27.68v1.45a1 1 0 0 0 .25.73.87.87 0 0 0 .67.27.94.94 0 0 0 .71-.25 1 1 0 0 0 .24-.75v-.16h-.66v.15a.7.7 0 0 1-.06.37.26.26 0 0 1-.22.08.24.24 0 0 1-.22-.1.72.72 0 0 1-.06-.35v-.61h1.21V13a1 1 0 0 0-.23-.7.88.88 0 0 0-.67-.21zm.25 1.27h-.56V13a.49.49 0 0 1 .07-.29.25.25 0 0 1 .22-.09.24.24 0 0 1 .21.09.48.48 0 0 1 .07.29v.33zm-2.16-1.23a.62.62 0 0 0-.29.08 1 1 0 0 0-.27.22V11h-.65v4.37H11v-.23a.81.81 0 0 0 .27.22.74.74 0 0 0 .33.07.52.52 0 0 0 .4-.18.81.81 0 0 0 .15-.52v-1.79a1 1 0 0 0-.16-.6.55.55 0 0 0-.42-.21zm0 2.51a.35.35 0 0 1-.06.22.2.2 0 0 1-.17.07.35.35 0 0 1-.15 0 .54.54 0 0 1-.2-.15v-2a.47.47 0 0 1 .13-.1.3.3 0 0 1 .13 0 .24.24 0 0 1 .2.08.39.39 0 0 1 .07.25v1.67zm-2.28 0a.9.9 0 0 1-.2.17.35.35 0 0 1-.18.07.16.16 0 0 1-.13-.05.28.28 0 0 1 0-.17v-2.49h-.71v2.7a.71.71 0 0 0 .11.43.39.39 0 0 0 .33.14.76.76 0 0 0 .37-.1 1.35 1.35 0 0 0 .37-.34v.35h.63v-3.18h-.63v2.45z"/></svg>