<svg width="20" height="20" viewBox="0 0 20 20" xmlns="http://www.w3.org/2000/svg"><g fill="none"><circle fill="#FFF" cx="10" cy="10" r="10"/><path d="M8.67 11.952v-3.98l3.497 1.99-3.498 1.99Zm7.78-5.232a1.682 1.682 0 0 0-1.183-1.191c-1.044-.282-5.229-.282-5.229-.282s-4.185 0-5.229.282a1.682 1.682 0 0 0-1.183 1.19c-.28 1.051-.28 3.243-.28 3.243s0 2.192.28 3.242a1.68 1.68 0 0 0 1.183 1.191c1.044.282 5.229.282 5.229.282s4.185 0 5.23-.282a1.682 1.682 0 0 0 1.182-1.19c.28-1.051.28-3.243.28-3.243s0-2.192-.28-3.242Z" fill="#000"/></g></svg>
