<svg width="20" height="20" viewBox="0 0 20 20" xmlns="http://www.w3.org/2000/svg"><g fill="none"><circle fill="#FFF" cx="10" cy="10" r="10"/><path d="m9.435 5.25.714-.003 1.195.014c1.32.023 3.259.088 3.923.268a1.68 1.68 0 0 1 1.183 1.19c.245.92.276 2.713.28 3.147l-.003.398c-.011.638-.06 2.13-.277 2.94a1.682 1.682 0 0 1-1.183 1.191c-.82.221-3.577.269-4.723.279H9.532c-1.146-.01-3.903-.058-4.723-.279a1.682 1.682 0 0 1-1.183-1.19c-.203-.76-.259-2.119-.274-2.811l-.006-.476c.002-.313.023-2.235.28-3.198a1.682 1.682 0 0 1 1.183-1.191c.797-.215 3.429-.266 4.626-.278Z" fill="#000"/><path fill="#FFF" d="M8.67 7.972v3.98l3.497-1.99z"/></g></svg>
