<svg width="20" height="20" viewBox="0 0 20 20" xmlns="http://www.w3.org/2000/svg"><path d="M10 0c5.523 0 10 4.477 10 10s-4.477 10-10 10S0 15.523 0 10 4.477 0 10 0Zm.149 5.247-.714.004-.975.015-1.032.03c-1.065.038-2.154.107-2.619.233a1.682 1.682 0 0 0-1.183 1.19c-.257.964-.278 2.886-.28 3.2l.006.475.015.485c.029.726.097 1.717.259 2.325a1.68 1.68 0 0 0 1.183 1.191c.82.221 3.577.269 4.723.279h1.012l.964-.014 1.05-.028c1.093-.038 2.23-.108 2.71-.237a1.682 1.682 0 0 0 1.182-1.19c.216-.812.266-2.303.277-2.94l.002-.4c-.003-.433-.034-2.226-.279-3.145a1.682 1.682 0 0 0-1.183-1.191c-.664-.18-2.602-.245-3.923-.268l-1.195-.014Z"/><path d="M8.67 7.972v3.98l3.497-1.99z"/></svg>
